<svg width="121" height="32" viewBox="0 0 121 32" fill="none" xmlns="http://www.w3.org/2000/svg">
<path d="M83.7001 16L79.6001 11.9L75.5001 16L79.6001 20.1L83.7001 16ZM102.1 16L98.5001 12.5L94.9001 16.1L98.5001 19.7L102.1 16ZM120.5 16L117.4 12.9L114.3 16L117.4 19.1L120.5 16ZM46.8001 16L41.7001 10.9L36.6001 16L41.7001 21.1L46.8001 16ZM65.3001 16L60.7001 11.4L56.1001 16L60.7001 20.6L65.3001 16ZM0.500073 16.9C1.00007 25.2 8.20007 31.6 16.5001 31.1C24.8001 30.6 31.2001 23.4 30.7001 15.1C30.2001 6.79997 23.0001 0.399975 14.7001 0.899975C6.40007 1.39998 7.27773e-05 8.59997 0.500073 16.9ZM12.3001 26.5C9.90007 25.7 7.80007 24.1 6.50007 22C7.10007 21.6 7.70007 21.4 8.40007 21.3C10.6001 21.2 12.4001 22.8 12.5001 25C12.6001 25.5 12.5001 26 12.3001 26.5ZM24.2001 9.69998C25.5001 11.4 26.3001 13.4 26.4001 15.6C26.4001 15.9 26.4001 16.2 26.4001 16.6C24.5001 16.5 22.9001 14.9 22.8001 13C22.7001 11.6 23.2001 10.5 24.2001 9.69998ZM24.7001 22.1C23.3001 24.2 21.3001 25.8 18.8001 26.5C18.7001 26.2 18.6001 25.9 18.6001 25.5C18.5001 23.3 20.1001 21.5 22.3001 21.4C23.1001 21.4 24.0001 21.7 24.7001 22.1ZM15.0001 5.49998C16.6001 5.39998 18.1001 5.69998 19.5001 6.19998C19.0001 7.69998 17.7001 8.79997 16.0001 8.89997C14.2001 8.99998 12.5001 7.79998 12.0001 6.09998C12.9001 5.79997 13.9001 5.59998 15.0001 5.49998ZM11.2001 16.7L12.6001 12.8C12.8001 12.4 13.2001 12.1 13.6001 12.1L17.7001 12.2C18.2001 12.2 18.6001 12.5 18.7001 13L19.9001 17C20.0001 17.4 19.9001 17.9 19.5001 18.2L16.1001 20.6C15.7001 20.9 15.2001 20.9 14.8001 20.6L11.5001 18.1C11.2001 17.7 11.1001 17.2 11.2001 16.7ZM6.70007 10.2C8.20007 11.1 8.90007 12.9 8.30007 14.7C7.80007 16.3 6.40007 17.3 4.90007 17.4C4.90007 17.2 4.80007 17.1 4.80007 16.9C4.70007 14.4 5.40007 12.1 6.70007 10.2Z" fill="#47B8AB"/>
</svg>
