<svg width="143" height="38" viewBox="0 0 143 38" fill="none" xmlns="http://www.w3.org/2000/svg">
<path d="M61.3831 29.823C60.5051 29.823 60.1298 28.6523 60.1298 25.4307C60.1298 23.7585 60.9436 23.3407 63.2643 23.3407C63.8737 23.3407 64.3603 23.3453 64.8274 23.3533C64.0872 25.6315 63.0944 29.823 61.3831 29.823ZM56.6775 27.6263C56.6775 28.479 56.759 29.2067 56.9071 29.823H44.6345C43.0025 29.823 41.9592 29.4454 41.9592 27.9396V23.7585H45.8247C46.1403 22.8185 46.3481 21.9588 46.4525 21.0418H41.9603C41.9787 19.7518 42.0728 18.5995 42.1669 17.2773C40.7036 17.7995 39.5547 18.4055 38.6125 19.4522V21.0418H36.6258C36.4593 22.1712 36.4593 23.0262 36.418 23.7585H38.6125V28.1496C38.6125 31.2232 40.474 32.5408 43.0243 32.5408H59.7098C61.7539 32.5408 63.3239 30.8651 64.8332 27.0731V32.5408H68.1776V21.0418C66.673 20.9156 65.2923 20.8306 63.7876 20.8306C59.6478 20.8306 56.6775 22.5465 56.6775 27.6263ZM74.2422 26.3511V25.2229C74.2422 23.7585 74.1366 22.504 73.9288 21.0418H70.6877C70.7921 22.504 70.8966 23.7585 70.8966 25.2229V32.5408H74.2422C74.2422 28.4411 75.5586 23.7791 79.0499 24.2818C79.0499 23.5496 78.9455 21.8762 78.7378 20.8306C76.1887 21.0521 74.94 23.2982 74.2422 26.3511ZM28.1579 29.823C27.2799 29.823 26.9034 28.6523 26.9034 25.4307C26.9034 23.7585 27.7195 23.3407 30.039 23.3407C30.6484 23.3407 31.1351 23.3453 31.6045 23.3533C30.8619 25.6315 29.8714 29.823 28.1579 29.823ZM23.4546 27.6263C23.4546 31.0981 24.7079 32.7497 26.3812 32.7497C28.4311 32.7497 30.0677 30.9351 31.6091 27.0673V32.5408H34.9547V21.0418C33.4489 20.9156 32.0693 20.8306 30.5624 20.8306C26.4226 20.8306 23.4546 22.5465 23.4546 27.6263ZM132.473 22.2951C132.473 19.4316 130.486 17.6951 126.932 17.6951C124.967 17.6951 123.525 18.1128 122.646 18.5329C122.144 19.2422 121.915 20.0594 121.6 21.3528C122.939 20.8306 124.234 20.414 126.2 20.414C127.768 20.414 129.024 21.0831 129.024 22.9229C129.024 24.9073 127.79 26.3511 121.077 30.2396C121.077 30.6585 121.099 31.4941 121.287 32.5408H132.367C132.683 31.5997 132.89 30.7641 132.995 29.823H123.564C128.276 28.2116 132.473 26.529 132.473 22.2951ZM15.5755 29.3295L15.4033 29.2365C13.3971 28.1714 10.6988 26.5417 10.6988 23.5714C10.6988 20.8513 12.4571 19.5762 14.5678 19.5762C16.9103 19.5762 18.3312 21.2277 18.3312 24.1154C18.3312 26.1032 17.2362 27.8569 15.5755 29.3295ZM21.9901 32.7497L16.4822 29.8127C19.5994 28.6799 21.8856 26.4453 21.8856 23.2776C21.8856 19.0115 18.6858 16.8595 14.5678 16.8595C10.7838 16.8595 7.14551 19.2847 7.14551 23.9685C7.14551 27.9201 10.156 30.2821 13.4591 32.0174L24.0801 37.5586C24.0801 35.1128 23.7885 33.7103 21.9901 32.7497ZM100.272 31.4941C99.3335 31.4941 96.4046 29.5911 96.4046 24.4918C96.4046 21.9806 97.8691 20.414 100.272 20.414C102.677 20.414 104.142 21.9806 104.142 24.4918C104.142 29.5911 101.215 31.4941 100.272 31.4941ZM100.272 17.6951C96.0924 17.6951 92.9545 20.204 92.9545 24.2818C92.9545 29.613 98.0779 32.7497 100.272 32.7497C102.469 32.7497 107.59 29.613 107.59 24.2818C107.59 20.204 104.456 17.6951 100.272 17.6951ZM100.319 23.3958C99.5883 23.9168 98.9605 24.5263 98.4073 25.2229C98.9605 25.9196 99.5883 26.5267 100.319 27.0501C101.051 26.5267 101.676 25.9196 102.234 25.2229C101.676 24.5263 101.051 23.9168 100.319 23.3958ZM119.51 22.2951C119.51 19.4316 117.523 17.6951 113.967 17.6951C112.003 17.6951 110.561 18.1128 109.681 18.5329C109.181 19.2422 108.95 20.0594 108.636 21.3528C109.975 20.8306 111.272 20.414 113.237 20.414C114.805 20.414 116.06 21.0831 116.06 22.9229C116.06 24.9073 114.827 26.3511 108.115 30.2396C108.115 30.6585 108.135 31.4941 108.324 32.5408H119.406C119.718 31.5997 119.928 30.7641 120.033 29.823H110.601C115.313 28.2116 119.51 26.529 119.51 22.2951ZM91.2812 22.2951C91.2812 19.4316 89.2968 17.6951 85.7423 17.6951C83.7762 17.6951 82.3336 18.1128 81.4567 18.5329C80.954 19.2422 80.7233 20.0594 80.4111 21.3528C81.7482 20.8306 83.0452 20.414 85.0112 20.414C86.5778 20.414 87.8323 21.0831 87.8323 22.9229C87.8323 24.9073 86.5985 26.3511 79.8878 30.2396C79.8878 30.6585 79.9084 31.4941 80.0978 32.5408H91.179C91.4935 31.5997 91.7012 30.7641 91.8045 29.823H82.3737C87.084 28.2116 91.2812 26.529 91.2812 22.2951Z" fill="#F0F1E4"/>
<path d="M119.829 12.7694C119.355 12.8888 118.834 13.0012 118.268 13.108C117.698 13.2147 116.994 13.2664 116.153 13.2664C115.324 13.2664 114.485 13.155 113.638 12.9301C112.791 12.7063 112.028 12.3447 111.348 11.8466C110.668 11.3497 110.11 10.6943 109.678 9.88404C109.243 9.07375 109.029 8.07983 109.029 6.90801C109.029 5.83145 109.208 4.88573 109.562 4.07545C109.917 3.26401 110.413 2.5903 111.045 2.04858C111.679 1.5103 112.432 1.1086 113.302 0.84233C114.172 0.574912 115.116 0.442925 116.134 0.442925C116.775 0.442925 117.396 0.503754 117.999 0.628855C118.604 0.75166 119.208 0.903159 119.81 1.08106L119.546 3.76441C119.013 3.46716 118.483 3.24794 117.957 3.10677C117.428 2.96446 116.88 2.8933 116.313 2.8933C115.72 2.8933 115.189 2.99315 114.715 3.1963C114.241 3.396 113.835 3.67489 113.497 4.02954C113.158 4.38648 112.898 4.80998 112.714 5.30121C112.53 5.79128 112.441 6.32727 112.441 6.90801C112.441 7.51171 112.543 8.05687 112.752 8.54351C112.957 9.02784 113.242 9.43872 113.604 9.7773C113.965 10.1136 114.4 10.3718 114.909 10.5497C115.418 10.7265 115.974 10.816 116.58 10.816C117.124 10.816 117.663 10.754 118.196 10.6289C118.729 10.5061 119.219 10.3546 119.669 10.1767L119.829 12.7694Z" fill="#F0F1E4"/>
<path d="M131.713 8.34634C131.713 9.20024 131.582 9.93249 131.322 10.55C131.061 11.1651 130.693 11.6747 130.213 12.0764C129.732 12.4804 129.158 12.7788 128.489 12.9739C127.82 13.1713 127.082 13.2666 126.276 13.2666C125.472 13.2666 124.735 13.1713 124.065 12.9739C123.397 12.7788 122.823 12.4804 122.342 12.0764C121.862 11.6747 121.494 11.1651 121.233 10.55C120.973 9.93249 120.842 9.20024 120.842 8.34634V0.654347H124.146V7.79659C124.146 8.21091 124.178 8.59769 124.244 8.95922C124.308 9.3219 124.423 9.63982 124.581 9.91871C124.741 10.1965 124.958 10.4157 125.23 10.5752C125.5 10.7359 125.852 10.8162 126.276 10.8162C126.703 10.8162 127.053 10.7359 127.326 10.5752C127.6 10.4157 127.814 10.1965 127.975 9.91871C128.133 9.63982 128.247 9.3219 128.312 8.95922C128.375 8.59769 128.41 8.21091 128.41 7.79659V0.654347H131.713V8.34634Z" fill="#F0F1E4"/>
<path d="M136.686 6.37466H137.538C137.823 6.37466 138.089 6.34712 138.338 6.29547C138.586 6.24038 138.803 6.14627 138.985 6.01084C139.169 5.87541 139.315 5.69636 139.421 5.47715C139.527 5.25908 139.581 4.98937 139.581 4.6703C139.581 4.34894 139.527 4.08267 139.421 3.87149C139.315 3.65802 139.169 3.48586 138.985 3.35502C138.803 3.22533 138.586 3.13237 138.338 3.08072C138.089 3.02563 137.823 2.99923 137.538 2.99923H136.686V6.37466ZM133.381 0.654446H137.324C139.232 0.654446 140.636 0.983839 141.537 1.64033C142.435 2.29912 142.886 3.32518 142.886 4.7231C142.886 5.9787 142.454 6.95885 141.589 7.6624C140.723 8.36825 139.515 8.71945 137.964 8.71945H136.686V13.0532H133.381V0.654446Z" fill="#F0F1E4"/>
<path d="M40.1221 0.654275H43.4975L45.0974 10.1769H45.133L46.8006 0.654275H50.9932L52.7343 10.1769H52.7711L54.387 0.654275H57.6029L54.8301 13.0542H50.5858L48.8275 3.53275H48.7908L47.1576 13.0542H42.8754L40.1221 0.654275Z" fill="#F0F1E4"/>
<path d="M61.1241 6.85463C61.1241 7.36536 61.1769 7.85888 61.2848 8.33862C61.3903 8.81722 61.5545 9.24073 61.7806 9.608C62.0055 9.97527 62.2959 10.2679 62.6528 10.4871C63.0075 10.7064 63.4321 10.8165 63.9314 10.8165C64.4272 10.8165 64.8564 10.7064 65.2111 10.4871C65.5657 10.2679 65.855 9.97527 66.0788 9.608C66.3049 9.24073 66.4713 8.81722 66.578 8.33862C66.6836 7.85888 66.7376 7.36536 66.7376 6.85463C66.7376 6.32323 66.6836 5.81594 66.578 5.33735C66.4713 4.8576 66.3049 4.43639 66.0788 4.07371C65.855 3.71448 65.5657 3.4264 65.2111 3.21292C64.8564 2.99945 64.4272 2.89501 63.9314 2.89501C63.4321 2.89501 63.0075 2.99945 62.6528 3.21292C62.2959 3.4264 62.0055 3.71448 61.7806 4.07371C61.5545 4.43639 61.3903 4.8576 61.2848 5.33735C61.1769 5.81594 61.1241 6.32323 61.1241 6.85463ZM57.7119 6.85463C57.7119 5.85956 57.8462 4.96549 58.1125 4.17241C58.3776 3.37934 58.7724 2.70678 59.2935 2.15702C59.8145 1.60612 60.4641 1.18147 61.2377 0.886501C62.0136 0.590391 62.9111 0.441188 63.9314 0.441188C64.9483 0.441188 65.8458 0.590391 66.6216 0.886501C67.3975 1.18147 68.046 1.60612 68.567 2.15702C69.0881 2.70678 69.4817 3.37934 69.7492 4.17241C70.0154 4.96549 70.1474 5.85956 70.1474 6.85463C70.1474 7.83707 70.0154 8.72541 69.7492 9.51962C69.4817 10.3138 69.0835 10.9887 68.5578 11.5442C68.031 12.1008 67.3803 12.5278 66.6033 12.8228C65.8297 13.12 64.9356 13.2681 63.9314 13.2681C62.9111 13.2681 62.0181 13.12 61.2469 12.8228C60.4802 12.5278 59.8306 12.1008 59.3026 11.5442C58.7758 10.9887 58.3776 10.3138 58.1125 9.51962C57.8462 8.72541 57.7119 7.83707 57.7119 6.85463Z" fill="#F0F1E4"/>
<path d="M74.6913 5.80654H75.5601C75.8218 5.80654 76.0973 5.79736 76.3865 5.779C76.678 5.76178 76.9385 5.70554 77.1692 5.61143C77.3999 5.51502 77.5927 5.37385 77.7454 5.18448C77.9003 4.99396 77.9761 4.7231 77.9761 4.36616C77.9761 4.08267 77.9095 3.84969 77.7718 3.66605C77.6364 3.48242 77.4596 3.3424 77.2404 3.24828C77.0212 3.15417 76.7664 3.0899 76.4749 3.05317C76.1856 3.01644 75.8815 2.99923 75.5601 2.99923H74.6913V5.80654ZM71.3882 0.654446H77.2852C77.828 0.654446 78.3456 0.717568 78.83 0.840374C79.3155 0.965475 79.7424 1.15944 80.1097 1.41997C80.4747 1.6805 80.7627 2.00416 80.9705 2.39438C81.1782 2.7869 81.2815 3.24828 81.2815 3.78082C81.2815 4.60947 81.0864 5.29122 80.6939 5.82491C80.3048 6.3563 79.7057 6.71783 78.9011 6.90835V6.94278C79.1617 7.01279 79.3717 7.12527 79.5324 7.28136C79.6919 7.43515 79.8308 7.62682 79.949 7.85751C80.0684 8.08935 80.1762 8.35562 80.2772 8.65747C80.3794 8.95932 80.5056 9.30019 80.6617 9.68008L81.868 13.0532H78.4237L77.711 10.8163C77.5445 10.2826 77.3873 9.84421 77.2404 9.50104C77.0923 9.15902 76.9305 8.88587 76.7606 8.68501C76.5885 8.48187 76.3934 8.34414 76.173 8.26725C75.9538 8.1892 75.6921 8.15133 75.3845 8.15133H74.6913V13.0532H71.3882V0.654446Z" fill="#F0F1E4"/>
<path d="M83.3062 0.654275H86.6093V10.6027H91.7258V13.0542H83.3062V0.654275Z" fill="#F0F1E4"/>
<path d="M96.1741 10.6024H97.4526C98.6956 10.6024 99.6494 10.2891 100.312 9.66016C100.975 9.03351 101.308 8.09927 101.308 6.85399C101.308 5.61102 100.968 4.67563 100.293 4.04783C99.6184 3.42003 98.6727 3.10555 97.4526 3.10555H96.1741V10.6024ZM92.8687 0.654031H97.3803C98.4592 0.654031 99.4485 0.75044 100.347 0.938664C101.248 1.12804 102.019 1.45743 102.667 1.9257C103.311 2.39282 103.816 3.02406 104.176 3.81714C104.537 4.60906 104.719 5.60528 104.719 6.8012C104.719 7.96269 104.534 8.93939 104.167 9.73246C103.8 10.5267 103.291 11.1683 102.639 11.6595C101.988 12.1507 101.213 12.5053 100.312 12.7246C99.4118 12.9438 98.4351 13.054 97.3803 13.054H92.8687V0.654031Z" fill="#F0F1E4"/>
<path fill-rule="evenodd" clip-rule="evenodd" d="M0.114258 0.654519V13.0544H3.97288V8.57606H6.7515L7.73968 5.8663H3.97288V3.35509H8.65097L9.63571 0.654519H0.114258Z" fill="#F0F1E4"/>
<path fill-rule="evenodd" clip-rule="evenodd" d="M10.8135 13.0535H14.6721V0.653521H10.8135V13.0535Z" fill="#F0F1E4"/>
<path fill-rule="evenodd" clip-rule="evenodd" d="M17.3408 0.654519V13.0544H21.2017V8.57606H23.9781L24.9662 5.8663H21.2017V3.35509H25.8775L26.8634 0.654519H17.3408Z" fill="#F0F1E4"/>
<path fill-rule="evenodd" clip-rule="evenodd" d="M32.8579 9.00555L31.3142 3.84082L29.8244 9.00555H32.8579ZM37.8975 13.0547H33.9998L33.496 11.3882H29.1347L28.6515 13.0547H24.8525L29.37 0.654763H33.3824L37.8975 13.0547Z" fill="#F0F1E4"/>
</svg>
