<svg width="144" height="315" viewBox="0 0 144 315" fill="none" xmlns="http://www.w3.org/2000/svg">
<path d="M37.4571 66.1257C34.9849 62.4901 33.52 57.9441 33.52 52.9949C33.52 40.7743 42.4918 30.8758 53.5694 30.8758C58.0553 30.8758 62.1747 32.491 65.471 35.2186L78.2879 21.078H65.471L53.4782 7.84656L41.4845 21.078H24.5482L24.5482 39.7635L12.5554 52.9949L24.5482 66.2274V80.368L37.4571 66.1257ZM55.4919 46.2284L61.4427 39.6629C59.1537 38.0467 56.4071 37.037 53.4782 37.037C45.5127 37.037 39.0132 44.2078 39.0132 52.9949C39.0132 56.2273 39.9284 59.2576 41.3933 61.783L47.3442 55.2176C47.252 52.49 47.4353 49.6619 47.8929 46.8338C50.4563 46.3289 53.0196 46.1267 55.4919 46.2284ZM82.4984 39.7635L82.4984 25.2196L69.4993 39.5613C72.0627 43.2986 73.6187 47.9451 73.6187 52.9949C73.6187 65.2165 64.6469 75.115 53.5694 75.115C48.9923 75.115 44.7808 73.3982 41.3933 70.5701L28.3932 84.9129L41.5766 84.9129L53.5694 98.1443L65.5621 84.9129H82.4984V66.2274L94.4922 52.9949L82.4984 39.7635ZM68.0344 52.9949C68.0344 49.6619 67.1182 46.5311 65.471 44.0056L59.7034 50.3689C59.7946 53.2987 59.6113 56.2273 59.1537 59.1571C56.4992 59.6619 53.8437 59.8641 51.1892 59.7625L45.4216 66.1257C47.7107 67.9441 50.5484 68.9539 53.5694 68.9539C61.5338 68.9539 68.0344 61.783 68.0344 52.9949Z" fill="#6F0625"/>
<path d="M101.132 37.5416L101.132 105.471L6.00667 105.471L6.00667 0.520854L67.5767 0.520854C86.068 0.520854 101.132 17.0411 101.132 37.5416Z" stroke="#8A1638" stroke-miterlimit="10"/>
<path d="M101.609 151.163C101.651 151.555 101.643 151.948 101.583 152.341C101.228 152.407 100.871 152.415 100.516 152.369C100.473 151.976 100.482 151.584 100.541 151.19C100.897 151.125 101.253 151.116 101.609 151.163ZM102.126 148.983C102.05 149.507 102.041 150.031 102.092 150.564C102.566 150.62 103.041 150.61 103.516 150.526C103.593 150.003 103.601 149.479 103.55 148.955C103.075 148.88 102.6 148.89 102.126 148.983ZM99.1419 152.958C99.0908 153.295 99.0828 153.632 99.1169 153.969C99.4223 154.005 99.7267 153.996 100.032 153.94C100.083 153.603 100.091 153.267 100.058 152.93C99.7437 152.893 99.4473 152.901 99.1419 152.958ZM97.0061 156.371C97.1413 156.39 97.2774 156.39 97.4126 156.363C97.4387 156.212 97.4387 156.063 97.4216 155.913C97.2855 155.894 97.1503 155.894 97.0141 155.923C96.9971 156.082 96.9971 156.222 97.0061 156.371ZM137.712 151.163C137.669 151.555 137.678 151.948 137.737 152.341C138.093 152.407 138.449 152.415 138.805 152.369C138.847 151.976 138.839 151.584 138.779 151.19C138.415 151.125 138.067 151.116 137.712 151.163ZM135.762 148.945C135.711 149.47 135.719 149.994 135.796 150.517C136.271 150.601 136.745 150.61 137.22 150.555C137.271 150.031 137.262 149.507 137.186 148.974C136.711 148.89 136.237 148.88 135.762 148.945ZM139.263 152.93C139.229 153.267 139.238 153.603 139.288 153.94C139.593 153.996 139.899 154.005 140.204 153.969C140.237 153.632 140.229 153.295 140.178 152.958C139.872 152.901 139.568 152.893 139.263 152.93ZM140.653 154.511C140.627 154.754 140.627 154.997 140.67 155.24C140.89 155.278 141.11 155.287 141.331 155.259C141.356 155.016 141.356 154.773 141.314 154.529C141.094 154.492 140.873 154.482 140.653 154.511ZM141.89 155.913C141.873 156.063 141.873 156.212 141.899 156.363C142.034 156.39 142.17 156.39 142.306 156.371C142.323 156.222 142.323 156.072 142.298 155.923C142.161 155.904 142.026 155.904 141.89 155.913ZM137.186 113.884C137.262 113.361 137.271 112.837 137.22 112.314C136.745 112.257 136.271 112.266 135.796 112.351C135.719 112.875 135.711 113.398 135.762 113.931C136.237 113.978 136.711 113.968 137.186 113.884ZM98.0064 154.529C97.9723 154.773 97.9643 155.016 97.9894 155.259C98.2097 155.287 98.43 155.278 98.6502 155.24C98.6843 154.997 98.6933 154.754 98.6673 154.511C98.439 154.482 98.2267 154.492 98.0064 154.529ZM98.6673 108.348C98.6933 108.104 98.6933 107.861 98.6502 107.618C98.43 107.581 98.2097 107.572 97.9894 107.6C97.9643 107.843 97.9643 108.086 98.0064 108.329C98.2267 108.376 98.439 108.376 98.6673 108.348ZM101.609 111.705C101.651 111.313 101.643 110.919 101.583 110.527C101.228 110.462 100.871 110.452 100.516 110.498C100.473 110.892 100.482 111.284 100.541 111.677C100.897 111.742 101.253 111.742 101.609 111.705ZM97.4296 106.944C97.4467 106.795 97.4467 106.646 97.4216 106.496C97.2855 106.468 97.1503 106.468 97.0141 106.487C96.9971 106.636 96.9971 106.787 97.0231 106.936C97.1583 106.954 97.2945 106.963 97.4296 106.944ZM100.049 109.928C100.083 109.591 100.074 109.255 100.024 108.919C99.7187 108.862 99.4132 108.852 99.1078 108.89C99.0748 109.227 99.0828 109.564 99.1339 109.901C99.4473 109.966 99.7437 109.966 100.049 109.928ZM138.771 111.677C138.83 111.284 138.839 110.892 138.796 110.498C138.441 110.452 138.084 110.462 137.729 110.527C137.669 110.919 137.661 111.313 137.703 111.705C138.067 111.742 138.415 111.742 138.771 111.677ZM141.314 108.329C141.347 108.086 141.356 107.843 141.331 107.6C141.11 107.572 140.89 107.572 140.67 107.618C140.635 107.861 140.627 108.104 140.653 108.348C140.873 108.376 141.094 108.376 141.314 108.329ZM140.178 109.91C140.229 109.573 140.237 109.237 140.204 108.9C139.899 108.862 139.593 108.862 139.288 108.927C139.238 109.264 139.229 109.601 139.263 109.937C139.568 109.966 139.872 109.966 140.178 109.91ZM142.306 106.487C142.17 106.468 142.034 106.468 141.899 106.496C141.873 106.646 141.873 106.795 141.89 106.944C142.026 106.963 142.161 106.963 142.298 106.936C142.315 106.787 142.323 106.636 142.306 106.487ZM103.55 113.922C103.601 113.398 103.593 112.875 103.516 112.341C103.041 112.257 102.566 112.247 102.092 112.304C102.041 112.827 102.05 113.351 102.126 113.874C102.6 113.968 103.075 113.978 103.55 113.922ZM140.551 131.766C140.491 136.115 139.348 140.174 137.406 143.615L143.688 136.685V137.676L125.326 157.942H124.428L130.675 151.05C127.547 153.201 123.868 154.455 119.927 154.511V157.942H119.299V154.511C115.392 154.436 111.738 153.182 108.636 151.05L114.884 157.942H113.985L95.6323 137.686V136.695L101.914 143.625C99.964 140.174 98.8205 136.124 98.7604 131.784H95.6243V131.083H98.7604C98.8205 126.744 99.964 122.685 101.906 119.244L95.6323 126.164V125.173L113.985 104.925H114.884L108.636 111.817C111.738 109.685 115.392 108.431 119.299 108.357V104.925H119.935V108.357C123.877 108.414 127.556 109.675 130.675 111.817L124.428 104.925H125.326L143.688 125.181V126.174L137.406 119.244C139.356 122.695 140.5 126.754 140.551 131.102C140.551 131.102 140.551 131.083 140.559 131.083H143.688V131.784H140.559C140.559 131.784 140.559 131.776 140.551 131.766ZM139.288 131.429C139.288 119.477 130.481 109.751 119.656 109.751C108.831 109.751 100.024 119.477 100.024 131.429C100.024 143.381 108.831 153.108 119.656 153.108C130.481 153.117 139.288 143.391 139.288 131.429ZM138.475 131.429C138.475 142.886 130.032 152.21 119.656 152.21C109.28 152.21 100.837 142.886 100.837 131.429C100.837 119.973 109.28 110.649 119.656 110.649C130.032 110.649 138.475 119.973 138.475 131.429ZM115.485 138.798C115.434 139.313 115.4 139.818 115.417 140.333C115.808 140.061 116.18 139.743 116.528 139.416C116.163 139.238 115.816 139.033 115.485 138.798ZM116.748 138.06C116.935 137.957 117.105 137.835 117.266 137.686C117.181 137.471 117.078 137.274 116.943 137.097C116.757 137.2 116.587 137.321 116.427 137.471C116.511 137.686 116.621 137.883 116.748 138.06ZM115.46 141.137C115.519 141.839 115.63 142.53 115.791 143.213C116.325 142.802 116.833 142.334 117.3 141.829C117.122 141.23 116.985 140.622 116.892 139.996C116.427 140.417 115.96 140.8 115.46 141.137ZM119.342 136.339V133.684C118.342 133.514 117.562 132.561 117.562 131.41C117.562 130.26 118.333 129.307 119.342 129.138V126.528C118.851 126.538 118.435 126.547 117.952 126.584C117.554 126.613 117.164 126.66 116.774 126.716C116.672 126.725 116.562 126.735 116.46 126.754C115.681 127.389 115.053 128.249 114.671 129.25H115.571V130.232C116.087 130.41 116.469 130.934 116.469 131.569C116.469 132.197 116.087 132.729 115.571 132.907V133.889H114.663C114.994 134.74 115.493 135.488 116.121 136.086C117.181 136.237 118.206 136.329 119.342 136.339ZM115.045 135.862C114.155 134.702 113.612 133.196 113.612 131.56C113.612 129.774 114.256 128.155 115.29 126.959C115.163 126.987 115.028 127.005 114.892 127.034C114.884 127.034 114.867 127.043 114.85 127.043C114.35 127.156 113.866 127.277 113.4 127.417C113.095 127.987 112.858 128.614 112.688 129.259C112.671 129.315 112.663 129.363 112.654 129.418C112.595 129.671 112.544 129.933 112.509 130.204C112.501 130.289 112.484 130.363 112.476 130.448C112.442 130.775 112.416 131.102 112.416 131.439C112.416 132.907 112.781 134.272 113.409 135.451C113.925 135.61 114.477 135.741 115.045 135.862ZM113.807 137.246C113.629 137.732 113.477 138.237 113.358 138.743C113.815 138.593 114.256 138.396 114.688 138.182C114.375 137.901 114.087 137.583 113.807 137.246ZM111.773 131.429C111.773 131.204 111.79 130.99 111.807 130.765C111.391 130.943 110.984 131.13 110.594 131.364C110.984 131.607 111.383 131.822 111.798 132.009C111.79 131.812 111.773 131.625 111.773 131.429ZM111.51 130.148C111.061 129.765 110.645 129.334 110.256 128.886C109.637 129.082 109.043 129.325 108.466 129.625C108.941 130.111 109.449 130.559 109.984 130.953C110.476 130.643 110.984 130.373 111.51 130.148ZM109.984 131.766C109.441 132.14 108.933 132.551 108.449 133.01C109.035 133.337 109.637 133.617 110.264 133.833C110.654 133.403 111.069 133.001 111.518 132.626C110.975 132.392 110.467 132.103 109.984 131.766ZM110.95 134.057C111.366 134.17 111.798 134.245 112.222 134.3C112.103 133.935 112.002 133.552 111.934 133.169C111.586 133.44 111.256 133.739 110.95 134.057ZM112.256 128.465C111.824 128.511 111.383 128.576 110.958 128.67C111.264 129.016 111.594 129.325 111.942 129.625C112.027 129.231 112.129 128.848 112.256 128.465ZM111.222 126.155C110.577 126.164 109.941 126.22 109.314 126.341C109.654 126.959 110.043 127.548 110.476 128.1C111.019 127.95 111.569 127.847 112.137 127.782C111.79 127.258 111.484 126.716 111.222 126.155ZM112.68 127.399C112.849 127.034 113.052 126.687 113.264 126.351C112.824 126.257 112.383 126.192 111.942 126.164C112.162 126.594 112.408 127.005 112.68 127.399ZM108.644 126.492C107.932 126.668 107.238 126.903 106.577 127.202C107 127.875 107.475 128.511 108.001 129.11C108.576 128.792 109.179 128.521 109.797 128.306C109.365 127.735 108.984 127.127 108.644 126.492ZM107.881 129.952C107.238 130.335 106.619 130.775 106.042 131.261C106.61 131.776 107.221 132.243 107.864 132.654C108.339 132.178 108.857 131.738 109.399 131.345C108.857 130.924 108.356 130.457 107.881 129.952ZM106.5 135.33C107.178 135.657 107.881 135.927 108.602 136.134C108.95 135.525 109.339 134.945 109.764 134.403C109.136 134.17 108.526 133.87 107.932 133.524C107.416 134.094 106.932 134.693 106.5 135.33ZM109.255 136.311C109.865 136.451 110.484 136.536 111.103 136.564C111.374 136.012 111.679 135.479 112.027 134.974C111.493 134.899 110.967 134.787 110.45 134.628C110.001 135.161 109.603 135.722 109.255 136.311ZM111.815 136.572C112.281 136.564 112.748 136.507 113.213 136.423C112.985 136.068 112.781 135.684 112.604 135.292C112.315 135.703 112.052 136.124 111.815 136.572ZM113.917 125.481C114.206 125.145 114.519 124.836 114.85 124.546C114.409 124.312 113.951 124.097 113.485 123.938C113.595 124.462 113.747 124.976 113.917 125.481ZM114.248 131.56C114.248 132.121 114.324 132.664 114.451 133.178H114.935V129.942H114.451C114.324 130.457 114.248 130.999 114.248 131.56ZM115.833 131.56C115.833 131.326 115.723 131.139 115.571 131.008V132.111C115.723 131.981 115.833 131.784 115.833 131.56ZM117.52 121.039C117.07 120.525 116.587 120.057 116.07 119.627C115.909 120.3 115.799 121.001 115.731 121.703C116.205 122.04 116.655 122.404 117.078 122.816C117.19 122.208 117.333 121.61 117.52 121.039ZM116.748 124.798C116.621 124.976 116.511 125.173 116.427 125.388C116.587 125.547 116.757 125.669 116.943 125.761C117.07 125.584 117.181 125.388 117.266 125.173C117.113 125.022 116.943 124.901 116.748 124.798ZM115.681 122.488C115.664 122.957 115.681 123.433 115.723 123.901C116.036 123.704 116.359 123.527 116.698 123.367C116.376 123.049 116.036 122.75 115.681 122.488ZM122.911 123.508C122.902 123.04 122.868 122.582 122.809 122.124C122.504 122.423 122.207 122.75 121.936 123.097C122.266 123.208 122.589 123.349 122.911 123.508ZM122.564 124.836C122.376 124.938 122.207 125.06 122.046 125.21C122.131 125.425 122.233 125.621 122.368 125.799C122.555 125.696 122.725 125.575 122.885 125.425C122.801 125.21 122.691 125.014 122.564 124.836ZM122.674 121.347C122.538 120.647 122.343 119.954 122.106 119.29C121.657 119.776 121.241 120.3 120.859 120.861C121.106 121.413 121.317 121.993 121.487 122.582C121.852 122.152 122.241 121.74 122.674 121.347ZM120.444 121.516C120.216 121.908 120.012 122.31 119.825 122.731C120.19 122.741 120.546 122.779 120.894 122.844C120.766 122.395 120.622 121.946 120.444 121.516ZM120.554 131.429C120.385 131.691 120.182 131.925 119.978 132.149V132.982C120.631 132.823 121.123 132.178 121.123 131.41C121.123 130.643 120.631 129.998 119.978 129.839V130.71C120.182 130.934 120.385 131.167 120.554 131.429ZM120.258 124.761C120.079 124.49 119.876 124.247 119.639 124.041C119.402 124.247 119.198 124.49 119.02 124.761C119.198 125.032 119.402 125.275 119.639 125.481C119.868 125.267 120.079 125.032 120.258 124.761ZM118.758 131.429C118.927 131.167 119.13 130.934 119.333 130.71V129.839C118.681 129.998 118.189 130.643 118.189 131.41C118.189 132.178 118.681 132.823 119.333 132.982V132.149C119.13 131.925 118.935 131.701 118.758 131.429ZM119.012 138.097C119.189 138.369 119.394 138.612 119.631 138.817C119.868 138.612 120.071 138.369 120.25 138.097C120.071 137.826 119.868 137.583 119.631 137.378C119.394 137.592 119.189 137.826 119.012 138.097ZM120.122 120.805C119.817 120.169 119.461 119.571 119.071 119C118.758 119.598 118.477 120.226 118.249 120.871C118.631 121.338 118.978 121.834 119.283 122.358C119.529 121.815 119.808 121.301 120.122 120.805ZM118.003 121.619C117.876 122.067 117.774 122.536 117.697 123.012C118.046 122.909 118.41 122.835 118.775 122.788C118.537 122.377 118.283 121.983 118.003 121.619ZM117.494 139.79C117.562 140.285 117.655 140.781 117.782 141.259C118.088 140.875 118.367 140.473 118.622 140.052C118.24 139.996 117.859 139.912 117.494 139.79ZM118.012 142.007C118.232 142.671 118.503 143.316 118.817 143.933C119.232 143.372 119.605 142.773 119.927 142.147C119.614 141.632 119.333 141.09 119.096 140.528C118.775 141.053 118.41 141.548 118.012 142.007ZM120.275 141.455C120.478 140.997 120.647 140.52 120.791 140.034C120.419 140.09 120.045 140.136 119.664 140.136C119.656 140.136 119.648 140.136 119.648 140.136C119.825 140.595 120.028 141.034 120.275 141.455ZM120.673 142.109C121.046 142.689 121.47 143.223 121.919 143.728C122.19 143.035 122.41 142.325 122.572 141.596C122.148 141.202 121.75 140.773 121.377 140.304C121.19 140.922 120.953 141.52 120.673 142.109ZM122.725 140.838C122.801 140.352 122.843 139.864 122.86 139.378C122.521 139.547 122.173 139.688 121.809 139.799C122.097 140.164 122.393 140.52 122.725 140.838ZM122.496 138.06C122.623 137.883 122.733 137.686 122.818 137.471C122.657 137.311 122.488 137.19 122.3 137.097C122.173 137.274 122.063 137.471 121.979 137.686C122.131 137.835 122.309 137.967 122.496 138.06ZM123.191 136.077C123.818 135.479 124.318 134.731 124.648 133.879H123.75V132.898C123.233 132.72 122.852 132.197 122.852 131.56C122.852 130.934 123.233 130.4 123.75 130.222V129.24H124.648C124.267 128.24 123.64 127.38 122.86 126.744C122.767 126.735 122.665 126.725 122.564 126.706C122.165 126.65 121.767 126.603 121.36 126.576C120.928 126.547 120.41 126.528 119.978 126.528V129.129C120.979 129.297 121.758 130.251 121.758 131.401C121.758 132.551 120.987 133.506 119.978 133.674V136.321C121.055 136.311 122.182 136.237 123.191 136.077ZM124.377 129.942V133.178H124.861C124.988 132.664 125.064 132.121 125.064 131.56C125.064 130.999 124.988 130.457 124.861 129.942H124.377ZM123.479 131.56C123.479 131.794 123.589 131.981 123.741 132.111V131.008C123.589 131.13 123.479 131.326 123.479 131.56ZM123.267 141.343C123.767 141.782 124.293 142.166 124.852 142.511C124.937 141.801 124.971 141.071 124.954 140.361C124.454 140.108 123.971 139.809 123.496 139.472C123.462 140.09 123.386 140.716 123.267 141.343ZM124.912 139.556C124.869 139.07 124.793 138.593 124.692 138.126C124.411 138.387 124.106 138.621 123.792 138.827C124.149 139.098 124.521 139.341 124.912 139.556ZM125.912 135.451C126.539 134.272 126.903 132.898 126.903 131.439C126.903 131.102 126.878 130.775 126.844 130.448C126.835 130.363 126.818 130.289 126.81 130.204C126.776 129.942 126.725 129.68 126.666 129.418C126.658 129.363 126.641 129.307 126.632 129.259C126.463 128.605 126.226 127.987 125.92 127.417C125.445 127.277 124.962 127.146 124.462 127.034C124.454 127.034 124.445 127.034 124.437 127.024C124.301 126.997 124.166 126.978 124.03 126.949C125.064 128.147 125.708 129.765 125.708 131.55C125.708 133.187 125.166 134.693 124.276 135.853C124.835 135.741 125.386 135.61 125.912 135.451ZM124.708 124.761C124.819 124.293 124.903 123.826 124.962 123.359C124.572 123.564 124.2 123.807 123.835 124.06C124.14 124.274 124.437 124.499 124.708 124.761ZM127.37 133.206C127.786 133.094 128.192 132.972 128.582 132.813C128.234 132.524 127.879 132.262 127.505 132.028C127.488 132.43 127.446 132.823 127.37 133.206ZM127.963 127.529C127.531 127.483 127.099 127.473 126.666 127.483C126.827 127.838 126.972 128.203 127.09 128.586C127.404 128.249 127.7 127.904 127.963 127.529ZM127.514 130.868C127.887 130.634 128.26 130.391 128.599 130.12C128.2 129.952 127.794 129.82 127.378 129.699C127.454 130.073 127.488 130.465 127.514 130.868ZM129.269 132.505C129.87 132.215 130.438 131.868 130.981 131.485C130.438 131.083 129.862 130.727 129.261 130.429C128.819 130.812 128.353 131.148 127.87 131.448C128.353 131.757 128.819 132.111 129.269 132.505ZM130.565 128.138C129.946 127.912 129.32 127.744 128.692 127.632C128.361 128.119 127.997 128.586 127.598 129.026C128.133 129.175 128.658 129.381 129.175 129.625C129.667 129.175 130.142 128.67 130.565 128.138ZM129.388 125.032C128.743 124.995 128.09 125.022 127.437 125.107C127.234 125.687 126.997 126.248 126.725 126.781C127.277 126.772 127.836 126.809 128.395 126.894C128.777 126.295 129.107 125.677 129.388 125.032ZM126.725 125.219C126.302 125.303 125.878 125.425 125.463 125.565C125.708 125.855 125.937 126.164 126.14 126.492C126.361 126.08 126.556 125.65 126.725 125.219ZM127.48 122.395C126.844 122.554 126.226 122.769 125.615 123.04C125.565 123.657 125.471 124.274 125.335 124.864C125.869 124.687 126.412 124.565 126.972 124.471C127.2 123.797 127.37 123.097 127.48 122.395ZM126.683 137.686C126.522 137.246 126.336 136.817 126.132 136.396C125.929 136.723 125.692 137.031 125.445 137.33C125.852 137.471 126.26 137.592 126.683 137.686ZM125.318 138.013C125.445 138.631 125.522 139.257 125.565 139.883C126.149 140.155 126.742 140.37 127.353 140.538C127.26 139.828 127.116 139.127 126.92 138.444C126.378 138.34 125.844 138.191 125.318 138.013ZM127.896 135.376C127.641 135.011 127.37 134.666 127.073 134.338C126.954 134.702 126.818 135.058 126.666 135.395C127.082 135.404 127.488 135.404 127.896 135.376ZM128.616 135.282C129.261 135.179 129.887 135.03 130.498 134.815C130.074 134.272 129.625 133.767 129.141 133.309C128.625 133.543 128.099 133.73 127.564 133.879C127.946 134.319 128.302 134.787 128.616 135.282ZM131.159 134.572C131.862 134.281 132.541 133.935 133.177 133.533C132.668 132.953 132.108 132.411 131.506 131.916C130.956 132.327 130.379 132.691 129.785 133.001C130.277 133.477 130.735 134.011 131.159 134.572ZM131.514 131.074C132.125 130.587 132.702 130.045 133.219 129.466C132.575 129.045 131.888 128.689 131.184 128.39C130.751 128.951 130.286 129.474 129.794 129.952C130.387 130.27 130.964 130.643 131.514 131.074ZM132.235 125.528C131.532 125.322 130.803 125.173 130.066 125.098C129.794 125.761 129.472 126.407 129.107 127.015C129.743 127.146 130.379 127.332 131.006 127.577C131.464 126.921 131.879 126.239 132.235 125.528ZM130.345 122.03C129.608 122.04 128.87 122.115 128.124 122.255C128.014 122.984 127.862 123.694 127.658 124.387C128.31 124.322 128.98 124.322 129.641 124.368C129.946 123.602 130.176 122.825 130.345 122.03ZM127.691 119.215C126.98 119.439 126.277 119.738 125.598 120.104C125.666 120.823 125.692 121.554 125.666 122.264C126.294 122.002 126.937 121.805 127.581 121.656C127.674 120.842 127.717 120.019 127.691 119.215ZM127.649 118.513C127.581 117.588 127.429 116.699 127.226 115.857C126.471 116.129 125.717 116.494 124.988 116.942C125.225 117.738 125.403 118.561 125.522 119.393C126.199 119.028 126.92 118.739 127.649 118.513ZM123.369 121.61C123.471 122.208 123.521 122.816 123.538 123.433C124.013 123.097 124.513 122.806 125.022 122.563C125.064 121.853 125.056 121.141 124.996 120.431C124.437 120.777 123.885 121.17 123.369 121.61ZM124.929 119.711C124.819 118.879 124.657 118.075 124.428 117.288C123.792 117.719 123.191 118.214 122.614 118.766C122.868 119.439 123.08 120.141 123.233 120.861C123.767 120.431 124.335 120.048 124.929 119.711ZM124.216 116.634C123.928 115.765 123.564 114.951 123.156 114.203C122.479 114.698 121.826 115.287 121.216 115.951C121.64 116.634 122.012 117.354 122.343 118.111C122.936 117.56 123.564 117.064 124.216 116.634ZM120.758 116.475C120.275 117.055 119.825 117.7 119.419 118.373C119.825 118.944 120.199 119.543 120.529 120.178C120.928 119.617 121.368 119.093 121.835 118.617C121.52 117.868 121.165 117.148 120.758 116.475ZM120.385 115.904C119.893 115.166 119.35 114.492 118.775 113.893C118.266 114.557 117.799 115.296 117.384 116.092C117.952 116.615 118.494 117.204 118.995 117.831C119.419 117.139 119.885 116.494 120.385 115.904ZM117.078 116.699C116.757 117.401 116.477 118.149 116.256 118.915C116.791 119.336 117.291 119.805 117.765 120.31C118.012 119.654 118.308 119.028 118.639 118.42C118.156 117.803 117.638 117.223 117.078 116.699ZM116.587 116.26C115.909 115.68 115.197 115.175 114.477 114.764C114.146 115.549 113.874 116.4 113.663 117.288C114.366 117.635 115.062 118.046 115.714 118.513C115.952 117.728 116.248 116.971 116.587 116.26ZM113.519 117.962C113.367 118.747 113.272 119.543 113.23 120.356C113.883 120.618 114.527 120.927 115.129 121.301C115.206 120.59 115.341 119.889 115.519 119.206C114.875 118.72 114.206 118.308 113.519 117.962ZM113.205 121.076C113.205 121.778 113.247 122.479 113.35 123.171C113.942 123.359 114.527 123.602 115.087 123.891C115.045 123.284 115.036 122.676 115.07 122.067C114.477 121.675 113.849 121.347 113.205 121.076ZM112.79 123.713C112.179 123.545 111.552 123.433 110.916 123.367C111.095 124.088 111.332 124.789 111.62 125.453C112.179 125.472 112.739 125.528 113.299 125.64C113.078 125.022 112.917 124.377 112.79 123.713ZM112.68 122.974C112.587 122.264 112.553 121.554 112.561 120.833C111.875 120.59 111.171 120.412 110.467 120.291C110.51 121.085 110.611 121.881 110.772 122.676C111.408 122.722 112.052 122.816 112.68 122.974ZM112.9 117.671C112.137 117.336 111.366 117.083 110.603 116.905C110.476 117.765 110.416 118.664 110.433 119.579C111.154 119.692 111.866 119.87 112.578 120.104C112.629 119.281 112.739 118.467 112.9 117.671ZM110.238 123.33C109.518 123.302 108.798 123.34 108.085 123.433C108.331 124.209 108.627 124.967 108.984 125.696C109.62 125.565 110.256 125.481 110.907 125.462C110.637 124.77 110.416 124.06 110.238 123.33ZM110.085 122.628C109.933 121.824 109.84 121.001 109.806 120.188C108.992 120.094 108.187 120.075 107.407 120.132C107.5 121.001 107.661 121.881 107.898 122.76C108.61 122.666 109.348 122.61 110.085 122.628ZM105.102 124.199C105.406 125.014 105.78 125.828 106.228 126.603C106.898 126.295 107.602 126.042 108.322 125.845C107.966 125.097 107.67 124.322 107.433 123.527C106.619 123.686 105.839 123.92 105.102 124.199ZM106 127.473C105.245 127.857 104.533 128.306 103.881 128.811C104.373 129.502 104.941 130.176 105.567 130.802C106.144 130.297 106.771 129.839 107.424 129.437C106.898 128.829 106.423 128.165 106 127.473ZM103.355 129.24C102.652 129.849 102.05 130.503 101.558 131.196C102.033 131.897 102.634 132.57 103.329 133.196C103.83 132.514 104.406 131.868 105.042 131.261C104.415 130.634 103.855 129.952 103.355 129.24ZM103.838 133.627C104.474 134.151 105.178 134.628 105.932 135.03C106.364 134.375 106.847 133.749 107.373 133.169C106.72 132.739 106.11 132.252 105.533 131.719C104.897 132.318 104.33 132.953 103.838 133.627ZM104.958 138.285C105.704 138.593 106.492 138.846 107.314 139.014C107.568 138.256 107.881 137.508 108.246 136.788C107.509 136.564 106.797 136.283 106.11 135.937C105.66 136.695 105.271 137.489 104.958 138.285ZM107.178 142.418C107.957 142.493 108.772 142.503 109.594 142.418C109.645 141.613 109.755 140.8 109.924 140.005C109.908 140.005 109.899 140.005 109.882 140.005C109.153 140.005 108.433 139.931 107.729 139.818C107.466 140.688 107.289 141.558 107.178 142.418ZM110.102 139.276C110.281 138.584 110.51 137.91 110.781 137.255C110.145 137.209 109.518 137.106 108.891 136.957C108.517 137.657 108.204 138.378 107.949 139.127C108.653 139.238 109.373 139.294 110.102 139.276ZM110.256 142.344C110.967 142.241 111.67 142.072 112.374 141.847C112.374 141.137 112.425 140.417 112.527 139.715C111.891 139.865 111.247 139.958 110.603 139.996C110.433 140.763 110.315 141.558 110.256 142.344ZM112.663 138.949C112.79 138.331 112.951 137.732 113.162 137.144C112.629 137.227 112.086 137.293 111.543 137.293C111.518 137.293 111.501 137.293 111.476 137.293C111.196 137.929 110.958 138.584 110.781 139.257C111.416 139.21 112.044 139.108 112.663 138.949ZM113.027 141.613C113.637 141.37 114.231 141.081 114.798 140.735C114.773 140.117 114.781 139.5 114.842 138.882C114.316 139.145 113.764 139.351 113.213 139.519C113.095 140.22 113.035 140.922 113.027 141.613ZM113.035 142.371C113.061 143.175 113.145 143.971 113.281 144.746C113.942 144.429 114.595 144.064 115.214 143.625C115.045 142.932 114.918 142.222 114.85 141.502C114.265 141.848 113.654 142.138 113.035 142.371ZM113.417 145.429C113.612 146.327 113.874 147.178 114.189 147.983C114.892 147.599 115.588 147.141 116.256 146.599C115.918 145.869 115.63 145.102 115.392 144.317C114.756 144.746 114.096 145.121 113.417 145.429ZM116.791 146.149C117.359 145.644 117.893 145.083 118.393 144.485C118.062 143.868 117.765 143.223 117.528 142.549C117.045 143.045 116.528 143.503 115.977 143.914C116.189 144.681 116.469 145.439 116.791 146.149ZM117.087 146.776C117.494 147.581 117.952 148.329 118.452 149.002C119.037 148.422 119.605 147.768 120.113 147.039C119.614 146.44 119.147 145.785 118.741 145.093C118.223 145.71 117.664 146.262 117.087 146.776ZM120.495 146.477C120.919 145.814 121.309 145.112 121.639 144.373C121.173 143.877 120.732 143.344 120.334 142.773C119.986 143.4 119.597 143.99 119.164 144.551C119.563 145.242 120.003 145.888 120.495 146.477ZM120.928 146.991C121.512 147.646 122.131 148.226 122.784 148.721C123.208 147.983 123.589 147.178 123.911 146.327C123.284 145.897 122.682 145.41 122.122 144.868C121.767 145.617 121.368 146.318 120.928 146.991ZM124.14 145.673C124.403 144.887 124.597 144.064 124.742 143.223C124.174 142.886 123.623 142.521 123.105 142.091C122.928 142.821 122.682 143.531 122.403 144.214C122.945 144.756 123.53 145.242 124.14 145.673ZM124.682 146.028C125.403 146.486 126.14 146.851 126.886 147.15C127.124 146.281 127.294 145.364 127.395 144.41C126.691 144.185 126.005 143.887 125.326 143.54C125.174 144.392 124.954 145.234 124.682 146.028ZM127.454 143.728C127.505 142.914 127.488 142.091 127.42 141.277C126.802 141.118 126.183 140.922 125.581 140.66C125.581 141.389 125.531 142.119 125.428 142.848C126.089 143.194 126.768 143.494 127.454 143.728ZM129.251 137.91C128.989 137.255 128.675 136.629 128.319 136.03C127.912 136.077 127.505 136.115 127.09 136.115C126.962 136.115 126.835 136.105 126.7 136.096C126.972 136.648 127.2 137.219 127.387 137.807C128.006 137.891 128.633 137.929 129.251 137.91ZM127.607 138.537C127.794 139.238 127.921 139.968 128.006 140.697C128.718 140.847 129.438 140.941 130.15 140.959C129.997 140.155 129.777 139.36 129.506 138.584C129.294 138.593 129.09 138.621 128.879 138.621C128.446 138.612 128.031 138.584 127.607 138.537ZM132.142 137.452C131.786 136.731 131.379 136.04 130.93 135.395C130.311 135.619 129.667 135.806 129.014 135.927C129.362 136.545 129.667 137.19 129.921 137.864C130.675 137.789 131.421 137.658 132.142 137.452ZM130.159 138.537C130.421 139.322 130.633 140.136 130.778 140.949C131.651 140.931 132.507 140.819 133.312 140.622C133.1 139.762 132.803 138.901 132.431 138.069C131.702 138.285 130.939 138.453 130.159 138.537ZM132.786 137.246C133.583 136.976 134.329 136.629 135.033 136.227C134.635 135.479 134.16 134.75 133.608 134.048C132.964 134.469 132.286 134.834 131.575 135.142C132.032 135.806 132.439 136.517 132.786 137.246ZM133.727 133.16C134.439 132.654 135.092 132.093 135.677 131.485C135.1 130.877 134.456 130.316 133.769 129.83C133.236 130.429 132.659 130.99 132.049 131.495C132.642 132 133.202 132.561 133.727 133.16ZM135.1 126.79C134.405 126.37 133.642 126.014 132.845 125.734C132.481 126.463 132.074 127.164 131.609 127.82C132.321 128.128 132.998 128.511 133.659 128.942C134.21 128.249 134.694 127.529 135.1 126.79ZM133.397 122.395C132.625 122.199 131.82 122.077 130.99 122.04C130.829 122.844 130.599 123.639 130.32 124.425C131.066 124.518 131.812 124.677 132.532 124.892C132.896 124.078 133.185 123.237 133.397 122.395ZM130.709 118.664C129.929 118.71 129.116 118.831 128.31 119.037C128.344 119.87 128.319 120.702 128.226 121.525C128.98 121.394 129.735 121.329 130.481 121.338C130.633 120.44 130.701 119.533 130.709 118.664ZM130.269 115.24C129.498 115.259 128.675 115.399 127.836 115.652C128.056 116.513 128.192 117.42 128.26 118.337C129.065 118.13 129.879 117.99 130.675 117.952C130.641 116.98 130.506 116.063 130.269 115.24ZM126.886 113.015C127.192 113.631 127.446 114.295 127.649 114.978C128.285 114.783 128.912 114.651 129.523 114.586C128.692 113.987 127.811 113.464 126.886 113.015ZM125.971 112.697C125.225 112.949 124.462 113.323 123.708 113.819C124.123 114.586 124.479 115.418 124.768 116.278C125.514 115.83 126.268 115.474 127.031 115.194C126.759 114.268 126.404 113.426 125.971 112.697ZM122.156 111.565C122.598 112.07 123.004 112.632 123.369 113.229C123.946 112.846 124.53 112.528 125.115 112.276C124.166 111.949 123.166 111.724 122.156 111.565ZM121.19 111.518C120.504 111.995 119.834 112.622 119.215 113.351C119.8 113.96 120.36 114.632 120.859 115.38C121.478 114.716 122.148 114.119 122.826 113.613C122.326 112.8 121.775 112.089 121.19 111.518ZM117.087 111.574C117.647 111.939 118.206 112.379 118.741 112.884C119.223 112.314 119.724 111.817 120.241 111.388C120.045 111.378 119.851 111.359 119.656 111.359C118.783 111.35 117.927 111.443 117.087 111.574ZM116.155 111.826C115.638 112.481 115.163 113.267 114.756 114.136C115.485 114.557 116.205 115.063 116.901 115.642C117.325 114.838 117.799 114.09 118.316 113.417C117.613 112.753 116.875 112.211 116.155 111.826ZM112.323 113.07C112.925 113.248 113.553 113.501 114.172 113.819C114.485 113.155 114.833 112.538 115.214 111.985C114.214 112.266 113.247 112.622 112.323 113.07ZM110.721 116.232C111.493 116.41 112.272 116.662 113.052 116.999C113.272 116.11 113.561 115.25 113.9 114.454C113.086 114.044 112.281 113.753 111.51 113.594C111.162 114.371 110.899 115.269 110.721 116.232ZM108.119 115.933C108.747 115.923 109.407 115.979 110.085 116.101C110.229 115.371 110.408 114.67 110.645 114.025C109.755 114.586 108.899 115.212 108.119 115.933ZM107.348 119.449C108.136 119.393 108.95 119.403 109.781 119.495C109.772 118.57 109.84 117.663 109.975 116.783C109.094 116.634 108.246 116.597 107.466 116.672C107.323 117.522 107.289 118.467 107.348 119.449ZM104.779 119.926C105.381 119.73 106.025 119.589 106.704 119.505C106.661 118.756 106.67 118.018 106.737 117.326C106.017 118.13 105.364 119 104.779 119.926ZM104.313 120.842C104.389 121.713 104.584 122.628 104.88 123.554C105.626 123.265 106.415 123.031 107.238 122.871C107 121.983 106.847 121.085 106.763 120.207C105.873 120.318 105.042 120.534 104.313 120.842ZM102.524 124.789C103.058 124.425 103.652 124.088 104.296 123.807C104.067 123.087 103.889 122.385 103.779 121.694C103.278 122.676 102.864 123.713 102.524 124.789ZM102.287 125.809C102.575 126.622 102.991 127.445 103.5 128.259C104.16 127.753 104.872 127.286 105.635 126.894C105.186 126.098 104.813 125.275 104.508 124.452C103.677 124.827 102.923 125.284 102.287 125.809ZM101.533 130.148C101.957 129.634 102.448 129.138 102.982 128.68C102.592 128.063 102.253 127.436 101.982 126.8C101.753 127.885 101.6 128.997 101.533 130.148ZM101.889 135.638C102.177 135.001 102.524 134.375 102.94 133.767C102.414 133.29 101.931 132.775 101.516 132.252C101.558 133.403 101.668 134.543 101.889 135.638ZM102.185 136.62C102.813 137.152 103.559 137.621 104.381 138.023C104.703 137.209 105.093 136.414 105.55 135.638C104.796 135.217 104.084 134.731 103.44 134.197C102.906 134.993 102.482 135.806 102.185 136.62ZM103.584 140.781C103.703 140.09 103.889 139.388 104.134 138.677C103.508 138.369 102.914 138.023 102.38 137.64C102.703 138.733 103.101 139.781 103.584 140.781ZM106.483 143.045C105.805 142.942 105.144 142.783 104.542 142.568C105.118 143.512 105.763 144.392 106.475 145.215C106.415 144.513 106.423 143.783 106.483 143.045ZM106.56 142.344C106.67 141.473 106.847 140.585 107.101 139.697C106.271 139.519 105.474 139.257 104.72 138.939C104.406 139.856 104.203 140.773 104.109 141.651C104.838 141.969 105.669 142.203 106.56 142.344ZM107.178 145.906C107.957 146 108.806 145.981 109.687 145.85C109.577 144.981 109.527 144.082 109.544 143.157C109.162 143.185 108.789 143.204 108.416 143.204C107.966 143.204 107.534 143.175 107.101 143.138C107.034 144.111 107.059 145.046 107.178 145.906ZM110.323 148.628C110.102 147.973 109.933 147.272 109.806 146.543C109.246 146.627 108.695 146.673 108.162 146.673C108.043 146.673 107.941 146.654 107.83 146.645C108.602 147.384 109.441 148.038 110.323 148.628ZM110.34 145.738C111.112 145.579 111.891 145.345 112.663 145.027C112.518 144.233 112.416 143.418 112.383 142.595C111.67 142.821 110.941 142.979 110.221 143.083C110.187 143.98 110.229 144.878 110.34 145.738ZM111.179 149.096C111.959 148.955 112.773 148.675 113.595 148.291C113.272 147.477 112.993 146.618 112.79 145.71C112.01 146.028 111.213 146.271 110.433 146.43C110.603 147.393 110.857 148.3 111.179 149.096ZM114.884 150.779C114.51 150.208 114.172 149.582 113.866 148.909C113.239 149.208 112.612 149.451 112.01 149.61C112.925 150.097 113.891 150.48 114.884 150.779ZM115.825 150.966C116.537 150.601 117.257 150.087 117.952 149.47C117.443 148.787 116.968 148.03 116.554 147.225C115.875 147.768 115.163 148.226 114.451 148.618C114.85 149.498 115.316 150.293 115.825 150.966ZM119.808 151.5C119.308 151.06 118.825 150.555 118.367 149.994C117.842 150.47 117.3 150.882 116.748 151.228C117.697 151.396 118.665 151.508 119.656 151.508C119.707 151.508 119.758 151.5 119.808 151.5ZM122.428 149.301C121.775 148.796 121.139 148.207 120.546 147.552C120.02 148.281 119.453 148.945 118.851 149.535C119.444 150.274 120.079 150.901 120.732 151.387C121.343 150.817 121.911 150.105 122.428 149.301ZM124.708 150.704C124.123 150.434 123.538 150.087 122.953 149.684C122.555 150.311 122.122 150.882 121.674 151.378C122.716 151.247 123.724 151.022 124.708 150.704ZM125.573 150.321C126.013 149.592 126.387 148.75 126.691 147.814C125.937 147.515 125.183 147.15 124.454 146.692C124.123 147.552 123.733 148.367 123.301 149.114C124.056 149.628 124.819 150.04 125.573 150.321ZM129.2 148.488C128.574 148.403 127.938 148.245 127.285 148.03C127.056 148.75 126.785 149.423 126.471 150.031C127.429 149.601 128.336 149.077 129.2 148.488ZM130.43 145.008C129.633 144.953 128.819 144.813 128.006 144.588C127.904 145.551 127.725 146.486 127.48 147.366C128.327 147.646 129.166 147.814 129.955 147.861C130.218 147.001 130.371 146.038 130.43 145.008ZM130.447 144.325C130.455 143.456 130.396 142.549 130.26 141.642C129.531 141.632 128.794 141.548 128.065 141.408C128.124 142.241 128.124 143.083 128.065 143.906C128.87 144.13 129.667 144.27 130.447 144.325ZM133.109 144.887C132.532 144.99 131.93 145.064 131.303 145.064C131.218 145.064 131.133 145.056 131.049 145.046C131.006 145.831 130.913 146.589 130.76 147.291C131.609 146.561 132.397 145.766 133.109 144.887ZM133.685 144.064C133.718 143.167 133.642 142.241 133.456 141.305C132.634 141.502 131.778 141.613 130.888 141.642C131.023 142.558 131.074 143.475 131.066 144.363C132.006 144.373 132.888 144.27 133.685 144.064ZM135.889 140.426C135.33 140.706 134.728 140.949 134.092 141.137C134.227 141.839 134.312 142.54 134.329 143.241C134.914 142.352 135.44 141.418 135.889 140.426ZM136.237 139.444C136.058 138.593 135.753 137.714 135.338 136.835C134.635 137.246 133.872 137.583 133.075 137.864C133.439 138.706 133.735 139.565 133.948 140.444C134.787 140.201 135.558 139.865 136.237 139.444ZM137.499 135.236C137.025 135.684 136.482 136.096 135.897 136.48C136.203 137.134 136.465 137.798 136.66 138.48C137.017 137.433 137.304 136.358 137.499 135.236ZM137.575 134.207C137.186 133.412 136.685 132.673 136.11 131.981C135.525 132.589 134.863 133.16 134.151 133.674C134.694 134.366 135.185 135.104 135.601 135.872C136.355 135.385 137.025 134.824 137.575 134.207ZM137.771 129.868C137.423 130.429 137.025 130.971 136.567 131.495C137.017 132.019 137.414 132.58 137.763 133.169C137.805 132.599 137.839 132.019 137.839 131.429C137.839 130.905 137.805 130.381 137.771 129.868ZM137.609 128.829C137.067 128.212 136.415 127.651 135.669 127.146C135.253 127.904 134.753 128.633 134.21 129.315C134.906 129.82 135.55 130.381 136.135 130.999C136.719 130.307 137.22 129.577 137.609 128.829ZM136.736 124.603C136.541 125.257 136.288 125.893 135.982 126.519C136.533 126.894 137.05 127.305 137.524 127.763C137.338 126.678 137.067 125.621 136.736 124.603ZM134.177 121.899C134.821 122.096 135.423 122.348 135.982 122.638C135.542 121.637 135.033 120.683 134.447 119.786C134.414 120.487 134.32 121.198 134.177 121.899ZM134.024 122.572C133.803 123.433 133.507 124.274 133.143 125.098C133.94 125.378 134.702 125.734 135.423 126.164C135.829 125.322 136.144 124.462 136.33 123.629C135.652 123.2 134.872 122.844 134.024 122.572ZM133.813 118.982C133.05 118.766 132.218 118.654 131.337 118.654C131.337 119.533 131.269 120.45 131.116 121.366C131.956 121.413 132.778 121.535 133.549 121.731C133.744 120.777 133.838 119.842 133.813 118.982ZM133.227 118.121C132.558 117.298 131.846 116.521 131.066 115.82C131.201 116.484 131.286 117.195 131.32 117.934C131.973 117.943 132.608 118 133.227 118.121Z" fill="#6F0625"/>
<path d="M143.182 105.472V157.385H96.1277V105.472H143.182Z" stroke="#8A1638" stroke-miterlimit="10"/>
<path d="M85.1349 148.383H96.5789V114.476H85.1349V148.383ZM91.7245 129.218C92.5246 129.854 93.2125 130.586 93.8283 131.433C93.2205 132.281 92.5326 133.013 91.7245 133.648C90.9245 133.013 90.2376 132.281 89.6218 131.433C90.2376 130.586 90.9245 129.845 91.7245 129.218ZM79.6887 126.81C80.3045 126.131 81.0324 125.646 81.8085 125.354V136.975C81.0324 136.683 80.3045 136.198 79.6887 135.519C77.5058 133.11 77.5058 129.21 79.6887 126.81ZM54.81 104.964V105.114L48.6038 111.96V113.117L54.818 106.261V106.923L48.6038 113.779V114.934L54.818 108.078V108.74L48.6038 115.596V116.751L54.818 109.897V110.558L48.6038 117.413V118.569L54.818 111.714V112.376L48.6038 119.231V120.387L54.818 113.531V114.193L48.6038 121.049V122.204L54.818 115.348V116.01L48.6038 122.866V124.022L54.818 117.167V117.829L48.6038 124.683V125.84L54.818 118.984V119.646L48.6038 126.502V127.657L54.818 120.801V121.463L48.6038 128.319V129.475L54.818 122.619V123.28L48.6038 130.136V131.292L54.818 124.437V125.099L48.6038 131.954V133.11L54.818 126.254V126.916L48.6038 133.772V134.928L54.818 128.072V128.733L48.6038 135.589V136.745L54.818 129.889V130.551L48.6038 137.398V138.553L54.818 131.699V132.36L48.6038 139.215V140.372L54.818 133.516V134.178L48.6038 141.034V142.189L54.818 135.333V135.995L48.6038 142.851V144.006L54.818 137.15V137.812L48.6038 144.668V145.824L54.818 138.969V139.631L48.6038 146.485V147.642L54.818 140.786V141.448L48.6038 148.304V149.459L54.818 142.603V143.265L48.6038 150.121V151.277L54.818 144.421V145.082L48.6038 151.938V153.094L54.818 146.239V146.901L48.6038 153.756V154.912L54.818 148.056V148.718L48.6038 155.574V156.73L54.818 149.874V150.535L48.6038 157.391V157.894H49.1956L54.818 151.692V152.354L49.7954 157.894H50.8427L54.81 153.509V154.171L51.4345 157.894H52.4819L54.81 155.327V155.988L53.0817 157.894H54.1301L54.81 157.144V157.806L54.7298 157.894H54.81H96.5789V152.044H81.8485V140.981C80.1042 140.601 78.4411 139.657 77.0893 138.175C73.4515 134.16 73.4515 127.657 77.0893 123.643C78.4411 122.151 80.1042 121.216 81.8485 120.837V110.814H96.5869V104.964H54.81ZM64.6138 108.582C64.9102 108.819 65.1656 109.085 65.3899 109.402C65.1656 109.711 64.9102 109.984 64.6138 110.222C64.3185 109.993 64.0621 109.72 63.8388 109.402C64.0621 109.085 64.3104 108.811 64.6138 108.582ZM64.6138 112.411C65.0935 112.79 65.51 113.232 65.8775 113.743C65.51 114.246 65.0935 114.696 64.6138 115.076C64.1342 114.696 63.7187 114.255 63.3502 113.743C63.7187 113.232 64.1262 112.79 64.6138 112.411ZM64.6138 116.858C65.2777 117.387 65.8535 117.995 66.3571 118.693C65.8455 119.39 65.2777 120.007 64.6138 120.529C63.95 119.998 63.3742 119.39 62.8706 118.693C63.3742 117.995 63.942 117.378 64.6138 116.858ZM64.6138 122.346C65.3979 122.963 66.0698 123.687 66.6696 124.508C66.0698 125.328 65.3979 126.051 64.6138 126.669C63.8308 126.051 63.1589 125.328 62.5591 124.508C63.1509 123.687 63.8228 122.963 64.6138 122.346ZM64.6138 154.277C64.3185 154.047 64.0621 153.773 63.8388 153.456C64.0621 153.147 64.3185 152.874 64.6138 152.635C64.9102 152.874 65.1656 153.138 65.3899 153.456C65.1576 153.773 64.9102 154.047 64.6138 154.277ZM64.6138 150.456C64.1342 150.077 63.7187 149.636 63.3502 149.124C63.7187 148.621 64.1342 148.171 64.6138 147.791C65.0935 148.171 65.51 148.612 65.8775 149.124C65.502 149.627 65.0935 150.077 64.6138 150.456ZM64.6138 146C63.95 145.471 63.3742 144.863 62.8706 144.165C63.3822 143.468 63.95 142.851 64.6138 142.331C65.2777 142.86 65.8535 143.468 66.3571 144.165C65.8455 144.863 65.2777 145.48 64.6138 146ZM64.6138 140.512C63.8308 139.895 63.1589 139.171 62.5591 138.351C63.1589 137.53 63.8308 136.807 64.6138 136.189C65.3979 136.807 66.0698 137.53 66.6696 138.351C66.0698 139.171 65.3979 139.895 64.6138 140.512ZM64.6138 134.284C63.5665 133.463 62.6703 132.492 61.8713 131.398C62.6703 130.296 63.5665 129.333 64.6138 128.512C65.6622 129.333 66.5574 130.304 67.3575 131.398C66.5574 132.492 65.6542 133.454 64.6138 134.284ZM54.3453 104.964L48.6038 111.299V110.143L53.298 104.964H54.3453ZM52.6982 104.964L48.6038 109.481V108.326L51.6508 104.964H52.6982ZM51.051 104.964L48.6038 107.664V106.508L50.0036 104.964H51.051ZM49.4038 104.964L48.6038 105.847V104.964H49.4038Z" fill="#6F0625"/>
<path d="M143.188 262.343V287.752H120.157V262.343H143.188Z" stroke="#8A1638" stroke-miterlimit="10"/>
<path d="M120.657 261.791H72.594V314.818H120.657V261.791ZM96.6256 271.247C102.794 276.108 108.161 281.853 112.887 288.393C108.161 294.933 102.874 300.589 96.6256 305.538C90.3774 300.678 85.0904 294.933 80.3642 288.393C85.0904 281.764 90.4575 276.108 96.6256 271.247Z" fill="#6F0625"/>
<path d="M60.1409 262.891L47.6104 249.155V262.891H60.1409ZM74.7841 223.217L110.673 262.891H129.734L128.691 261.74L143.637 245.216V244.084L135.981 252.538V205.955H100.494C96.6429 178.088 74.8753 156.837 48.5897 156.837C48.2602 156.837 47.9308 156.827 47.5924 156.837V175.553C47.9218 175.543 48.2512 175.522 48.5897 175.522C48.9001 175.522 49.2115 175.533 49.5219 175.543L49.5219 205.965H47.6013V223.217H74.7841ZM120.378 223.217V252.508L93.9724 223.217H120.378ZM82.275 202.34C82.6315 203.521 82.9519 204.733 83.2072 205.965H82.275V202.34ZM79.988 196.43C80.5647 197.632 81.0854 198.875 81.552 200.158V205.965H79.988V196.43ZM77.702 192.3C78.2507 193.168 78.7714 194.067 79.265 194.996L79.265 205.965H77.702L77.702 192.3ZM77.6099 224.449C77.8111 224.227 77.8662 223.914 77.7931 223.621H85.0456C85.2839 223.772 85.5673 223.762 85.8046 223.621H87.8173C87.7532 223.904 87.8083 224.207 88.0095 224.419C88.1557 224.58 88.348 224.671 88.5583 224.671C88.7595 224.671 88.9608 224.58 89.098 224.419C89.2442 224.257 89.3263 224.045 89.3263 223.813C89.3263 223.742 89.3082 223.681 89.2902 223.621H93.3145L94.2658 224.671C94.1917 224.712 94.1276 224.752 94.0735 224.813C93.7711 225.146 93.7711 225.681 94.0735 226.015C94.3659 226.338 94.8686 226.338 95.1619 226.015C95.216 225.954 95.2531 225.873 95.2901 225.803L98.0057 228.833C97.9416 228.873 97.8775 228.913 97.8234 228.974C97.521 229.307 97.521 229.843 97.8234 230.176C98.1158 230.499 98.6185 230.499 98.9119 230.176C98.9659 230.115 99.003 230.045 99.03 229.974L101.747 232.994C101.683 233.034 101.618 233.065 101.573 233.125C101.271 233.459 101.271 233.994 101.573 234.327C101.866 234.651 102.368 234.651 102.662 234.327C102.716 234.267 102.744 234.196 102.78 234.135L105.497 237.145C105.441 237.186 105.378 237.216 105.323 237.277C105.021 237.61 105.021 238.145 105.323 238.479C105.616 238.802 106.118 238.802 106.412 238.479C106.457 238.428 106.494 238.357 106.521 238.297L109.237 241.307C109.182 241.347 109.118 241.377 109.073 241.428C108.927 241.59 108.844 241.802 108.844 242.034C108.844 242.266 108.927 242.478 109.073 242.64C109.366 242.963 109.868 242.963 110.162 242.64C110.207 242.59 110.235 242.529 110.271 242.458L112.987 245.468C112.932 245.498 112.878 245.529 112.832 245.579C112.686 245.741 112.603 245.953 112.603 246.185C112.603 246.407 112.686 246.63 112.832 246.791C113.125 247.115 113.628 247.115 113.921 246.791C113.966 246.741 113.994 246.68 114.021 246.62L116.728 249.629C116.682 249.66 116.628 249.69 116.582 249.741C116.436 249.902 116.354 250.114 116.354 250.347C116.354 250.569 116.436 250.791 116.582 250.953C116.875 251.276 117.378 251.276 117.671 250.953C117.716 250.902 117.735 250.852 117.771 250.791L120.487 253.781C120.441 253.811 120.387 253.841 120.35 253.882C120.204 254.043 120.122 254.256 120.122 254.488C120.122 254.72 120.204 254.932 120.35 255.094C120.642 255.417 121.146 255.417 121.439 255.094C121.476 255.053 121.503 254.993 121.53 254.942L124.237 257.942C124.191 257.972 124.146 258.003 124.109 258.043C123.963 258.205 123.881 258.417 123.881 258.649C123.881 258.881 123.963 259.094 124.109 259.255C124.402 259.578 124.905 259.578 125.197 259.255C125.235 259.215 125.253 259.164 125.28 259.114L127.978 262.093C127.941 262.124 127.896 262.144 127.859 262.184C127.777 262.275 127.722 262.386 127.686 262.497H125.783C125.792 262.487 125.81 262.487 125.819 262.467C126.122 262.134 126.122 261.598 125.819 261.265C125.673 261.104 125.481 261.013 125.271 261.013C125.069 261.013 124.868 261.104 124.722 261.265C124.576 261.427 124.494 261.639 124.494 261.871C124.494 262.104 124.576 262.316 124.722 262.477C124.731 262.487 124.75 262.497 124.759 262.508H117.615C117.578 262.396 117.524 262.306 117.451 262.215C117.304 262.053 117.113 261.962 116.903 261.962C116.691 261.962 116.5 262.053 116.354 262.215C116.28 262.295 116.226 262.396 116.189 262.508H114.653C114.707 262.386 114.744 262.265 114.744 262.134C114.744 261.912 114.662 261.689 114.515 261.528C114.368 261.366 114.177 261.275 113.966 261.275C113.755 261.275 113.564 261.366 113.417 261.528C113.18 261.79 113.143 262.184 113.29 262.508H111.332L110.912 262.043C111.085 262.023 111.268 261.962 111.396 261.811C111.543 261.649 111.625 261.437 111.625 261.205C111.625 260.972 111.543 260.76 111.396 260.599C111.25 260.437 111.058 260.346 110.848 260.346C110.637 260.346 110.445 260.437 110.299 260.599C110.171 260.75 110.107 260.932 110.089 261.124L107.153 257.881C107.326 257.861 107.509 257.801 107.637 257.649C107.784 257.488 107.866 257.276 107.866 257.043C107.866 256.821 107.784 256.599 107.637 256.437C107.491 256.276 107.299 256.185 107.089 256.185C106.878 256.185 106.686 256.276 106.54 256.437C106.412 256.589 106.348 256.77 106.329 256.962L103.393 253.72C103.567 253.7 103.75 253.639 103.878 253.488C104.025 253.326 104.107 253.114 104.107 252.882C104.107 252.66 104.025 252.437 103.878 252.276C103.731 252.114 103.54 252.023 103.329 252.023C103.118 252.023 102.927 252.114 102.78 252.276C102.653 252.427 102.589 252.609 102.57 252.801L99.6338 249.559C99.8081 249.539 99.9813 249.478 100.118 249.326C100.266 249.165 100.348 248.953 100.348 248.72C100.348 248.498 100.266 248.276 100.118 248.114C99.9723 247.953 99.78 247.862 99.5697 247.862C99.3595 247.862 99.1672 247.953 99.021 248.114C98.8929 248.256 98.8288 248.448 98.8108 248.64L95.8749 245.397C96.0491 245.377 96.2223 245.317 96.3595 245.165C96.5057 245.003 96.5888 244.791 96.5888 244.559C96.5888 244.327 96.5057 244.115 96.3595 243.953C96.2133 243.791 96.0211 243.701 95.8108 243.701C95.6005 243.701 95.4083 243.791 95.2621 243.953C95.1339 244.094 95.0698 244.286 95.0518 244.478L92.1159 241.236C92.2902 241.216 92.4634 241.155 92.6006 241.004C92.7467 240.842 92.8289 240.63 92.8289 240.398C92.8289 240.165 92.7467 239.953 92.6006 239.792C92.4544 239.63 92.2621 239.539 92.0519 239.539C91.8416 239.539 91.6493 239.63 91.5031 239.792C91.375 239.933 91.3109 240.125 91.2928 240.317L88.366 237.075C88.5493 237.054 88.7134 236.984 88.8416 236.842C88.9878 236.681 89.0699 236.469 89.0699 236.236C89.0699 236.004 88.9878 235.792 88.8416 235.63C88.6954 235.469 88.5032 235.378 88.2929 235.378C88.0826 235.378 87.8904 235.469 87.7442 235.63C87.616 235.772 87.5519 235.964 87.5339 236.156L84.607 232.913C84.7803 232.893 84.9545 232.822 85.0827 232.681C85.2289 232.519 85.311 232.307 85.311 232.075C85.311 231.853 85.2289 231.631 85.0827 231.469C84.9365 231.307 84.7442 231.216 84.5339 231.216C84.3237 231.216 84.1314 231.307 83.9852 231.469C83.8571 231.61 83.793 231.802 83.7749 231.994L80.8391 228.752C81.0123 228.732 81.1865 228.671 81.3147 228.52C81.6161 228.186 81.6161 227.651 81.3147 227.318C81.1675 227.156 80.9663 227.065 80.765 227.065C80.5647 227.065 80.3725 227.146 80.2163 227.318C80.0891 227.459 80.025 227.651 80.006 227.843L77.0792 224.601C77.3085 224.661 77.4727 224.591 77.6099 224.449ZM75.4149 189.067C75.9547 189.754 76.4764 190.461 76.979 191.188L76.979 205.965H75.4149L75.4149 189.067ZM73.1279 186.4C73.6677 186.966 74.1803 187.563 74.692 188.168L74.692 205.965H73.1279L73.1279 186.4ZM70.8419 184.179C71.3726 184.654 71.8933 185.149 72.406 185.664L72.406 205.965H70.8419L70.8419 184.179ZM68.5549 182.31C69.0856 182.714 69.6073 183.128 70.119 183.562L70.119 205.965H68.5549L68.5549 182.31ZM66.2689 180.724C66.7996 181.058 67.3203 181.411 67.833 181.785L67.833 205.965H66.2689L66.2689 180.724ZM63.9819 179.401C64.5126 179.684 65.0343 179.976 65.546 180.28L65.546 205.965H63.9819L63.9819 179.401ZM61.6959 178.291C62.2266 178.523 62.7473 178.765 63.2599 179.018L63.2599 205.965H61.6959L61.6959 178.291ZM59.3999 177.381C59.9306 177.563 60.4422 177.765 60.9639 177.977L60.9639 205.955H59.3999L59.3999 177.381ZM51.8179 205.965H50.2539L50.2539 175.573C50.7755 175.604 51.2962 175.644 51.8179 175.694L51.8179 205.965ZM54.1039 205.965H52.5398L52.5398 175.775C53.0615 175.836 53.5832 175.917 54.1039 176.007L54.1039 205.965ZM56.3909 205.965H54.8269L54.8269 176.129C55.3485 176.229 55.8692 176.351 56.3909 176.472L56.3909 205.965ZM57.1139 176.674C57.6345 176.816 58.1562 176.977 58.6769 177.138L58.6769 205.965H57.1139L57.1139 176.674ZM102.726 248.811C102.525 248.811 102.332 248.892 102.177 249.064C101.875 249.397 101.875 249.932 102.177 250.266C102.47 250.589 102.972 250.589 103.266 250.266C103.567 249.932 103.567 249.397 103.266 249.064C103.118 248.902 102.917 248.811 102.726 248.811ZM110.235 257.114C110.025 257.114 109.832 257.205 109.686 257.366C109.384 257.7 109.384 258.235 109.686 258.568C109.832 258.73 110.025 258.821 110.235 258.821C110.436 258.821 110.637 258.73 110.774 258.568C110.921 258.407 111.003 258.195 111.003 257.962C111.003 257.74 110.921 257.518 110.774 257.356C110.628 257.205 110.436 257.114 110.235 257.114ZM110.171 254.508C110.171 254.286 110.089 254.064 109.941 253.902C109.795 253.74 109.603 253.649 109.393 253.649C109.182 253.649 108.991 253.74 108.844 253.902C108.698 254.064 108.616 254.276 108.616 254.508C108.616 254.74 108.698 254.952 108.844 255.114C109.137 255.437 109.64 255.437 109.932 255.114C110.098 254.952 110.171 254.73 110.171 254.508ZM106.421 250.357C106.421 250.135 106.339 249.912 106.191 249.751C106.045 249.589 105.853 249.498 105.643 249.498C105.432 249.498 105.24 249.589 105.094 249.751C104.948 249.912 104.866 250.124 104.866 250.357C104.866 250.589 104.948 250.801 105.094 250.963C105.387 251.286 105.89 251.286 106.182 250.963C106.339 250.801 106.421 250.579 106.421 250.357ZM106.476 252.963C106.266 252.963 106.073 253.054 105.927 253.215C105.625 253.549 105.625 254.084 105.927 254.417C106.073 254.579 106.266 254.67 106.476 254.67C106.677 254.67 106.878 254.579 107.016 254.417C107.162 254.256 107.244 254.043 107.244 253.811C107.244 253.579 107.162 253.367 107.016 253.205C106.878 253.054 106.686 252.963 106.476 252.963ZM113.162 257.801C112.951 257.801 112.759 257.892 112.613 258.053C112.466 258.215 112.384 258.427 112.384 258.659C112.384 258.892 112.466 259.104 112.613 259.265C112.905 259.589 113.408 259.589 113.701 259.265C113.848 259.104 113.93 258.892 113.93 258.659C113.93 258.427 113.848 258.215 113.701 258.053C113.554 257.892 113.363 257.801 113.162 257.801ZM114.295 253.478C114.589 253.801 115.091 253.801 115.384 253.478C115.53 253.316 115.613 253.104 115.613 252.872C115.613 252.639 115.53 252.427 115.384 252.266C115.237 252.104 115.045 252.013 114.835 252.013C114.625 252.013 114.432 252.104 114.286 252.266C113.994 252.609 113.994 253.144 114.295 253.478ZM114.012 250.266C114.222 250.266 114.414 250.175 114.56 250.013C114.863 249.68 114.863 249.145 114.56 248.811C114.414 248.65 114.222 248.559 114.012 248.559C113.801 248.559 113.609 248.65 113.463 248.811C113.317 248.973 113.235 249.185 113.235 249.417C113.235 249.65 113.317 249.862 113.463 250.023C113.609 250.175 113.801 250.266 114.012 250.266ZM114.917 255.508C114.771 255.67 114.689 255.882 114.689 256.114C114.689 256.346 114.771 256.558 114.917 256.72C115.21 257.043 115.713 257.043 116.005 256.72C116.153 256.558 116.235 256.346 116.235 256.114C116.235 255.882 116.153 255.67 116.005 255.508C115.859 255.346 115.667 255.255 115.457 255.255C115.255 255.255 115.064 255.346 114.917 255.508ZM118.667 259.659C118.521 259.821 118.439 260.033 118.439 260.265C118.439 260.487 118.521 260.71 118.667 260.871C118.96 261.194 119.463 261.194 119.755 260.871C120.058 260.538 120.058 260.003 119.755 259.669C119.609 259.508 119.417 259.417 119.207 259.417C119.015 259.407 118.814 259.498 118.667 259.659ZM117.762 254.417C117.972 254.417 118.164 254.326 118.31 254.165C118.613 253.831 118.613 253.296 118.31 252.963C118.164 252.801 117.972 252.71 117.762 252.71C117.551 252.71 117.359 252.801 117.213 252.963C117.067 253.124 116.985 253.336 116.985 253.569C116.985 253.801 117.067 254.013 117.213 254.175C117.368 254.326 117.56 254.417 117.762 254.417ZM117.826 257.023C117.826 257.245 117.908 257.467 118.054 257.629C118.347 257.952 118.85 257.952 119.142 257.629C119.29 257.467 119.372 257.255 119.372 257.023C119.372 256.791 119.29 256.579 119.142 256.417C118.996 256.255 118.804 256.165 118.594 256.165C118.383 256.165 118.191 256.255 118.045 256.417C117.899 256.589 117.826 256.801 117.826 257.023ZM115.741 260.174C116.033 260.498 116.536 260.498 116.828 260.174C116.976 260.013 117.058 259.801 117.058 259.568C117.058 259.346 116.976 259.124 116.828 258.962C116.682 258.801 116.491 258.71 116.29 258.71C116.078 258.71 115.887 258.801 115.741 258.962C115.448 259.306 115.448 259.841 115.741 260.174ZM83.1802 228.913C83.1802 229.136 83.2623 229.358 83.4085 229.52C83.7019 229.843 84.2045 229.843 84.4969 229.52C84.7993 229.186 84.7993 228.651 84.4969 228.318C84.3507 228.156 84.1585 228.065 83.9482 228.065C83.7379 228.065 83.5456 228.156 83.3995 228.318C83.2623 228.469 83.1802 228.681 83.1802 228.913ZM121.576 261.174C121.576 261.407 121.658 261.619 121.804 261.78C122.097 262.104 122.6 262.104 122.892 261.78C123.04 261.619 123.122 261.407 123.122 261.174C123.122 260.942 123.04 260.73 122.892 260.568C122.746 260.407 122.554 260.316 122.344 260.316C122.133 260.316 121.941 260.407 121.795 260.568C121.658 260.74 121.576 260.952 121.576 261.174ZM83.6648 226.055C83.811 225.893 83.8931 225.681 83.8931 225.449C83.8931 225.227 83.811 225.005 83.6648 224.843C83.5186 224.681 83.3264 224.591 83.1251 224.591C82.9148 224.591 82.7226 224.681 82.5764 224.843C82.275 225.176 82.275 225.712 82.5764 226.045C82.8688 226.378 83.3724 226.378 83.6648 226.055ZM111.991 256.023C112.283 256.346 112.786 256.346 113.079 256.023C113.226 255.861 113.308 255.649 113.308 255.417C113.308 255.195 113.226 254.973 113.079 254.811C112.932 254.649 112.741 254.558 112.54 254.558C112.329 254.558 112.137 254.649 111.991 254.811C111.689 255.154 111.689 255.69 111.991 256.023ZM121.521 258.568C121.731 258.568 121.923 258.477 122.069 258.316C122.372 257.983 122.372 257.447 122.069 257.114C121.923 256.952 121.731 256.861 121.521 256.861C121.31 256.861 121.118 256.952 120.972 257.114C120.826 257.276 120.744 257.488 120.744 257.72C120.744 257.952 120.826 258.164 120.972 258.326C121.118 258.477 121.31 258.568 121.521 258.568ZM80.738 225.368C81.0404 225.035 81.0404 224.5 80.738 224.166C80.5918 224.005 80.3995 223.914 80.1892 223.914C79.979 223.914 79.7867 224.005 79.6405 224.166C79.4943 224.328 79.4122 224.54 79.4122 224.772C79.4122 224.995 79.4943 225.217 79.6405 225.378C79.9419 225.681 80.4456 225.691 80.738 225.368ZM95.216 240.519C95.0157 240.519 94.8235 240.6 94.6673 240.771C94.3659 241.105 94.3659 241.64 94.6673 241.973C94.9607 242.297 95.4633 242.297 95.7557 241.973C96.0581 241.64 96.0581 241.105 95.7557 240.771C95.6095 240.6 95.4083 240.519 95.216 240.519ZM91.403 233.752C91.403 233.519 91.3199 233.307 91.1737 233.146C91.0275 232.984 90.8352 232.893 90.634 232.893C90.4237 232.893 90.2314 232.984 90.0853 233.146C89.7839 233.479 89.7839 234.014 90.0853 234.348C90.3776 234.671 90.8813 234.671 91.1737 234.348C91.3199 234.196 91.403 233.984 91.403 233.752ZM98.9119 242.054C98.9119 241.822 98.8288 241.61 98.6826 241.448C98.5364 241.286 98.3441 241.196 98.1429 241.196C97.9326 241.196 97.7403 241.286 97.5941 241.448C97.2927 241.781 97.2927 242.317 97.5941 242.65C97.8875 242.973 98.3902 242.973 98.6826 242.65C98.8288 242.499 98.9119 242.286 98.9119 242.054ZM98.966 244.66C98.7657 244.66 98.5734 244.741 98.4172 244.913C98.1158 245.246 98.1158 245.781 98.4172 246.115C98.7196 246.448 99.2043 246.448 99.5057 246.115C99.8081 245.781 99.8081 245.246 99.5057 244.913C99.3595 244.751 99.1672 244.66 98.966 244.66ZM102.662 246.205C102.662 245.973 102.579 245.761 102.432 245.599C102.286 245.438 102.094 245.347 101.893 245.347C101.683 245.347 101.49 245.438 101.344 245.599C101.043 245.933 101.043 246.468 101.344 246.801C101.637 247.125 102.14 247.125 102.432 246.801C102.589 246.65 102.662 246.428 102.662 246.205ZM95.1529 237.903C95.1529 237.671 95.0698 237.458 94.9236 237.297C94.7774 237.135 94.5852 237.044 94.3839 237.044C94.1736 237.044 93.9814 237.135 93.8352 237.297C93.5338 237.63 93.5338 238.166 93.8352 238.499C94.1276 238.822 94.6312 238.822 94.9236 238.499C95.0698 238.347 95.1529 238.135 95.1529 237.903ZM91.4571 236.368C91.2468 236.368 91.0545 236.458 90.9083 236.62C90.7621 236.782 90.68 236.994 90.68 237.226C90.68 237.458 90.7621 237.671 90.9083 237.832C91.0545 237.994 91.2468 238.085 91.448 238.085C91.6583 238.085 91.8506 237.994 91.9968 237.832C92.2992 237.499 92.2992 236.964 91.9968 236.63C91.8596 236.448 91.6673 236.368 91.4571 236.368ZM103.027 241.024C103.32 241.347 103.823 241.347 104.116 241.024C104.262 240.862 104.344 240.65 104.344 240.418C104.344 240.196 104.262 239.974 104.116 239.812C103.97 239.65 103.777 239.559 103.567 239.559C103.357 239.559 103.164 239.65 103.018 239.812C102.726 240.155 102.726 240.691 103.027 241.024ZM93.2134 235.267C93.5057 235.59 94.0094 235.59 94.3018 235.267C94.448 235.105 94.5301 234.893 94.5301 234.661C94.5301 234.428 94.448 234.216 94.3018 234.055C94.1556 233.893 93.9634 233.802 93.7531 233.802C93.5428 233.802 93.3506 233.893 93.2044 234.055C92.912 234.398 92.912 234.943 93.2134 235.267ZM92.3903 230.6C92.0889 230.934 92.0889 231.469 92.3903 231.802C92.6827 232.125 93.1863 232.125 93.4787 231.802C93.6249 231.641 93.707 231.428 93.707 231.196C93.707 230.974 93.6249 230.752 93.4787 230.59C93.3325 230.429 93.1403 230.338 92.93 230.338C92.7287 230.358 92.5365 230.449 92.3903 230.6ZM95.7838 229.267C95.93 229.105 96.0121 228.893 96.0121 228.661C96.0121 228.439 95.93 228.217 95.7838 228.055C95.6376 227.893 95.4453 227.802 95.235 227.802C95.0248 227.802 94.8325 227.893 94.6863 228.055C94.5401 228.217 94.457 228.429 94.457 228.661C94.457 228.893 94.5401 229.105 94.6863 229.267C94.9787 229.58 95.4904 229.59 95.7838 229.267ZM96.1402 234.752C95.994 234.913 95.9119 235.125 95.9119 235.358C95.9119 235.59 95.994 235.802 96.1402 235.964C96.4326 236.287 96.9363 236.287 97.2287 235.964C97.3748 235.802 97.457 235.59 97.457 235.358C97.457 235.125 97.3748 234.913 97.2287 234.752C97.0825 234.59 96.8902 234.499 96.6799 234.499C96.4787 234.509 96.2864 234.59 96.1402 234.752ZM95.5184 232.721C95.8108 233.045 96.3145 233.045 96.6068 232.721C96.753 232.56 96.8351 232.348 96.8351 232.115C96.8351 231.893 96.753 231.671 96.6068 231.509C96.4606 231.348 96.2684 231.257 96.0581 231.257C95.8478 231.257 95.6556 231.348 95.5094 231.509C95.216 231.853 95.216 232.388 95.5184 232.721ZM96.9723 239.418C97.2657 239.741 97.7684 239.741 98.0607 239.418C98.2069 239.256 98.2901 239.044 98.2901 238.812C98.2901 238.58 98.2069 238.367 98.0607 238.206C97.9146 238.044 97.7223 237.953 97.512 237.953C97.3108 237.953 97.1095 238.044 96.9633 238.206C96.6709 238.549 96.6709 239.085 96.9723 239.418ZM91.7685 228.57C91.9147 228.732 92.1069 228.823 92.3172 228.823C92.5185 228.823 92.7197 228.732 92.8569 228.57C93.0031 228.408 93.0852 228.196 93.0852 227.964C93.0852 227.732 93.0031 227.52 92.8569 227.358C92.7107 227.196 92.5185 227.106 92.3082 227.106C92.0979 227.106 91.9056 227.196 91.7595 227.358C91.4661 227.701 91.4661 228.247 91.7685 228.57ZM86.9301 233.065C86.9301 233.297 87.0122 233.509 87.1584 233.671C87.4518 233.994 87.9545 233.994 88.2468 233.671C88.5492 233.337 88.5492 232.802 88.2468 232.469C88.1006 232.307 87.9084 232.216 87.6981 232.216C87.4878 232.216 87.2956 232.307 87.1494 232.469C87.0122 232.62 86.9301 232.833 86.9301 233.065ZM111.158 251.357C111.012 251.518 110.93 251.73 110.93 251.963C110.93 252.195 111.012 252.407 111.158 252.569C111.451 252.892 111.954 252.892 112.246 252.569C112.393 252.407 112.476 252.195 112.476 251.963C112.476 251.73 112.393 251.518 112.246 251.357C112.1 251.195 111.908 251.104 111.698 251.104C111.496 251.104 111.304 251.195 111.158 251.357ZM86.7929 226.974C87.0943 226.641 87.0943 226.106 86.7929 225.772C86.6467 225.611 86.4455 225.52 86.2442 225.52C86.0429 225.52 85.8507 225.601 85.6955 225.772C85.3931 226.106 85.3931 226.641 85.6955 226.974C86.0059 227.297 86.5005 227.297 86.7929 226.974ZM86.875 228.752C86.6738 228.752 86.4725 228.843 86.3263 229.004C86.0249 229.338 86.0249 229.873 86.3263 230.206C86.6187 230.53 87.1224 230.53 87.4147 230.206C87.5609 230.045 87.643 229.833 87.643 229.6C87.643 229.368 87.5609 229.156 87.4147 228.994C87.2776 228.843 87.0853 228.752 86.875 228.752ZM89.7198 227.661C89.866 227.499 89.9481 227.287 89.9481 227.055C89.9481 226.833 89.866 226.611 89.7198 226.449C89.5736 226.287 89.3813 226.196 89.1711 226.196C88.9608 226.196 88.7685 226.287 88.6223 226.449C88.3199 226.782 88.3199 227.318 88.6223 227.651C88.9237 227.984 89.4364 227.984 89.7198 227.661ZM89.4634 231.115C89.7648 231.449 90.2505 231.449 90.5519 231.115C90.8533 230.782 90.8533 230.247 90.5519 229.913C90.4057 229.752 90.2044 229.661 90.0031 229.661C89.8019 229.661 89.6096 229.742 89.4544 229.913C89.162 230.247 89.162 230.792 89.4634 231.115ZM92.0248 225.116C92.171 224.954 92.2531 224.742 92.2531 224.51C92.2531 224.287 92.171 224.065 92.0248 223.904C91.8776 223.742 91.6864 223.651 91.4761 223.651C91.2648 223.651 91.0736 223.742 90.9274 223.904C90.7802 224.065 90.6981 224.277 90.6981 224.51C90.6981 224.742 90.7802 224.954 90.9274 225.116C91.2288 225.439 91.7314 225.439 92.0248 225.116ZM108.231 251.872C108.525 252.195 109.027 252.195 109.32 251.872C109.466 251.71 109.549 251.498 109.549 251.266C109.549 251.033 109.466 250.821 109.32 250.66C109.173 250.498 108.981 250.407 108.78 250.407C108.57 250.407 108.378 250.498 108.231 250.66C107.939 251.003 107.939 251.538 108.231 251.872ZM107.408 247.205C107.262 247.367 107.18 247.579 107.18 247.811C107.18 248.044 107.262 248.256 107.408 248.417C107.701 248.741 108.204 248.741 108.496 248.417C108.643 248.256 108.726 248.044 108.726 247.811C108.726 247.579 108.643 247.367 108.496 247.205C108.35 247.044 108.158 246.953 107.948 246.953C107.747 246.963 107.554 247.044 107.408 247.205ZM106.786 245.175C107.079 245.498 107.582 245.498 107.875 245.175C108.021 245.014 108.103 244.801 108.103 244.569C108.103 244.337 108.021 244.125 107.875 243.963C107.728 243.802 107.536 243.711 107.326 243.711C107.116 243.711 106.923 243.802 106.777 243.963C106.485 244.307 106.485 244.842 106.786 245.175ZM110.802 245.862C111.103 245.529 111.103 244.993 110.802 244.66C110.655 244.499 110.463 244.408 110.253 244.408C110.043 244.408 109.85 244.499 109.704 244.66C109.558 244.822 109.476 245.034 109.476 245.266C109.476 245.488 109.558 245.711 109.704 245.872C109.996 246.185 110.509 246.185 110.802 245.862ZM107.043 241.711C107.189 241.549 107.271 241.337 107.271 241.105C107.271 240.872 107.189 240.66 107.043 240.499C106.896 240.337 106.704 240.246 106.494 240.246C106.284 240.246 106.091 240.337 105.945 240.499C105.799 240.66 105.716 240.872 105.716 241.105C105.716 241.327 105.799 241.549 105.945 241.711C106.247 242.034 106.75 242.034 107.043 241.711ZM99.5337 233.418C99.6799 233.257 99.762 233.045 99.762 232.812C99.762 232.58 99.6799 232.368 99.5337 232.206C99.3875 232.045 99.1952 231.954 98.985 231.954C98.7747 231.954 98.5824 232.045 98.4362 232.206C98.29 232.368 98.2069 232.58 98.2069 232.812C98.2069 233.045 98.29 233.257 98.4362 233.418C98.7376 233.731 99.2403 233.731 99.5337 233.418ZM110.536 249.326C110.829 249.65 111.332 249.65 111.625 249.326C111.771 249.165 111.853 248.953 111.853 248.72C111.853 248.488 111.771 248.276 111.625 248.114C111.478 247.953 111.286 247.862 111.076 247.862C110.866 247.862 110.673 247.953 110.527 248.114C110.235 248.458 110.235 248.993 110.536 249.326ZM104.481 247.72C104.775 248.044 105.277 248.044 105.57 247.72C105.716 247.559 105.799 247.347 105.799 247.115C105.799 246.882 105.716 246.67 105.57 246.508C105.423 246.347 105.231 246.256 105.021 246.256C104.82 246.256 104.618 246.347 104.472 246.508C104.18 246.852 104.18 247.387 104.481 247.72ZM99.2773 236.873C99.5697 237.196 100.073 237.196 100.366 236.873C100.512 236.711 100.594 236.499 100.594 236.267C100.594 236.044 100.512 235.822 100.366 235.661C100.22 235.499 100.027 235.408 99.8171 235.408C99.6068 235.408 99.4146 235.499 99.2684 235.661C98.976 236.004 98.9759 236.539 99.2773 236.873ZM100.722 243.569C101.016 243.892 101.518 243.892 101.811 243.569C101.957 243.408 102.04 243.195 102.04 242.963C102.04 242.731 101.957 242.519 101.811 242.357C101.664 242.196 101.472 242.105 101.271 242.105C101.061 242.105 100.868 242.196 100.722 242.357C100.43 242.701 100.43 243.236 100.722 243.569ZM99.8992 238.903C99.753 239.064 99.6709 239.277 99.6709 239.509C99.6709 239.741 99.753 239.953 99.8992 240.115C100.192 240.438 100.695 240.438 100.988 240.115C101.134 239.953 101.216 239.741 101.216 239.509C101.216 239.277 101.134 239.064 100.988 238.903C100.841 238.741 100.649 238.65 100.439 238.65C100.238 238.66 100.045 238.741 99.8992 238.903ZM103.293 237.57C103.439 237.408 103.521 237.196 103.521 236.964C103.521 236.731 103.439 236.519 103.293 236.357C103.146 236.196 102.954 236.105 102.744 236.105C102.534 236.105 102.341 236.196 102.195 236.357C102.049 236.519 101.966 236.731 101.966 236.964C101.966 237.196 102.049 237.408 102.195 237.57C102.488 237.883 103 237.883 103.293 237.57ZM103.649 243.054C103.503 243.216 103.421 243.428 103.421 243.66C103.421 243.892 103.503 244.105 103.649 244.266C103.942 244.589 104.445 244.589 104.738 244.266C104.884 244.105 104.966 243.892 104.966 243.66C104.966 243.428 104.884 243.216 104.738 243.054C104.591 242.892 104.399 242.802 104.189 242.802C103.988 242.812 103.795 242.892 103.649 243.054Z" fill="#6F0625"/>
<path d="M143.137 157.389V262.339H48.1027L48.1027 157.389H143.137Z" stroke="#8A1638" stroke-miterlimit="10"/>
<path d="M19.5313 255.671C26.0469 257.489 32.5624 255.035 36.769 249.855L48.5625 236.859V235.86L39.078 246.311C39.82 244.857 40.3977 243.312 40.7272 241.676C40.8103 241.403 40.8103 241.131 40.8924 240.858L48.5625 232.406V231.407L41.0576 239.676C41.2218 238.495 41.2218 237.314 41.2218 236.132L48.5625 228.044V227.044L41.1397 235.223C41.0576 234.224 40.8924 233.224 40.7272 232.315L48.5625 223.682V222.682L40.4799 231.588C40.2325 230.77 39.9852 229.952 39.6548 229.135L48.5625 219.32V218.32L39.3253 228.498C38.9949 227.771 38.5834 227.044 38.1708 226.317L48.5625 214.867V213.867L37.7583 225.772C37.3457 225.136 36.8511 224.5 36.3564 223.954L48.5625 210.504V209.959H48.0679L35.8618 223.409C35.3661 222.864 34.7894 222.319 34.2116 221.864L45.0158 209.959H44.1086L33.717 221.41C33.1392 220.955 32.4803 220.501 31.7374 220.137L40.9745 209.959H40.0673L31.1606 219.774C30.4176 219.41 29.6757 219.138 28.9337 218.865L37.0163 209.959H36.1091L28.2738 218.593H28.1917C27.3666 218.32 26.4594 218.229 25.6343 218.138L33.0571 209.959H32.1499L24.8102 218.047C23.7378 217.956 22.6654 218.047 21.593 218.229L29.0989 209.959H28.1917L20.5206 218.411C18.7893 218.774 17.1392 219.501 15.5721 220.41L25.1397 209.868H24.2325L12.5211 222.773C9.96473 225.227 8.06723 228.589 7.16003 232.406C4.52056 242.676 10.1289 253.127 19.5313 255.671ZM33.717 228.408C34.7894 229.862 35.6135 231.679 36.026 233.588C36.3565 234.951 36.4385 236.223 36.4385 237.495C34.3768 237.495 32.3972 236.041 31.9026 233.678C31.4079 231.679 32.232 229.589 33.717 228.408ZM32.3972 244.311C32.975 244.493 33.5517 244.766 34.0464 245.22C32.3151 247.946 29.7578 249.764 26.872 250.673C26.6246 249.855 26.6246 248.946 26.7889 248.037C27.4487 245.311 30.0061 243.675 32.3972 244.311ZM23.7378 223.136C25.3049 223.136 26.872 223.5 28.2738 224.045C27.6961 226.317 25.8817 227.953 23.6547 227.953C21.4278 227.953 19.6134 226.317 19.0367 224.045C20.5206 223.409 22.0877 223.136 23.7378 223.136ZM18.7062 237.768L20.1091 232.861C20.2733 232.224 20.851 231.861 21.4278 231.861H26.0469C26.6246 231.861 27.2014 232.315 27.3666 232.861L28.7684 237.768C28.9337 238.404 28.7685 239.04 28.2738 239.495L24.4798 242.494C23.9852 242.857 23.3253 242.857 22.9128 242.494L19.1188 239.495C18.7062 239.131 18.542 238.404 18.7062 237.768ZM20.6858 247.946C20.851 248.855 20.851 249.764 20.6037 250.582C17.7169 249.764 15.1605 247.856 13.4283 245.129C13.9229 244.766 14.4176 244.402 15.0774 244.22C17.5517 243.675 20.026 245.311 20.6858 247.946ZM11.4487 233.678C11.8612 231.679 12.6863 229.952 13.7577 228.498C15.2427 229.68 16.0677 231.77 15.6552 233.86C15.1605 236.132 13.1809 237.677 11.1192 237.677C11.0361 236.314 11.1192 234.951 11.4487 233.678Z" fill="#6F0625"/>
<path d="M48.0615 210.421L48.0615 262.343H0.999601L0.999601 210.421H48.0615Z" stroke="#8A1638" stroke-miterlimit="10"/>
<path d="M34.8803 204.945C34.8082 205.025 34.8082 205.157 34.8803 205.237C34.9524 205.316 35.0725 205.316 35.1446 205.237C35.2167 205.157 35.2167 205.025 35.1446 204.945C35.0725 204.866 34.9524 204.866 34.8803 204.945ZM35.6172 204.733C35.5451 204.813 35.5451 204.945 35.6172 205.025C35.6893 205.104 35.8095 205.104 35.8816 205.025C35.9537 204.945 35.9537 204.813 35.8816 204.733C35.8015 204.654 35.6893 204.654 35.6172 204.733ZM36.3062 204.574C36.2341 204.654 36.2341 204.786 36.3062 204.866C36.3783 204.945 36.4984 204.945 36.5705 204.866C36.6426 204.786 36.6426 204.654 36.5705 204.574C36.4904 204.494 36.3783 204.494 36.3062 204.574ZM35.7614 203.973C35.6893 204.053 35.6893 204.185 35.7614 204.265C35.8335 204.344 35.9537 204.344 36.0258 204.265C36.0979 204.185 36.0979 204.053 36.0258 203.973C35.9537 203.894 35.8335 203.894 35.7614 203.973ZM37.5798 204.954C37.5077 205.034 37.5077 205.166 37.5798 205.246C37.6519 205.325 37.7721 205.325 37.8442 205.246C37.9163 205.166 37.9163 205.034 37.8442 204.954C37.7641 204.875 37.6519 204.875 37.5798 204.954ZM37.0351 204.353C36.963 204.433 36.963 204.565 37.0351 204.645C37.1072 204.724 37.2274 204.724 37.2995 204.645C37.3716 204.565 37.3716 204.433 37.2995 204.353C37.2274 204.274 37.1072 204.274 37.0351 204.353ZM36.4984 203.761C36.4263 203.841 36.4263 203.973 36.4984 204.053C36.5705 204.132 36.6907 204.132 36.7628 204.053C36.8349 203.973 36.8349 203.841 36.7628 203.761C36.6826 203.682 36.5705 203.682 36.4984 203.761ZM38.2687 204.795C38.1966 204.875 38.1966 205.007 38.2687 205.087C38.3408 205.166 38.461 205.166 38.5331 205.087C38.6052 205.007 38.6052 204.875 38.5331 204.795C38.453 204.715 38.3408 204.715 38.2687 204.795ZM37.724 204.194C37.6519 204.274 37.6519 204.406 37.724 204.486C37.7961 204.565 37.9163 204.565 37.9884 204.486C38.0605 204.406 38.0605 204.274 37.9884 204.194C37.9163 204.115 37.7961 204.115 37.724 204.194ZM37.1873 203.602C37.1152 203.682 37.1152 203.814 37.1873 203.894C37.2594 203.973 37.3796 203.973 37.4516 203.894C37.5237 203.814 37.5237 203.682 37.4516 203.602C37.3715 203.523 37.2594 203.523 37.1873 203.602ZM36.6426 203.001C36.5705 203.081 36.5705 203.213 36.6426 203.293C36.7147 203.372 36.8348 203.372 36.9069 203.293C36.979 203.213 36.979 203.081 36.9069 203.001C36.8348 202.922 36.7147 202.922 36.6426 203.001ZM38.9977 204.574C38.9256 204.654 38.9256 204.786 38.9977 204.866C39.0698 204.945 39.19 204.945 39.262 204.866C39.3341 204.786 39.3341 204.654 39.262 204.574C39.19 204.494 39.0698 204.494 38.9977 204.574ZM38.461 203.982C38.3889 204.062 38.3889 204.194 38.461 204.274C38.5331 204.353 38.6532 204.353 38.7253 204.274C38.7974 204.194 38.7974 204.062 38.7253 203.982C38.6452 203.903 38.5331 203.903 38.461 203.982ZM38.1806 203.381C38.1085 203.302 37.9884 203.302 37.9163 203.381C37.8442 203.461 37.8442 203.593 37.9163 203.673C37.9884 203.752 38.1085 203.752 38.1806 203.673C38.2527 203.593 38.2527 203.461 38.1806 203.381ZM37.6359 202.789C37.5638 202.709 37.4437 202.709 37.3716 202.789C37.2995 202.869 37.2995 203.001 37.3716 203.081C37.4437 203.16 37.5638 203.16 37.6359 203.081C37.708 202.992 37.708 202.869 37.6359 202.789ZM39.1499 203.814C39.0778 203.894 39.0778 204.026 39.1499 204.106C39.222 204.185 39.3422 204.185 39.4143 204.106C39.4863 204.026 39.4863 203.894 39.4143 203.814C39.3341 203.735 39.222 203.735 39.1499 203.814ZM38.6052 203.222C38.5331 203.302 38.5331 203.434 38.6052 203.514C38.6773 203.593 38.7974 203.593 38.8695 203.514C38.9416 203.434 38.9416 203.302 38.8695 203.222C38.7974 203.143 38.6773 203.143 38.6052 203.222ZM38.0685 202.913C38.1406 202.992 38.2607 202.992 38.3328 202.913C38.4049 202.833 38.4049 202.701 38.3328 202.621C38.2607 202.542 38.1406 202.542 38.0685 202.621C37.9964 202.701 37.9964 202.833 38.0685 202.913ZM37.7881 202.321C37.8602 202.241 37.8602 202.108 37.7881 202.029C37.716 201.949 37.5959 201.949 37.5238 202.029C37.4517 202.108 37.4517 202.241 37.5238 202.321C37.5959 202.4 37.716 202.4 37.7881 202.321ZM39.8789 203.602C39.8068 203.682 39.8068 203.814 39.8789 203.894C39.9509 203.973 40.0711 203.973 40.1432 203.894C40.2153 203.814 40.2153 203.682 40.1432 203.602C40.0711 203.523 39.9509 203.523 39.8789 203.602ZM39.3421 203.01C39.27 203.089 39.27 203.222 39.3421 203.302C39.4142 203.381 39.5344 203.381 39.6065 203.302C39.6786 203.222 39.6786 203.089 39.6065 203.01C39.5264 202.93 39.4142 202.93 39.3421 203.01ZM39.0618 202.409C38.9897 202.329 38.8695 202.329 38.7974 202.409C38.7253 202.489 38.7253 202.621 38.7974 202.701C38.8695 202.78 38.9897 202.78 39.0618 202.701C39.1339 202.621 39.1339 202.489 39.0618 202.409ZM38.517 202.1C38.5891 202.02 38.5891 201.888 38.517 201.808C38.445 201.728 38.3248 201.728 38.2527 201.808C38.1806 201.888 38.1806 202.02 38.2527 202.1C38.3328 202.179 38.445 202.179 38.517 202.1ZM40.5677 203.443C40.4957 203.523 40.4957 203.655 40.5677 203.735C40.6398 203.814 40.76 203.814 40.8321 203.735C40.9042 203.655 40.9042 203.523 40.8321 203.443C40.76 203.363 40.6398 203.363 40.5677 203.443ZM40.0311 202.842C39.959 202.922 39.959 203.054 40.0311 203.134C40.1032 203.213 40.2233 203.213 40.2954 203.134C40.3675 203.054 40.3675 202.922 40.2954 202.842C40.2153 202.762 40.1032 202.762 40.0311 202.842ZM39.4863 202.25C39.4142 202.329 39.4142 202.462 39.4863 202.542C39.5584 202.621 39.6786 202.621 39.7507 202.542C39.8228 202.462 39.8228 202.329 39.7507 202.25C39.6786 202.17 39.5584 202.17 39.4863 202.25ZM38.9496 201.941C39.0217 202.02 39.1419 202.02 39.214 201.941C39.2861 201.861 39.2861 201.728 39.214 201.649C39.1419 201.569 39.0217 201.569 38.9496 201.649C38.8775 201.728 38.8775 201.861 38.9496 201.941ZM38.6693 201.348C38.7414 201.269 38.7414 201.136 38.6693 201.057C38.5972 200.977 38.477 200.977 38.4049 201.057C38.3328 201.136 38.3328 201.269 38.4049 201.348C38.477 201.419 38.5972 201.419 38.6693 201.348ZM40.76 202.63C40.6879 202.709 40.6879 202.842 40.76 202.922C40.8321 203.001 40.9522 203.001 41.0243 202.922C41.0964 202.842 41.0964 202.709 41.0243 202.63C40.9522 202.55 40.8321 202.55 40.76 202.63ZM40.4797 202.038C40.4076 201.958 40.2874 201.958 40.2153 202.038C40.1432 202.117 40.1432 202.25 40.2153 202.329C40.2874 202.409 40.4076 202.409 40.4797 202.329C40.5517 202.241 40.5517 202.117 40.4797 202.038ZM39.9429 201.437C39.8708 201.357 39.7507 201.357 39.6786 201.437C39.6065 201.516 39.6065 201.649 39.6786 201.72C39.7507 201.799 39.8708 201.799 39.9429 201.72C40.015 201.649 40.015 201.516 39.9429 201.437ZM39.3982 201.127C39.4703 201.048 39.4703 200.915 39.3982 200.836C39.3261 200.756 39.206 200.756 39.1339 200.836C39.0618 200.915 39.0618 201.048 39.1339 201.127C39.214 201.207 39.3261 201.207 39.3982 201.127ZM41.4489 202.471C41.3768 202.55 41.3768 202.683 41.4489 202.762C41.521 202.842 41.6412 202.842 41.7133 202.762C41.7854 202.683 41.7854 202.55 41.7133 202.471C41.6412 202.391 41.521 202.391 41.4489 202.471ZM40.9122 201.87C40.8401 201.949 40.8401 202.082 40.9122 202.162C40.9843 202.241 41.1045 202.241 41.1766 202.162C41.2486 202.082 41.2486 201.949 41.1766 201.87C41.0964 201.79 40.9843 201.79 40.9122 201.87ZM40.3675 201.278C40.2954 201.357 40.2954 201.49 40.3675 201.569C40.4396 201.649 40.5597 201.649 40.6318 201.569C40.7039 201.49 40.7039 201.357 40.6318 201.278C40.5597 201.198 40.4396 201.198 40.3675 201.278ZM39.8308 200.677C39.7587 200.756 39.7587 200.889 39.8308 200.968C39.9029 201.048 40.023 201.048 40.0951 200.968C40.1672 200.889 40.1672 200.756 40.0951 200.677C40.015 200.597 39.9029 200.597 39.8308 200.677ZM39.5504 200.367C39.6225 200.288 39.6225 200.155 39.5504 200.076C39.4783 199.996 39.3582 199.996 39.2861 200.076C39.214 200.155 39.214 200.288 39.2861 200.367C39.3582 200.447 39.4783 200.447 39.5504 200.367ZM41.6412 201.658C41.5691 201.737 41.5691 201.87 41.6412 201.949C41.7133 202.029 41.8334 202.029 41.9055 201.949C41.9776 201.87 41.9776 201.737 41.9055 201.658C41.8334 201.578 41.7133 201.578 41.6412 201.658ZM41.3688 201.066C41.2967 200.986 41.1766 200.986 41.1045 201.066C41.0324 201.145 41.0324 201.278 41.1045 201.357C41.1766 201.437 41.2967 201.437 41.3688 201.357C41.4329 201.269 41.4329 201.145 41.3688 201.066ZM40.8241 200.756C40.8962 200.677 40.8962 200.544 40.8241 200.465C40.752 200.385 40.6318 200.385 40.5597 200.465C40.4876 200.544 40.4876 200.677 40.5597 200.756C40.6318 200.836 40.752 200.836 40.8241 200.756ZM40.023 200.155C40.0951 200.235 40.2153 200.235 40.2874 200.155C40.3595 200.076 40.3595 199.943 40.2874 199.864C40.2153 199.784 40.0951 199.784 40.023 199.864C39.9509 199.952 39.9509 200.076 40.023 200.155ZM41.7934 200.898C41.7213 200.977 41.7213 201.11 41.7934 201.189C41.8655 201.269 41.9856 201.269 42.0577 201.189C42.1298 201.11 42.1298 200.977 42.0577 200.898C41.9776 200.818 41.8655 200.818 41.7934 200.898ZM41.2487 200.306C41.1766 200.385 41.1766 200.518 41.2487 200.597C41.3208 200.677 41.4409 200.677 41.513 200.597C41.5851 200.518 41.5851 200.385 41.513 200.306C41.4409 200.226 41.3208 200.226 41.2487 200.306ZM40.712 199.705C40.6399 199.784 40.6399 199.917 40.712 199.996C40.784 200.076 40.9042 200.076 40.9763 199.996C41.0484 199.917 41.0484 199.784 40.9763 199.705C40.8962 199.625 40.784 199.625 40.712 199.705ZM40.1672 199.395C40.2393 199.475 40.3595 199.475 40.4316 199.395C40.5037 199.316 40.5037 199.183 40.4316 199.104C40.3595 199.024 40.2393 199.024 40.1672 199.104C40.0951 199.192 40.0951 199.316 40.1672 199.395ZM42.5223 200.686C42.4502 200.765 42.4502 200.898 42.5223 200.977C42.5944 201.057 42.7146 201.057 42.7867 200.977C42.8588 200.898 42.8588 200.765 42.7867 200.686C42.7146 200.606 42.5944 200.606 42.5223 200.686ZM41.9856 200.093C41.9135 200.173 41.9135 200.306 41.9856 200.385C42.0577 200.465 42.1779 200.465 42.25 200.385C42.3221 200.306 42.3221 200.173 42.25 200.093C42.1779 200.014 42.0577 200.014 41.9856 200.093ZM41.7053 199.784C41.7774 199.705 41.7774 199.572 41.7053 199.492C41.6332 199.413 41.513 199.413 41.4409 199.492C41.3688 199.572 41.3688 199.705 41.4409 199.784C41.513 199.864 41.6332 199.864 41.7053 199.784ZM40.9042 199.183C40.9763 199.263 41.0965 199.263 41.1685 199.183C41.2406 199.104 41.2406 198.971 41.1685 198.891C41.0965 198.812 40.9763 198.812 40.9042 198.891C40.8321 198.98 40.8321 199.104 40.9042 199.183ZM42.6745 199.926C42.6024 200.005 42.6024 200.138 42.6745 200.217C42.7466 200.297 42.8668 200.297 42.9389 200.217C43.011 200.138 43.011 200.005 42.9389 199.926C42.8588 199.846 42.7466 199.846 42.6745 199.926ZM42.1298 199.333C42.0577 199.413 42.0577 199.545 42.1298 199.625C42.2019 199.705 42.3221 199.705 42.3942 199.625C42.4663 199.545 42.4663 199.413 42.3942 199.333C42.3221 199.254 42.2019 199.254 42.1298 199.333ZM41.5931 198.732C41.521 198.812 41.521 198.945 41.5931 199.024C41.6652 199.104 41.7853 199.104 41.8574 199.024C41.9295 198.945 41.9295 198.812 41.8574 198.732C41.7773 198.653 41.6652 198.653 41.5931 198.732ZM41.0484 198.423C41.1205 198.503 41.2407 198.503 41.3127 198.423C41.3848 198.344 41.3848 198.211 41.3127 198.131C41.2407 198.052 41.1205 198.052 41.0484 198.131C40.9763 198.22 40.9763 198.344 41.0484 198.423ZM42.8668 199.121C42.7947 199.201 42.7947 199.333 42.8668 199.413C42.9389 199.492 43.059 199.492 43.1311 199.413C43.2032 199.333 43.2032 199.201 43.1311 199.121C43.059 199.042 42.9389 199.042 42.8668 199.121ZM42.5864 198.52C42.5143 198.441 42.3942 198.441 42.3221 198.52C42.25 198.6 42.25 198.732 42.3221 198.812C42.3942 198.891 42.5143 198.891 42.5864 198.812C42.6585 198.732 42.6585 198.6 42.5864 198.52ZM41.7854 198.211C41.8575 198.291 41.9776 198.291 42.0497 198.211C42.1218 198.131 42.1218 197.999 42.0497 197.919C41.9776 197.84 41.8575 197.84 41.7854 197.919C41.7133 198.008 41.7133 198.131 41.7854 198.211ZM43.011 198.361C42.9389 198.441 42.9389 198.573 43.011 198.653C43.0831 198.732 43.2032 198.732 43.2753 198.653C43.3474 198.573 43.3474 198.441 43.2753 198.361C43.2032 198.282 43.0831 198.282 43.011 198.361ZM42.4743 197.76C42.4022 197.84 42.4022 197.972 42.4743 198.052C42.5464 198.131 42.6665 198.131 42.7386 198.052C42.8107 197.972 42.8107 197.84 42.7386 197.76C42.6585 197.681 42.5464 197.681 42.4743 197.76ZM41.9296 197.451C42.0017 197.53 42.1218 197.53 42.1939 197.451C42.266 197.371 42.266 197.239 42.1939 197.159C42.1218 197.08 42.0017 197.08 41.9296 197.159C41.8575 197.248 41.8575 197.371 41.9296 197.451ZM43.2112 197.84C43.2833 197.919 43.4035 197.919 43.4756 197.84C43.5477 197.76 43.5477 197.628 43.4756 197.548C43.4035 197.469 43.2833 197.469 43.2112 197.548C43.1391 197.628 43.1391 197.76 43.2112 197.84ZM42.9309 197.239C43.003 197.159 43.003 197.027 42.9309 196.947C42.8588 196.868 42.7386 196.868 42.6665 196.947C42.5944 197.027 42.5944 197.159 42.6665 197.23C42.7386 197.318 42.8588 197.318 42.9309 197.239ZM42.8107 196.479C42.8828 196.558 43.003 196.558 43.075 196.479C43.1471 196.399 43.1471 196.267 43.075 196.187C43.003 196.108 42.8828 196.108 42.8107 196.187C42.7386 196.275 42.7386 196.399 42.8107 196.479ZM33.6306 204.486C33.5585 204.565 33.5585 204.698 33.6306 204.777C33.7027 204.857 33.8229 204.857 33.895 204.777C33.9671 204.698 33.9671 204.565 33.895 204.486C33.8229 204.406 33.7027 204.406 33.6306 204.486ZM33.0939 203.894C33.0218 203.973 33.0218 204.106 33.0939 204.185C33.166 204.265 33.2862 204.265 33.3583 204.185C33.4304 204.106 33.4304 203.973 33.3583 203.894C33.2782 203.814 33.166 203.814 33.0939 203.894ZM34.3195 204.327C34.2474 204.406 34.2474 204.539 34.3195 204.618C34.3916 204.698 34.5118 204.698 34.5839 204.618C34.656 204.539 34.656 204.406 34.5839 204.327C34.5038 204.247 34.3916 204.247 34.3195 204.327ZM33.7748 203.735C33.7027 203.814 33.7027 203.947 33.7748 204.026C33.8469 204.106 33.9671 204.106 34.0392 204.026C34.1113 203.947 34.1113 203.814 34.0392 203.735C33.9671 203.655 33.8469 203.655 33.7748 203.735ZM35.0565 204.115C34.9844 204.194 34.9844 204.327 35.0565 204.406C35.1286 204.486 35.2488 204.486 35.3209 204.406C35.393 204.327 35.393 204.194 35.3209 204.115C35.2408 204.035 35.1286 204.035 35.0565 204.115ZM34.7761 203.514C34.704 203.434 34.5839 203.434 34.5118 203.514C34.4397 203.593 34.4397 203.726 34.5118 203.805C34.5839 203.885 34.704 203.885 34.7761 203.805C34.8482 203.726 34.8482 203.593 34.7761 203.514ZM34.2314 202.922C34.1593 202.842 34.0392 202.842 33.9671 202.922C33.895 203.001 33.895 203.134 33.9671 203.213C34.0392 203.293 34.1593 203.293 34.2314 203.213C34.3035 203.134 34.3035 203.001 34.2314 202.922ZM35.2007 203.355C35.1286 203.434 35.1286 203.567 35.2007 203.646C35.2728 203.726 35.393 203.726 35.4651 203.646C35.5372 203.567 35.5372 203.434 35.4651 203.355C35.393 203.275 35.2728 203.275 35.2007 203.355ZM34.9203 203.045C34.9924 202.966 34.9924 202.833 34.9203 202.754C34.8482 202.674 34.7281 202.674 34.656 202.754C34.5839 202.833 34.5839 202.966 34.656 203.045C34.7281 203.125 34.8482 203.125 34.9203 203.045ZM36.194 203.143C36.1219 203.063 36.0018 203.063 35.9297 203.143C35.8576 203.222 35.8576 203.355 35.9297 203.434C36.0018 203.514 36.1219 203.514 36.194 203.434C36.2661 203.346 36.2661 203.222 36.194 203.143ZM35.6573 202.542C35.5852 202.462 35.465 202.462 35.3929 202.542C35.3208 202.621 35.3208 202.754 35.3929 202.833C35.465 202.913 35.5852 202.913 35.6573 202.833C35.7294 202.754 35.7294 202.621 35.6573 202.542ZM35.1126 202.232C35.1847 202.153 35.1847 202.02 35.1126 201.941C35.0405 201.861 34.9203 201.861 34.8482 201.941C34.7761 202.02 34.7761 202.153 34.8482 202.232C34.9203 202.312 35.0405 202.312 35.1126 202.232ZM36.0819 202.665C36.154 202.745 36.2741 202.745 36.3462 202.665C36.4183 202.586 36.4183 202.453 36.3462 202.374C36.2741 202.294 36.154 202.294 36.0819 202.374C36.0098 202.462 36.0098 202.595 36.0819 202.665ZM35.8015 202.073C35.8736 201.994 35.8736 201.861 35.8015 201.781C35.7294 201.702 35.6092 201.702 35.5371 201.781C35.465 201.861 35.465 201.994 35.5371 202.073C35.6092 202.153 35.7294 202.153 35.8015 202.073ZM37.0752 202.17C37.0031 202.091 36.8829 202.091 36.8108 202.17C36.7387 202.25 36.7387 202.382 36.8108 202.462C36.8829 202.542 37.0031 202.542 37.0752 202.462C37.1473 202.374 37.1473 202.25 37.0752 202.17ZM36.5385 201.861C36.6106 201.781 36.6106 201.649 36.5385 201.569C36.4664 201.49 36.3462 201.49 36.2741 201.569C36.202 201.649 36.202 201.781 36.2741 201.861C36.3462 201.941 36.4664 201.941 36.5385 201.861ZM35.9937 201.26C36.0658 201.18 36.0658 201.048 35.9937 200.968C35.9216 200.889 35.8015 200.889 35.7294 200.968C35.6573 201.048 35.6573 201.18 35.7294 201.26C35.8095 201.34 35.9216 201.34 35.9937 201.26ZM37.2274 201.693C37.2995 201.614 37.2995 201.481 37.2274 201.401C37.1553 201.322 37.0351 201.322 36.963 201.401C36.8909 201.481 36.8909 201.614 36.963 201.693C37.0351 201.773 37.1553 201.773 37.2274 201.693ZM37.9563 201.481C38.0284 201.401 38.0284 201.269 37.9563 201.189C37.8842 201.11 37.7641 201.11 37.692 201.189C37.6199 201.269 37.6199 201.401 37.692 201.481C37.7721 201.561 37.8842 201.561 37.9563 201.481ZM38.8375 200.509C38.9096 200.429 38.9096 200.297 38.8375 200.217C38.7654 200.138 38.6452 200.138 38.5731 200.217C38.501 200.297 38.501 200.429 38.5731 200.509C38.6532 200.588 38.7654 200.588 38.8375 200.509ZM39.7186 199.537C39.7907 199.457 39.7907 199.325 39.7186 199.245C39.6465 199.165 39.5264 199.165 39.4543 199.245C39.3822 199.325 39.3822 199.457 39.4543 199.537C39.5344 199.616 39.6465 199.616 39.7186 199.537ZM39.6065 198.777C39.6786 198.856 39.7988 198.856 39.8708 198.777C39.9429 198.697 39.9429 198.564 39.8708 198.485C39.7988 198.405 39.6786 198.405 39.6065 198.485C39.5344 198.573 39.5344 198.697 39.6065 198.777ZM40.3435 198.273C40.2714 198.352 40.2714 198.485 40.3435 198.564C40.4156 198.644 40.5357 198.644 40.6078 198.564C40.6799 198.485 40.6799 198.352 40.6078 198.273C40.5277 198.202 40.4156 198.202 40.3435 198.273ZM40.0631 197.972C40.1352 197.893 40.1352 197.76 40.0631 197.681C39.991 197.601 39.8708 197.601 39.7987 197.681C39.7266 197.76 39.7266 197.893 39.7987 197.972C39.8708 198.052 39.991 198.052 40.0631 197.972ZM40.4877 197.804C40.5598 197.884 40.6799 197.884 40.752 197.804C40.8241 197.725 40.8241 197.592 40.752 197.513C40.6799 197.433 40.5598 197.433 40.4877 197.513C40.4156 197.592 40.4156 197.725 40.4877 197.804ZM40.2073 197.212C40.2794 197.133 40.2794 197 40.2073 196.921C40.1352 196.841 40.015 196.841 39.9429 196.921C39.8708 197 39.8708 197.133 39.9429 197.212C40.023 197.292 40.1352 197.292 40.2073 197.212ZM41.2246 197.301C41.1525 197.38 41.1525 197.513 41.2246 197.592C41.2967 197.672 41.4169 197.672 41.489 197.592C41.5611 197.513 41.5611 197.38 41.489 197.301C41.4169 197.221 41.2967 197.221 41.2246 197.301ZM40.9443 197C41.0163 196.921 41.0163 196.788 40.9443 196.709C40.8722 196.629 40.752 196.629 40.6799 196.709C40.6078 196.788 40.6078 196.921 40.6799 197C40.752 197.08 40.8722 197.08 40.9443 197ZM40.3995 196.399C40.4716 196.32 40.4716 196.187 40.3995 196.108C40.3274 196.028 40.2073 196.028 40.1352 196.108C40.0631 196.187 40.0631 196.32 40.1352 196.399C40.2153 196.479 40.3354 196.479 40.3995 196.399ZM41.3688 196.832C41.4409 196.912 41.5611 196.912 41.6331 196.832C41.7052 196.753 41.7052 196.62 41.6331 196.541C41.5611 196.461 41.4409 196.461 41.3688 196.541C41.2967 196.629 41.2967 196.753 41.3688 196.832ZM41.0885 196.24C41.1605 196.161 41.1605 196.028 41.0885 195.948C41.0164 195.869 40.8962 195.869 40.8241 195.948C40.752 196.028 40.752 196.161 40.8241 196.24C40.9042 196.32 41.0164 196.32 41.0885 196.24ZM42.1058 196.329C42.0337 196.408 42.0337 196.541 42.1058 196.62C42.1779 196.7 42.298 196.7 42.3701 196.62C42.4422 196.541 42.4422 196.408 42.3701 196.329C42.298 196.249 42.1779 196.249 42.1058 196.329ZM41.8254 196.028C41.8975 195.948 41.8975 195.816 41.8254 195.736C41.7533 195.657 41.6332 195.657 41.5611 195.736C41.489 195.816 41.489 195.948 41.5611 196.028C41.6332 196.099 41.7533 196.099 41.8254 196.028ZM41.2887 195.427C41.3608 195.347 41.3608 195.215 41.2887 195.135C41.2166 195.056 41.0964 195.056 41.0243 195.135C40.9522 195.215 40.9522 195.347 41.0243 195.427C41.0964 195.507 41.2166 195.507 41.2887 195.427ZM42.25 195.86C42.3221 195.94 42.4422 195.94 42.5143 195.86C42.5864 195.781 42.5864 195.648 42.5143 195.568C42.4422 195.489 42.3221 195.489 42.25 195.568C42.1779 195.657 42.1779 195.781 42.25 195.86ZM41.9696 195.268C42.0417 195.188 42.0417 195.056 41.9696 194.976C41.8975 194.897 41.7774 194.897 41.7053 194.976C41.6332 195.056 41.6332 195.188 41.7053 195.268C41.7854 195.347 41.8975 195.347 41.9696 195.268ZM43.2513 195.648C43.3234 195.568 43.3234 195.436 43.2513 195.356C43.1792 195.277 43.059 195.277 42.9869 195.356C42.9149 195.436 42.9149 195.568 42.9869 195.648C43.059 195.728 43.1792 195.728 43.2513 195.648ZM42.7066 195.047C42.7787 194.967 42.7787 194.835 42.7066 194.755C42.6345 194.676 42.5143 194.676 42.4422 194.755C42.3701 194.835 42.3701 194.967 42.4422 195.047C42.5143 195.127 42.6345 195.127 42.7066 195.047ZM42.1699 194.455C42.242 194.375 42.242 194.243 42.1699 194.163C42.0978 194.084 41.9776 194.084 41.9055 194.163C41.8334 194.243 41.8334 194.375 41.9055 194.455C41.9776 194.534 42.0978 194.534 42.1699 194.455ZM26.7816 208.498H28.8403L30.7629 206.386C34.5839 209.506 39.999 209.17 43.4596 205.343C46.9281 201.525 47.2325 195.551 44.4048 191.335L46.3193 189.223L46.3113 186.943H44.2366L42.3221 189.055C38.5091 185.944 33.1019 186.28 29.6414 190.098C26.1808 193.916 25.8684 199.881 28.6881 204.097L26.7816 206.2V208.498ZM40.5517 195.639C40.5758 195.613 40.5758 195.577 40.5838 195.542L41.3448 194.702C41.3768 194.693 41.4089 194.693 41.4249 194.667C41.4489 194.64 41.4489 194.605 41.4569 194.579L42.2179 193.739C42.25 193.73 42.282 193.73 42.298 193.704C42.3221 193.677 42.3221 193.642 42.3301 193.615L42.4502 193.483C42.5383 193.642 42.6265 193.801 42.7066 193.96C42.6585 193.96 42.6104 193.978 42.5784 194.022C42.5063 194.101 42.5063 194.234 42.5784 194.313C42.6505 194.393 42.7707 194.393 42.8427 194.313C42.8508 194.305 42.8507 194.287 42.8588 194.269C43.2192 195.065 43.4436 195.913 43.5397 196.779C43.4756 196.744 43.3955 196.744 43.3394 196.806C43.2673 196.885 43.2673 197.018 43.3394 197.097C43.4035 197.168 43.4996 197.168 43.5717 197.106C43.6838 198.671 43.3714 200.261 42.6265 201.667C42.6265 201.614 42.6104 201.561 42.5784 201.516C42.5063 201.437 42.3862 201.437 42.3141 201.516C42.242 201.596 42.242 201.728 42.3141 201.808C42.3782 201.879 42.4743 201.879 42.5464 201.826C42.4743 201.958 42.3942 202.091 42.3061 202.223C42.258 202.223 42.2099 202.241 42.1699 202.276C42.1218 202.329 42.1138 202.409 42.1378 202.48C41.9536 202.745 41.7613 203.001 41.537 203.249C41.4649 203.178 41.3608 203.178 41.2887 203.257C41.2246 203.328 41.2246 203.434 41.2807 203.514C41.0404 203.752 40.7921 203.982 40.5277 204.177C40.4877 204.177 40.4396 204.194 40.4075 204.23C40.3915 204.247 40.3995 204.265 40.3915 204.283C40.2553 204.38 40.1192 204.468 39.975 204.556C39.967 204.521 39.959 204.477 39.9349 204.45C39.8628 204.371 39.7427 204.371 39.6706 204.45C39.5985 204.53 39.5985 204.654 39.6706 204.733C38.8295 205.193 37.9323 205.458 37.0191 205.52C37.0431 205.511 37.0752 205.511 37.0912 205.484C37.1633 205.405 37.1633 205.272 37.0912 205.193C37.0191 205.113 36.8989 205.113 36.8268 205.193C36.7547 205.272 36.7547 205.405 36.8268 205.484C36.8509 205.511 36.8829 205.511 36.915 205.52C36.7548 205.529 36.6025 205.537 36.4423 205.537C36.4503 205.475 36.4503 205.405 36.4023 205.361C36.3302 205.281 36.21 205.281 36.1379 205.361C36.0979 205.405 36.0819 205.467 36.0899 205.52C35.5371 205.484 34.9844 205.378 34.4397 205.193C34.4317 205.166 34.4317 205.14 34.4077 205.113C34.3436 205.042 34.2635 205.051 34.1914 205.095C33.6627 204.892 33.15 204.627 32.6774 204.283L33.3903 203.496C33.4223 203.487 33.4544 203.487 33.4784 203.461C33.5025 203.434 33.5024 203.399 33.5105 203.363L34.2715 202.524C34.3035 202.515 34.3356 202.515 34.3596 202.489C34.3836 202.462 34.3836 202.427 34.3916 202.391L35.1526 201.552C35.1847 201.543 35.2167 201.534 35.2408 201.516C35.2648 201.49 35.2648 201.454 35.2728 201.419L35.8335 200.8C36.0178 200.853 36.194 200.88 36.3863 200.889C36.3382 200.968 36.3382 201.066 36.4023 201.136C36.4744 201.216 36.5945 201.216 36.6666 201.136C36.7307 201.066 36.7227 200.968 36.6826 200.889C36.8268 200.88 36.971 200.871 37.1072 200.836C37.1152 200.862 37.1152 200.898 37.1393 200.915C37.2114 200.995 37.3315 200.995 37.4036 200.915C37.4516 200.862 37.4517 200.792 37.4436 200.721C37.5638 200.677 37.6839 200.624 37.7961 200.562C37.7801 200.633 37.7881 200.703 37.8362 200.747C37.9083 200.827 38.0284 200.827 38.1005 200.747C38.1726 200.668 38.1726 200.535 38.1005 200.456C38.0845 200.438 38.0525 200.429 38.0284 200.42C38.2207 200.288 38.4049 200.146 38.5731 199.961C38.6292 199.899 38.6693 199.828 38.7173 199.758V199.766C38.7894 199.846 38.9096 199.846 38.9817 199.766C39.0538 199.687 39.0538 199.554 38.9817 199.475C38.9737 199.466 38.9496 199.466 38.9416 199.457C39.0618 199.263 39.1499 199.051 39.222 198.838C39.222 198.83 39.23 198.821 39.23 198.812C39.3742 198.37 39.4222 197.91 39.3902 197.451C39.4383 197.451 39.4863 197.433 39.5264 197.389C39.5985 197.31 39.5985 197.177 39.5264 197.097C39.4783 197.044 39.4142 197.036 39.3501 197.062C39.3421 197.027 39.3341 196.991 39.3261 196.965L39.5905 196.673C39.6225 196.664 39.6545 196.664 39.6786 196.638C39.7026 196.611 39.7026 196.576 39.7106 196.541L40.4716 195.701C40.4957 195.674 40.5277 195.666 40.5517 195.639ZM31.5639 192.219C33.9671 189.568 37.6599 189.232 40.3995 191.194L37.2514 194.667C36.3062 194.411 35.2728 194.676 34.5358 195.489C33.7989 196.302 33.5585 197.442 33.7908 198.485L30.6347 201.967C28.8483 198.945 29.1607 194.861 31.5639 192.219Z" fill="#6F0625"/>
<path d="M33.0458 185.021H48.0615V210.421H25.0312L25.0312 193.854C25.0312 188.972 28.6199 185.021 33.0458 185.021Z" stroke="#8A1638" stroke-miterlimit="10"/>
</svg>
