<svg width="144" height="289" viewBox="0 0 144 289" fill="none" xmlns="http://www.w3.org/2000/svg">
<path d="M107.523 263.174H106.79V257.619H107.523V263.174ZM112.1 263.174H111.368V257.114H112.1V263.174ZM105.143 263.174H104.41V257.821H105.143V263.174ZM137.185 263.174H136.452V255.195H137.185V263.174ZM134.896 263.174H134.164V255.396H134.896V263.174ZM130.227 263.174H129.495V255.801H130.227V263.174ZM87.107 263.174H86.375V259.235H87.107V263.174ZM132.607 263.174H131.875V255.599H132.607V263.174ZM109.812 263.174H109.079V257.417H109.812V263.174ZM55.0648 263.174H54.3329V261.962H55.0648V263.174ZM59.6429 263.174H58.9099V261.457H59.6429V263.174ZM57.3539 263.174H56.6219V261.659H57.3539V263.174ZM47.7412 237.721V236.913L54.2408 236.004V186.613L54.424 186.209L78.9593 174.997L79.1425 174.896H79.3258L136.91 189.542L137.185 189.946V234.892L143.868 236.408V237.216L107.98 229.338V249.64L111.185 249.337V243.579C111.185 240.549 111.734 238.529 112.65 237.418C113.657 236.307 115.396 236.004 117.043 236.711C118.143 237.216 120.614 238.832 120.614 243.681V248.225L123.361 247.923V245.297C123.361 242.267 123.818 240.246 124.642 239.135C125.466 238.125 127.023 237.721 128.396 238.327C130.593 239.236 131.875 241.862 131.875 245.397V247.014L134.164 246.811C134.164 243.983 134.713 241.963 135.537 240.852C136.361 239.741 137.826 239.438 139.199 239.943C140.114 240.246 142.22 241.56 142.495 246.004L143.868 245.902V246.711L47.7412 256.205V255.396L50.1213 255.195V250.044C50.1213 243.781 53.3256 241.256 55.157 240.348C57.9036 238.934 61.1989 239.236 63.0303 240.953C63.2126 241.055 63.3047 241.256 63.4879 241.357C65.3183 243.377 65.9592 247.014 65.9592 249.74V253.579L69.1634 253.275V248.225C69.1634 241.963 72.3676 239.438 74.199 238.529C76.9456 237.115 80.241 237.418 82.0724 239.135C82.2556 239.236 82.3467 239.438 82.53 239.539C84.3604 241.56 85.0012 245.195 85.0012 247.923V251.66L88.2054 251.356V246.307C88.2054 240.044 91.4097 237.52 93.2411 236.61C95.9877 235.196 99.283 235.499 101.114 237.216C101.298 237.317 101.389 237.52 101.572 237.62C103.403 239.641 104.044 243.276 104.044 246.004V249.74L107.249 249.437V229.035L47.7412 237.721ZM134.896 246.912L141.854 246.205C141.579 242.267 139.839 241.155 139.015 240.852C138.009 240.448 136.818 240.751 136.178 241.56C135.353 242.469 134.896 244.388 134.896 246.912ZM124.093 248.023L131.142 247.316V245.6C131.142 242.367 130.044 240.044 128.121 239.236C127.115 238.832 126.198 239.034 125.466 239.539C124.368 240.448 124.093 243.074 124.093 245.397V248.023ZM112.009 249.135L119.973 248.326V243.681C119.973 239.236 117.776 237.822 116.861 237.418C115.671 236.913 114.298 237.014 113.474 237.721C112.192 238.832 112.009 241.963 112.009 243.478V249.135ZM55.5224 241.155C53.7832 242.064 50.8543 244.388 50.8543 250.144V255.195L53.5088 254.891V250.044C53.5088 246.104 54.6994 241.66 57.9947 240.348C57.1706 240.448 56.3465 240.751 55.5224 241.155ZM74.5655 239.337C72.8252 240.246 69.8964 242.569 69.8964 248.326V253.377L72.5508 253.074V248.326C72.5508 244.388 73.7414 239.943 77.0368 238.63C76.2127 238.63 75.3886 238.934 74.5655 239.337ZM93.6076 237.52C91.8683 238.428 88.9384 240.751 88.9384 246.509V251.458L91.5929 251.154V246.407C91.5929 242.469 92.7835 238.024 96.0788 236.711C95.2547 236.812 94.4316 237.115 93.6076 237.52ZM107.614 228.328L136.452 234.691V190.148L79.7834 175.704V232.266L107.614 228.328ZM62.023 263.174H61.29V261.255H62.023V263.174ZM82.4379 263.174H81.7059V259.74H82.4379V263.174ZM84.7269 263.174H83.9949V259.538H84.7269V263.174ZM80.0577 263.174H79.3258V259.942H80.0577V263.174Z" fill="#8A1638"/>
<path d="M138.556 240.75C139.746 241.659 140.479 243.578 140.57 246.306L134.895 246.911C134.895 244.387 135.352 242.468 136.084 241.559C136.634 240.852 137.641 240.548 138.556 240.75ZM124.091 245.396C124.091 243.073 124.366 240.447 125.465 239.538C126.106 239.033 126.929 238.831 127.753 239.134C127.845 239.235 127.845 239.235 127.936 239.336C129.401 240.852 129.492 244.185 129.492 245.599V247.518L124 248.022V245.396H124.091ZM95.8031 185.198L100.93 186.309V188.227L95.8031 187.117V185.198ZM92.4157 184.491L94.979 185.097V187.016L92.4157 186.41V184.491ZM101.571 186.511L105.873 187.42V189.339L101.571 188.43V186.511ZM89.3026 190.248L84.4512 189.137V185.299L89.3026 186.41V190.248ZM105.873 193.985L99.0985 192.47V188.632L105.873 190.147V193.985ZM98.3665 192.269L90.0355 190.45V186.612L98.3665 188.43V192.269ZM91.2251 184.187V186.106L84.4512 184.592V182.673L91.2251 184.187ZM113.471 237.72C114.112 237.114 115.12 236.912 116.127 237.114C116.218 237.215 116.31 237.316 116.401 237.417C117.866 239.033 118.049 242.266 118.049 243.578V248.527L112.007 249.134V243.477C112.007 241.962 112.19 238.831 113.471 237.72Z" fill="#6F0625"/>
<path d="M143.366 262.621V157.672H48.2412V262.621H143.366Z" stroke="#6F0625" stroke-miterlimit="10"/>
<path d="M39.1062 177.8C39.1062 178.224 39.4186 178.56 39.7951 178.56C40.1716 178.56 40.4841 178.215 40.4841 177.8C40.4841 177.385 40.1716 177.04 39.7951 177.04C39.4186 177.04 39.1062 177.385 39.1062 177.8ZM39.7951 187.292C40.1796 187.292 40.4841 187.637 40.4841 188.052C40.4841 188.476 40.1716 188.812 39.7951 188.812C39.4186 188.812 39.1062 188.467 39.1062 188.052C39.1062 187.637 39.4186 187.292 39.7951 187.292ZM39.7951 182.166C40.1796 182.166 40.4841 182.511 40.4841 182.926C40.4841 183.35 40.1716 183.686 39.7951 183.686C39.4186 183.686 39.1062 183.341 39.1062 182.926C39.1062 182.511 39.4186 182.166 39.7951 182.166ZM39.7951 171.914C40.1796 171.914 40.4841 172.259 40.4841 172.674C40.4841 173.098 40.1716 173.434 39.7951 173.434C39.4186 173.434 39.1062 173.089 39.1062 172.674C39.1062 172.259 39.4186 171.914 39.7951 171.914ZM39.7951 192.418C40.1796 192.418 40.4841 192.763 40.4841 193.178C40.4841 193.602 40.1716 193.938 39.7951 193.938C39.4186 193.938 39.1062 193.593 39.1062 193.178C39.1062 192.763 39.4186 192.418 39.7951 192.418ZM38.3693 174.618C38.7538 174.618 39.0582 174.963 39.0582 175.378C39.0582 175.803 38.7458 176.139 38.3693 176.139C37.9848 176.139 37.6804 175.794 37.6804 175.378C37.6804 174.954 37.9928 174.618 38.3693 174.618ZM38.3693 195.122C38.7538 195.122 39.0582 195.467 39.0582 195.882C39.0582 196.307 38.7458 196.642 38.3693 196.642C37.9848 196.642 37.6804 196.298 37.6804 195.882C37.6804 195.467 37.9928 195.122 38.3693 195.122ZM38.3693 179.744C38.7538 179.744 39.0582 180.089 39.0582 180.504C39.0582 180.929 38.7458 181.264 38.3693 181.264C37.9848 181.264 37.6804 180.92 37.6804 180.504C37.6804 180.089 37.9928 179.744 38.3693 179.744ZM38.3693 184.87C38.7538 184.87 39.0582 185.215 39.0582 185.63C39.0582 186.055 38.7458 186.39 38.3693 186.39C37.9848 186.39 37.6804 186.046 37.6804 185.63C37.6804 185.215 37.9928 184.87 38.3693 184.87ZM38.3693 189.996C38.7538 189.996 39.0582 190.341 39.0582 190.756C39.0582 191.181 38.7458 191.516 38.3693 191.516C37.9848 191.516 37.6804 191.172 37.6804 190.756C37.6804 190.341 37.9928 189.996 38.3693 189.996ZM29.9101 181.256C29.9822 180.778 30.0784 180.31 30.1905 179.859C30.3828 179.992 30.5109 180.23 30.5109 180.504C30.5109 180.893 30.2466 181.211 29.9101 181.256ZM34.0916 173.443C33.9555 173.443 33.8273 173.399 33.7232 173.319C34.0436 172.983 34.38 172.665 34.7245 172.365C34.7645 172.462 34.7805 172.568 34.7805 172.674C34.7886 173.098 34.4761 173.443 34.0916 173.443ZM38.3693 171.013C38.0569 171.013 37.7925 170.783 37.7044 170.465C38.129 170.27 38.5615 170.102 39.0021 169.961C39.0341 170.049 39.0502 170.146 39.0502 170.244C39.0582 170.668 38.7538 171.013 38.3693 171.013ZM31.2479 178.569C31.0156 178.569 30.8153 178.445 30.6872 178.251C30.8394 177.844 31.0076 177.438 31.1918 177.049C31.2078 177.049 31.2319 177.049 31.2479 177.049C31.6324 177.049 31.9368 177.393 31.9368 177.809C31.9368 178.224 31.6244 178.569 31.2479 178.569ZM41.958 172.674C41.958 172.365 42.1262 172.1 42.3585 171.985V157.119H42.9994V210.147H42.3665V197.844C42.2864 197.844 42.1983 197.844 42.1182 197.836C42.1823 197.738 42.2704 197.668 42.3665 197.615V193.876C42.1262 193.752 41.966 193.487 41.966 193.187C41.966 192.877 42.1342 192.612 42.3665 192.497V188.75C42.1262 188.626 41.966 188.361 41.966 188.061C41.966 187.751 42.1342 187.486 42.3665 187.371V183.624C42.1262 183.5 41.966 183.235 41.966 182.935C41.966 182.626 42.1342 182.36 42.3665 182.245V178.507C42.1262 178.383 41.966 178.118 41.966 177.818C41.966 177.508 42.1342 177.243 42.3665 177.128V173.381C42.1182 173.249 41.958 172.983 41.958 172.674ZM36.9434 192.418C37.3279 192.418 37.6323 192.763 37.6323 193.178C37.6323 193.602 37.3199 193.938 36.9434 193.938C36.5589 193.938 36.2545 193.593 36.2545 193.178C36.2545 192.763 36.5669 192.418 36.9434 192.418ZM41.221 179.744C41.5975 179.744 41.9099 180.089 41.9099 180.504C41.9099 180.929 41.5975 181.264 41.221 181.264C40.8365 181.264 40.5321 180.92 40.5321 180.504C40.5321 180.089 40.8445 179.744 41.221 179.744ZM41.221 189.996C41.5975 189.996 41.9099 190.341 41.9099 190.756C41.9099 191.181 41.5975 191.516 41.221 191.516C40.8365 191.516 40.5321 191.172 40.5321 190.756C40.5321 190.341 40.8445 189.996 41.221 189.996ZM41.221 184.87C41.5975 184.87 41.9099 185.215 41.9099 185.63C41.9099 186.055 41.5975 186.39 41.221 186.39C40.8365 186.39 40.5321 186.046 40.5321 185.63C40.5321 185.215 40.8445 184.87 41.221 184.87ZM41.221 195.122C41.5975 195.122 41.9099 195.467 41.9099 195.882C41.9099 196.307 41.5975 196.642 41.221 196.642C40.8365 196.642 40.5321 196.298 40.5321 195.882C40.5321 195.467 40.8445 195.122 41.221 195.122ZM41.221 171.013C40.8365 171.013 40.5321 170.668 40.5321 170.252C40.5321 169.828 40.8445 169.492 41.221 169.492C41.6055 169.492 41.9099 169.837 41.9099 170.252C41.9099 170.668 41.6055 171.013 41.221 171.013ZM41.221 174.618C41.5975 174.618 41.9099 174.963 41.9099 175.378C41.9099 175.803 41.5975 176.139 41.221 176.139C40.8365 176.139 40.5321 175.794 40.5321 175.378C40.5321 174.954 40.8445 174.618 41.221 174.618ZM32.6738 189.996C33.0583 189.996 33.3627 190.341 33.3627 190.756C33.3627 191.181 33.0503 191.516 32.6738 191.516C32.2893 191.516 31.9849 191.172 31.9849 190.756C31.9849 190.341 32.2893 189.996 32.6738 189.996ZM32.6738 176.139C32.3453 176.139 32.073 175.891 32.0009 175.555C32.2012 175.228 32.4174 174.919 32.6417 174.618C32.6497 174.618 32.6658 174.618 32.6738 174.618C33.0583 174.618 33.3627 174.963 33.3627 175.378C33.3627 175.794 33.0503 176.139 32.6738 176.139ZM32.6738 184.87C33.0583 184.87 33.3627 185.215 33.3627 185.63C33.3627 186.055 33.0503 186.39 32.6738 186.39C32.2893 186.39 31.9849 186.046 31.9849 185.63C31.9849 185.215 32.2893 184.87 32.6738 184.87ZM36.9434 187.292C37.3279 187.292 37.6323 187.637 37.6323 188.052C37.6323 188.476 37.3199 188.812 36.9434 188.812C36.5589 188.812 36.2545 188.467 36.2545 188.052C36.2545 187.637 36.5669 187.292 36.9434 187.292ZM34.0997 177.04C34.4842 177.04 34.7886 177.385 34.7886 177.8C34.7886 178.215 34.4762 178.56 34.0997 178.56C33.7152 178.56 33.4107 178.215 33.4107 177.8C33.4107 177.385 33.7152 177.04 34.0997 177.04ZM31.2479 187.292C31.6324 187.292 31.9368 187.637 31.9368 188.052C31.9368 188.476 31.6244 188.812 31.2479 188.812C30.8634 188.812 30.559 188.467 30.559 188.052C30.559 187.637 30.8634 187.292 31.2479 187.292ZM32.6738 179.744C33.0583 179.744 33.3627 180.089 33.3627 180.504C33.3627 180.929 33.0503 181.264 32.6738 181.264C32.2893 181.264 31.9849 180.92 31.9849 180.504C31.9849 180.089 32.2893 179.744 32.6738 179.744ZM30.5109 185.63C30.5109 185.993 30.2786 186.302 29.9742 186.373C29.8861 185.878 29.822 185.374 29.782 184.87C29.798 184.87 29.806 184.87 29.822 184.87C30.2065 184.87 30.5109 185.215 30.5109 185.63ZM31.2479 182.166C31.6324 182.166 31.9368 182.511 31.9368 182.926C31.9368 183.35 31.6244 183.686 31.2479 183.686C30.8634 183.686 30.559 183.341 30.559 182.926C30.559 182.511 30.8634 182.166 31.2479 182.166ZM34.0997 187.292C34.4842 187.292 34.7886 187.637 34.7886 188.052C34.7886 188.476 34.4762 188.812 34.0997 188.812C33.7152 188.812 33.4107 188.467 33.4107 188.052C33.4027 187.637 33.7152 187.292 34.0997 187.292ZM34.0997 182.166C34.4842 182.166 34.7886 182.511 34.7886 182.926C34.7886 183.35 34.4762 183.686 34.0997 183.686C33.7152 183.686 33.4107 183.341 33.4107 182.926C33.4027 182.511 33.7152 182.166 34.0997 182.166ZM36.9434 177.04C37.3279 177.04 37.6323 177.385 37.6323 177.8C37.6323 178.215 37.3199 178.56 36.9434 178.56C36.5589 178.56 36.2545 178.215 36.2545 177.8C36.2545 177.385 36.5669 177.04 36.9434 177.04ZM36.9434 171.914C37.3279 171.914 37.6323 172.259 37.6323 172.674C37.6323 173.098 37.3199 173.434 36.9434 173.434C36.5589 173.434 36.2545 173.089 36.2545 172.674C36.2545 172.259 36.5669 171.914 36.9434 171.914ZM36.9434 182.166C37.3279 182.166 37.6323 182.511 37.6323 182.926C37.6323 183.35 37.3199 183.686 36.9434 183.686C36.5589 183.686 36.2545 183.341 36.2545 182.926C36.2545 182.511 36.5669 182.166 36.9434 182.166ZM36.2144 195.891C36.2144 195.927 36.2144 195.953 36.2064 195.988C35.8459 195.759 35.4935 195.511 35.157 195.246C35.2612 195.175 35.3894 195.131 35.5255 195.131C35.902 195.122 36.2144 195.467 36.2144 195.891ZM35.5255 189.996C35.91 189.996 36.2144 190.341 36.2144 190.756C36.2144 191.181 35.902 191.516 35.5255 191.516C35.141 191.516 34.8366 191.172 34.8366 190.756C34.8286 190.341 35.141 189.996 35.5255 189.996ZM35.5255 174.618C35.91 174.618 36.2144 174.963 36.2144 175.378C36.2144 175.803 35.902 176.139 35.5255 176.139C35.141 176.139 34.8366 175.794 34.8366 175.378C34.8286 174.954 35.141 174.618 35.5255 174.618ZM35.5255 179.744C35.91 179.744 36.2144 180.089 36.2144 180.504C36.2144 180.929 35.902 181.264 35.5255 181.264C35.141 181.264 34.8366 180.92 34.8366 180.504C34.8286 180.089 35.141 179.744 35.5255 179.744ZM34.0997 192.418C34.4842 192.418 34.7886 192.763 34.7886 193.178C34.7886 193.602 34.4762 193.938 34.0997 193.938C33.7152 193.938 33.4107 193.593 33.4107 193.178C33.4027 192.763 33.7152 192.418 34.0997 192.418ZM35.5255 184.87C35.91 184.87 36.2144 185.215 36.2144 185.63C36.2144 186.055 35.902 186.39 35.5255 186.39C35.141 186.39 34.8366 186.046 34.8366 185.63C34.8286 185.215 35.141 184.87 35.5255 184.87ZM5.74234 188.865L1 183.633L5.74234 178.401L10.4846 183.633L5.74234 188.865ZM5.74234 199.329L1 194.097L5.74234 188.865L10.4846 194.097L5.74234 199.329ZM5.74234 209.793L1 204.561L5.74234 199.329L10.4846 204.561L5.74234 209.793ZM5.74234 178.401L1 173.169L5.74234 167.937L10.4846 173.169L5.74234 178.401ZM5.74234 167.928L1 162.696L5.74234 157.464L10.4846 162.696L5.74234 167.928ZM10.4846 157.119H11.1174V210.147H10.4846V157.119Z" fill="#8A1638"/>
<path d="M18.6455 183.624C18.6455 198.189 29.2434 210.014 42.3567 210.138V197.853C35.3635 197.729 29.7321 191.41 29.7321 183.633C29.7321 175.856 35.3635 169.537 42.3567 169.413V157.119C29.2434 157.243 18.6455 169.059 18.6455 183.624Z" fill="#6F0625"/>
<path d="M48.2416 209.594V157.672H1.17969V209.594H48.2416Z" stroke="#6F0625" stroke-miterlimit="10"/>
<path d="M123.084 276.996C123.253 276.996 123.389 277.147 123.389 277.332C123.389 277.518 123.253 277.668 123.084 277.668C122.916 277.668 122.78 277.518 122.78 277.332C122.772 277.155 122.908 276.996 123.084 276.996ZM122.387 270.925C122.387 270.739 122.524 270.589 122.692 270.589C122.86 270.589 122.996 270.739 122.996 270.925C122.996 271.11 122.86 271.261 122.692 271.261C122.524 271.261 122.387 271.11 122.387 270.925ZM127.666 277.341C127.666 277.527 127.53 277.677 127.362 277.677C127.194 277.677 127.058 277.527 127.058 277.341C127.058 277.155 127.194 277.005 127.362 277.005C127.53 276.996 127.666 277.155 127.666 277.341ZM125.223 266.311C125.391 266.311 125.528 266.462 125.528 266.647C125.528 266.833 125.391 266.983 125.223 266.983C125.055 266.983 124.919 266.833 124.919 266.647C124.919 266.462 125.055 266.311 125.223 266.311ZM121.458 286.815C121.626 286.815 121.763 286.966 121.763 287.151C121.763 287.337 121.626 287.487 121.458 287.487C121.29 287.487 121.154 287.337 121.154 287.151C121.154 286.966 121.29 286.815 121.458 286.815ZM127.642 268.901C127.811 268.901 127.947 269.051 127.947 269.237C127.947 269.422 127.811 269.573 127.642 269.573C127.474 269.573 127.338 269.422 127.338 269.237C127.33 269.051 127.466 268.901 127.642 268.901ZM127.899 266.311C128.067 266.311 128.203 266.462 128.203 266.647C128.203 266.833 128.067 266.983 127.899 266.983C127.73 266.983 127.594 266.833 127.594 266.647C127.594 266.462 127.73 266.311 127.899 266.311ZM121.658 277.677C121.49 277.677 121.354 277.527 121.354 277.341C121.354 277.155 121.49 277.005 121.658 277.005C121.827 277.005 121.963 277.155 121.963 277.341C121.963 277.527 121.827 277.677 121.658 277.677ZM121.162 284.049C121.33 284.049 121.466 284.199 121.466 284.385C121.466 284.57 121.33 284.721 121.162 284.721C120.994 284.721 120.857 284.57 120.857 284.385C120.857 284.199 120.994 284.049 121.162 284.049ZM122.5 284.049C122.668 284.049 122.804 284.199 122.804 284.385C122.804 284.57 122.668 284.721 122.5 284.721C122.331 284.721 122.195 284.57 122.195 284.385C122.195 284.199 122.331 284.049 122.5 284.049ZM124.518 268.609C124.35 268.609 124.214 268.459 124.214 268.273C124.214 268.088 124.35 267.938 124.518 267.938C124.686 267.938 124.823 268.088 124.823 268.273C124.831 268.459 124.694 268.609 124.518 268.609ZM124.598 279.02C124.767 279.02 124.903 279.17 124.903 279.356C124.903 279.542 124.767 279.692 124.598 279.692C124.43 279.692 124.294 279.542 124.294 279.356C124.286 279.179 124.43 279.02 124.598 279.02ZM124.51 276.996C124.678 276.996 124.815 277.147 124.815 277.332C124.815 277.518 124.678 277.668 124.51 277.668C124.342 277.668 124.206 277.518 124.206 277.332C124.198 277.155 124.334 276.996 124.51 276.996ZM123.261 279.02C123.429 279.02 123.565 279.17 123.565 279.356C123.565 279.542 123.429 279.692 123.261 279.692C123.092 279.692 122.956 279.542 122.956 279.356C122.948 279.179 123.092 279.02 123.261 279.02ZM125.175 284.049C125.343 284.049 125.479 284.199 125.479 284.385C125.479 284.57 125.343 284.721 125.175 284.721C125.007 284.721 124.871 284.57 124.871 284.385C124.871 284.199 125.007 284.049 125.175 284.049ZM125.479 269.246C125.479 269.431 125.343 269.581 125.175 269.581C125.007 269.581 124.871 269.431 124.871 269.246C124.871 269.06 125.007 268.91 125.175 268.91C125.343 268.901 125.479 269.051 125.479 269.246ZM123.837 284.049C124.006 284.049 124.142 284.199 124.142 284.385C124.142 284.57 124.006 284.721 123.837 284.721C123.669 284.721 123.533 284.57 123.533 284.385C123.533 284.199 123.669 284.049 123.837 284.049ZM123.653 270.925C123.653 270.739 123.789 270.589 123.957 270.589C124.126 270.589 124.262 270.739 124.262 270.925C124.262 271.11 124.126 271.261 123.957 271.261C123.789 271.261 123.653 271.11 123.653 270.925ZM124.142 269.246C124.142 269.431 124.006 269.581 123.837 269.581C123.669 269.581 123.533 269.431 123.533 269.246C123.533 269.06 123.669 268.91 123.837 268.91C124.006 268.91 124.142 269.051 124.142 269.246ZM123.885 266.311C124.054 266.311 124.19 266.462 124.19 266.647C124.19 266.833 124.054 266.983 123.885 266.983C123.717 266.983 123.581 266.833 123.581 266.647C123.581 266.462 123.717 266.311 123.885 266.311ZM121.618 279.365C121.618 279.179 121.755 279.029 121.923 279.029C122.091 279.029 122.227 279.179 122.227 279.365C122.227 279.551 122.091 279.701 121.923 279.701C121.755 279.701 121.618 279.551 121.618 279.365ZM129.092 277.341C129.092 277.527 128.956 277.677 128.788 277.677C128.62 277.677 128.483 277.527 128.483 277.341C128.483 277.155 128.62 277.005 128.788 277.005C128.956 276.996 129.092 277.155 129.092 277.341ZM130.214 284.385C130.214 284.199 130.35 284.049 130.518 284.049C130.686 284.049 130.822 284.199 130.822 284.385C130.822 284.57 130.686 284.721 130.518 284.721C130.35 284.721 130.214 284.57 130.214 284.385ZM128.604 279.02C128.772 279.02 128.908 279.17 128.908 279.356C128.908 279.542 128.772 279.692 128.604 279.692C128.435 279.692 128.299 279.542 128.299 279.356C128.299 279.179 128.435 279.02 128.604 279.02ZM126.817 284.385C126.817 284.57 126.681 284.721 126.513 284.721C126.345 284.721 126.208 284.57 126.208 284.385C126.208 284.199 126.345 284.049 126.513 284.049C126.681 284.049 126.817 284.199 126.817 284.385ZM129.188 284.049C129.357 284.049 129.493 284.199 129.493 284.385C129.493 284.57 129.357 284.721 129.188 284.721C129.02 284.721 128.884 284.57 128.884 284.385C128.884 284.199 129.02 284.049 129.188 284.049ZM129.02 270.58C129.188 270.58 129.325 270.73 129.325 270.916C129.325 271.101 129.188 271.252 129.02 271.252C128.852 271.252 128.716 271.101 128.716 270.916C128.716 270.73 128.852 270.58 129.02 270.58ZM129.901 277.341C129.901 277.155 130.037 277.005 130.206 277.005C130.374 277.005 130.51 277.155 130.51 277.341C130.51 277.527 130.374 277.677 130.206 277.677C130.037 277.677 129.901 277.527 129.901 277.341ZM120.673 275.503H120.417V274.805H120.793C121.082 273.196 121.402 271.685 121.739 270.297H121.146V269.599H121.915C122.171 268.609 122.427 267.699 122.692 266.877H122.211V266.179H122.916C123.605 264.155 124.39 262.803 125.928 262.803C127.226 262.803 128.163 263.846 128.956 266.179H134.74C135.541 263.846 136.47 262.803 137.768 262.803C139.306 262.803 140.083 264.155 140.78 266.179H141.485V266.859H141.004C141.268 267.681 141.525 268.592 141.781 269.581H142.55V270.28H141.957C142.294 271.667 142.614 273.178 142.902 274.787H143.287V275.485H143.039C143.383 277.509 143.671 279.665 143.872 281.875V288.556H143.551C143.551 280.063 141.869 271.314 140.203 266.409C139.474 264.261 138.817 263.466 137.776 263.466C136.766 263.466 136.029 264.349 135.332 266.409C133.81 270.881 132.168 279.718 132.168 288.556H131.535C131.535 279.718 129.901 270.889 128.371 266.409C127.666 264.341 126.937 263.466 125.928 263.466C124.895 263.466 124.238 264.261 123.501 266.409C121.835 271.305 120.152 280.054 120.152 288.556H119.832V281.884C120.04 279.674 120.329 277.527 120.673 275.503ZM131.848 281.574C132.032 279.453 132.288 277.412 132.593 275.494H131.111C131.407 277.412 131.664 279.462 131.848 281.574ZM130.991 274.796H132.713C132.985 273.17 133.282 271.649 133.602 270.288H130.11C130.422 271.649 130.726 273.17 130.991 274.796ZM129.933 269.581H133.762C134.011 268.574 134.259 267.664 134.515 266.859H129.188C129.437 267.664 129.693 268.583 129.933 269.581ZM129.941 279.02C130.11 279.02 130.246 279.17 130.246 279.356C130.246 279.542 130.11 279.692 129.941 279.692C129.773 279.692 129.637 279.542 129.637 279.356C129.637 279.179 129.773 279.02 129.941 279.02ZM130.374 286.815C130.542 286.815 130.678 286.966 130.678 287.151C130.678 287.337 130.542 287.487 130.374 287.487C130.206 287.487 130.069 287.337 130.069 287.151C130.069 286.966 130.206 286.815 130.374 286.815ZM125.936 279.02C126.104 279.02 126.24 279.17 126.24 279.356C126.24 279.542 126.104 279.692 125.936 279.692C125.768 279.692 125.632 279.542 125.632 279.356C125.624 279.179 125.76 279.02 125.936 279.02ZM127.29 268.265C127.29 268.45 127.154 268.6 126.985 268.6C126.817 268.6 126.681 268.45 126.681 268.265C126.681 268.079 126.817 267.929 126.985 267.929C127.154 267.929 127.29 268.079 127.29 268.265ZM126.561 266.311C126.729 266.311 126.865 266.462 126.865 266.647C126.865 266.833 126.729 266.983 126.561 266.983C126.393 266.983 126.256 266.833 126.256 266.647C126.256 266.462 126.393 266.311 126.561 266.311ZM125.992 269.246C125.992 269.06 126.128 268.91 126.297 268.91C126.465 268.91 126.601 269.06 126.601 269.246C126.601 269.431 126.465 269.581 126.297 269.581C126.128 269.581 125.992 269.431 125.992 269.246ZM126.585 286.815C126.753 286.815 126.889 286.966 126.889 287.151C126.889 287.337 126.753 287.487 126.585 287.487C126.417 287.487 126.281 287.337 126.281 287.151C126.281 286.966 126.417 286.815 126.585 286.815ZM127.851 284.049C128.019 284.049 128.155 284.199 128.155 284.385C128.155 284.57 128.019 284.721 127.851 284.721C127.682 284.721 127.546 284.57 127.546 284.385C127.546 284.199 127.682 284.049 127.851 284.049ZM127.45 270.925C127.45 270.739 127.586 270.589 127.754 270.589C127.923 270.589 128.059 270.739 128.059 270.925C128.059 271.11 127.923 271.261 127.754 271.261C127.586 271.261 127.45 271.11 127.45 270.925ZM125.936 276.996C126.104 276.996 126.24 277.147 126.24 277.332C126.24 277.518 126.104 277.668 125.936 277.668C125.768 277.668 125.632 277.518 125.632 277.332C125.624 277.155 125.76 276.996 125.936 276.996ZM125.936 285.834C126.104 285.834 126.24 285.985 126.24 286.17C126.24 286.356 126.104 286.506 125.936 286.506C125.768 286.506 125.632 286.356 125.632 286.17C125.624 285.993 125.76 285.834 125.936 285.834ZM126.489 270.58C126.657 270.58 126.793 270.73 126.793 270.916C126.793 271.101 126.657 271.252 126.489 271.252C126.321 271.252 126.184 271.101 126.184 270.916C126.184 270.73 126.321 270.58 126.489 270.58ZM127.274 279.02C127.442 279.02 127.578 279.17 127.578 279.356C127.578 279.542 127.442 279.692 127.274 279.692C127.106 279.692 126.969 279.542 126.969 279.356C126.961 279.179 127.098 279.02 127.274 279.02ZM137.856 285.834C138.024 285.834 138.16 285.985 138.16 286.17C138.16 286.356 138.024 286.506 137.856 286.506C137.688 286.506 137.551 286.356 137.551 286.17C137.551 285.993 137.688 285.834 137.856 285.834ZM134.427 284.049C134.595 284.049 134.732 284.199 134.732 284.385C134.732 284.57 134.595 284.721 134.427 284.721C134.259 284.721 134.123 284.57 134.123 284.385C134.123 284.199 134.259 284.049 134.427 284.049ZM135.004 276.996C135.172 276.996 135.308 277.147 135.308 277.332C135.308 277.518 135.172 277.668 135.004 277.668C134.836 277.668 134.7 277.518 134.7 277.332C134.7 277.155 134.836 276.996 135.004 276.996ZM136.069 269.246C136.069 269.431 135.933 269.581 135.765 269.581C135.597 269.581 135.461 269.431 135.461 269.246C135.461 269.06 135.597 268.91 135.765 268.91C135.933 268.901 136.069 269.051 136.069 269.246ZM135.765 284.049C135.933 284.049 136.069 284.199 136.069 284.385C136.069 284.57 135.933 284.721 135.765 284.721C135.597 284.721 135.461 284.57 135.461 284.385C135.461 284.199 135.589 284.049 135.765 284.049ZM135.18 279.02C135.348 279.02 135.485 279.17 135.485 279.356C135.485 279.542 135.348 279.692 135.18 279.692C135.012 279.692 134.876 279.542 134.876 279.356C134.876 279.179 135.012 279.02 135.18 279.02ZM134.315 270.925C134.315 270.739 134.451 270.589 134.619 270.589C134.788 270.589 134.924 270.739 134.924 270.925C134.924 271.11 134.788 271.261 134.619 271.261C134.451 271.261 134.315 271.11 134.315 270.925ZM133.089 284.049C133.258 284.049 133.394 284.199 133.394 284.385C133.394 284.57 133.258 284.721 133.089 284.721C132.921 284.721 132.785 284.57 132.785 284.385C132.785 284.199 132.921 284.049 133.089 284.049ZM139.818 266.311C139.987 266.311 140.123 266.462 140.123 266.647C140.123 266.833 139.987 266.983 139.818 266.983C139.65 266.983 139.514 266.833 139.514 266.647C139.514 266.462 139.65 266.311 139.818 266.311ZM133.386 286.815C133.554 286.815 133.69 286.966 133.69 287.151C133.69 287.337 133.554 287.487 133.386 287.487C133.218 287.487 133.081 287.337 133.081 287.151C133.081 286.966 133.218 286.815 133.386 286.815ZM133.538 279.365C133.538 279.179 133.674 279.029 133.842 279.029C134.011 279.029 134.147 279.179 134.147 279.365C134.147 279.551 134.011 279.701 133.842 279.701C133.674 279.701 133.538 279.551 133.538 279.365ZM133.578 277.677C133.41 277.677 133.274 277.527 133.274 277.341C133.274 277.155 133.41 277.005 133.578 277.005C133.746 277.005 133.883 277.155 133.883 277.341C133.883 277.527 133.746 277.677 133.578 277.677ZM137.175 286.815C137.343 286.815 137.479 286.966 137.479 287.151C137.479 287.337 137.343 287.487 137.175 287.487C137.007 287.487 136.87 287.337 136.87 287.151C136.87 286.966 137.007 286.815 137.175 286.815ZM137.103 284.049C137.271 284.049 137.407 284.199 137.407 284.385C137.407 284.57 137.271 284.721 137.103 284.721C136.935 284.721 136.798 284.57 136.798 284.385C136.798 284.199 136.927 284.049 137.103 284.049ZM137.151 266.311C137.319 266.311 137.455 266.462 137.455 266.647C137.455 266.833 137.319 266.983 137.151 266.983C136.983 266.983 136.846 266.833 136.846 266.647C136.838 266.462 136.975 266.311 137.151 266.311ZM137.407 269.246C137.407 269.431 137.271 269.581 137.103 269.581C136.935 269.581 136.798 269.431 136.798 269.246C136.798 269.06 136.935 268.91 137.103 268.91C137.271 268.901 137.407 269.051 137.407 269.246ZM139.562 268.901C139.73 268.901 139.866 269.051 139.866 269.237C139.866 269.422 139.73 269.573 139.562 269.573C139.394 269.573 139.258 269.422 139.258 269.237C139.258 269.051 139.394 268.901 139.562 268.901ZM137.151 271.261C136.983 271.261 136.846 271.11 136.846 270.925C136.846 270.739 136.983 270.589 137.151 270.589C137.319 270.589 137.455 270.739 137.455 270.925C137.455 271.11 137.319 271.261 137.151 271.261ZM136.43 276.996C136.598 276.996 136.734 277.147 136.734 277.332C136.734 277.518 136.598 277.668 136.43 277.668C136.262 277.668 136.125 277.518 136.125 277.332C136.125 277.155 136.262 276.996 136.43 276.996ZM135.813 266.311C135.981 266.311 136.117 266.462 136.117 266.647C136.117 266.833 135.981 266.983 135.813 266.983C135.645 266.983 135.509 266.833 135.509 266.647C135.501 266.462 135.637 266.311 135.813 266.311ZM135.581 270.925C135.581 270.739 135.717 270.589 135.885 270.589C136.053 270.589 136.19 270.739 136.19 270.925C136.19 271.11 136.053 271.261 135.885 271.261C135.717 271.261 135.581 271.11 135.581 270.925ZM136.446 268.609C136.278 268.609 136.141 268.459 136.141 268.273C136.141 268.088 136.278 267.938 136.446 267.938C136.614 267.938 136.75 268.088 136.75 268.273C136.75 268.459 136.614 268.609 136.446 268.609ZM136.518 279.02C136.686 279.02 136.822 279.17 136.822 279.356C136.822 279.542 136.686 279.692 136.518 279.692C136.35 279.692 136.214 279.542 136.214 279.356C136.214 279.179 136.35 279.02 136.518 279.02ZM137.92 269.246C137.92 269.06 138.056 268.91 138.224 268.91C138.392 268.91 138.529 269.06 138.529 269.246C138.529 269.431 138.392 269.581 138.224 269.581C138.056 269.581 137.92 269.431 137.92 269.246ZM141.012 277.341C141.012 277.527 140.876 277.677 140.707 277.677C140.539 277.677 140.403 277.527 140.403 277.341C140.403 277.155 140.539 277.005 140.707 277.005C140.876 276.996 141.012 277.155 141.012 277.341ZM140.531 279.02C140.699 279.02 140.836 279.17 140.836 279.356C140.836 279.542 140.699 279.692 140.531 279.692C140.363 279.692 140.227 279.542 140.227 279.356C140.227 279.179 140.363 279.02 140.531 279.02ZM140.948 270.58C141.116 270.58 141.252 270.73 141.252 270.916C141.252 271.101 141.116 271.252 140.948 271.252C140.78 271.252 140.643 271.101 140.643 270.916C140.643 270.73 140.78 270.58 140.948 270.58ZM141.108 284.049C141.276 284.049 141.412 284.199 141.412 284.385C141.412 284.57 141.276 284.721 141.108 284.721C140.94 284.721 140.804 284.57 140.804 284.385C140.804 284.199 140.94 284.049 141.108 284.049ZM142.141 284.385C142.141 284.199 142.278 284.049 142.446 284.049C142.614 284.049 142.75 284.199 142.75 284.385C142.75 284.57 142.614 284.721 142.446 284.721C142.278 284.721 142.141 284.57 142.141 284.385ZM141.869 279.02C142.037 279.02 142.173 279.17 142.173 279.356C142.173 279.542 142.037 279.692 141.869 279.692C141.701 279.692 141.565 279.542 141.565 279.356C141.557 279.179 141.701 279.02 141.869 279.02ZM141.829 277.341C141.829 277.155 141.965 277.005 142.133 277.005C142.302 277.005 142.438 277.155 142.438 277.341C142.438 277.527 142.302 277.677 142.133 277.677C141.965 277.677 141.829 277.527 141.829 277.341ZM125.247 286.815C125.415 286.815 125.552 286.966 125.552 287.151C125.552 287.337 125.415 287.487 125.247 287.487C125.079 287.487 124.943 287.337 124.943 287.151C124.943 286.966 125.079 286.815 125.247 286.815ZM138.745 284.385C138.745 284.57 138.609 284.721 138.441 284.721C138.272 284.721 138.136 284.57 138.136 284.385C138.136 284.199 138.272 284.049 138.441 284.049C138.609 284.049 138.745 284.199 138.745 284.385ZM142.302 286.815C142.47 286.815 142.606 286.966 142.606 287.151C142.606 287.337 142.47 287.487 142.302 287.487C142.133 287.487 141.997 287.337 141.997 287.151C141.997 286.966 142.133 286.815 142.302 286.815ZM139.77 284.049C139.938 284.049 140.075 284.199 140.075 284.385C140.075 284.57 139.938 284.721 139.77 284.721C139.602 284.721 139.466 284.57 139.466 284.385C139.466 284.199 139.602 284.049 139.77 284.049ZM139.218 268.265C139.218 268.45 139.081 268.6 138.913 268.6C138.745 268.6 138.609 268.45 138.609 268.265C138.609 268.079 138.745 267.929 138.913 267.929C139.081 267.929 139.218 268.079 139.218 268.265ZM139.586 277.341C139.586 277.527 139.45 277.677 139.282 277.677C139.113 277.677 138.977 277.527 138.977 277.341C138.977 277.155 139.113 277.005 139.282 277.005C139.45 276.996 139.586 277.155 139.586 277.341ZM138.481 266.311C138.649 266.311 138.785 266.462 138.785 266.647C138.785 266.833 138.649 266.983 138.481 266.983C138.312 266.983 138.176 266.833 138.176 266.647C138.176 266.462 138.312 266.311 138.481 266.311ZM139.378 270.925C139.378 270.739 139.514 270.589 139.682 270.589C139.85 270.589 139.987 270.739 139.987 270.925C139.987 271.11 139.85 271.261 139.682 271.261C139.514 271.261 139.378 271.11 139.378 270.925ZM139.194 279.02C139.362 279.02 139.498 279.17 139.498 279.356C139.498 279.542 139.362 279.692 139.194 279.692C139.025 279.692 138.889 279.542 138.889 279.356C138.889 279.179 139.025 279.02 139.194 279.02ZM137.856 276.996C138.024 276.996 138.16 277.147 138.16 277.332C138.16 277.518 138.024 277.668 137.856 277.668C137.688 277.668 137.551 277.518 137.551 277.332C137.551 277.155 137.688 276.996 137.856 276.996ZM138.416 270.58C138.585 270.58 138.721 270.73 138.721 270.916C138.721 271.101 138.585 271.252 138.416 271.252C138.248 271.252 138.112 271.101 138.112 270.916C138.112 270.73 138.248 270.58 138.416 270.58ZM137.856 279.02C138.024 279.02 138.16 279.17 138.16 279.356C138.16 279.542 138.024 279.692 137.856 279.692C137.688 279.692 137.551 279.542 137.551 279.356C137.551 279.179 137.688 279.02 137.856 279.02ZM125.223 271.261C125.055 271.261 124.919 271.11 124.919 270.925C124.919 270.739 125.055 270.589 125.223 270.589C125.391 270.589 125.528 270.739 125.528 270.925C125.536 271.11 125.399 271.261 125.223 271.261ZM138.513 286.815C138.681 286.815 138.817 286.966 138.817 287.151C138.817 287.337 138.681 287.487 138.513 287.487C138.344 287.487 138.208 287.337 138.208 287.151C138.208 286.966 138.344 286.815 138.513 286.815Z" fill="#8A1638"/>
<path d="M141.107 282.159C141.275 282.159 141.411 282.309 141.411 282.495C141.411 282.68 141.275 282.83 141.107 282.83C140.939 282.83 140.802 282.68 140.802 282.495C140.802 282.309 140.939 282.159 141.107 282.159ZM139.769 282.159C139.937 282.159 140.073 282.309 140.073 282.495C140.073 282.68 139.937 282.83 139.769 282.83C139.601 282.83 139.465 282.68 139.465 282.495C139.465 282.309 139.601 282.159 139.769 282.159ZM140.458 281.187C140.626 281.187 140.762 281.337 140.762 281.522C140.762 281.708 140.626 281.858 140.458 281.858C140.29 281.858 140.154 281.708 140.154 281.522C140.146 281.337 140.282 281.187 140.458 281.187ZM135.98 282.159C136.148 282.159 136.284 282.309 136.284 282.495C136.284 282.68 136.148 282.83 135.98 282.83C135.812 282.83 135.676 282.68 135.676 282.495C135.676 282.309 135.812 282.159 135.98 282.159ZM134.642 282.159C134.811 282.159 134.947 282.309 134.947 282.495C134.947 282.68 134.811 282.83 134.642 282.83C134.474 282.83 134.338 282.68 134.338 282.495C134.338 282.309 134.474 282.159 134.642 282.159ZM135.331 281.187C135.499 281.187 135.636 281.337 135.636 281.522C135.636 281.708 135.499 281.858 135.331 281.858C135.163 281.858 135.027 281.708 135.027 281.522C135.019 281.337 135.163 281.187 135.331 281.187ZM141.868 275.177C142.036 275.177 142.172 275.327 142.172 275.513C142.172 275.698 142.036 275.848 141.868 275.848C141.7 275.848 141.563 275.698 141.563 275.513C141.555 275.327 141.7 275.177 141.868 275.177ZM140.907 274.54C140.907 274.355 141.043 274.205 141.211 274.205C141.379 274.205 141.515 274.355 141.515 274.54C141.515 274.726 141.379 274.876 141.211 274.876C141.043 274.876 140.907 274.726 140.907 274.54ZM140.53 273.993C140.362 273.993 140.226 273.842 140.226 273.657C140.226 273.471 140.362 273.321 140.53 273.321C140.698 273.321 140.834 273.471 140.834 273.657C140.834 273.833 140.698 273.993 140.53 273.993ZM139.849 273.1C139.681 273.1 139.545 272.95 139.545 272.764C139.545 272.578 139.681 272.428 139.849 272.428C140.017 272.428 140.154 272.578 140.154 272.764C140.154 272.95 140.017 273.1 139.849 273.1ZM137.855 275.177C138.023 275.177 138.159 275.327 138.159 275.513C138.159 275.698 138.023 275.848 137.855 275.848C137.686 275.848 137.55 275.698 137.55 275.513C137.55 275.327 137.686 275.177 137.855 275.177ZM138.511 274.205C138.68 274.205 138.816 274.355 138.816 274.54C138.816 274.726 138.68 274.876 138.511 274.876C138.343 274.876 138.207 274.726 138.207 274.54C138.199 274.355 138.343 274.205 138.511 274.205ZM139.192 273.312C139.361 273.312 139.497 273.462 139.497 273.648C139.497 273.833 139.361 273.984 139.192 273.984C139.024 273.984 138.888 273.833 138.888 273.648C138.888 273.462 139.024 273.312 139.192 273.312ZM137.206 274.205C137.374 274.205 137.51 274.355 137.51 274.54C137.51 274.726 137.374 274.876 137.206 274.876C137.037 274.876 136.901 274.726 136.901 274.54C136.893 274.355 137.029 274.205 137.206 274.205ZM136.517 273.312C136.685 273.312 136.821 273.462 136.821 273.648C136.821 273.833 136.685 273.984 136.517 273.984C136.349 273.984 136.212 273.833 136.212 273.648C136.212 273.462 136.349 273.312 136.517 273.312ZM135.836 273.1C135.668 273.1 135.531 272.95 135.531 272.764C135.531 272.578 135.668 272.428 135.836 272.428C136.004 272.428 136.14 272.578 136.14 272.764C136.14 272.95 136.004 273.1 135.836 273.1ZM133.841 275.177C134.01 275.177 134.146 275.327 134.146 275.513C134.146 275.698 134.01 275.848 133.841 275.848C133.673 275.848 133.537 275.698 133.537 275.513C133.537 275.327 133.673 275.177 133.841 275.177ZM134.498 274.205C134.666 274.205 134.803 274.355 134.803 274.54C134.803 274.726 134.666 274.876 134.498 274.876C134.33 274.876 134.194 274.726 134.194 274.54C134.194 274.355 134.33 274.205 134.498 274.205ZM135.179 273.312C135.347 273.312 135.483 273.462 135.483 273.648C135.483 273.833 135.347 273.984 135.179 273.984C135.011 273.984 134.875 273.833 134.875 273.648C134.875 273.462 135.011 273.312 135.179 273.312ZM129.187 282.159C129.355 282.159 129.492 282.309 129.492 282.495C129.492 282.68 129.355 282.83 129.187 282.83C129.019 282.83 128.883 282.68 128.883 282.495C128.883 282.309 129.019 282.159 129.187 282.159ZM127.849 282.159C128.018 282.159 128.154 282.309 128.154 282.495C128.154 282.68 128.018 282.83 127.849 282.83C127.681 282.83 127.545 282.68 127.545 282.495C127.545 282.309 127.681 282.159 127.849 282.159ZM128.53 281.187C128.699 281.187 128.835 281.337 128.835 281.522C128.835 281.708 128.699 281.858 128.53 281.858C128.362 281.858 128.226 281.708 128.226 281.522C128.226 281.337 128.362 281.187 128.53 281.187ZM124.06 282.159C124.229 282.159 124.365 282.309 124.365 282.495C124.365 282.68 124.229 282.83 124.06 282.83C123.892 282.83 123.756 282.68 123.756 282.495C123.756 282.309 123.892 282.159 124.06 282.159ZM122.723 282.159C122.891 282.159 123.027 282.309 123.027 282.495C123.027 282.68 122.891 282.83 122.723 282.83C122.554 282.83 122.418 282.68 122.418 282.495C122.418 282.309 122.554 282.159 122.723 282.159ZM123.404 281.187C123.572 281.187 123.708 281.337 123.708 281.522C123.708 281.708 123.572 281.858 123.404 281.858C123.235 281.858 123.099 281.708 123.099 281.522C123.099 281.337 123.235 281.187 123.404 281.187ZM129.94 275.177C130.108 275.177 130.245 275.327 130.245 275.513C130.245 275.698 130.108 275.848 129.94 275.848C129.772 275.848 129.636 275.698 129.636 275.513C129.636 275.327 129.772 275.177 129.94 275.177ZM128.979 274.54C128.979 274.355 129.115 274.205 129.283 274.205C129.452 274.205 129.588 274.355 129.588 274.54C129.588 274.726 129.452 274.876 129.283 274.876C129.115 274.876 128.979 274.726 128.979 274.54ZM128.602 273.993C128.434 273.993 128.298 273.842 128.298 273.657C128.298 273.471 128.434 273.321 128.602 273.321C128.771 273.321 128.907 273.471 128.907 273.657C128.915 273.833 128.779 273.993 128.602 273.993ZM127.921 273.1C127.753 273.1 127.617 272.95 127.617 272.764C127.617 272.578 127.753 272.428 127.921 272.428C128.09 272.428 128.226 272.578 128.226 272.764C128.226 272.95 128.09 273.1 127.921 273.1ZM125.935 275.177C126.103 275.177 126.239 275.327 126.239 275.513C126.239 275.698 126.103 275.848 125.935 275.848C125.767 275.848 125.63 275.698 125.63 275.513C125.622 275.327 125.759 275.177 125.935 275.177ZM126.584 274.205C126.752 274.205 126.888 274.355 126.888 274.54C126.888 274.726 126.752 274.876 126.584 274.876C126.416 274.876 126.279 274.726 126.279 274.54C126.279 274.355 126.416 274.205 126.584 274.205ZM127.273 273.312C127.441 273.312 127.577 273.462 127.577 273.648C127.577 273.833 127.441 273.984 127.273 273.984C127.104 273.984 126.968 273.833 126.968 273.648C126.96 273.462 127.096 273.312 127.273 273.312ZM125.278 274.205C125.446 274.205 125.582 274.355 125.582 274.54C125.582 274.726 125.446 274.876 125.278 274.876C125.11 274.876 124.974 274.726 124.974 274.54C124.974 274.355 125.11 274.205 125.278 274.205ZM124.597 273.312C124.765 273.312 124.902 273.462 124.902 273.648C124.902 273.833 124.765 273.984 124.597 273.984C124.429 273.984 124.293 273.833 124.293 273.648C124.285 273.462 124.429 273.312 124.597 273.312ZM123.908 273.1C123.74 273.1 123.604 272.95 123.604 272.764C123.604 272.578 123.74 272.428 123.908 272.428C124.076 272.428 124.213 272.578 124.213 272.764C124.221 272.95 124.084 273.1 123.908 273.1ZM121.922 275.177C122.09 275.177 122.226 275.327 122.226 275.513C122.226 275.698 122.09 275.848 121.922 275.848C121.753 275.848 121.617 275.698 121.617 275.513C121.617 275.327 121.753 275.177 121.922 275.177ZM122.578 274.205C122.747 274.205 122.883 274.355 122.883 274.54C122.883 274.726 122.747 274.876 122.578 274.876C122.41 274.876 122.274 274.726 122.274 274.54C122.266 274.355 122.402 274.205 122.578 274.205ZM123.259 273.312C123.428 273.312 123.564 273.462 123.564 273.648C123.564 273.833 123.428 273.984 123.259 273.984C123.091 273.984 122.955 273.833 122.955 273.648C122.947 273.462 123.091 273.312 123.259 273.312Z" fill="#6F0625"/>
<path d="M143.362 288.03V262.622H120.332V288.03H143.362Z" stroke="#6F0625" stroke-miterlimit="10"/>
<path d="M103.99 69.3383C92.0085 66.0052 79.9356 70.2474 71.7959 79.3379L47.7412 105.801V106.912L67.6794 84.994C66.2165 87.4181 65.028 90.0443 64.2039 92.8724L47.8323 110.952V112.063L63.7473 94.4884C63.564 94.9935 63.4729 95.4985 63.3808 96.1045C63.1064 97.3165 62.9242 98.5287 62.7409 99.6397L47.9245 116.002V117.114L62.6498 100.953C62.4666 102.367 62.4666 103.781 62.4666 105.195L48.0156 121.154V122.265L62.4666 106.306C62.4666 107.518 62.5577 108.73 62.7409 110.043L48.0156 126.305V127.416L62.9242 110.952C63.1064 112.064 63.2897 113.174 63.564 114.285L48.0156 131.355V132.466L63.7473 115.093C64.0216 116.104 64.296 117.114 64.6615 118.123L48.0156 136.506V137.617L64.9358 118.932C65.3023 119.841 65.6678 120.749 66.0333 121.658L47.9245 141.557V142.667L66.3076 122.365C66.7652 123.174 67.1307 124.082 67.6794 124.891L47.9245 146.708V147.819L68.0459 125.598C68.5035 126.405 69.0522 127.112 69.601 127.921L47.9245 151.859V152.97L70.0576 128.527C70.6984 129.335 71.3383 130.143 71.9791 130.85L47.9245 157.414V158.02H48.4732L72.5278 131.456C73.1677 132.163 73.8075 132.769 74.5395 133.476L52.3142 158.02H53.3206L75.0882 133.981C75.729 134.587 76.46 135.194 77.192 135.698L56.8872 158.02H57.8936L77.7407 136.103C78.4727 136.608 79.2036 137.113 80.0277 137.617L61.5524 158.02H62.5577L80.7587 138.022C81.5817 138.425 82.4048 138.931 83.2289 139.234L66.2165 158.02H67.2228L83.9599 139.536C84.8751 139.941 85.7893 140.243 86.7045 140.546L70.8807 158.02H71.887L87.5276 140.85C87.6187 140.85 87.7098 140.95 87.8019 140.95C88.7161 141.153 89.6303 141.355 90.4544 141.557L75.4537 158.121H76.46L91.2775 141.759C92.3749 141.96 93.4724 142.062 94.5698 142.062L80.0277 158.121H81.033L95.5762 142.062C96.8558 142.062 98.1365 142.062 99.3261 141.86L84.6007 158.02H85.606L100.424 141.657C101.979 141.455 103.533 141.051 104.997 140.546L89.1737 158.02H90.1791L106.459 140.041C109.112 139.031 111.673 137.718 113.959 136.001L94.0211 158.02H95.0274L118.99 131.557C123.289 126.911 126.581 120.951 128.136 114.083C132.892 94.4884 122.008 74.3885 103.99 69.3383ZM101.886 79.1358C107.375 80.7519 112.313 84.388 115.605 89.5392C114.691 90.3473 113.594 90.8523 112.404 91.2563C107.649 92.5694 102.893 89.4382 101.704 84.186C101.429 82.4689 101.521 80.7519 101.886 79.1358ZM97.4046 94.7914L104.63 100.549C105.545 101.256 105.911 102.569 105.545 103.781L102.802 113.174C102.435 114.386 101.429 115.195 100.331 115.195H91.3686C90.2712 115.195 89.2649 114.386 88.8994 113.174L86.1548 103.781C85.7893 102.569 86.1547 101.256 87.07 100.549L94.2955 94.7914C95.2097 93.9834 96.4904 93.9834 97.4046 94.7914ZM104.813 130.244C102.07 131.456 98.9596 132.163 95.7584 132.163C92.6493 132.163 89.7225 131.557 86.9788 130.345C87.9842 126.002 91.643 122.77 95.8505 122.77C100.24 122.77 103.807 125.901 104.813 130.244ZM89.7224 79.1358C90.179 80.7519 90.2712 82.4689 89.8136 84.186C88.625 89.4382 83.8687 92.5694 79.1125 91.2563C77.9239 90.9533 76.8265 90.3473 75.9113 89.5392C79.2957 84.388 84.2342 80.7519 89.7224 79.1358ZM76.6432 121.861C74.5395 118.932 73.0765 115.599 72.1613 111.862C71.6126 109.336 71.3383 106.811 71.4294 104.286C75.4547 104.185 79.2036 107.114 80.2099 111.558C81.1251 115.497 79.5701 119.537 76.6432 121.861ZM119.539 111.76C118.716 115.598 117.161 118.932 115.057 121.861C112.13 119.639 110.576 115.599 111.49 111.558C112.496 107.114 116.246 104.185 120.271 104.286C120.271 106.71 120.087 109.235 119.539 111.76Z" fill="#8A1638"/>
<path d="M129.051 75.8033C126.215 73.5812 123.837 71.0561 121.734 68.127C123.837 65.1978 126.215 62.6727 129.051 60.4507C131.886 62.6727 134.264 65.1978 136.368 68.127C134.264 71.0561 131.886 73.5812 129.051 75.8033Z" fill="#6F0625"/>
<path d="M48.2412 157.672V52.7219H143.366V157.672H48.2412Z" stroke="#6F0625" stroke-miterlimit="10"/>
<path d="M107.299 38.3381L108.821 36.6589C108.26 36.217 107.539 36.0404 106.818 36.0404C104.815 36.0404 103.213 37.808 103.213 40.0174C103.213 40.8128 103.454 41.6083 103.774 42.2269L105.296 40.5476C105.296 39.8406 105.296 39.1335 105.456 38.4265C106.017 38.3381 106.658 38.3381 107.299 38.3381ZM102.813 43.2873C102.172 42.4036 101.851 41.2547 101.851 40.0174C101.851 37.0126 104.094 34.5378 106.818 34.5378C107.939 34.5378 108.981 34.9798 109.782 35.5985L112.986 32.0633H109.782L106.818 28.7932L103.854 32.0633H99.6084V36.7473L96.6445 40.0174L99.6084 43.2873V46.8225L102.813 43.2873ZM110.423 40.0174C110.423 39.222 110.182 38.4265 109.782 37.7195L108.34 39.3103C108.34 40.0173 108.34 40.7244 108.18 41.5198C107.539 41.6081 106.898 41.6965 106.177 41.6965L104.735 43.2873C105.296 43.7292 106.017 43.9945 106.818 43.9945C108.821 43.9945 110.423 42.2269 110.423 40.0174ZM114.027 36.6589V33.0354L110.743 36.6589C111.384 37.6311 111.784 38.7801 111.784 40.0174C111.784 43.0223 109.542 45.4968 106.818 45.4968C105.696 45.4968 104.655 45.0549 103.774 44.3479L100.49 47.9715H103.774L106.738 51.2414L109.702 47.9715H113.947V43.2873L116.911 40.0174L114.027 36.6589Z" fill="#8A1638"/>
<path d="M118.334 36.1288V52.7219H95.3037V27.313H110.344C114.716 27.313 118.334 31.2229 118.334 36.1288Z" stroke="#6F0625" stroke-miterlimit="10"/>
<path d="M73.1348 12.9733C74.2562 11.3825 75.5379 10.0569 77.0599 8.90796C78.5819 10.0569 79.7835 11.4709 80.9851 12.9733C79.8636 14.5642 78.5819 15.89 77.0599 17.0389C75.5379 15.89 74.2562 14.4758 73.1348 12.9733ZM81.5458 36.4822C80.0238 37.6311 78.8222 39.0451 77.6207 40.5475C78.7421 42.1383 80.0238 43.464 81.5458 44.613C83.0678 43.464 84.2694 42.05 85.471 40.5475C84.2694 38.9567 82.9877 37.6311 81.5458 36.4822ZM71.773 36.4822C70.251 37.6311 69.0494 39.0451 67.8478 40.5475C68.9693 42.1383 70.251 43.464 71.773 44.613C73.295 43.464 74.4965 42.05 75.6981 40.5475C74.4965 38.9567 73.2149 37.6311 71.773 36.4822ZM62.0001 36.4822C60.4781 37.6311 59.2765 39.0451 58.075 40.5475C59.1964 42.1383 60.4781 43.464 62.0001 44.613C63.5221 43.464 64.7237 42.05 65.9253 40.5475C64.7237 38.9567 63.442 37.6311 62.0001 36.4822ZM89.3962 22.6066C87.8742 23.7556 86.6726 25.1696 85.471 26.6721C86.5925 28.2629 87.8742 29.5887 89.3962 30.7376C90.9182 29.5887 92.1197 28.1745 93.3213 26.6721C92.1197 25.1696 90.8381 23.8439 89.3962 22.6066ZM80.5846 30.8259C82.1066 29.6769 83.3081 28.263 84.5097 26.7605C83.3883 25.1697 82.1066 23.8439 80.5846 22.695C79.0626 23.8439 77.861 25.2581 76.6594 26.7605C77.7809 28.263 79.0626 29.6769 80.5846 30.8259ZM71.773 22.6066C70.251 23.7556 69.0494 25.1696 67.8478 26.6721C68.9693 28.2629 70.251 29.5887 71.773 30.7376C73.295 29.5887 74.4965 28.1745 75.6981 26.6721C74.4965 25.1696 73.2149 23.8439 71.773 22.6066ZM62.9614 22.6066C61.4394 23.7556 60.2378 25.1696 59.0362 26.6721C60.1577 28.2629 61.4394 29.5887 62.9614 30.7376C64.4834 29.5887 65.685 28.1745 66.8865 26.6721C65.685 25.1696 64.4033 23.8439 62.9614 22.6066ZM54.1498 22.6066C52.6278 23.7556 51.4262 25.1696 50.2246 26.6721C51.3461 28.2629 52.6278 29.5887 54.1498 30.7376C55.6718 29.5887 56.8734 28.1745 58.075 26.6721C56.8734 25.1696 55.5917 23.8439 54.1498 22.6066Z" fill="#8A1638"/>
<path d="M69.9304 12.9733C68.8089 14.5642 67.5272 15.89 66.0052 17.0389C64.4832 15.89 63.2817 14.4758 62.0801 12.9733C63.2016 11.3825 64.4832 10.0569 66.0052 8.90796C67.5272 9.9685 68.8089 11.3825 69.9304 12.9733Z" fill="#6F0625"/>
<path d="M48.2412 52.7219V0.799316H95.3031V52.7219H48.2412Z" stroke="#6F0625" stroke-miterlimit="10"/>
<path d="M45.49 102.908V106.426H44.8412V104.985L42.6383 104.146L45.49 102.908ZM24.3662 84.5167L26.505 83.4915L25.2954 82.157L24.3662 84.5167ZM25.5758 85.8512L27.7146 84.826L26.505 83.4915L25.5758 85.8512ZM26.7934 87.1857L28.9322 86.1694L27.7146 84.826L26.7934 87.1857ZM28.003 88.5291L30.1418 87.5039L28.9322 86.1694L28.003 88.5291ZM29.2126 89.8636L31.3514 88.8384L30.1418 87.5039L29.2126 89.8636Z" fill="#6F0625"/>
<path d="M34.2989 94.7077C34.2989 94.8049 34.2268 94.8845 34.1387 94.8845C34.0506 94.8845 33.9785 94.8049 33.9785 94.7077C33.9785 94.6105 34.0506 94.5309 34.1387 94.5309C34.2268 94.5309 34.2989 94.6105 34.2989 94.7077ZM34.1387 93.3202C34.0506 93.3202 33.9785 93.3997 33.9785 93.4969C33.9785 93.5941 34.0506 93.6737 34.1387 93.6737C34.2268 93.6737 34.2989 93.5941 34.2989 93.4969C34.2989 93.3997 34.2268 93.3202 34.1387 93.3202ZM34.1387 92.1182C34.0506 92.1182 33.9785 92.1977 33.9785 92.295C33.9785 92.3922 34.0506 92.4717 34.1387 92.4717C34.2268 92.4717 34.2989 92.3922 34.2989 92.295C34.2989 92.1977 34.2268 92.1182 34.1387 92.1182ZM33.8023 91.5437C33.7142 91.5437 33.6421 91.6233 33.6421 91.7205C33.6421 91.8177 33.7142 91.8973 33.8023 91.8973C33.8904 91.8973 33.9625 91.8177 33.9625 91.7205C33.9625 91.6233 33.8904 91.5437 33.8023 91.5437ZM34.1387 89.7055C34.0506 89.7055 33.9785 89.785 33.9785 89.8822C33.9785 89.9794 34.0506 90.059 34.1387 90.059C34.2268 90.059 34.2989 89.9794 34.2989 89.8822C34.2989 89.785 34.2268 89.7055 34.1387 89.7055ZM34.1387 95.7329C34.0506 95.7329 33.9785 95.8124 33.9785 95.9097C33.9785 96.0069 34.0506 96.0864 34.1387 96.0864C34.2268 96.0864 34.2989 96.0069 34.2989 95.9097C34.2989 95.8124 34.2268 95.7329 34.1387 95.7329ZM33.8023 89.131C33.7142 89.131 33.6421 89.2105 33.6421 89.3078C33.6421 89.405 33.7142 89.4845 33.8023 89.4845C33.8904 89.4845 33.9625 89.405 33.9625 89.3078C33.9625 89.2105 33.8904 89.131 33.8023 89.131ZM33.8023 90.3418C33.7142 90.3418 33.6421 90.4213 33.6421 90.5186C33.6421 90.6158 33.7142 90.6953 33.8023 90.6953C33.8904 90.6953 33.9625 90.6158 33.9625 90.5186C33.9625 90.4213 33.8904 90.3418 33.8023 90.3418ZM34.1387 96.9437C34.0506 96.9437 33.9785 97.0232 33.9785 97.1204C33.9785 97.2177 34.0506 97.2972 34.1387 97.2972C34.2268 97.2972 34.2989 97.2177 34.2989 97.1204C34.2989 97.0232 34.2268 96.9437 34.1387 96.9437ZM34.1387 90.9074C34.0506 90.9074 33.9785 90.987 33.9785 91.0842C33.9785 91.1814 34.0506 91.2609 34.1387 91.2609C34.2268 91.2609 34.2989 91.1814 34.2989 91.0842C34.2989 90.987 34.2268 90.9074 34.1387 90.9074ZM34.4751 91.5437C34.387 91.5437 34.3149 91.6233 34.3149 91.7205C34.3149 91.8177 34.387 91.8973 34.4751 91.8973C34.5633 91.8973 34.6354 91.8177 34.6354 91.7205C34.6354 91.6233 34.5633 91.5437 34.4751 91.5437ZM34.4751 90.3418C34.387 90.3418 34.3149 90.4213 34.3149 90.5186C34.3149 90.6158 34.387 90.6953 34.4751 90.6953C34.5633 90.6953 34.6354 90.6158 34.6354 90.5186C34.6354 90.4213 34.5633 90.3418 34.4751 90.3418ZM34.4751 89.131C34.387 89.131 34.3149 89.2105 34.3149 89.3078C34.3149 89.405 34.387 89.4845 34.4751 89.4845C34.5633 89.4845 34.6354 89.405 34.6354 89.3078C34.6354 89.2105 34.5633 89.131 34.4751 89.131ZM34.8116 96.9437C34.7235 96.9437 34.6514 97.0232 34.6514 97.1204C34.6514 97.2177 34.7235 97.2972 34.8116 97.2972C34.8997 97.2972 34.9718 97.2177 34.9718 97.1204C34.9718 97.0232 34.8997 96.9437 34.8116 96.9437ZM34.4751 95.1673C34.387 95.1673 34.3149 95.2468 34.3149 95.344C34.3149 95.4412 34.387 95.5208 34.4751 95.5208C34.5633 95.5208 34.6354 95.4412 34.6354 95.344C34.6354 95.2468 34.5633 95.1673 34.4751 95.1673ZM34.4751 97.58C34.387 97.58 34.3149 97.6596 34.3149 97.7568C34.3149 97.854 34.387 97.9335 34.4751 97.9335C34.5633 97.9335 34.6354 97.854 34.6354 97.7568C34.6354 97.6596 34.5633 97.58 34.4751 97.58ZM34.4751 96.3692C34.387 96.3692 34.3149 96.4488 34.3149 96.546C34.3149 96.6432 34.387 96.7227 34.4751 96.7227C34.5633 96.7227 34.6354 96.6432 34.6354 96.546C34.6354 96.4488 34.5633 96.3692 34.4751 96.3692ZM34.4751 93.9565C34.387 93.9565 34.3149 94.036 34.3149 94.1332C34.3149 94.2305 34.387 94.31 34.4751 94.31C34.5633 94.31 34.6354 94.2305 34.6354 94.1332C34.6354 94.036 34.5633 93.9565 34.4751 93.9565ZM34.4751 92.7545C34.387 92.7545 34.3149 92.8341 34.3149 92.9313C34.3149 93.0285 34.387 93.108 34.4751 93.108C34.5633 93.108 34.6354 93.0285 34.6354 92.9313C34.6354 92.8341 34.5633 92.7545 34.4751 92.7545ZM33.4738 93.3202C33.3857 93.3202 33.3136 93.3997 33.3136 93.4969C33.3136 93.5941 33.3857 93.6737 33.4738 93.6737C33.5619 93.6737 33.634 93.5941 33.634 93.4969C33.634 93.3997 33.5619 93.3202 33.4738 93.3202ZM33.1374 92.7545C33.0493 92.7545 32.9772 92.8341 32.9772 92.9313C32.9772 93.0285 33.0493 93.108 33.1374 93.108C33.2255 93.108 33.2976 93.0285 33.2976 92.9313C33.2976 92.8341 33.2255 92.7545 33.1374 92.7545ZM33.1374 90.3418C33.0493 90.3418 32.9772 90.4213 32.9772 90.5186C32.9772 90.6158 33.0493 90.6953 33.1374 90.6953C33.2255 90.6953 33.2976 90.6158 33.2976 90.5186C33.2976 90.4213 33.2255 90.3418 33.1374 90.3418ZM33.8023 92.7545C33.7142 92.7545 33.6421 92.8341 33.6421 92.9313C33.6421 93.0285 33.7142 93.108 33.8023 93.108C33.8904 93.108 33.9625 93.0285 33.9625 92.9313C33.9625 92.8341 33.8904 92.7545 33.8023 92.7545ZM33.1374 91.5437C33.0493 91.5437 32.9772 91.6233 32.9772 91.7205C32.9772 91.8177 33.0493 91.8973 33.1374 91.8973C33.2255 91.8973 33.2976 91.8177 33.2976 91.7205C33.2976 91.6233 33.2255 91.5437 33.1374 91.5437ZM33.1374 95.1673C33.0493 95.1673 32.9772 95.2468 32.9772 95.344C32.9772 95.4412 33.0493 95.5208 33.1374 95.5208C33.2255 95.5208 33.2976 95.4412 33.2976 95.344C33.2976 95.2468 33.2255 95.1673 33.1374 95.1673ZM32.8009 94.5309C32.7128 94.5309 32.6407 94.6105 32.6407 94.7077C32.6407 94.8049 32.7128 94.8845 32.8009 94.8845C32.8891 94.8845 32.9612 94.8049 32.9612 94.7077C32.9612 94.6105 32.8891 94.5309 32.8009 94.5309ZM28.7636 81.3448V79.9131H28.1148V83.4217L30.9665 82.1844L28.7636 81.3448ZM32.8009 93.3202C32.7128 93.3202 32.6407 93.3997 32.6407 93.4969C32.6407 93.5941 32.7128 93.6737 32.8009 93.6737C32.8891 93.6737 32.9612 93.5941 32.9612 93.4969C32.9612 93.3997 32.8891 93.3202 32.8009 93.3202ZM32.8009 92.1182C32.7128 92.1182 32.6407 92.1977 32.6407 92.295C32.6407 92.3922 32.7128 92.4717 32.8009 92.4717C32.8891 92.4717 32.9612 92.3922 32.9612 92.295C32.9612 92.1977 32.8891 92.1182 32.8009 92.1182ZM33.1374 93.9565C33.0493 93.9565 32.9772 94.036 32.9772 94.1332C32.9772 94.2305 33.0493 94.31 33.1374 94.31C33.2255 94.31 33.2976 94.2305 33.2976 94.1332C33.2976 94.036 33.2255 93.9565 33.1374 93.9565ZM33.8023 96.3692C33.7142 96.3692 33.6421 96.4488 33.6421 96.546C33.6421 96.6432 33.7142 96.7227 33.8023 96.7227C33.8904 96.7227 33.9625 96.6432 33.9625 96.546C33.9625 96.4488 33.8904 96.3692 33.8023 96.3692ZM33.8023 95.1673C33.7142 95.1673 33.6421 95.2468 33.6421 95.344C33.6421 95.4412 33.7142 95.5208 33.8023 95.5208C33.8904 95.5208 33.9625 95.4412 33.9625 95.344C33.9625 95.2468 33.8904 95.1673 33.8023 95.1673ZM33.4738 95.7329C33.3857 95.7329 33.3136 95.8124 33.3136 95.9097C33.3136 96.0069 33.3857 96.0864 33.4738 96.0864C33.5619 96.0864 33.634 96.0069 33.634 95.9097C33.634 95.8124 33.5619 95.7329 33.4738 95.7329ZM33.4738 89.7055C33.3857 89.7055 33.3136 89.785 33.3136 89.8822C33.3136 89.9794 33.3857 90.059 33.4738 90.059C33.5619 90.059 33.634 89.9794 33.634 89.8822C33.634 89.785 33.5619 89.7055 33.4738 89.7055ZM33.8023 93.9565C33.7142 93.9565 33.6421 94.036 33.6421 94.1332C33.6421 94.2305 33.7142 94.31 33.8023 94.31C33.8904 94.31 33.9625 94.2305 33.9625 94.1332C33.9625 94.036 33.8904 93.9565 33.8023 93.9565ZM33.4738 94.5309C33.3857 94.5309 33.3136 94.6105 33.3136 94.7077C33.3136 94.8049 33.3857 94.8845 33.4738 94.8845C33.5619 94.8845 33.634 94.8049 33.634 94.7077C33.634 94.6105 33.5619 94.5309 33.4738 94.5309ZM34.8116 95.7329C34.7235 95.7329 34.6514 95.8124 34.6514 95.9097C34.6514 96.0069 34.7235 96.0864 34.8116 96.0864C34.8997 96.0864 34.9718 96.0069 34.9718 95.9097C34.9718 95.8124 34.8997 95.7329 34.8116 95.7329ZM33.4738 92.1182C33.3857 92.1182 33.3136 92.1977 33.3136 92.295C33.3136 92.3922 33.3857 92.4717 33.4738 92.4717C33.5619 92.4717 33.634 92.3922 33.634 92.295C33.634 92.1977 33.5619 92.1182 33.4738 92.1182ZM33.4738 90.9074C33.3857 90.9074 33.3136 90.987 33.3136 91.0842C33.3136 91.1814 33.3857 91.2609 33.4738 91.2609C33.5619 91.2609 33.634 91.1814 33.634 91.0842C33.634 90.987 33.5619 90.9074 33.4738 90.9074ZM35.4765 94.5309C35.3884 94.5309 35.3163 94.6105 35.3163 94.7077C35.3163 94.8049 35.3884 94.8845 35.4765 94.8845C35.5646 94.8845 35.6367 94.8049 35.6367 94.7077C35.6367 94.6105 35.5646 94.5309 35.4765 94.5309ZM35.8369 87.929C35.7488 87.929 35.6767 88.0086 35.6767 88.1058C35.6767 88.203 35.7488 88.2826 35.8369 88.2826C35.9251 88.2826 35.9972 88.203 35.9972 88.1058C35.9972 88.0086 35.9251 87.929 35.8369 87.929ZM36.5018 96.7316C36.5899 96.7316 36.662 96.652 36.662 96.5548C36.662 96.4576 36.5899 96.3781 36.5018 96.3781C36.4137 96.3781 36.3416 96.4576 36.3416 96.5548C36.3416 96.652 36.4137 96.7316 36.5018 96.7316ZM35.8369 90.3418C35.7488 90.3418 35.6767 90.4213 35.6767 90.5186C35.6767 90.6158 35.7488 90.6953 35.8369 90.6953C35.9251 90.6953 35.9972 90.6158 35.9972 90.5186C35.9972 90.4213 35.9251 90.3418 35.8369 90.3418ZM36.1734 88.4947C36.0853 88.4947 36.0132 88.5742 36.0132 88.6714C36.0132 88.7686 36.0853 88.8482 36.1734 88.8482C36.2615 88.8482 36.3336 88.7686 36.3336 88.6714C36.3336 88.5742 36.2615 88.4947 36.1734 88.4947ZM35.8369 91.5437C35.7488 91.5437 35.6767 91.6233 35.6767 91.7205C35.6767 91.8177 35.7488 91.8973 35.8369 91.8973C35.9251 91.8973 35.9972 91.8177 35.9972 91.7205C35.9972 91.6233 35.9251 91.5437 35.8369 91.5437ZM36.1734 90.9074C36.0853 90.9074 36.0132 90.987 36.0132 91.0842C36.0132 91.1814 36.0853 91.2609 36.1734 91.2609C36.2615 91.2609 36.3336 91.1814 36.3336 91.0842C36.3336 90.987 36.2615 90.9074 36.1734 90.9074ZM36.1734 89.7055C36.0853 89.7055 36.0132 89.785 36.0132 89.8822C36.0132 89.9794 36.0853 90.059 36.1734 90.059C36.2615 90.059 36.3336 89.9794 36.3336 89.8822C36.3336 89.785 36.2615 89.7055 36.1734 89.7055ZM36.5018 97.9335C36.5899 97.9335 36.662 97.854 36.662 97.7568C36.662 97.6596 36.5899 97.58 36.5018 97.58C36.4137 97.58 36.3416 97.6596 36.3416 97.7568C36.3416 97.854 36.4137 97.9335 36.5018 97.9335ZM36.1734 94.8845C36.2615 94.8845 36.3336 94.8049 36.3336 94.7077C36.3336 94.6105 36.2615 94.5309 36.1734 94.5309C36.0853 94.5309 36.0132 94.6105 36.0132 94.7077C36.0132 94.8049 36.0853 94.8845 36.1734 94.8845ZM36.5018 99.1443C36.5899 99.1443 36.662 99.0648 36.662 98.9676C36.662 98.8703 36.5899 98.7908 36.5018 98.7908C36.4137 98.7908 36.3416 98.8703 36.3416 98.9676C36.3416 99.0648 36.4137 99.1443 36.5018 99.1443ZM35.8369 94.3188C35.9251 94.3188 35.9972 94.2393 35.9972 94.1421C35.9972 94.0449 35.9251 93.9653 35.8369 93.9653C35.7488 93.9653 35.6767 94.0449 35.6767 94.1421C35.6767 94.2393 35.7488 94.3188 35.8369 94.3188ZM36.1734 87.2927C36.0853 87.2927 36.0132 87.3723 36.0132 87.4695C36.0132 87.5667 36.0853 87.6462 36.1734 87.6462C36.2615 87.6462 36.3336 87.5667 36.3336 87.4695C36.3336 87.3723 36.2615 87.2927 36.1734 87.2927ZM36.1734 98.508C36.2615 98.508 36.3336 98.4285 36.3336 98.3312C36.3336 98.234 36.2615 98.1545 36.1734 98.1545C36.0853 98.1545 36.0132 98.234 36.0132 98.3312C36.0132 98.4285 36.0853 98.508 36.1734 98.508ZM36.1734 97.2972C36.2615 97.2972 36.3336 97.2177 36.3336 97.1204C36.3336 97.0232 36.2615 96.9437 36.1734 96.9437C36.0853 96.9437 36.0132 97.0232 36.0132 97.1204C36.0132 97.2177 36.0853 97.2972 36.1734 97.2972ZM36.1734 96.0953C36.2615 96.0953 36.3336 96.0157 36.3336 95.9185C36.3336 95.8213 36.2615 95.7417 36.1734 95.7417C36.0853 95.7417 36.0132 95.8213 36.0132 95.9185C36.0132 96.0157 36.0853 96.0953 36.1734 96.0953ZM35.8369 89.131C35.7488 89.131 35.6767 89.2105 35.6767 89.3078C35.6767 89.405 35.7488 89.4845 35.8369 89.4845C35.9251 89.4845 35.9972 89.405 35.9972 89.3078C35.9972 89.2105 35.9251 89.131 35.8369 89.131ZM26.1522 94.9728L25.8879 95.2645L26.1522 95.5561L26.4165 95.2645L26.1522 94.9728ZM27.0414 94.9728L26.777 95.2645L27.0414 95.5561L27.3057 95.2645L27.0414 94.9728ZM24.3739 94.9728L24.1095 95.2645L24.3739 95.5561L24.6382 95.2645L24.3739 94.9728ZM25.263 94.9728L24.9987 95.2645L25.263 95.5561L25.5274 95.2645L25.263 94.9728ZM29.7089 94.9728L29.4445 95.2645L29.7089 95.5561L29.9732 95.2645L29.7089 94.9728ZM27.9305 94.9728L27.6662 95.2645L27.9305 95.5561L28.1949 95.2645L27.9305 94.9728ZM28.8197 94.9728L28.5554 95.2645L28.8197 95.5561L29.0841 95.2645L28.8197 94.9728ZM36.5018 89.131C36.4137 89.131 36.3416 89.2105 36.3416 89.3078C36.3416 89.405 36.4137 89.4845 36.5018 89.4845C36.5899 89.4845 36.662 89.405 36.662 89.3078C36.67 89.2105 36.5899 89.131 36.5018 89.131ZM36.8383 87.6462C36.9264 87.6462 36.9985 87.5667 36.9985 87.4695C36.9985 87.3723 36.9264 87.2927 36.8383 87.2927C36.7501 87.2927 36.678 87.3723 36.678 87.4695C36.678 87.5667 36.7501 87.6462 36.8383 87.6462ZM36.5018 87.929C36.4137 87.929 36.3416 88.0086 36.3416 88.1058C36.3416 88.203 36.4137 88.2826 36.5018 88.2826C36.5899 88.2826 36.662 88.203 36.662 88.1058C36.67 88.0086 36.5899 87.929 36.5018 87.929ZM36.5018 90.3418C36.4137 90.3418 36.3416 90.4213 36.3416 90.5186C36.3416 90.6158 36.4137 90.6953 36.5018 90.6953C36.5899 90.6953 36.662 90.6158 36.662 90.5186C36.67 90.4213 36.5899 90.3418 36.5018 90.3418ZM46.8594 93.0904C46.8594 97.7303 43.7834 101.557 39.7621 102.246V104.659L38.4804 106.117L37.407 104.889L26.0801 104.907L24.7103 106.418H23.8131L25.4873 104.571V97.3679H23.709V95.9627H30.526C30.3898 95.5119 30.2936 95.0435 30.2296 94.5575H23.709V93.1522H30.1174C30.1174 93.1257 30.1174 93.1081 30.1174 93.0815C30.1174 91.4554 30.4939 89.9352 31.1588 88.6096L23.709 80.408V79.9131H24.1576L31.4952 88.0086C32.7689 85.8698 34.8276 84.3585 37.2148 83.952V81.7779L38.4964 80.302L39.7781 81.7867V83.9608C43.7834 84.6237 46.8594 88.4593 46.8594 93.0904ZM24.6382 93.9035L24.3739 93.6118L24.1095 93.9035L24.3739 94.1951L24.6382 93.9035ZM25.5274 93.9035L25.263 93.6118L24.9987 93.9035L25.263 94.1951L25.5274 93.9035ZM26.4165 93.9035L26.1522 93.6118L25.8879 93.9035L26.1522 94.1951L26.4165 93.9035ZM27.3057 93.9035L27.0414 93.6118L26.777 93.9035L27.0414 94.1951L27.3057 93.9035ZM28.1949 93.9035L27.9305 93.6118L27.6662 93.9035L27.9305 94.1951L28.1949 93.9035ZM29.0841 93.9035L28.8197 93.6118L28.5554 93.9035L28.8197 94.1951L29.0841 93.9035ZM29.9732 93.9035L29.7089 93.6118L29.4445 93.9035L29.7089 94.1951L29.9732 93.9035ZM31.7756 98.6317L30.2616 100.302H33.2175C32.6808 99.816 32.1921 99.2504 31.7756 98.6317ZM30.3497 96.6697L30.6141 96.9614L30.7903 96.7669C30.7502 96.6609 30.7102 96.5548 30.6782 96.4399L30.6141 96.3692L30.3497 96.6697ZM30.2536 99.3122L31.4071 98.0396C31.2789 97.8186 31.1668 97.5977 31.0546 97.3679H30.2536V99.3122ZM29.4445 96.6697L29.7089 96.9614L29.9732 96.6697L29.7089 96.3781L29.4445 96.6697ZM28.1869 97.3679V101.592L29.6128 100.019V97.3767H28.1869V97.3679ZM28.5474 96.6697L28.8117 96.9614L29.076 96.6697L28.8117 96.3781L28.5474 96.6697ZM27.6582 96.6697L27.9225 96.9614L28.1869 96.6697L27.9225 96.3781L27.6582 96.6697ZM26.769 96.6697L27.0334 96.9614L27.2977 96.6697L27.0334 96.3781L26.769 96.6697ZM24.6382 96.6697L24.3739 96.3781L24.1095 96.6697L24.3739 96.9614L24.6382 96.6697ZM25.5274 96.6697L25.263 96.3781L24.9987 96.6697L25.263 96.9614L25.5274 96.6697ZM26.1522 96.9614L26.4165 96.6697L26.1522 96.3781L25.8879 96.6697L26.1522 96.9614ZM26.1282 103.873L27.554 102.299V102.255V97.3767H26.1282V103.873ZM37.2067 102.953H27.8584L26.721 104.208L37.2067 104.191V102.953ZM37.2067 102.246C36.0933 102.061 35.0519 101.628 34.1307 101H29.6288L28.4993 102.246H37.2067ZM37.2067 86.5415C36.9824 86.5945 36.7742 86.6652 36.5579 86.7448C36.614 86.7713 36.662 86.8243 36.662 86.895C36.662 86.9922 36.5899 87.0718 36.5018 87.0718C36.4137 87.0718 36.3416 86.9922 36.3416 86.895C36.3416 86.8685 36.3576 86.842 36.3736 86.8155C36.2295 86.8773 36.0933 86.9392 35.9571 87.0099C35.9251 87.0453 35.885 87.0718 35.8369 87.0718C35.7088 87.1425 35.5806 87.2132 35.4524 87.2927C35.4604 87.2927 35.4685 87.2839 35.4765 87.2839C35.5646 87.2839 35.6367 87.3634 35.6367 87.4606C35.6367 87.5579 35.5646 87.6374 35.4765 87.6374C35.3884 87.6374 35.3163 87.5579 35.3163 87.4606C35.3163 87.4253 35.3323 87.3899 35.3563 87.3634C35.084 87.549 34.8276 87.7435 34.5873 87.9732C34.6193 88.0086 34.6434 88.0528 34.6434 88.1058C34.6434 88.203 34.5713 88.2826 34.4832 88.2826C34.4271 88.2826 34.387 88.2472 34.363 88.2119C34.2589 88.3179 34.1627 88.424 34.0746 88.5389C34.0987 88.5212 34.1227 88.5035 34.1547 88.5035C34.2429 88.5035 34.3149 88.5831 34.3149 88.6803C34.3149 88.7775 34.2429 88.857 34.1547 88.857C34.0666 88.857 33.9945 88.7775 33.9945 88.6803C33.9945 88.6538 34.0105 88.6272 34.0266 88.6007C33.4818 89.2724 33.0493 90.059 32.7769 90.9339C32.7929 90.9251 32.8009 90.9163 32.817 90.9163C32.9051 90.9163 32.9772 90.9958 32.9772 91.093C32.9772 91.1902 32.9051 91.2698 32.817 91.2698C32.7689 91.2698 32.7289 91.2433 32.6968 91.1991C32.6648 91.3316 32.6327 91.473 32.6007 91.6144C32.6247 91.6498 32.6407 91.6852 32.6407 91.7293C32.6407 91.8 32.6007 91.8442 32.5526 91.8796C32.5046 92.1712 32.4725 92.4717 32.4645 92.7722C32.4725 92.7722 32.4805 92.7634 32.4885 92.7634C32.5766 92.7634 32.6487 92.8429 32.6487 92.9401C32.6487 93.0373 32.5766 93.1169 32.4885 93.1169C32.4725 93.1169 32.4645 93.108 32.4565 93.0992C32.4565 93.3997 32.4805 93.6825 32.5126 93.9742C32.5927 93.9918 32.6487 94.0537 32.6487 94.1421C32.6487 94.2128 32.6087 94.2658 32.5526 94.2923C32.6808 95.0524 32.9131 95.7682 33.2495 96.4223C33.2736 96.4399 33.2896 96.4753 33.2976 96.5106C33.3857 96.6786 33.4818 96.8376 33.578 96.9967C33.594 97.0144 33.61 97.0321 33.618 97.0586C33.9224 97.5182 34.2749 97.9424 34.6754 98.3047C34.6914 98.2252 34.7475 98.1633 34.8196 98.1633C34.9077 98.1633 34.9798 98.2429 34.9798 98.3401C34.9798 98.4019 34.9398 98.455 34.8917 98.4815C35.148 98.6936 35.4284 98.888 35.7168 99.0559C35.7008 99.0294 35.6847 99.0118 35.6847 98.9764C35.6847 98.8792 35.7568 98.7996 35.8449 98.7996C35.9331 98.7996 36.0052 98.8792 36.0052 98.9764C36.0052 99.0648 35.9491 99.1266 35.877 99.1443C36.1413 99.2857 36.4137 99.4183 36.7021 99.5155C36.7181 99.436 36.7742 99.3741 36.8463 99.3741C36.9344 99.3741 37.0065 99.4536 37.0065 99.5509C37.0065 99.5685 36.9905 99.5774 36.9905 99.5951C37.0626 99.6127 37.1347 99.6392 37.2148 99.6569V99.1443C37.2068 99.1443 37.1987 99.162 37.1827 99.162C37.0946 99.162 37.0225 99.0825 37.0225 98.9852C37.0225 98.888 37.0946 98.8085 37.1827 98.8085C37.1907 98.8085 37.1987 98.8173 37.2148 98.8262V97.9512C37.2068 97.9512 37.1987 97.9689 37.1827 97.9689C37.0946 97.9689 37.0225 97.8893 37.0225 97.7921C37.0225 97.6949 37.0946 97.6154 37.1827 97.6154C37.1907 97.6154 37.1987 97.6242 37.2148 97.633V96.7581C37.2068 96.7581 37.1987 96.7758 37.1827 96.7758C37.0946 96.7758 37.0225 96.6962 37.0225 96.599C37.0225 96.5018 37.0946 96.4223 37.1827 96.4223C37.1987 96.4223 37.1987 96.4311 37.2148 96.4399V95.565C37.2068 95.565 37.1987 95.5827 37.1827 95.5827C37.0946 95.5827 37.0225 95.5031 37.0225 95.4059C37.0225 95.4059 37.0225 95.3971 37.0305 95.3971C36.5098 94.9728 36.1413 94.3365 36.0372 93.603C36.0372 93.5941 36.0212 93.5765 36.0212 93.5676C36.0212 93.5588 36.0292 93.5499 36.0292 93.5411C36.0132 93.4174 35.9972 93.2936 35.9972 93.1611C35.9972 93.108 36.0052 93.055 36.0052 93.002C36.0052 93.0992 35.9331 93.1699 35.8449 93.1699C35.7568 93.1699 35.6847 93.0904 35.6847 92.9932C35.6847 92.8959 35.7568 92.8164 35.8449 92.8164C35.9331 92.8164 36.0052 92.8959 36.0052 92.9932C36.0212 92.8252 36.0372 92.6573 36.0773 92.4894C36.0452 92.454 36.0212 92.4099 36.0212 92.3568C36.0212 92.2684 36.0853 92.1978 36.1654 92.1889C36.2935 91.8266 36.4778 91.4907 36.7181 91.2256C36.7101 91.1991 36.6941 91.1814 36.6941 91.1549C36.6941 91.0577 36.7662 90.9781 36.8543 90.9781C36.8863 90.9781 36.9184 90.9958 36.9424 91.0223C37.0305 90.9428 37.1186 90.8721 37.2228 90.8014V90.7483C37.2067 90.7483 37.2067 90.766 37.1907 90.766C37.1026 90.766 37.0305 90.6865 37.0305 90.5892C37.0305 90.492 37.1026 90.4125 37.1907 90.4125C37.2067 90.4125 37.2148 90.4213 37.2228 90.4302V89.5464C37.2067 89.5464 37.2067 89.5641 37.1907 89.5641C37.1026 89.5641 37.0305 89.4845 37.0305 89.3873C37.0305 89.2901 37.1026 89.2105 37.1907 89.2105C37.2067 89.2105 37.2148 89.2194 37.2228 89.2282V88.3444C37.2148 88.3444 37.2067 88.3621 37.1907 88.3621C37.1026 88.3621 37.0305 88.2826 37.0305 88.1854C37.0305 88.0881 37.1026 88.0086 37.1907 88.0086C37.2067 88.0086 37.2148 88.0174 37.2228 88.0263V87.1425C37.2148 87.1425 37.2067 87.1602 37.1907 87.1602C37.1026 87.1602 37.0305 87.0806 37.0305 86.9834C37.0305 86.8862 37.1026 86.8066 37.1907 86.8066C37.2067 86.8066 37.2148 86.8155 37.2228 86.8243V86.5415H37.2067ZM44.5364 93.0904C44.5364 89.8734 42.4937 87.1955 39.7621 86.5415V90.7307C40.4911 91.2167 40.9797 92.0917 40.9797 93.0992C40.9797 94.1067 40.4911 94.9817 39.7621 95.4678V99.6392C42.4937 98.9941 44.5364 96.3074 44.5364 93.0904ZM36.8383 88.8482C36.9264 88.8482 36.9985 88.7686 36.9985 88.6714C36.9985 88.5742 36.9264 88.4947 36.8383 88.4947C36.7501 88.4947 36.678 88.5742 36.678 88.6714C36.678 88.7686 36.7501 88.8482 36.8383 88.8482ZM36.8383 90.059C36.9264 90.059 36.9985 89.9794 36.9985 89.8822C36.9985 89.785 36.9264 89.7055 36.8383 89.7055C36.7501 89.7055 36.678 89.785 36.678 89.8822C36.678 89.9794 36.7501 90.059 36.8383 90.059ZM35.4765 92.1182C35.3884 92.1182 35.3163 92.1977 35.3163 92.295C35.3163 92.3922 35.3884 92.4717 35.4765 92.4717C35.5646 92.4717 35.6367 92.3922 35.6367 92.295C35.6367 92.1977 35.5646 92.1182 35.4765 92.1182ZM35.14 93.9565C35.0519 93.9565 34.9798 94.036 34.9798 94.1332C34.9798 94.2305 35.0519 94.31 35.14 94.31C35.2281 94.31 35.3002 94.2305 35.3002 94.1332C35.3002 94.036 35.2281 93.9565 35.14 93.9565ZM35.14 95.1673C35.0519 95.1673 34.9798 95.2468 34.9798 95.344C34.9798 95.4412 35.0519 95.5208 35.14 95.5208C35.2281 95.5208 35.3002 95.4412 35.3002 95.344C35.3002 95.2468 35.2281 95.1673 35.14 95.1673ZM35.14 92.7545C35.0519 92.7545 34.9798 92.8341 34.9798 92.9313C34.9798 93.0285 35.0519 93.108 35.14 93.108C35.2281 93.108 35.3002 93.0285 35.3002 92.9313C35.3002 92.8341 35.2281 92.7545 35.14 92.7545ZM35.14 87.929C35.0519 87.929 34.9798 88.0086 34.9798 88.1058C34.9798 88.203 35.0519 88.2826 35.14 88.2826C35.2281 88.2826 35.3002 88.203 35.3002 88.1058C35.3002 88.0086 35.2281 87.929 35.14 87.929ZM35.14 96.3692C35.0519 96.3692 34.9798 96.4488 34.9798 96.546C34.9798 96.6432 35.0519 96.7227 35.14 96.7227C35.2281 96.7227 35.3002 96.6432 35.3002 96.546C35.3002 96.4488 35.2281 96.3692 35.14 96.3692ZM35.14 89.131C35.0519 89.131 34.9798 89.2105 34.9798 89.3078C34.9798 89.405 35.0519 89.4845 35.14 89.4845C35.2281 89.4845 35.3002 89.405 35.3002 89.3078C35.3002 89.2105 35.2281 89.131 35.14 89.131ZM35.14 90.3418C35.0519 90.3418 34.9798 90.4213 34.9798 90.5186C34.9798 90.6158 35.0519 90.6953 35.14 90.6953C35.2281 90.6953 35.3002 90.6158 35.3002 90.5186C35.3002 90.4213 35.2281 90.3418 35.14 90.3418ZM35.14 91.5437C35.0519 91.5437 34.9798 91.6233 34.9798 91.7205C34.9798 91.8177 35.0519 91.8973 35.14 91.8973C35.2281 91.8973 35.3002 91.8177 35.3002 91.7205C35.3002 91.6233 35.2281 91.5437 35.14 91.5437ZM34.8116 92.1182C34.7235 92.1182 34.6514 92.1977 34.6514 92.295C34.6514 92.3922 34.7235 92.4717 34.8116 92.4717C34.8997 92.4717 34.9718 92.3922 34.9718 92.295C34.9718 92.1977 34.8997 92.1182 34.8116 92.1182ZM34.8116 93.3202C34.7235 93.3202 34.6514 93.3997 34.6514 93.4969C34.6514 93.5941 34.7235 93.6737 34.8116 93.6737C34.8997 93.6737 34.9718 93.5941 34.9718 93.4969C34.9718 93.3997 34.8997 93.3202 34.8116 93.3202ZM34.8116 90.9074C34.7235 90.9074 34.6514 90.987 34.6514 91.0842C34.6514 91.1814 34.7235 91.2609 34.8116 91.2609C34.8997 91.2609 34.9718 91.1814 34.9718 91.0842C34.9718 90.987 34.8997 90.9074 34.8116 90.9074ZM35.14 97.58C35.0519 97.58 34.9798 97.6596 34.9798 97.7568C34.9798 97.854 35.0519 97.9335 35.14 97.9335C35.2281 97.9335 35.3002 97.854 35.3002 97.7568C35.3002 97.6596 35.2281 97.58 35.14 97.58ZM34.8116 89.7055C34.7235 89.7055 34.6514 89.785 34.6514 89.8822C34.6514 89.9794 34.7235 90.059 34.8116 90.059C34.8997 90.059 34.9718 89.9794 34.9718 89.8822C34.9718 89.785 34.8997 89.7055 34.8116 89.7055ZM34.8116 88.4947C34.7235 88.4947 34.6514 88.5742 34.6514 88.6714C34.6514 88.7686 34.7235 88.8482 34.8116 88.8482C34.8997 88.8482 34.9718 88.7686 34.9718 88.6714C34.9718 88.5742 34.8997 88.4947 34.8116 88.4947ZM36.8383 96.0953C36.9264 96.0953 36.9985 96.0157 36.9985 95.9185C36.9985 95.8213 36.9264 95.7417 36.8383 95.7417C36.7501 95.7417 36.678 95.8213 36.678 95.9185C36.678 96.0157 36.7501 96.0953 36.8383 96.0953ZM35.8369 95.1673C35.7488 95.1673 35.6767 95.2468 35.6767 95.344C35.6767 95.4412 35.7488 95.5208 35.8369 95.5208C35.9251 95.5208 35.9972 95.4412 35.9972 95.344C35.9972 95.2468 35.9251 95.1673 35.8369 95.1673ZM35.8369 96.3692C35.7488 96.3692 35.6767 96.4488 35.6767 96.546C35.6767 96.6432 35.7488 96.7227 35.8369 96.7227C35.9251 96.7227 35.9972 96.6432 35.9972 96.546C35.9972 96.4488 35.9251 96.3692 35.8369 96.3692ZM35.8369 97.58C35.7488 97.58 35.6767 97.6596 35.6767 97.7568C35.6767 97.854 35.7488 97.9335 35.8369 97.9335C35.9251 97.9335 35.9972 97.854 35.9972 97.7568C35.9972 97.6596 35.9251 97.58 35.8369 97.58ZM36.5018 95.5208C36.5899 95.5208 36.662 95.4412 36.662 95.344C36.662 95.2468 36.5899 95.1673 36.5018 95.1673C36.4137 95.1673 36.3416 95.2468 36.3416 95.344C36.3416 95.4412 36.4137 95.5208 36.5018 95.5208ZM35.4765 98.1456C35.3884 98.1456 35.3163 98.2252 35.3163 98.3224C35.3163 98.4196 35.3884 98.4992 35.4765 98.4992C35.5646 98.4992 35.6367 98.4196 35.6367 98.3224C35.6367 98.2252 35.5646 98.1456 35.4765 98.1456ZM36.8383 98.508C36.9264 98.508 36.9985 98.4285 36.9985 98.3312C36.9985 98.234 36.9264 98.1545 36.8383 98.1545C36.7501 98.1545 36.678 98.234 36.678 98.3312C36.678 98.4285 36.7501 98.508 36.8383 98.508ZM36.8383 97.2972C36.9264 97.2972 36.9985 97.2177 36.9985 97.1204C36.9985 97.0232 36.9264 96.9437 36.8383 96.9437C36.7501 96.9437 36.678 97.0232 36.678 97.1204C36.678 97.2177 36.7501 97.2972 36.8383 97.2972ZM35.4765 88.4947C35.3884 88.4947 35.3163 88.5742 35.3163 88.6714C35.3163 88.7686 35.3884 88.8482 35.4765 88.8482C35.5646 88.8482 35.6367 88.7686 35.6367 88.6714C35.6367 88.5742 35.5646 88.4947 35.4765 88.4947ZM35.4765 95.7329C35.3884 95.7329 35.3163 95.8124 35.3163 95.9097C35.3163 96.0069 35.3884 96.0864 35.4765 96.0864C35.5646 96.0864 35.6367 96.0069 35.6367 95.9097C35.6367 95.8124 35.5646 95.7329 35.4765 95.7329ZM35.4765 96.9437C35.3884 96.9437 35.3163 97.0232 35.3163 97.1204C35.3163 97.2177 35.3884 97.2972 35.4765 97.2972C35.5646 97.2972 35.6367 97.2177 35.6367 97.1204C35.6367 97.0232 35.5646 96.9437 35.4765 96.9437ZM35.4765 89.7055C35.3884 89.7055 35.3163 89.785 35.3163 89.8822C35.3163 89.9794 35.3884 90.059 35.4765 90.059C35.5646 90.059 35.6367 89.9794 35.6367 89.8822C35.6367 89.785 35.5646 89.7055 35.4765 89.7055ZM35.4765 93.3202C35.3884 93.3202 35.3163 93.3997 35.3163 93.4969C35.3163 93.5941 35.3884 93.6737 35.4765 93.6737C35.5646 93.6737 35.6367 93.5941 35.6367 93.4969C35.6367 93.3997 35.5646 93.3202 35.4765 93.3202ZM34.8116 94.5309C34.7235 94.5309 34.6514 94.6105 34.6514 94.7077C34.6514 94.8049 34.7235 94.8845 34.8116 94.8845C34.8997 94.8845 34.9718 94.8049 34.9718 94.7077C34.9718 94.6105 34.8997 94.5309 34.8116 94.5309ZM35.4765 90.9074C35.3884 90.9074 35.3163 90.987 35.3163 91.0842C35.3163 91.1814 35.3884 91.2609 35.4765 91.2609C35.5646 91.2609 35.6367 91.1814 35.6367 91.0842C35.6367 90.987 35.5646 90.9074 35.4765 90.9074Z" fill="#8A1638"/>
<path d="M24.21 105.874V80.4653H47.2403V105.874H24.21Z" stroke="#6F0625" stroke-miterlimit="10"/>
</svg>
