<svg width="116" height="25" viewBox="0 0 116 25" fill="none" xmlns="http://www.w3.org/2000/svg">
<path fill-rule="evenodd" clip-rule="evenodd" d="M61.7492 7.3C63.6492 7.3 65.1492 5.7 65.1492 3.9C65.1492 2.1 63.6492 0.5 61.7492 0.5C59.8492 0.5 58.3492 2.1 58.3492 3.9C58.3492 5.7 59.8492 7.3 61.7492 7.3ZM77.2492 6.1C76.6492 6.8 75.8492 7.3 74.7492 7.3C72.8492 7.3 71.4492 5.8 71.4492 3.9C71.4492 2 72.9492 0.5 74.8492 0.5C75.8492 0.5 76.7492 1 77.3492 1.7C77.9492 1 78.7492 0.5 79.8492 0.5C81.7492 0.5 83.1492 2.1 83.1492 3.9C83.1492 5.7 81.6492 7.3 79.7492 7.3C78.8492 7.3 77.8492 6.8 77.2492 6.1ZM97.5492 3.9C97.5492 5.7 96.0492 7.3 94.1492 7.3C92.2492 7.3 90.7492 5.7 90.7492 3.9C90.7492 2.1 92.2492 0.5 94.1492 0.5C96.0492 0.5 97.5492 2.1 97.5492 3.9ZM82.8492 10.7H88.3492C88.6492 10.7 89.0492 11 89.1492 11.2V12.8H98.6492C99.0492 12.8 99.3492 13.2 99.3492 13.5V19.3C99.3492 19.7 98.9492 20 98.6492 20H86.8492C86.1492 20 85.6492 19.4 85.6492 18.8C85.6492 19.5 85.0492 20 84.4492 20H71.1492C69.9492 22.6 67.1492 24.5 63.9492 24.5H59.4492C55.0492 24.5 51.4492 20.9 51.4492 16.5V11.5C51.4492 11 51.8492 10.7 52.2492 10.8H57.5492C57.9492 10.8 58.2492 11.2 58.2492 11.5V16.5C58.2492 17.2 58.8492 17.7 59.4492 17.7H63.8492C64.5492 17.7 65.0492 17.1 65.0492 16.5V11.5C65.0492 11.1 65.4492 10.8 65.7492 10.8H71.2492C71.6492 10.8 71.9492 11.2 71.9492 11.5V13H82.1492V11.4C82.1492 11 82.5492 10.7 82.8492 10.7ZM101.549 1.2V6.7C101.549 7 101.849 7.4 102.249 7.4H114.449C114.749 7.4 115.149 7.1 115.149 6.7V1.2C115.149 0.9 114.849 0.5 114.449 0.5H102.249C101.949 0.5 101.549 0.8 101.549 1.2ZM104.949 10.3V19.1C104.949 19.4 105.249 19.8 105.649 19.8H111.149C111.549 19.8 111.849 19.4 111.849 19.1V10.3C111.849 9.9 111.449 9.6 111.149 9.6H105.649C105.249 9.6 104.949 10 104.949 10.3Z" fill="white"/>
<path d="M1 13.1002C1 9.3002 4.1 6.2002 7.9 6.2002C11.7 6.2002 14.8 9.3002 14.8 13.1002C14.8 16.9002 11.7 20.0002 7.9 20.0002C4.1 20.0002 1 16.8002 1 13.1002Z" fill="#A3244C"/>
<path d="M16.5 13.1002C16.5 9.3002 19.6 6.2002 23.4 6.2002C27.2 6.2002 30.3 9.3002 30.3 13.1002C30.3 16.9002 27.2 20.0002 23.4 20.0002C19.6 20.0002 16.5 16.8002 16.5 13.1002Z" fill="#C92659"/>
<path d="M31.8984 13.1002C31.8984 9.3002 34.9984 6.2002 38.7984 6.2002C42.5984 6.2002 45.6984 9.3002 45.6984 13.1002C45.6984 16.9002 42.5984 20.0002 38.7984 20.0002C34.9984 19.9002 31.8984 16.8002 31.8984 13.1002Z" fill="#F02867"/>
</svg>
