<svg id="Layer_1" data-name="Layer 1" xmlns="http://www.w3.org/2000/svg" xmlns:xlink="http://www.w3.org/1999/xlink" width="199.85" height="188.51" viewBox="0 0 199.85 188.51"><defs><clipPath id="clip-path" transform="translate(-284.15 -263.11)"><path d="M388.47,322.88c-2.12.54-3.34,3-3,5.08a4.1,4.1,0,0,0,1.37,2.53c1.49,1.28,3.81.1,4.65-1.39a4.58,4.58,0,0,0,.46-2.6,4.81,4.81,0,0,0-.82-2.57,2.7,2.7,0,0,0-2.15-1.11,2.57,2.57,0,0,0-.51.05" style="fill:none"/></clipPath><linearGradient id="linear-gradient" x1="129.71" y1="718.82" x2="132.38" y2="718.82" gradientTransform="matrix(6.84, 0, 0, -6.84, -506.25, 5245.25)" gradientUnits="userSpaceOnUse"><stop offset="0" stop-color="#b87d6d"/><stop offset="0.47" stop-color="#b87d6d"/><stop offset="0.51" stop-color="#a47063"/><stop offset="0.58" stop-color="#8a6056"/><stop offset="0.65" stop-color="#7a564e"/><stop offset="0.7" stop-color="#75534b"/><stop offset="1" stop-color="#75534b"/></linearGradient><clipPath id="clip-path-2" transform="translate(-284.15 -263.11)"><path d="M399.72,319.19a1.25,1.25,0,0,0-1,1.8,3.15,3.15,0,0,0,.52.74,1.44,1.44,0,0,1-.23-1.56c.33-.51,1.26-.46,1.77-.34,1.53.33,3.6,2.27,3.24,3.95a1.26,1.26,0,0,1-1,.93s.14,0,.18.05a1.06,1.06,0,0,0,1.09-.6c.79-1.6-.92-3.41-2.16-4.23a4.4,4.4,0,0,0-2.17-.74h-.22" style="fill:none"/></clipPath><linearGradient id="linear-gradient-2" x1="146.74" y1="711.56" x2="149.42" y2="711.56" gradientTransform="matrix(0, -5.36, -5.36, 0, 4215.45, 1116.08)" gradientUnits="userSpaceOnUse"><stop offset="0" stop-color="#b87d6d"/><stop offset="0.59" stop-color="#b87d6d"/><stop offset="0.64" stop-color="#a47063"/><stop offset="0.73" stop-color="#8a6056"/><stop offset="0.8" stop-color="#7a564e"/><stop offset="0.86" stop-color="#75534b"/><stop offset="1" stop-color="#75534b"/></linearGradient></defs><title>2022 FIFA World Cup Mascot logo - Brandlogos.net</title><path d="M429.92,312.2c-.15-2.73-.51-5.44-.81-8.15-.28-2.5-1-7.69-2.93-9.23-1.12-1-3-.35-3.63.88-.29.53-.6,1.05-.9,1.58a32.85,32.85,0,0,1-2,3.29c-1.9,2.56-3.76,5.15-5.8,7.6-.22.28-.47.53-.7.8a23.63,23.63,0,0,1-8.59,6.36,3,3,0,0,1-1.19.33c-.12-.11-.25-.22-.38-.35-.84-.84-1.66-1.7-2.52-2.53a55.83,55.83,0,0,1-4.25-4.85,2,2,0,0,1-.49-1.17,2.08,2.08,0,0,0-1.25-1.79.52.52,0,0,0-.42,0,3,3,0,0,0-.22-.56,1.57,1.57,0,0,0-.41-.43,2,2,0,0,0-1.19-.49A1.88,1.88,0,0,0,391,302a4.32,4.32,0,0,0-.78-.27,11.38,11.38,0,0,0-3.47-.24,35.91,35.91,0,0,1-3.94.06,36.32,36.32,0,0,0-16,2.94c-4.39,1.95-8.84,4.7-11.47,8.66a4.22,4.22,0,0,1-.8.9,14.84,14.84,0,0,0-2.11,2.07,7,7,0,0,0-.78,1.12,1.92,1.92,0,0,0,0,2.15.62.62,0,0,1,0,.14,1.32,1.32,0,0,1-.67.77c-.55.31-1.08.66-1.62,1a22.39,22.39,0,0,1-2.08,1.19,4.74,4.74,0,0,0-.46-.48.9.9,0,0,0-.53-.13,3.38,3.38,0,0,0-.77.18c-.05,0-.17.09-.22.07s-.1-.14-.14-.18a.86.86,0,0,0-.38-.31.81.81,0,0,0-.51,0,4.21,4.21,0,0,0-1,.73,2.88,2.88,0,0,1-.36,0,16.39,16.39,0,0,1-3-1.07c-5-2.35-8.26-7.22-10.22-12.23-1.78-4.77-1.69-9.9-1.9-14.92-.13-6.19-1.45-12.31-7.57-15.19a13.37,13.37,0,0,0-7.36-1.16c-.37.05-.76.07-1.12.13a9.78,9.78,0,0,0-8.48-2.84c-.63.12-1.28.26-1.94.36a.63.63,0,0,0-.63-.56.64.64,0,0,0-.45.19h0A.62.62,0,0,0,300,275a.66.66,0,0,0-.49.06h0a.63.63,0,0,0-.31-.19.69.69,0,0,0-.41,0,.64.64,0,0,0-.36-.27.66.66,0,0,0-.74.34v0a1.35,1.35,0,0,0,0-.65,2.4,2.4,0,0,0-.76-1.17,7.23,7.23,0,0,0-.83-.66,4.56,4.56,0,0,1-2.11-2.86,4.41,4.41,0,0,1,.2-2,1.83,1.83,0,0,0-.5.93,5.25,5.25,0,0,0-.16,1.72,11.93,11.93,0,0,1-.54-1.12,20.18,20.18,0,0,1-1.48-5.95,2.62,2.62,0,0,0-.4,1.23,12.42,12.42,0,0,0,0,1.3,15.4,15.4,0,0,1-.19,2.65,4.46,4.46,0,0,1-.26-1.92c0,.12-.16.3-.21.41a4.32,4.32,0,0,0-.15.44,9.59,9.59,0,0,0-.25,1,6.28,6.28,0,0,0-.08,2,7.53,7.53,0,0,0,.62,2.07,7,7,0,0,0-.83-.75,7.39,7.39,0,0,0-1.44-.76,1.93,1.93,0,0,1,.64.63,7.06,7.06,0,0,0,.58.62c.69.73,1.39,1.43,2.09,2.14a9.6,9.6,0,0,0,2.9,2.11,3.26,3.26,0,0,0,1.27.31,6.71,6.71,0,0,0,1.3-.2h0a.63.63,0,0,0,.27.78.68.68,0,0,0,.66,0,.39.39,0,0,0,0,.08.64.64,0,0,0,.38.29.63.63,0,0,0,.49-.06.66.66,0,0,0,.25-.28.64.64,0,0,0,.33.22.66.66,0,0,0,.49-.06.61.61,0,0,0,.29-.38v-.05h0a.63.63,0,0,0,1.08-.45c0-.08,0-.16,0-.24l1.61-.33a9,9,0,0,1,7.89,2.2s-.2.08-.22.09l-1,.33a20.07,20.07,0,0,0-4.9,2.41l-.38.23,0-.07a.64.64,0,0,0-.29-.38.63.63,0,0,0-.49-.06.65.65,0,0,0-.38.29l0,.05,0,0a.63.63,0,0,0-.86.23v0a.61.61,0,0,0-.55-.11.67.67,0,0,0-.34.25.63.63,0,0,0-1,.44c-.25-.19-.42-.49-.72-.59a3.14,3.14,0,0,0-1.72-.14,9.93,9.93,0,0,1-1.7.26,10.48,10.48,0,0,1-1.61,0,2.21,2.21,0,0,1-1.39-.65,4.09,4.09,0,0,0,.38.7,1,1,0,0,0,.5.43,9.23,9.23,0,0,0-1.66-.25,3.11,3.11,0,0,0-1.63.36,3.1,3.1,0,0,1,1.53.18,7,7,0,0,0,1.69.21,6.09,6.09,0,0,1-1.46,0l-1-.15a7.44,7.44,0,0,0-2.58.17,6,6,0,0,0-2.86,1.69c.11-.11.58-.13.73-.15a5,5,0,0,1,2.49.35,7.41,7.41,0,0,0,2.41.64,4.5,4.5,0,0,1-2.78,0,4.76,4.76,0,0,0,2.11.45,4.53,4.53,0,0,1-1.95.24,2.84,2.84,0,0,1,.64.26,6.43,6.43,0,0,0,.7.19,6.54,6.54,0,0,0,1.48.14,6.68,6.68,0,0,0,1.47-.19c.49-.12.93-.35,1.41-.48a8.4,8.4,0,0,0-1.19,2c.11-.32.63-.61.87-.82a4.4,4.4,0,0,1,1.07-.73,16,16,0,0,1,2.54-1c.36-.1.74-.2,1.09-.32a5.63,5.63,0,0,0,1-.44,2,2,0,0,0,.45-.35l.05-.06v0a.64.64,0,0,0,.78.44.65.65,0,0,0,.36-.28.59.59,0,0,0,.32.09.62.62,0,0,0,.45-.18.67.67,0,0,0,.18-.37.6.6,0,0,0,.28.07.64.64,0,0,0,.45-.18.79.79,0,0,0,.14-.21.57.57,0,0,0,.27.06.64.64,0,0,0,.45-.18.63.63,0,0,0,.19-.45c0-.2,0-.39-.05-.59.28-.15.52-.35.79-.52a19,19,0,0,1,5.79-2.59,4.33,4.33,0,0,1,.55-.06,18.28,18.28,0,0,1,3.56,6q.26.71.5,1.44a9,9,0,0,1,.42,1.46,3.38,3.38,0,0,0-.83-.69A8.43,8.43,0,0,0,313,285.8c-3.71-1.32-7.7,0-10.92,2-.3.18-.58.38-.87.58l-.14-.23a.64.64,0,0,0-.38-.29.66.66,0,0,0-.49.06.64.64,0,0,0-.29.38.71.71,0,0,0,0,.13.64.64,0,0,0-.76.45.07.07,0,0,1,0,0l0,0a.66.66,0,0,0-.49.06.65.65,0,0,0-.29.37.73.73,0,0,0-.31-.08.64.64,0,0,0-.45.19.63.63,0,0,0-.18.45c0,.06,0,.11,0,.17a.6.6,0,0,0,.16.28l0,0h-.09a10.38,10.38,0,0,0-1.23,0,2.24,2.24,0,0,0-1.07.6,15.84,15.84,0,0,0-2.34,2.69,4.94,4.94,0,0,1-1.26,1.3,3,3,0,0,1-1.7.72.81.81,0,0,0,.65.19,2.44,2.44,0,0,0,.66-.2l.59-.24a3,3,0,0,0-.56,1,6,6,0,0,0-.18,1.19,5.48,5.48,0,0,1-.38,1.77,2.16,2.16,0,0,1-1,1.16,2.68,2.68,0,0,0,1.18-.85,3.72,3.72,0,0,0,.67-1.3,6.77,6.77,0,0,0,1.43,4.78,5.51,5.51,0,0,1,.31-4,22.83,22.83,0,0,1,0,2.76c0,.58,0,1.16-.08,1.73a3.27,3.27,0,0,1-.46,1.59,8.74,8.74,0,0,0,1.57-3.09,17.37,17.37,0,0,0,.85-3.62,5.69,5.69,0,0,0,.55,2.2,6,6,0,0,1,.12-3.05,5.43,5.43,0,0,1,1.77-2.34,6.09,6.09,0,0,0,1.19-1.27,2,2,0,0,0,.35-1.72,2.72,2.72,0,0,1-.06-.37l.17,0a.64.64,0,0,0,.45-.18.68.68,0,0,0,.18-.33.63.63,0,0,0,.42-.18.67.67,0,0,0,.17-.39.62.62,0,0,0,.39-.08.63.63,0,0,0,.29-.38.92.92,0,0,0,0-.12.63.63,0,0,0,.72-.45.67.67,0,0,0-.06-.49l-.2-.33c4.55-3.15,10.42-4.67,14.71-.13a1.63,1.63,0,0,1,.4.8c.29,1.23.6,2.46.89,3.69q1.49,6.4,3.49,12.66a53.2,53.2,0,0,0,2.44,6.38c1.39,3,2.85,6,5.39,8.18a20,20,0,0,0,9.36,4.39c.06,0,0,.15,0,.23a.63.63,0,0,0,.68.52c.12,0,.25-.12.34-.09s.26.26.34.34.27.32.31.32a6.44,6.44,0,0,1-3-.38,20.87,20.87,0,0,1-8.71-5.63,18.08,18.08,0,0,1-2.72-3.48c-1.13-1.68-2.25-3.36-3.32-5.08-1.25-2-2.45-4.08-3.68-6.11a37.81,37.81,0,0,0-4.12-5.72,16,16,0,0,0-3.81-3.22,7.86,7.86,0,0,0-7.21-.55,12.59,12.59,0,0,0-3.77,2.38c-.36.32-.72.65-1.07,1l-.32-.21a.65.65,0,0,0-.49-.06.63.63,0,0,0-.44.78l0,.06h0a.64.64,0,0,0-.78.44.34.34,0,1,1-.32.59.65.65,0,0,0-.29.38.74.74,0,0,0,0,.32.65.65,0,0,0-.49.62.64.64,0,0,0,.45.6c-.1,0-.23,0-.32.07a2.31,2.31,0,0,0-.9.56,4,4,0,0,0-.73,1.19,5.6,5.6,0,0,0-.36,1.93c-.09,1.49-.32,3.1-1.59,4.08a3.13,3.13,0,0,0,2-1.55,1.74,1.74,0,0,0,0,.44c0,.18,0,.36,0,.53a4.52,4.52,0,0,0,2.47,4.1c.32.17.67.3,1,.47a7.23,7.23,0,0,1,1.61,1.21,2.42,2.42,0,0,0-.43-.71,4.14,4.14,0,0,1-.73-1.64,4.32,4.32,0,0,0,1,1.21c.33.24.71.37,1,.61l-1.11-1.24a16.37,16.37,0,0,1,1.91,1.5,11.12,11.12,0,0,0,1.42,1.29c-.08-.21-.11-.3-.14-.39a11.23,11.23,0,0,0-1.58-2.49c-.5-.65-1-1.3-1.51-1.92a3.58,3.58,0,0,1-.73-1.07c.07.19.38.41.53.54a8.16,8.16,0,0,0,1.08.74,9.15,9.15,0,0,0,1.27.68,5.84,5.84,0,0,1-2-2.12,5.51,5.51,0,0,1-.54-2.69c0-.47.14-.91.18-1.37s.08-1,.09-1.56a2.61,2.61,0,0,0-.71-1.92c-.11-.1-.22-.17-.31-.24h0a3.24,3.24,0,0,0,1-1,.71.71,0,0,0,0-.31.64.64,0,0,0,.35-.28.61.61,0,0,1,.39-.84.65.65,0,0,0,.06-.49.7.7,0,0,0-.26-.36,11.52,11.52,0,0,1,5.56-3.46c5.38-1.4,9.59,4.28,12.18,8.22,4.66,7.18,8.78,16.67,16.61,20.68a14.67,14.67,0,0,0,4.91,1.64,8.24,8.24,0,0,0,1.36.06,11.07,11.07,0,0,1,1.26,0,.62.62,0,0,0,.4.71.7.7,0,0,0,.78-.27.78.78,0,0,0,.71.35.4.4,0,0,0,.38-.28c1.44.35,2.92.51,4.39.74.19,0,.4,0,.55.23-.89,1.14-3.28,3.61-4.74,3.72-.7.07-1.4.22-2.11.26a8.63,8.63,0,0,0-2.08.41c-2.53.76-4.1,3-5.45,5.15a25.14,25.14,0,0,0-1.56,3.12,1.26,1.26,0,0,1-.78.75,67.27,67.27,0,0,1-15.51,3.79c-7.19,1-14.66,1.74-21.18,5.16-5.64,2.92-10.18,8.44-10.84,14.88l0,0a3.43,3.43,0,0,0,.51.27,7.57,7.57,0,0,1,3.9,3.86,22.82,22.82,0,0,1,1.67,4.07c1.08,3.64,2.11,7.29,3.06,11,1.46,5.9,3.64,12,8.42,16.07a16.25,16.25,0,0,0,6.86,3.58,3.74,3.74,0,0,0,1.28.07,1,1,0,0,0,.77-.43c2.9-3.81,5.77-7.63,8.66-11.44.14-.18.28-.37.54-.38,2.3.85,7.94,4.23,9,5.39a51.45,51.45,0,0,1-7,6.73c-2.77,2.32-5.48,4.73-8.32,7a3,3,0,0,0-.86,1,7.73,7.73,0,0,0-.28,5c1.59,7,6,12.93,11.15,17.74,15.58,14.79,39.09,19.13,59.66,14.5L382,448.09A14.32,14.32,0,0,1,380.57,435c1.56-4.56,4.92-8,8.19-11.45a181.26,181.26,0,0,1,14-12.79,111.35,111.35,0,0,0,9.83-8.58c1.39-1.49,2.86-3.45,2.67-5.49a1.87,1.87,0,0,0-1.23-1.52,7.86,7.86,0,0,0-1.19-.49,9,9,0,0,1-1.83-.9,15.69,15.69,0,0,1-6-7.74c-.26-.85-.46-1.68.26-2.39a86.56,86.56,0,0,0,14.19-17.34,57.57,57.57,0,0,0,4.62-9.39,70.08,70.08,0,0,0,4.65-17.09,142,142,0,0,0,1.15-27.57m-82.35,10.94c.89-.48,1.76-1,2.63-1.51l.86-.5a3.7,3.7,0,0,0,.44,1.75c0,.06-.52.42-.59.46a14.72,14.72,0,0,1-2.53,1.3.86.86,0,0,0-.49-.59,1.19,1.19,0,0,0-.79,0,1.24,1.24,0,0,0-.64.28.76.76,0,0,0-.24-.27,9.75,9.75,0,0,1,1.35-.93M318.66,294.7c-.27-1.06-.54-2.11-.72-3.19a6.88,6.88,0,0,0-.19-.78c2.15,3.15,2.89,7,3.36,10.73a34.22,34.22,0,0,1,.48,4c-.9-3.62-2-7.17-2.92-10.8m20.74,28.53a2.91,2.91,0,0,0-.5.47c-.12.13-.21.28-.31.43-2.46,0-6.78-3.17-8.65-4.8-5.46-4.59-6.9-9.3-7.8-16.14-.61-4.8-1.26-10-4.42-13.84a3.51,3.51,0,0,1-.73-1.47c-.33-1.3-.8-2.55-1.25-3.82a24.91,24.91,0,0,0-3.24-5.5c5-.73,10.38,1.45,12.7,6.13,1.93,3.74,1.81,8.07,2,12.17.18,4.93.46,9.94,2.67,14.44,2.54,5.46,6.88,10.37,12.94,11.78-.48.22-1,.36-1.47.6a.25.25,0,0,0-.22-.27.68.68,0,0,0-.37.07c-.06-.66-1-.52-1.35-.25m4.47,1.79a1.35,1.35,0,0,0-.44-.13,1.37,1.37,0,0,0-1.38.32c-.12.12-.21.26-.33.37l0,0-.07,0-.74-.33a4.74,4.74,0,0,1,.36-.51,1.18,1.18,0,0,1,.4-.31,5.15,5.15,0,0,1,.9-.33c.22-.06.17,0,.24.15a.44.44,0,0,0,.28.24.51.51,0,0,0,.52-.17.44.44,0,0,0,.49.45,2.6,2.6,0,0,0,1.43-.6,4.44,4.44,0,0,0,.42.54s-.1.32-.13.37-.12.24-.19.36a.88.88,0,0,1-.15.22c-.21.24-.64.09-.93.16l-.41-.56a1,1,0,0,0-.22-.24m5.85,1.93a28.4,28.4,0,0,1-5.68-.17c.36-.41.95-.29,1.43-.32a.38.38,0,0,0,.24.32.8.8,0,0,0,.41,0,.83.83,0,0,0,.68-.38.21.21,0,0,1,.05-.07l.07,0a17.1,17.1,0,0,1,3.23-.45l.42,0a4.54,4.54,0,0,1-.86,1.06m1.93-2.42a5.26,5.26,0,0,1-1.52.24c.1,0,.31-.16.39-.2l.44-.17c.26-.09.48-.21.75-.28,0,.13,0,.27-.07.4" transform="translate(-284.15 -263.11)" style="fill:#231f20"/><path d="M460.26,330.26A23.74,23.74,0,1,0,484,354a23.74,23.74,0,0,0-23.74-23.74" transform="translate(-284.15 -263.11)" style="fill:#231f20"/><path d="M406.19,390.75a18.87,18.87,0,0,0,2.81,3.17c.19.17.37.34.54.53a.28.28,0,0,1-.09.45,1.62,1.62,0,0,1-.43.13c-3.38.54-8.93,1-12-.58a.72.72,0,0,1-.37-1,4.87,4.87,0,0,1,.52-1,52,52,0,0,1,5.71-6.88,4.34,4.34,0,0,1,.93-.8c.1.52.19.94.28,1.36a12.27,12.27,0,0,0,2.12,4.58" transform="translate(-284.15 -263.11)" style="fill:#e7e5e4"/><path d="M316.81,411.5l.6-.55c1-.88,2-1.77,3-2.67,1.65-1.5,3.22-3,4.73-4.66s2.92-3.45,4.41-5.14c4.32,3.27,11.48,10.51,13.06,15.68.14.75.17,1.1-.83,1.4-3.56,1.07-7.38.63-10.94-.24-4.19-1-7.32-2.77-12.67-3.63a8.77,8.77,0,0,0-1.59,0l.2-.17" transform="translate(-284.15 -263.11)" style="fill:#e7e5e4"/><path d="M342.64,414.15a24,24,0,0,0-4.6-7.5c-2.21,4.63-6.6,6.87-11.38,7.36,1.37.48,2.72.93,4.21,1.3,3.56.86,7.37,1.31,10.94.23,1-.3,1-.65.83-1.4" transform="translate(-284.15 -263.11)" style="fill:#cecccf"/><path d="M332.72,401.11c-1.12-1-2.2-1.92-3.14-2.64-1.49,1.7-2.86,3.49-4.41,5.14s-3.09,3.17-4.73,4.66c-1,.9-2,1.78-3,2.67-.2.18-.39.37-.6.55l-.2.17a8.77,8.77,0,0,1,1.59,0c.88.14,1.7.31,2.47.48l.25-.12a49.73,49.73,0,0,0,5.65-3.51c2.26-1.55,4.47-3.22,5.78-5.75a2.85,2.85,0,0,0,.37-1.69" transform="translate(-284.15 -263.11)" style="fill:#f7f8f4"/><path d="M328.67,399.54c-1.15,1.37-2.27,2.77-3.49,4.08-.89,1-1.81,1.89-2.74,2.8,3.4-2.39,6.43-5.19,6.24-6.87" transform="translate(-284.15 -263.11)" style="fill:#e7e5e4"/><path d="M311.63,400.72c-.32-3.18-1.77-5.71-2.44-8.73a4.2,4.2,0,0,1-.1-1.38c.39-.57,2.27-.19,2.91-.13a28.16,28.16,0,0,1,5.85,1.19,1.16,1.16,0,0,1,.73.42,63,63,0,0,1-6.94,8.63" transform="translate(-284.15 -263.11)" style="fill:#e7e5e4"/><path d="M429.48,322.76a109.58,109.58,0,0,1-3.58,27,80.43,80.43,0,0,1-5.47,13.49c-1.3,2.46-2.89,4.76-4.39,7.1A56.59,56.59,0,0,1,408,379.6c-2.49,2.46-5.14,4.75-7.49,7.35a32.54,32.54,0,0,0-3.51,4.39,33.49,33.49,0,0,1,1.36-4.79c.9-2.84,1.9-5.65,2.63-8.54.63-2.71,1.12-5.44,1.64-8.16a60.79,60.79,0,0,0,1-6.47l-2.44,11.84c-1.12,5.49-3.18,10.7-5,16-.25.71-.51,1.43-.74,2.15a4.3,4.3,0,0,0-.16,1.11.69.69,0,0,0,.3.75,5.33,5.33,0,0,0,1.19.48,12.42,12.42,0,0,0,1.56.38,24.73,24.73,0,0,0,6,.42c2-.13,4.08-.34,6.12-.49a7,7,0,0,1,1.74.13,2.87,2.87,0,0,1,.7.28,1.66,1.66,0,0,1,.9,1.83,3.64,3.64,0,0,1-.47,1.27,18.18,18.18,0,0,1-3.73,4.17c-4.16,4-8.86,7.39-13.14,11.27-2.71,2.32-5.37,4.7-7.87,7.25-4.28,4.27-8.57,9.1-9.87,15.18a16.81,16.81,0,0,0,1.78,11.21,73.34,73.34,0,0,1-13.87,1.28,54.18,54.18,0,0,1-7.42-.4c-10.44-1.14-20.76-4.57-29.29-10.79a57.05,57.05,0,0,1-6.77-5.85c-4.3-4.3-8-9.56-9.27-15.58a11.09,11.09,0,0,1-.21-2.49c0-1.35,1.22-1.53,2.3-1.63a13,13,0,0,1,3.38.35c4.31.92,8.4,2.62,12.67,3.64a28,28,0,0,0,5.08.79,13.49,13.49,0,0,0,4.37-.36,3.14,3.14,0,0,0,2.66-2.49,83.39,83.39,0,0,0,1.51-8.67c.22-1.75.47-3.51.77-5.25a168.5,168.5,0,0,1,4.69-22,80.81,80.81,0,0,1,5.12-12.74,19.46,19.46,0,0,0-1.54,2.76L353.4,372a101.24,101.24,0,0,0-5.92,17.6c-1.47,6-3.43,16.27-4.43,21.58a3.49,3.49,0,0,0-.4-.86,31.23,31.23,0,0,0-2-3,53.37,53.37,0,0,0-15.36-13.93,36.46,36.46,0,0,0-11.8-4.67,9.88,9.88,0,0,0-1.35-.19s-.16,0-.16,0,.1-.1.13-.13a87.09,87.09,0,0,0,11.79-10.58,78,78,0,0,0,8.32-10.66,87.84,87.84,0,0,1-8.91,10.34,60,60,0,0,1-9.05,7.72,43.68,43.68,0,0,1-5,2.88,13,13,0,0,0-1.51.85,3,3,0,0,0,0,.93,31.87,31.87,0,0,0,1.37,5.36c.52,1.59,1,3.19,1.36,4.81a7.35,7.35,0,0,1,.12,1.59,1.72,1.72,0,0,1-1.81,1.73,7.07,7.07,0,0,1-2.86-.68c-4.94-2.38-8.09-7.25-9.95-12.25-1.89-5.53-3.08-11.27-4.85-16.84a23.6,23.6,0,0,0-1.92-4.54,9.38,9.38,0,0,0-3.52-3.76c1-5.47,4.56-10.68,9.75-13a9.76,9.76,0,0,1,4.6-.73,30.67,30.67,0,0,1,3.38.42c3.24.62,6.25,2,9.33,3.14l5.83,2.15a15.88,15.88,0,0,0,3.62.8,3.83,3.83,0,0,0,.61,0,15.37,15.37,0,0,0,5.94-1.4c5.47-2.68,10.63-6,16.19-8.5,9.71-4.66,20.34-7.92,31.21-7.35,3.71.19,7.41.55,11.11.9,2.52.24,5,.51,7.56.57a45.94,45.94,0,0,0,5-.17,8.73,8.73,0,0,0,3.79-1.24c4.32-2.44,6.73-6.94,8.41-11.44,1.05-2.72,1.93-5.49,2.73-8.29,1.08-3.67,2-7.38,2.9-11.09a71.17,71.17,0,0,1,4-10.71c.3-.59.6-1.17.95-1.73a4.09,4.09,0,0,1,.71-.88c1.23-1.17,2.51-.44,3.22.92a6,6,0,0,1,.45,1,23.45,23.45,0,0,1,1.19,5.16c.06,1.06.33,2.1.44,3.15s.27,2.31.39,3.47a114.07,114.07,0,0,1,.39,12.13" transform="translate(-284.15 -263.11)" style="fill:#e7e5e4"/><path d="M388.21,369.64c2.57-3.9,4.67-8.09,7.06-12.11,1.89-3.32,4-6.44,5.84-9.75a101.17,101.17,0,0,1,5.61-9.09,14.15,14.15,0,0,1-3,2.32,8.73,8.73,0,0,1-3.8,1.24,44.58,44.58,0,0,1-5,.17c-2.53-.05-5-.33-7.56-.57-3.7-.36-7.4-.71-11.11-.9-10.87-.56-21.5,2.7-31.21,7.35-5.56,2.52-10.72,5.82-16.19,8.5a15.36,15.36,0,0,1-5.94,1.39,3.28,3.28,0,0,1-.61,0,15.76,15.76,0,0,1-3.62-.8l-5.83-2.15c-3.08-1.13-6.09-2.52-9.33-3.14a30.61,30.61,0,0,0-3.38-.43,9.78,9.78,0,0,0-4.59.74c-5.19,2.26-8.7,7.47-9.75,12.93l0,0a9.38,9.38,0,0,1,3.49,3.75,23.32,23.32,0,0,1,1.92,4.54c1.77,5.57,3,11.31,4.85,16.84,1.86,5,5,9.87,9.95,12.25a7.05,7.05,0,0,0,2.86.68,1.73,1.73,0,0,0,1.81-1.73,7.53,7.53,0,0,0-.12-1.59c-.37-1.63-.85-3.23-1.36-4.81a31.68,31.68,0,0,1-1.37-5.36,2.91,2.91,0,0,1,0-.93,13.26,13.26,0,0,1,1.51-.85,43.27,43.27,0,0,0,5-2.89,59.85,59.85,0,0,0,9.06-7.72,87.63,87.63,0,0,0,8.91-10.34,77.63,77.63,0,0,1-8.32,10.66,87.22,87.22,0,0,1-11.79,10.58s-.14.08-.14.13.12,0,.17,0a9.5,9.5,0,0,1,1.34.19,36.41,36.41,0,0,1,11.8,4.67,53.29,53.29,0,0,1,15.36,13.93,30.76,30.76,0,0,1,2,3,3.32,3.32,0,0,1,.4.86c1-5.3,3-15.57,4.44-21.58A101.27,101.27,0,0,1,353.4,372l1.3-2.91a19.06,19.06,0,0,1,1.54-2.76,80.29,80.29,0,0,0-5.12,12.74,168,168,0,0,0-4.69,22c-.3,1.74-.54,3.5-.77,5.26a85,85,0,0,1-1.51,8.67,3.15,3.15,0,0,1-2.66,2.49,13.61,13.61,0,0,1-4.37.36,28.2,28.2,0,0,1-5.08-.79c-4.28-1-8.37-2.72-12.68-3.64a13,13,0,0,0-3.38-.35c-1.09.09-2.31.27-2.3,1.63a11.09,11.09,0,0,0,.2,2.49c1.32,6,5,11.28,9.27,15.58a57.09,57.09,0,0,0,6.78,5.85,59.22,59.22,0,0,0,24.48,10.09,1.67,1.67,0,0,0-.15-.36c-4.4-10.26-5-21.41-5.73-32.35-.84-16.35,1-33.56,9.66-47.79,5.14-8.7,13-16.06,22.57-19.39-6.29,6.19-10.25,14.4-12.85,22.83a64.16,64.16,0,0,1,10.38-15.45,36.7,36.7,0,0,1,7.71-7,41,41,0,0,1,7.51-3.47A13.24,13.24,0,0,1,396,345c3.18,3.57-.32,10.29-2.09,13.94s-3.79,7.17-5.75,10.72" transform="translate(-284.15 -263.11)" style="fill:#cecccf"/><path d="M429.1,310.63c-.12-1.16-.26-2.31-.39-3.47s-.39-2.09-.44-3.15a23.39,23.39,0,0,0-1.19-5.16,5.88,5.88,0,0,0-.45-1c-.71-1.36-2-2.1-3.22-.93a4.16,4.16,0,0,0-.71.88c-.34.56-.65,1.15-.95,1.73a71.46,71.46,0,0,0-4,10.71c-.93,3.71-1.82,7.42-2.9,11.09-.8,2.8-1.68,5.57-2.73,8.29-.38,1-.79,2-1.26,3,.22-.44.46-.88.71-1.31,1.7-2.71,2.66-5.77,4.2-8.56,1.37-2.48,2.9-4.76,5.46-6.22a3.7,3.7,0,0,1,3.69-.41,6.54,6.54,0,0,1,2.53,3.7,43.94,43.94,0,0,1,1.21,4.36,40.5,40.5,0,0,1,.37,7.12,22.44,22.44,0,0,0-.16,2.43c.37-3.64.57-7.3.64-10.95a114,114,0,0,0-.39-12.13" transform="translate(-284.15 -263.11)" style="fill:#cecccf"/><path d="M421.1,361.83a39.8,39.8,0,0,1-5.9,7.36c-2.16,2-4.71,2.72-6.82,1.77a5.68,5.68,0,0,1-3.33-6,62.09,62.09,0,0,1,1.79-8.24c.29-1.12.59-2.23.85-3.36l2.93-12.55c-2.53,7.88-5.28,15.67-7.12,23.74l-.07.32c-.21,1.67-.52,3.33-.84,5-.52,2.73-1,5.46-1.64,8.16-.73,2.88-1.72,5.7-2.63,8.54a33.49,33.49,0,0,0-1.36,4.79,32.71,32.71,0,0,1,3.51-4.39c2.34-2.6,5-4.89,7.49-7.35a56.57,56.57,0,0,0,8.08-9.23c1.49-2.35,3.09-4.64,4.39-7.1.24-.47.48-.95.71-1.42h0" transform="translate(-284.15 -263.11)" style="fill:#cecccf"/><path d="M412.9,396.41a2.89,2.89,0,0,0-.7-.28,7,7,0,0,0-1.74-.13c-2,.16-4.08.36-6.12.49a24.84,24.84,0,0,1-6-.42,12.78,12.78,0,0,1-1.56-.38,5.34,5.34,0,0,1-1.19-.48.7.7,0,0,1-.3-.75c0-.06,0-.13,0-.19a5.83,5.83,0,0,0-.24.55c-.3.79-.43,1.61-.68,2.53-.36,1.33.37,1.8,1.4,2,1.62.32,3.27.57,4.91.77,3,.35,5.55,1.29,6.84,4.32.16.37.16.74.3.92q.92-.83,1.82-1.68a18.24,18.24,0,0,0,3.73-4.17,3.7,3.7,0,0,0,.47-1.27,1.66,1.66,0,0,0-.9-1.83" transform="translate(-284.15 -263.11)" style="fill:#cecccf"/><path d="M386.68,424c-4.16-5.26-6.34-11.42-8.11-17.77a82.28,82.28,0,0,1-1.82-19.11c-1.5,5.24-1.78,10.2-2.26,15.11-.27,2.73-.47,5.46-.59,8.2-.41,9.68-.18,19.3,2.1,28.73a48.08,48.08,0,0,0,2.33,7.22,18.7,18.7,0,0,0,1,2.45l1.18-.21a16.81,16.81,0,0,1-1.78-11.21c1.11-5.21,4.41-9.5,8-13.3l-.07-.1" transform="translate(-284.15 -263.11)" style="fill:#cecccf"/><path d="M407.86,337.43c-.69,1.58-1.44,3.13-2.14,4.7l-3.56,8q.89-1.71,1.76-3.43,1.51-3,3-6c1-2,2-4.06,2.86-6.15a20.8,20.8,0,0,1-1.93,2.83" transform="translate(-284.15 -263.11)" style="fill:#cecccf"/><path d="M331.94,370.78,330.7,372a104.06,104.06,0,0,1-8,7.3l-1.31,1.07a80.44,80.44,0,0,1-9.31,8s-.14.08-.13.13.12,0,.16,0a9.47,9.47,0,0,1,1.35.19,36.39,36.39,0,0,1,11.8,4.67,47.71,47.71,0,0,1,10.09,7.88c5.09-4.94,7.79-12.15,9.91-18.77a181.67,181.67,0,0,1,10-25.13c.5-1,1.09-2,1.72-3.11-4.28,1-7.85,3.07-11.35,5.28a80,80,0,0,0-13.68,11.16" transform="translate(-284.15 -263.11)" style="fill:#e7e5e4"/><path d="M325.28,393.47l.56.32c.24-.4.42-.83.68-1.25.54-.84,1.31-1.57,1.9-2.37a162.12,162.12,0,0,0,12-18.08q.73-1.33,1.42-2.68c.46-.89.9-1.79,1.35-2.69a21,21,0,0,1-2.43,3.1c-.85,1.07-1.7,2.14-2.56,3.2-1.72,2.11-3.48,4.19-5.32,6.19A67.83,67.83,0,0,1,320.56,390l-1,.63a49.13,49.13,0,0,1,5.72,2.86" transform="translate(-284.15 -263.11)" style="fill:#f7f8f4"/><path d="M310.93,384.91c2.08-1.75,4-3.63,6.06-5.43a61.5,61.5,0,0,0,5.64-6.38,6.9,6.9,0,0,0,.62-.8c.05-.08.1-.19,0-.27a.27.27,0,0,0-.2-.09c-3.64-.38-6.58-2.41-9.89-3.83-4.51-2-9.12-3.78-14.16-2.89-3.63.64-7.33,1.92-8.94,5.45l0,.06a22,22,0,0,1,1.11,2.93c1.77,5.57,3,11.31,4.85,16.84a31.6,31.6,0,0,0,1.38,3.18,61.37,61.37,0,0,0,13.51-8.76" transform="translate(-284.15 -263.11)" style="fill:#e7e5e4"/><path d="M300.49,350.4a10.9,10.9,0,0,1,2.77-1c4.59-1.11,9.39-1.55,14-2.25a64.25,64.25,0,0,0,14.14-3.75,3.29,3.29,0,0,1-.07.4c-.74,2.23-1.46,4.47-2.21,6.69-.64,1.92-1.72,4.25-3.4,5.45-2.71,1.77-6.1.62-8.89-.33-1.84-.63-3.66-1.32-5.48-2-3.46-1.27-7.09-3.1-10.85-3.07-.21,0-.24,0,0-.14" transform="translate(-284.15 -263.11)" style="fill:#e7e5e4"/><path d="M317.3,347.15c-4.65.7-9.45,1.15-14,2.25a10.87,10.87,0,0,0-2.77,1c-.19.1-.16.14,0,.14a15.25,15.25,0,0,1,4.45.7h0c4.93-.26,9.83,1,14.79.44a13,13,0,0,0,7.77-3.29,14.72,14.72,0,0,0,3.19-4.73,64.3,64.3,0,0,1-13.45,3.49" transform="translate(-284.15 -263.11)" style="fill:#f7f8f4"/><path d="M333.6,341.34c2.53-6.35,7.74-8.58,14.28-8.41a52.53,52.53,0,0,1,10.93,1.61c4.55,1.13,9.25,2.33,13.78,3.45,2.3.57,4.43,1.06,6.74,1.62l1.42.37.18,0-.18,0c-.3-.05-.63,0-.93-.05l-1.43-.11a38,38,0,0,0-5.6-.22c-2.35.14-4.67.51-7,.75-2.06.22-4.12.48-6.16.83a127.55,127.55,0,0,0-15.82,3.11c4.4-.77,8.77-1.57,13.19-2.08a5.28,5.28,0,0,1,1.38,0A100,100,0,0,0,344,348c-4.72,2.18-9.09,5-13.74,7.28a18.38,18.38,0,0,1-3.51,1.27,11.07,11.07,0,0,0,3-4.49c1.36-3.54,2.31-7.22,3.85-10.7" transform="translate(-284.15 -263.11)" style="fill:#cecccf"/><path d="M404.93,316.56c1.8-1.36,2.53-1.58,3.81-2.6a31.58,31.58,0,0,0,3.45-3c2.87-2.69,4.93-6.08,7.52-9a23.51,23.51,0,0,0-1.17,3.28c-.56,2.1-1.14,4-1.72,6-.48,1.65-.9,3.34-1.4,5A118.58,118.58,0,0,1,411,328.62a11.63,11.63,0,0,0-3.18-8.22,39,39,0,0,0-2.77-2.91,1.91,1.91,0,0,1-.48-.62,3.12,3.12,0,0,1,.33-.31" transform="translate(-284.15 -263.11)" style="fill:#e7e5e4"/><path d="M415.41,316.21c.5-1.64.92-3.33,1.4-5,.3-1,.59-2,.89-3-.59,1.52-1.17,3-1.82,4.52a7.25,7.25,0,0,1-2.41,3.16,2.77,2.77,0,0,1-2.88.06,5.41,5.41,0,0,1,.33,1.81,2.83,2.83,0,0,1-.57,1.73,2,2,0,0,1-1.3.75,1.89,1.89,0,0,1-1.28-.48l-.27-.21c-.37-.3-.73-.62-1.1-.92a5.8,5.8,0,0,0-.64-.47c.72.72,1.42,1.45,2.07,2.23a11.64,11.64,0,0,1,3.18,8.23,118.8,118.8,0,0,0,4.38-12.42" transform="translate(-284.15 -263.11)" style="fill:#cecccf"/><path d="M419.71,302c-2.59,2.94-4.65,6.33-7.52,9a24.58,24.58,0,0,1-2.61,2.32,7.73,7.73,0,0,1,1,.53,2.1,2.1,0,0,0,3.19-.5,30.62,30.62,0,0,0,5-9.07c.29-.89.56-1.49.89-2.3" transform="translate(-284.15 -263.11)" style="fill:#f7f8f4"/><path d="M348.52,329.39a13.9,13.9,0,0,1,4.91-4.43,9.37,9.37,0,0,1,3.17-1,58.73,58.73,0,0,0,6.1-1.1c-3.37,2.36-7,4.36-10.46,6.56,2.08-1.14,4.17-2.28,6.29-3.34,3.11-1.68,6.42-2.95,9.62-4.45,3.81-1.76,7.92-2.88,11.59-5a25.81,25.81,0,0,0-7.77,7.44,9.2,9.2,0,0,1,2.38-2,24.84,24.84,0,0,1,3.05-1.59c1.77-.8,3.59-1.51,5.39-2.27a11.39,11.39,0,0,0,4.1-2.79c.28-.32,1.62-1.56.5-1.72a1.52,1.52,0,0,0-.62.09l-2.35.7a18.71,18.71,0,0,0,3.94-2.25,37,37,0,0,0,4-3.35l.57-.59a3.28,3.28,0,0,0,.45-.6,16.63,16.63,0,0,0,.26,4.05,2.36,2.36,0,0,1,.1.54,6.43,6.43,0,0,1,.71-2.77c.18-.31.72-1.14,1.09-1.06.18,0,.31.31.42.45l.59.73a94.92,94.92,0,0,0,7,7.27c1.36,1.32,2.57,2.79,4,4.06a9.51,9.51,0,0,1,3.06,5.61c.54,4.49-1.9,9.28-5.36,12.06a10.63,10.63,0,0,1-5.3,2.3c-5,.74-10,0-14.94-.74-3-.45-5.94-1.24-8.89-1.9-4.65-1.16-9.26-2.52-14-3.48A82.86,82.86,0,0,0,352,332.79a33.88,33.88,0,0,0-5.43-.54,3.24,3.24,0,0,1-.43-.07c.84-1,1.56-1.82,2.42-2.78" transform="translate(-284.15 -263.11)" style="fill:#e7e5e4"/><path d="M377.7,325a7.62,7.62,0,0,1,7.27-6.25c2-.59,3.9-.19,5.76,1.8a9.15,9.15,0,0,0-2.55-3c-.14-.14,0-.89,0-1.09,0-.41,0-.81,0-1.22a2.91,2.91,0,0,0-.26-1.23.35.35,0,0,0-.14-.13c.44.36-.59,1.32-.83,1.6a11.4,11.4,0,0,1-4.1,2.79c-1.8.75-3.61,1.46-5.39,2.27a24.47,24.47,0,0,0-3.05,1.59,15.21,15.21,0,0,0-1.27.9l-.89,1.31c1.12,2.26,3.08,3.3,5.33,3.94.22.06.45,0,.55-.14a5.61,5.61,0,0,1-.37-3.11" transform="translate(-284.15 -263.11)" style="fill:#cecccf"/><path d="M348.52,329.39l-1.17,1.32.33-.22c.39-.26.77-.54,1.16-.82.8-.58,1.58-1.2,2.41-1.73a2.21,2.21,0,0,1,2.37-.09c.28.16.41.33.68.29,2.83-1.72,5.69-3.39,8.4-5.28a58.73,58.73,0,0,1-6.1,1.1,9.37,9.37,0,0,0-3.17,1,13.9,13.9,0,0,0-4.91,4.43" transform="translate(-284.15 -263.11)" style="fill:#cecccf"/><path d="M373.37,322.28a24.31,24.31,0,0,1,6.37-5.6c-3.67,2.08-7.78,3.19-11.59,5-3.2,1.5-6.51,2.77-9.62,4.45-2.12,1.06-4.21,2.2-6.29,3.34l-3.32,1.94,1-.37c4.65-1.74,9.19-3.8,13.75-5.75a45.75,45.75,0,0,1,9.67-3" transform="translate(-284.15 -263.11)" style="fill:#cecccf"/><path d="M396.89,312.86a10.44,10.44,0,0,1-1.08-2.53c-.15-.59-.33-1.17-.52-1.77a3.29,3.29,0,0,0-.81,1,6.43,6.43,0,0,0-.71,2.77,2.22,2.22,0,0,0-.1-.54v0a6.82,6.82,0,0,0,.25,1.76,7,7,0,0,0,.61,1.52,6.54,6.54,0,0,0,.46.72,3.82,3.82,0,0,0,.26.31,9.16,9.16,0,0,1-.59-1.83,2.25,2.25,0,0,1,0-.6.51.51,0,0,1,.5-.48,3,3,0,0,1,.74.09,4.25,4.25,0,0,1,1.36.65l.44.31-.09-.15c-.24-.4-.47-.79-.7-1.19" transform="translate(-284.15 -263.11)" style="fill:#cecccf"/><path d="M392.12,327.71a5.7,5.7,0,0,1-.13.66,6.46,6.46,0,0,0-.05-4.63v1a7.66,7.66,0,0,1,.18,3" transform="translate(-284.15 -263.11)" style="fill:#cecccf"/><path d="M385,340.24c2.57.38,5.16.77,7.76.94a18.94,18.94,0,0,0,4.56-.79c-1.31,0-2.63,0-3.94-.09a79.29,79.29,0,0,1-12.29-2.17c-6.16-1.4-12.29-3.34-18.49-4.63a48.7,48.7,0,0,0-6.08-.91q-1.55-.12-3.09-.11c-.83,0-1.64.08-2.47.16l1,.14a83.37,83.37,0,0,1,10.17,2.07c4.7,1,9.31,2.33,14,3.48,3,.66,5.9,1.45,8.89,1.9" transform="translate(-284.15 -263.11)" style="fill:#cecccf"/><path d="M389.12,333.94a9.88,9.88,0,0,1,2.1-.29h.4a1.59,1.59,0,0,0,.45,0,3.08,3.08,0,0,1-1.72.65,4.55,4.55,0,0,0,2.89.31,42.51,42.51,0,0,0,8.91-2.38c.52-.2,1.07-.36,1.59-.57.3-.12.6-.26.89-.4q-1.44.56-2.91,1.05a24.86,24.86,0,0,1-3.07.91,33.72,33.72,0,0,1-7.26.89c.65-.47,1.32-.41,1.72-1a9.63,9.63,0,0,1-3.08-.37,4,4,0,0,0-.64-.07c-1.65,0-2.65,1.31-3.56,2.49l-.34.45-.16.21c-.07.09-.24.47-.33.51.65-.26,1.29-.56,1.92-.87l.39-.21a3.31,3.31,0,0,1,1.84-1.28" transform="translate(-284.15 -263.11)" style="fill:#cecccf"/><path d="M354.89,331.81c1.18-.08,2.34-.19,3.53-.23a30.43,30.43,0,0,1,9.35.94c1.37.38,2.71.83,4,1.33.66.25,1.32.51,2,.77a11.83,11.83,0,0,0,1.82.7c-.76-.17-1.55-.22-2.33-.35s-1.6-.29-2.4-.45c-1.59-.34-3.17-.74-4.75-1.12s-3.21-.71-4.84-1-3.24-.33-4.88-.44l-2-.16.49,0" transform="translate(-284.15 -263.11)" style="fill:#cecccf"/><path d="M362.45,329.65a27,27,0,0,1,9.79.13,8.29,8.29,0,0,0-2.19-1.21c-3.17-1.42-6.62-2.19-10-1.2a36,36,0,0,0-3.48,1.46c-3.06,1.24-6.33,2-9.31,3.41a26.93,26.93,0,0,1,3.43.36l.35-.07,2.41-.5c3.06-.63,6-1.7,9.06-2.38" transform="translate(-284.15 -263.11)" style="fill:#f7f8f4"/><path d="M403.56,332.17c-.8.74-1.65,1.43-2.47,2.16a2.34,2.34,0,0,0-.6.61c-.14.27-.1.58-.21.86a2.59,2.59,0,0,1-.52.75,1.74,1.74,0,0,1-1.28.6,10.6,10.6,0,0,1-5.4-.55A3.36,3.36,0,0,1,392,336a.13.13,0,0,1,.1-.21,4.87,4.87,0,0,0,1.24-.1,3.92,3.92,0,0,1-1.28-.35,35.15,35.15,0,0,0,11.05-3.18c.25-.12.51-.22.76-.34a4.17,4.17,0,0,0-.31.31" transform="translate(-284.15 -263.11)" style="fill:#fff"/><path d="M392.05,335.37a3.9,3.9,0,0,0,1.28.35,4.88,4.88,0,0,1-1.25.1.12.12,0,0,0-.1.21,2.59,2.59,0,0,0,.85.47l.27-.11,4.9-1.91c1.28-.51,2.56-1,3.87-1.47a11,11,0,0,0,1.26-.47l.41-.37a4.19,4.19,0,0,1,.31-.31c-.25.12-.51.21-.76.34a35.14,35.14,0,0,1-11.05,3.18" transform="translate(-284.15 -263.11)" style="fill:#cecccf"/><path d="M385.3,330.93c-1.14,0-2.28,0-3.43,0a2.1,2.1,0,0,1-1.35-.73c-2.44-2-2.23-5.68-.13-7.83a8,8,0,0,1,3.75-2.3,5.81,5.81,0,0,1,7.23,3.83,2.86,2.86,0,0,0-4.47-.57,5.15,5.15,0,0,0-1.36,6.07,5.23,5.23,0,0,0,1.89,1.87h0a9,9,0,0,0-2.15-.35" transform="translate(-284.15 -263.11)" style="fill:#fff"/><path d="M385.3,330.93a9,9,0,0,1,2.15.35,8.9,8.9,0,0,1-1.1-.85,2.78,2.78,0,0,0-.82.05,9.67,9.67,0,0,1-1.15,0,6.64,6.64,0,0,1-2.08-.35,5.19,5.19,0,0,1-3.45-4.76,4.93,4.93,0,0,0,1.68,4.79,2.1,2.1,0,0,0,1.35.73c1.14,0,2.28,0,3.43,0" transform="translate(-284.15 -263.11)" style="fill:#cecccf"/><g style="clip-path:url(#clip-path)"><rect x="383.82" y="323.49" width="9.5" height="7.62" transform="translate(-254.9 423.36) rotate(-85.1)" style="fill:url(#linear-gradient)"/></g><path d="M398.39,319.16a1.19,1.19,0,0,0-.19,1.4c-.58-1-3.92-5.5-1.86-5.75a2,2,0,0,1,.74.08,8.26,8.26,0,0,1,1.38.61,15.6,15.6,0,0,1,5.55,6h0a2,2,0,0,0-.2-.25,8.83,8.83,0,0,0-.7-.75,7.39,7.39,0,0,0-1-.83,6.17,6.17,0,0,0-.74-.42c-.77-.41-2.29-.75-3-.06" transform="translate(-284.15 -263.11)" style="fill:#fff"/><path d="M396.83,318.39c.56.94,1.16,1.8,1.37,2.17a1.24,1.24,0,0,1,0-1.07,6.29,6.29,0,0,0-1.33-1.1" transform="translate(-284.15 -263.11)" style="fill:#cecccf"/><g style="clip-path:url(#clip-path-2)"><rect x="397.4" y="317.64" width="8.65" height="8.75" transform="translate(-389.27 149.37) rotate(-48.83)" style="fill:url(#linear-gradient-2)"/></g><path d="M372.79,316.84c.18.48.65,1.67.74,1.8.35-.14.72-.26,1-.41a3.22,3.22,0,0,0,1-.51l-.68-1.75a8,8,0,0,0-2.12.86" transform="translate(-284.15 -263.11)" style="fill:#58595b"/><path d="M370.71,317.53a6.41,6.41,0,0,0,.75,1.82,8.55,8.55,0,0,0,1.63-.58,8.33,8.33,0,0,0-.77-1.87,8.19,8.19,0,0,0-1.6.62" transform="translate(-284.15 -263.11)" style="fill:#58595b"/><path d="M366.76,318.86a4.91,4.91,0,0,0,.64,1.88,8.47,8.47,0,0,0,1.55-.55.66.66,0,0,0-.09-.22l-.63-1.64a4,4,0,0,0-1.47.53" transform="translate(-284.15 -263.11)" style="fill:#58595b"/><path d="M368.65,318.21a9.32,9.32,0,0,0,.55,1.5,1.94,1.94,0,0,0,.21.37l1.55-.55a10.09,10.09,0,0,0-.72-1.87,7,7,0,0,0-1.59.54" transform="translate(-284.15 -263.11)" style="fill:#58595b"/><path d="M375.27,315.77a9.54,9.54,0,0,0,.74,1.79,3.25,3.25,0,0,0,1.58-.76,5.6,5.6,0,0,0-.73-1.75,15.23,15.23,0,0,0-1.59.72" transform="translate(-284.15 -263.11)" style="fill:#58595b"/><path d="M379.26,314.06a14.66,14.66,0,0,0,.77,1.71,3.35,3.35,0,0,0,1.48-.76,4.67,4.67,0,0,0-.79-1.67,5.28,5.28,0,0,0-1.45.71" transform="translate(-284.15 -263.11)" style="fill:#58595b"/><path d="M377.32,314.86c.21.56.64,1.8.72,1.9l1.27-.6a1.64,1.64,0,0,0,.34-.2,6.74,6.74,0,0,0-.8-1.79,11.9,11.9,0,0,0-1.52.69" transform="translate(-284.15 -263.11)" style="fill:#58595b"/><path d="M381.37,312.95a2.34,2.34,0,0,0-.28.21c.16.31.31.57.44.84s.26.59.4.9a4.43,4.43,0,0,0,1.28-.69,4.38,4.38,0,0,0-.92-1.74l-.91.47" transform="translate(-284.15 -263.11)" style="fill:#58595b"/><path d="M366.3,318.89a.85.85,0,0,0-.24.09l-.33.09-.73.21a4.26,4.26,0,0,0,.63,2,4.19,4.19,0,0,0,1.32-.41l-.36-1.09c0-.06-.28-.87-.29-.87" transform="translate(-284.15 -263.11)" style="fill:#58595b"/><path d="M390.69,307.28a.62.62,0,0,0-.76.14c-.14.14-.47.45-.52.5a5.19,5.19,0,0,1,.77.66,6.72,6.72,0,0,1,.55.88,3.37,3.37,0,0,0,.92-.9,1.48,1.48,0,0,0-1-1.28" transform="translate(-284.15 -263.11)" style="fill:#58595b"/><path d="M363.32,319.81a3.28,3.28,0,0,0,.38,2,2.88,2.88,0,0,0,1.43-.45l-.53-1.88a2.37,2.37,0,0,0-1.28.37" transform="translate(-284.15 -263.11)" style="fill:#58595b"/><path d="M353.49,320.52l-.72-.28a2,2,0,0,0-.33.47,1.51,1.51,0,0,0,.15,1.38,3.38,3.38,0,0,0,1,.94,5.82,5.82,0,0,1-.31-1.23,5,5,0,0,1,.22-1.27" transform="translate(-284.15 -263.11)" style="fill:#58595b"/><path d="M383.83,311.62l-1.16.63.94,1.77c.18-.08.36-.15.53-.24a3.06,3.06,0,0,0,.78-.49,3.3,3.3,0,0,0-1.09-1.68" transform="translate(-284.15 -263.11)" style="fill:#58595b"/><path d="M351.62,321.71a1.76,1.76,0,0,0,.55.67,3.54,3.54,0,0,1-.16-1.33,4.08,4.08,0,0,1,.28-1s-.07-.09-.11-.09-.17,0-.19.07a4.21,4.21,0,0,0-.44,1,1.12,1.12,0,0,0,.07.69" transform="translate(-284.15 -263.11)" style="fill:#58595b"/><path d="M358.86,320.57a.57.57,0,0,0-.2.09.55.55,0,0,0-.18.32,2,2,0,0,0,0,.53,2.06,2.06,0,0,0,.35,1,.48.48,0,0,0,.3.2.91.91,0,0,0,.76-.16c-.09-.27-.17-.48-.22-.69a2.23,2.23,0,0,1,0-1.35,1.44,1.44,0,0,0-.75.09" transform="translate(-284.15 -263.11)" style="fill:#58595b"/><path d="M385.71,310.58a6.82,6.82,0,0,1,1.1,1.67l1-.64a1.84,1.84,0,0,0-.44-1.17,1.16,1.16,0,0,0-.74-.51,3.34,3.34,0,0,0-.9.65" transform="translate(-284.15 -263.11)" style="fill:#58595b"/><path d="M360.34,320.3a.36.36,0,0,0-.32.29,2,2,0,0,0,.46,1.92,4.85,4.85,0,0,0,1.25-.3,5.68,5.68,0,0,1-.41-1,2.75,2.75,0,0,1-.09-1,3.08,3.08,0,0,0-.9.12" transform="translate(-284.15 -263.11)" style="fill:#58595b"/><path d="M389.37,310.29l.08.17.85-.64a2,2,0,0,0-1.18-1.69l-.9.66a2.79,2.79,0,0,1,1.15,1.5" transform="translate(-284.15 -263.11)" style="fill:#58595b"/><path d="M385.3,310.79a9.06,9.06,0,0,0-1.13.64,7.9,7.9,0,0,1,1.2,1.65,3.65,3.65,0,0,0,1-.62,3,3,0,0,0-1-1.68" transform="translate(-284.15 -263.11)" style="fill:#58595b"/><path d="M363.23,321.82l-.41-2-1.1.24a2.1,2.1,0,0,0,.52,2c.64,0,.65,0,1-.28" transform="translate(-284.15 -263.11)" style="fill:#58595b"/><path d="M387,309.69a3.28,3.28,0,0,1,1.2,1.46.28.28,0,0,0,.09.1l.67-.5a1.4,1.4,0,0,0-.35-1.09,1.14,1.14,0,0,0-.85-.55,2.27,2.27,0,0,0-.77.58" transform="translate(-284.15 -263.11)" style="fill:#58595b"/><path d="M353.74,321.17a2,2,0,0,0,0,.9c.17.83.55,1.11,1.44,1a2.51,2.51,0,0,1-.1-2.27l-1-.16a.74.74,0,0,0-.33.52" transform="translate(-284.15 -263.11)" style="fill:#58595b"/><path d="M392,304.8c-.09.17-.26.43-.41.71a2.76,2.76,0,0,1,1.45,1.43,2.1,2.1,0,0,0,.24-.42,1.28,1.28,0,0,0-.09-.88,1.49,1.49,0,0,0-.65-.71.69.69,0,0,0-.54-.13" transform="translate(-284.15 -263.11)" style="fill:#58595b"/><path d="M393.62,305.61c0-1.09-.32-1.4-1.37-1.71l-.12.42a3.21,3.21,0,0,1,1.49,1.29" transform="translate(-284.15 -263.11)" style="fill:#58595b"/><path d="M391.31,305.91l-.48.61c-.07.1-.24.21-.17.36a3,3,0,0,1,1.43,1.33l.33-.39a.7.7,0,0,0,.16-.25.73.73,0,0,0,0-.43,1.81,1.81,0,0,0-1.3-1.22" transform="translate(-284.15 -263.11)" style="fill:#58595b"/><path d="M355.42,321a2,2,0,0,0-.19,1.1,1.36,1.36,0,0,0,.36.83.73.73,0,0,0,.39.21,1.43,1.43,0,0,0,1-.16,3,3,0,0,1-.31-2.13,5.77,5.77,0,0,0-1.08,0,.37.37,0,0,0-.15.13" transform="translate(-284.15 -263.11)" style="fill:#58595b"/><path d="M357,321.81a1.69,1.69,0,0,0,.28.85.59.59,0,0,0,.71.28l.51-.14a7.31,7.31,0,0,1-.3-1,8.26,8.26,0,0,1,0-1.13l-1,.12a1.34,1.34,0,0,0-.21,1.06" transform="translate(-284.15 -263.11)" style="fill:#58595b"/><path d="M385.17,307.86a3.94,3.94,0,0,1,1.09,1.83c.29-.2.49-.34.69-.5a.41.41,0,0,0,.16-.4,2.05,2.05,0,0,0-1-1.59,3,3,0,0,0-.92.66" transform="translate(-284.15 -263.11)" style="fill:#58595b"/><path d="M387.06,306.48l-.62.46a3,3,0,0,1,1.12,1.8,1.85,1.85,0,0,0,.8-.6,2,2,0,0,0-.55-1.3.92.92,0,0,0-.75-.36" transform="translate(-284.15 -263.11)" style="fill:#58595b"/><path d="M384.83,308.08a2.72,2.72,0,0,0-.9.44c0,.07,0,.14,0,.16a3.75,3.75,0,0,1,.87,1.4c.05.13,0,.31.24.37a2.29,2.29,0,0,0,.81-.55,2.39,2.39,0,0,0-1-1.82" transform="translate(-284.15 -263.11)" style="fill:#58595b"/><path d="M356.31,318.25a1.65,1.65,0,0,0,0,2.1,1,1,0,0,0,.77,0,3.26,3.26,0,0,1-.17-2.2.43.43,0,0,0-.59.14" transform="translate(-284.15 -263.11)" style="fill:#58595b"/><path d="M358.75,317.88a1.58,1.58,0,0,0-.07,1.28,1.28,1.28,0,0,0,.63.91l.92-.15a4.7,4.7,0,0,1-.43-2.18l-1,.14" transform="translate(-284.15 -263.11)" style="fill:#58595b"/><path d="M353.52,317.7A1.54,1.54,0,0,0,352.2,319c0,.38.07.5.52.66a5.94,5.94,0,0,1,.29-1.06,5.33,5.33,0,0,1,.67-.87c-.08,0-.13-.07-.17-.06" transform="translate(-284.15 -263.11)" style="fill:#58595b"/><path d="M383.36,308.86l-.64.35a3.05,3.05,0,0,0-.25.2,3.51,3.51,0,0,1,.93,2,3.63,3.63,0,0,0,1.09-.63,2.36,2.36,0,0,0-.46-1.4.92.92,0,0,0-.66-.5" transform="translate(-284.15 -263.11)" style="fill:#58595b"/><path d="M388.11,306.61c.16.17.27.37.41.56a3.62,3.62,0,0,1,.31.65h0a2.54,2.54,0,0,0,.33-.23,2.73,2.73,0,0,0,.26-.27,1.78,1.78,0,0,0-.83-1.32,1.29,1.29,0,0,0-.42-.17.51.51,0,0,0-.62.32,4.7,4.7,0,0,1,.53.45" transform="translate(-284.15 -263.11)" style="fill:#58595b"/><path d="M351.81,317.89a1.84,1.84,0,0,0-.06,1.06c0-.11.14-.36.19-.44a3.53,3.53,0,0,1,.26-.39,2.38,2.38,0,0,1,.64-.55c.27-.17.51-.4.78-.58a2.38,2.38,0,0,1-.35,0l-.34,0a1.34,1.34,0,0,0-1.13.9" transform="translate(-284.15 -263.11)" style="fill:#58595b"/><path d="M354.65,320.11a.44.44,0,0,0,.33.28,1.33,1.33,0,0,0,.79,0,3,3,0,0,1,0-2.27c-.16,0-.32-.05-.43,0a1.65,1.65,0,0,0-.7,2" transform="translate(-284.15 -263.11)" style="fill:#58595b"/><path d="M388.59,302.14a.72.72,0,0,0-.18.46.06.06,0,0,0,0,0h0l.32.07a2.34,2.34,0,0,1,.83-.73c-.36-.1-.74-.18-1,.14" transform="translate(-284.15 -263.11)" style="fill:#58595b"/><path d="M391.07,304.54A1.78,1.78,0,0,0,390,304a.91.91,0,0,0-.53.09.9.9,0,0,0-.29.4l0,.09a2.16,2.16,0,0,1,.53.14,2.33,2.33,0,0,1,.41.24,2.44,2.44,0,0,1,.66.7c0,.05.12.07.19.11.1-.14.19-.26.26-.39a.64.64,0,0,0-.11-.89" transform="translate(-284.15 -263.11)" style="fill:#58595b"/><path d="M388.76,305a.42.42,0,0,0-.32.36,3.34,3.34,0,0,1,1.39,1.65c.18-.16.32-.27.43-.4a.6.6,0,0,0,.07-.83,1.71,1.71,0,0,0-1.14-.82.82.82,0,0,0-.44,0" transform="translate(-284.15 -263.11)" style="fill:#58595b"/><path d="M354,315.23a.6.6,0,0,0-.41.27s-.24.26-.2.29a1.57,1.57,0,0,0,.5.24l.33-.69c-.09-.05-.16-.12-.22-.11" transform="translate(-284.15 -263.11)" style="fill:#58595b"/><path d="M352.6,316.6h1.12c0-.36-.13-.48-.38-.52s-.57.19-.74.52" transform="translate(-284.15 -263.11)" style="fill:#58595b"/><path d="M353.17,319.59a.49.49,0,0,0,.37.51c.19.06.39.09.65.15a7.78,7.78,0,0,1,0-.85,4.32,4.32,0,0,1,.18-.73c.07-.23.3-.38.35-.64a1.68,1.68,0,0,0-.25-.05.57.57,0,0,0-.22,0,1.65,1.65,0,0,0-1.09,1.58" transform="translate(-284.15 -263.11)" style="fill:#58595b"/><path d="M387.86,301.88h-.34l0,0a.61.61,0,0,0-.11.26,1,1,0,0,0,0,.19,2.74,2.74,0,0,1,.66.12,4.61,4.61,0,0,1,.17-.49.58.58,0,0,0-.35-.13" transform="translate(-284.15 -263.11)" style="fill:#58595b"/><path d="M390.42,302.23a1.15,1.15,0,0,0-.71.11,2.84,2.84,0,0,0-.59.5.49.49,0,0,1,.25.25,1.69,1.69,0,0,1,1.26-.24,2.89,2.89,0,0,1,.91.31c.06,0,.16.1.18.17a1.53,1.53,0,0,0-1.3-1.09" transform="translate(-284.15 -263.11)" style="fill:#58595b"/><path d="M390.83,303.19a1.76,1.76,0,0,0-1.06.09.2.2,0,0,0-.09,0,.24.24,0,0,0,0,.06,1.61,1.61,0,0,0-.11.34,1.54,1.54,0,0,1,1.16.13,2.87,2.87,0,0,1,.37.21,6.08,6.08,0,0,0,.52.35s.09,0,.11-.09a.57.57,0,0,0-.09-.63,1.33,1.33,0,0,0-.78-.5" transform="translate(-284.15 -263.11)" style="fill:#58595b"/><path d="M362.91,317.72c0-.13,0-.47-.1-.57s-.89.15-1.09.2a2.53,2.53,0,0,0-.06.77,6.21,6.21,0,0,0,.21.76.89.89,0,0,0,.54.64l1.06-.25a10.36,10.36,0,0,1-.44-1,4.62,4.62,0,0,1-.12-.51" transform="translate(-284.15 -263.11)" style="fill:#58595b"/><path d="M373.19,313.77a6,6,0,0,0,.83,2,13.26,13.26,0,0,0,1.71-.73,5.93,5.93,0,0,0-.9-2.05,10.21,10.21,0,0,0-1.64.74" transform="translate(-284.15 -263.11)" style="fill:#58595b"/><path d="M371.21,314.49a1.57,1.57,0,0,0-.31.2,6,6,0,0,0,.73,2,7.47,7.47,0,0,0,1.75-.67,11.87,11.87,0,0,0-.72-2,5.44,5.44,0,0,0-1.45.47" transform="translate(-284.15 -263.11)" style="fill:#58595b"/><path d="M367.48,315.84a1.71,1.71,0,0,0-.76.34,3.46,3.46,0,0,0,.7,2,4.9,4.9,0,0,0,1.41-.54l-.58-2-.78.26" transform="translate(-284.15 -263.11)" style="fill:#58595b"/><path d="M380.43,310.46c-.19.09-.37.16-.55.25s-.4.12-.48.39a6.16,6.16,0,0,1,.87,1.9,3.42,3.42,0,0,0,1.1-.52,1.92,1.92,0,0,0-.28-1.32c-.15-.28-.31-.59-.67-.69" transform="translate(-284.15 -263.11)" style="fill:#58595b"/><path d="M375.36,312.86l.84,2a6.54,6.54,0,0,0,1.66-.73,4,4,0,0,0-.91-2,11.09,11.09,0,0,0-1.59.73" transform="translate(-284.15 -263.11)" style="fill:#58595b"/><path d="M378.88,311.27a7.24,7.24,0,0,0-1.38.61.76.76,0,0,0,0,.22c.24.52.48,1.05.74,1.57a1.14,1.14,0,0,0,.19.22l.64-.29c.22-.11.48-.16.63-.39a2.38,2.38,0,0,0-.3-1.23,1.45,1.45,0,0,0-.56-.71" transform="translate(-284.15 -263.11)" style="fill:#58595b"/><path d="M368.78,315.45a4.08,4.08,0,0,0,.41,1.69,2,2,0,0,0,.24.35,9.48,9.48,0,0,0,1.67-.64c-.23-.68-.45-1.34-.68-2a10,10,0,0,0-1.64.63" transform="translate(-284.15 -263.11)" style="fill:#58595b"/><path d="M366.23,316.29a2.46,2.46,0,0,0-1.23.37,2.53,2.53,0,0,0,.62,1.94,1.78,1.78,0,0,0,1.22-.39c-.12-.29-.25-.59-.34-.9s-.18-.66-.27-1" transform="translate(-284.15 -263.11)" style="fill:#58595b"/><path d="M361.26,317.45c-.26,0-.51.08-.75.13a.4.4,0,0,0-.35.43,2.68,2.68,0,0,0,.52,1.76,1.94,1.94,0,0,0,1.07-.16c-.12-.36-.26-.68-.34-1s-.1-.74-.16-1.15" transform="translate(-284.15 -263.11)" style="fill:#58595b"/><path d="M358.19,318a2.71,2.71,0,0,0-.36,0,2.79,2.79,0,0,0-.33.07,1.67,1.67,0,0,0,.17,2.2,1.63,1.63,0,0,0,.92-.12,8.12,8.12,0,0,1-.33-1.06,8.49,8.49,0,0,1-.06-1.07" transform="translate(-284.15 -263.11)" style="fill:#58595b"/><path d="M382.08,309.62a5,5,0,0,0-1.15.61,9.56,9.56,0,0,1,.57.92,11.4,11.4,0,0,1,.39,1.09l.91-.48a.39.39,0,0,0,.2-.38,2.26,2.26,0,0,0-.92-1.75" transform="translate(-284.15 -263.11)" style="fill:#58595b"/><path d="M364.56,316.77a4.33,4.33,0,0,0-1.19.24,1.38,1.38,0,0,0,0,1.06,1.63,1.63,0,0,0,.62,1,2.75,2.75,0,0,0,.89-.16c.13,0,.25-.06.28-.21s-.26-.6-.35-.91-.15-.67-.22-1" transform="translate(-284.15 -263.11)" style="fill:#58595b"/><path d="M387.78,309.11a2.31,2.31,0,0,0-.77.58,2.09,2.09,0,0,1,.78.74l.93-.63-.1-.14a1.14,1.14,0,0,0-.85-.55" transform="translate(-284.15 -263.11)" style="fill:#7a7c7f"/><path d="M370.24,317.67a6.92,6.92,0,0,0-1.59.54,6.41,6.41,0,0,0,.34,1l1.69-.56a9.74,9.74,0,0,0-.43-1" transform="translate(-284.15 -263.11)" style="fill:#7a7c7f"/><path d="M364.6,319.43a2.37,2.37,0,0,0-1.28.37,3.32,3.32,0,0,0,.06,1.08l1.52-.42-.29-1" transform="translate(-284.15 -263.11)" style="fill:#7a7c7f"/><path d="M368.24,318.34a3.89,3.89,0,0,0-1.47.53,8.23,8.23,0,0,0,.23,1l1.63-.51-.39-1" transform="translate(-284.15 -263.11)" style="fill:#7a7c7f"/><path d="M389.12,308.13l-.9.66a2.64,2.64,0,0,1,.8.79c.32-.22.64-.46,1-.71a2.67,2.67,0,0,0-.86-.75" transform="translate(-284.15 -263.11)" style="fill:#7a7c7f"/><path d="M366.65,319.95l-.06-.18c0-.06-.28-.87-.29-.87a.94.94,0,0,0-.24.09l-.33.09-.73.21a7.39,7.39,0,0,0,.21,1.09l.94-.28.5-.15" transform="translate(-284.15 -263.11)" style="fill:#7a7c7f"/><path d="M362.82,319.82l-1.1.24a2.35,2.35,0,0,0,0,1.23l1.31-.33-.24-1.15" transform="translate(-284.15 -263.11)" style="fill:#7a7c7f"/><path d="M354.76,322.34h.13a2.77,2.77,0,0,1,.17-1.53l-1-.16a.74.74,0,0,0-.33.52,1.92,1.92,0,0,0,0,.9c0,.1,0,.2.07.28.32,0,.65,0,1,0" transform="translate(-284.15 -263.11)" style="fill:#7a7c7f"/><path d="M353.27,321.79a4.89,4.89,0,0,1,.22-1.27l-.72-.28a2,2,0,0,0-.33.47,1.49,1.49,0,0,0,.15,1.38l.12.15c.22,0,.44.07.66.09a2.47,2.47,0,0,1-.09-.53" transform="translate(-284.15 -263.11)" style="fill:#7a7c7f"/><path d="M356.64,320.81a6,6,0,0,0-1.08,0,.39.39,0,0,0-.15.13,2,2,0,0,0-.19,1.1,1.56,1.56,0,0,0,0,.25c.46,0,.92-.06,1.38-.11a3.24,3.24,0,0,1,0-1.39" transform="translate(-284.15 -263.11)" style="fill:#7a7c7f"/><path d="M361.33,321.19a2.76,2.76,0,0,1-.09-1,3.17,3.17,0,0,0-.9.12.36.36,0,0,0-.32.29,2.17,2.17,0,0,0,0,1.09l1.37-.29-.06-.2" transform="translate(-284.15 -263.11)" style="fill:#7a7c7f"/><path d="M359.61,320.48a1.44,1.44,0,0,0-.75.09.56.56,0,0,0-.2.09.55.55,0,0,0-.18.32,2.1,2.1,0,0,0,0,.53,1.74,1.74,0,0,0,.09.44l1.07-.19a2.13,2.13,0,0,1,0-1.28" transform="translate(-284.15 -263.11)" style="fill:#7a7c7f"/><path d="M358.16,321.76a8.72,8.72,0,0,1,0-1.13l-1,.12a1.33,1.33,0,0,0-.21,1.06,2,2,0,0,0,.06.35l1.19-.16c0-.08,0-.16,0-.24" transform="translate(-284.15 -263.11)" style="fill:#7a7c7f"/><path d="M386.61,309.93a3.35,3.35,0,0,0-.9.65,9.77,9.77,0,0,1,.62.81l.42-.27.73-.48-.13-.2a1.19,1.19,0,0,0-.74-.51" transform="translate(-284.15 -263.11)" style="fill:#7a7c7f"/><path d="M372.31,316.92a7.93,7.93,0,0,0-1.6.62c.1.34.2.68.33,1l1.75-.62a4.24,4.24,0,0,0-.48-1" transform="translate(-284.15 -263.11)" style="fill:#7a7c7f"/><path d="M389.94,307.42c-.14.14-.47.45-.52.5a5.36,5.36,0,0,1,.77.66l.07.09c.37-.29.74-.6,1.09-.91a1.64,1.64,0,0,0-.65-.47.62.62,0,0,0-.76.14" transform="translate(-284.15 -263.11)" style="fill:#7a7c7f"/><path d="M385.3,310.79a9.06,9.06,0,0,0-1.13.64,5,5,0,0,1,.7.85l1.12-.69a2.34,2.34,0,0,0-.69-.81" transform="translate(-284.15 -263.11)" style="fill:#7a7c7f"/><path d="M391.31,305.91l-.48.61c-.07.1-.24.21-.17.36a2.89,2.89,0,0,1,.93.66c.29-.27.57-.55.82-.83a1.73,1.73,0,0,0-1.09-.79" transform="translate(-284.15 -263.11)" style="fill:#7a7c7f"/><path d="M352,321.05a4.08,4.08,0,0,1,.28-1s-.07-.09-.11-.09-.17,0-.19.07a4.17,4.17,0,0,0-.44,1,1.12,1.12,0,0,0,.07.69,1.63,1.63,0,0,0,.14.25l.33.12a3.51,3.51,0,0,1-.08-1" transform="translate(-284.15 -263.11)" style="fill:#7a7c7f"/><path d="M392,304.8c-.09.17-.26.43-.41.71a2.63,2.63,0,0,1,1.11.87,6.56,6.56,0,0,0,.5-.7l0,0a1.49,1.49,0,0,0-.65-.71.69.69,0,0,0-.54-.13" transform="translate(-284.15 -263.11)" style="fill:#7a7c7f"/><path d="M392.25,303.9l-.12.42a2.92,2.92,0,0,1,1.26,1,3.18,3.18,0,0,0,.15-.36c-.14-.57-.5-.8-1.29-1" transform="translate(-284.15 -263.11)" style="fill:#7a7c7f"/><path d="M379.26,314.06c.15.33.27.67.41,1l1.59-.78a5.25,5.25,0,0,0-.55-.94,5.28,5.28,0,0,0-1.45.71" transform="translate(-284.15 -263.11)" style="fill:#7a7c7f"/><path d="M382.28,312.48l-.91.47a2.53,2.53,0,0,0-.28.22c.16.31.31.57.44.84l.05.12,1.32-.7a4.38,4.38,0,0,0-.62-.94" transform="translate(-284.15 -263.11)" style="fill:#7a7c7f"/><path d="M383.83,311.62l-1.16.63.53,1,1.37-.78a3.42,3.42,0,0,0-.74-.86" transform="translate(-284.15 -263.11)" style="fill:#7a7c7f"/><path d="M375.29,317l-.38-1a7.91,7.91,0,0,0-2.12.86c.09.22.23.59.37.94l.74-.28,1.4-.54" transform="translate(-284.15 -263.11)" style="fill:#7a7c7f"/><path d="M375.27,315.77c.14.36.25.72.38,1l1.73-.72a4.6,4.6,0,0,0-.51-1,15.23,15.23,0,0,0-1.59.72" transform="translate(-284.15 -263.11)" style="fill:#7a7c7f"/><path d="M377.72,315.95q.83-.36,1.65-.75a3.44,3.44,0,0,0-.52-1,11.55,11.55,0,0,0-1.52.69l.39,1.09" transform="translate(-284.15 -263.11)" style="fill:#7a7c7f"/><path d="M370.41,314.81a10,10,0,0,0-1.64.63,3.15,3.15,0,0,0,.16,1l1.8-.67-.32-1" transform="translate(-284.15 -263.11)" style="fill:#7a7c7f"/><path d="M373,314.89c-.11-.29-.24-.58-.36-.87a5.47,5.47,0,0,0-1.45.47,1.68,1.68,0,0,0-.31.2,8.8,8.8,0,0,0,.24.93l1.51-.59.36-.14" transform="translate(-284.15 -263.11)" style="fill:#7a7c7f"/><path d="M368.25,315.58l-.78.26a1.71,1.71,0,0,0-.76.34,3.94,3.94,0,0,0,.18,1l1.64-.56-.29-1" transform="translate(-284.15 -263.11)" style="fill:#7a7c7f"/><path d="M374.83,313a10.21,10.21,0,0,0-1.64.74,7.38,7.38,0,0,0,.28.94l1.88-.76a3.85,3.85,0,0,0-.52-.92" transform="translate(-284.15 -263.11)" style="fill:#7a7c7f"/><path d="M366.23,316.29a2.46,2.46,0,0,0-1.23.37,2.65,2.65,0,0,0,.12,1.06l1.38-.43c-.1-.32-.17-.65-.26-1" transform="translate(-284.15 -263.11)" style="fill:#7a7c7f"/><path d="M384.83,308.08a2.72,2.72,0,0,0-.9.44c0,.07,0,.14,0,.16a2.83,2.83,0,0,1,.56.74l1-.66a2.26,2.26,0,0,0-.64-.68" transform="translate(-284.15 -263.11)" style="fill:#7a7c7f"/><path d="M387.06,306.48l-.62.46a3,3,0,0,1,.63.65l.81-.66-.07-.09a.92.92,0,0,0-.75-.36" transform="translate(-284.15 -263.11)" style="fill:#7a7c7f"/><path d="M385.17,307.86a3.19,3.19,0,0,1,.59.7c.34-.24.67-.48,1-.74a1.87,1.87,0,0,0-.68-.63,3,3,0,0,0-.92.66" transform="translate(-284.15 -263.11)" style="fill:#7a7c7f"/><path d="M359.8,317.74l-1,.14a1.57,1.57,0,0,0-.06,1.28v0l1.22-.2a4.82,4.82,0,0,1-.12-1.25" transform="translate(-284.15 -263.11)" style="fill:#7a7c7f"/><path d="M356.9,318.11a.43.43,0,0,0-.59.14,1.56,1.56,0,0,0-.36,1.21l.87,0a4.24,4.24,0,0,1,.09-1.3" transform="translate(-284.15 -263.11)" style="fill:#7a7c7f"/><path d="M352.16,318.17l0-.06a2.42,2.42,0,0,1,.64-.55c.27-.17.51-.4.78-.58a2.36,2.36,0,0,1-.35,0l-.34,0a1.26,1.26,0,0,0-1,.58,1.3,1.3,0,0,0,0,.18,1.32,1.32,0,0,0,.16.43" transform="translate(-284.15 -263.11)" style="fill:#7a7c7f"/><path d="M358.29,319.25q0-.09,0-.18a9,9,0,0,1-.06-1.07,3.23,3.23,0,0,0-.36,0,2.79,2.79,0,0,0-.33.07,1.54,1.54,0,0,0-.29,1.33l.31,0,.78-.1" transform="translate(-284.15 -263.11)" style="fill:#7a7c7f"/><path d="M363,318.23c-.05-.17-.09-.33-.12-.51s0-.47-.1-.57-.89.15-1.08.2a2,2,0,0,0,.07,1.25l1.26-.31,0-.07" transform="translate(-284.15 -263.11)" style="fill:#7a7c7f"/><path d="M364.79,317.79c-.1-.33-.15-.67-.22-1a4.33,4.33,0,0,0-1.19.24,1.38,1.38,0,0,0,0,1.06l0,.15,1.4-.39v0" transform="translate(-284.15 -263.11)" style="fill:#7a7c7f"/><path d="M361.42,318.6c-.08-.36-.1-.74-.16-1.15-.26,0-.51.08-.75.13a.41.41,0,0,0-.35.43,3.18,3.18,0,0,0,.1.91l1.18-.24,0-.09" transform="translate(-284.15 -263.11)" style="fill:#7a7c7f"/><path d="M383.36,308.86l-.64.35a3.05,3.05,0,0,0-.25.2,3.88,3.88,0,0,1,.6.88l1.12-.67a2.89,2.89,0,0,0-.17-.25.92.92,0,0,0-.66-.5" transform="translate(-284.15 -263.11)" style="fill:#7a7c7f"/><path d="M352.6,316.6h1.12c0-.36-.13-.48-.38-.52s-.57.19-.74.52" transform="translate(-284.15 -263.11)" style="fill:#7a7c7f"/><path d="M389.17,304.53l0,.09a2.43,2.43,0,0,1,.53.14l.29.16a6,6,0,0,0,.5-.79,1.77,1.77,0,0,0-.45-.1.7.7,0,0,0-.83.5" transform="translate(-284.15 -263.11)" style="fill:#7a7c7f"/><path d="M388.59,302.14a.72.72,0,0,0-.18.46.06.06,0,0,0,0,0h0l.32.07a2.34,2.34,0,0,1,.83-.73c-.36-.1-.74-.18-1,.14" transform="translate(-284.15 -263.11)" style="fill:#7a7c7f"/><path d="M379.31,310.58c-1.07.46-2.16,1-3.26,1.51,1.09-.48,2.19-1,3.26-1.51" transform="translate(-284.15 -263.11)" style="fill:#7a7c7f"/><path d="M388.76,305a.42.42,0,0,0-.32.36,5.75,5.75,0,0,1,.64.5h0l.37-.36.28-.31a2,2,0,0,0-.54-.21.82.82,0,0,0-.44,0" transform="translate(-284.15 -263.11)" style="fill:#7a7c7f"/><path d="M387.86,301.88h-.34l0,0a.61.61,0,0,0-.11.26,1,1,0,0,0,0,.19,2.74,2.74,0,0,1,.66.12,4.61,4.61,0,0,1,.17-.49.58.58,0,0,0-.35-.13" transform="translate(-284.15 -263.11)" style="fill:#7a7c7f"/><path d="M389.71,302.34a2.77,2.77,0,0,0-.59.5.49.49,0,0,1,.25.25,1.69,1.69,0,0,1,1.26-.24l.25.05a2.15,2.15,0,0,0,0-.52,1.83,1.83,0,0,0-.5-.15,1.15,1.15,0,0,0-.71.11" transform="translate(-284.15 -263.11)" style="fill:#7a7c7f"/><path d="M354,315.23a.6.6,0,0,0-.41.27s-.24.26-.2.29a1.57,1.57,0,0,0,.5.24l.33-.69c-.09-.05-.16-.12-.22-.11" transform="translate(-284.15 -263.11)" style="fill:#7a7c7f"/><path d="M353.27,319l.14.05a5.48,5.48,0,0,0,.82.23,4.2,4.2,0,0,1,.17-.65c.06-.23.3-.38.34-.64a1.4,1.4,0,0,0-.25-.05.57.57,0,0,0-.22,0,1.6,1.6,0,0,0-1,1" transform="translate(-284.15 -263.11)" style="fill:#7a7c7f"/><path d="M353.52,317.7a1.57,1.57,0,0,0-1.13.77,2.4,2.4,0,0,0,.54.41,1.86,1.86,0,0,1,.09-.24,5.33,5.33,0,0,1,.67-.87c-.08,0-.13-.07-.17-.06" transform="translate(-284.15 -263.11)" style="fill:#7a7c7f"/><path d="M381.17,311.31l-.08-.16c-.15-.28-.31-.59-.67-.69-.19.09-.37.16-.55.25s-.4.12-.48.39a3.35,3.35,0,0,1,.49.85l1.28-.64" transform="translate(-284.15 -263.11)" style="fill:#7a7c7f"/><path d="M389.76,303.27a.23.23,0,0,0-.09,0l0,.06a1.72,1.72,0,0,0-.11.34,1.49,1.49,0,0,1,1.08.09,4.09,4.09,0,0,0,.22-.63,1.81,1.81,0,0,0-1.06.09" transform="translate(-284.15 -263.11)" style="fill:#7a7c7f"/><path d="M388.19,305.84a.51.51,0,0,0-.62.32,4.9,4.9,0,0,1,.53.45l.06.07.62-.55-.17-.13a1.29,1.29,0,0,0-.42-.17" transform="translate(-284.15 -263.11)" style="fill:#7a7c7f"/><path d="M378.88,311.27a7.24,7.24,0,0,0-1.38.61.76.76,0,0,0,0,.22l.36.78,1.61-.74-.07-.16a1.45,1.45,0,0,0-.56-.71" transform="translate(-284.15 -263.11)" style="fill:#7a7c7f"/><path d="M375.36,312.86l.4.94,1.78-.75a5.38,5.38,0,0,0-.58-.91,11.09,11.09,0,0,0-1.59.73" transform="translate(-284.15 -263.11)" style="fill:#7a7c7f"/><path d="M382.08,309.62a5,5,0,0,0-1.15.61,10.1,10.1,0,0,1,.57.92c.43-.23.85-.46,1.27-.7a2,2,0,0,0-.69-.83" transform="translate(-284.15 -263.11)" style="fill:#7a7c7f"/><path d="M355.57,319.46a2.71,2.71,0,0,1,.21-1.38c-.16,0-.32-.05-.43,0a1.64,1.64,0,0,0-.81,1.3,7.85,7.85,0,0,0,1,.08" transform="translate(-284.15 -263.11)" style="fill:#7a7c7f"/><path d="M354.5,316.88c2.44-6.87,10.49-10.89,17-13a30.07,30.07,0,0,1,5-1.1,27,27,0,0,1,10,.05,2.71,2.71,0,0,1,2,1.35,2.33,2.33,0,0,1-.74,1.16c-.4.34-.81.69-1.23,1a65.28,65.28,0,0,1-13.29,6.94,55.31,55.31,0,0,1-16,4.34,6.19,6.19,0,0,1-2.12-.08,2.15,2.15,0,0,1-.36-.11.51.51,0,0,1-.29-.56" transform="translate(-284.15 -263.11)" style="fill:#f7f8f4"/><path d="M387.75,305.34a2.34,2.34,0,0,0,.74-1.16,2.71,2.71,0,0,0-2-1.35,16.52,16.52,0,0,0-2-.36.77.77,0,0,1,0,.5,2.22,2.22,0,0,1-.49.7,6.18,6.18,0,0,1-1.54,1.26c-5.32,3.13-11.16,4.94-17.09,6.42-2.63.66-5.29,1.67-8.07.77a15.39,15.39,0,0,0-1.93,2.69l.1.11a3.69,3.69,0,0,0,.52.09c.55.05,1.13,0,1.66,0a22.21,22.21,0,0,0,2.83-.07c7.4-.77,14.32-3.26,21.17-6,.89-.36,1.75-.76,2.63-1.14s1.46-.94,2.17-1.46c.42-.32.83-.66,1.23-1" transform="translate(-284.15 -263.11)" style="fill:#e7e5e4"/><path d="M357.27,317.63a55.31,55.31,0,0,0,16-4.34,73.9,73.9,0,0,0,11.12-5.48c-.87.39-1.74.78-2.63,1.14-6.84,2.76-13.76,5.25-21.17,6a22.72,22.72,0,0,1-2.83.07c-.53,0-1.11,0-1.66,0a3,3,0,0,1-.66-.13,13.42,13.42,0,0,0-.9,2,.51.51,0,0,0,.29.56,2.1,2.1,0,0,0,.36.12,6.24,6.24,0,0,0,2.11.07" transform="translate(-284.15 -263.11)" style="fill:#cecccf"/><path d="M355.77,439.08l.28.07a1,1,0,0,0,.76-.14.63.63,0,0,0,0-1,1.7,1.7,0,0,0-1.69-.17,2.51,2.51,0,0,0-.79.5,1.1,1.1,0,0,0,.05,1.7,2.94,2.94,0,0,0,1.38.69,10.75,10.75,0,0,0,1.88.24c.79,0,1.59,0,2.38.15a3.24,3.24,0,0,1,2.15,1,2,2,0,0,1,.64,1.46,1.79,1.79,0,0,1-.28.77,1.9,1.9,0,0,1-.27.32c-.07.06-.23.14-.27.21a2.73,2.73,0,0,0,.35-.93,1.86,1.86,0,0,0-.07-1,1.47,1.47,0,0,0-.51-.54,3.74,3.74,0,0,0-1.52-.66,18.91,18.91,0,0,0-3.48-.14c-.49,0-1,0-1.48,0a8.69,8.69,0,0,1-2.21-.31,3.35,3.35,0,0,1-1.47-1,.73.73,0,0,1-.21-.56,1.72,1.72,0,0,1,.86,0c.11,0,.2,0,.28-.11a1.56,1.56,0,0,1,0-2.14c.37,0,.55.39.93.3a1.68,1.68,0,0,1,1.3-1.54c.29.2.21.59.43.87l.3,0a3.26,3.26,0,0,1,1.46.06,1.81,1.81,0,0,1,.85.6.49.49,0,0,1,.14.26,3,3,0,0,1,0,.93,1.54,1.54,0,0,1-1.82.92.54.54,0,0,1-.36-.79" transform="translate(-284.15 -263.11)" style="fill:#8e1837"/><path d="M362.28,429.85c-.12-.18-.37-.21-.52-.37a1.16,1.16,0,0,1-.35-.77,2,2,0,0,1,.15-.62c0-.09.35-.38.32-.47-.06-.24-.13-.49-.19-.75a2.26,2.26,0,0,1,.07-1.06c.06-.23.32-.58.59-.5s.39.41.43.67c-.14.45-.28,1-.47,1.5a3,3,0,0,0-.13,1.27c0,.26.1.35.43.54a3.05,3.05,0,0,1,.21-1.81,8.54,8.54,0,0,1,1-1.55c.1,0,.18,0,.22.05l.69.7a1.07,1.07,0,0,1,.29.8c0,.26,0,.52,0,.82a1.62,1.62,0,0,0,.27-1.85,1.75,1.75,0,0,1-.06-1.78.75.75,0,0,1,.26-.23.28.28,0,0,1,.16,0,.26.26,0,0,1,.14.06.53.53,0,0,1,.22.38,2.4,2.4,0,0,1-.16,1.15,2.08,2.08,0,0,0-.09.33l.07.09a.63.63,0,0,1,.31.95,9.15,9.15,0,0,1-.6,1c-.06.1-.14.2-.2.29a4.24,4.24,0,0,1,.14.5,1.48,1.48,0,0,1-.49,1.29,3.05,3.05,0,0,1-1.4,1,1.16,1.16,0,0,1-1.24-.44,1,1,0,0,1-.1-.53c0-.16.13-.39.07-.54l0,0" transform="translate(-284.15 -263.11)" style="fill:#8e1837"/><path d="M372.32,439a1.21,1.21,0,0,1-.86-.24,2.89,2.89,0,0,1-1.19-2.38,4.07,4.07,0,0,1,.73-2.09c.24-.38.52-.75.78-1.12.56-.8,1.12-1.59,1.68-2.39a2.93,2.93,0,0,0,.49-1.38c.05-.53-.3-.84-.8-.66a2.77,2.77,0,0,0-1.13.76,2.17,2.17,0,0,0-.65,1.13.34.34,0,0,0,.17.31.4.4,0,0,0,.31,0c.37-.13.52-.45.76-.73,0,0,.14.1.14.16a1,1,0,0,1,0,.44,1.84,1.84,0,0,1-1,1,.78.78,0,0,1-.78-.1c-.54-.51,0-1.42.34-1.87a4.72,4.72,0,0,1,1.11-1.08.65.65,0,0,0,.3-.57c0-.47.14-.6.59-.69h.07a.5.5,0,0,1,.73.47c.24-.18.32-.52.48-.77a.37.37,0,0,1,.22-.18.29.29,0,0,1,.26.1.63.63,0,0,1,.13.26,2.22,2.22,0,0,1-.09,1.3,2.65,2.65,0,0,1,.72-.72c.07,0,.17-.09.24,0s0,.14,0,.22a8.36,8.36,0,0,1-1,2,24.23,24.23,0,0,1-1.92,2.3c-.53.63-1.07,1.25-1.55,1.91a3.83,3.83,0,0,0-.79,2.44,2.12,2.12,0,0,0,1.4,2.06,1.29,1.29,0,0,1,.16.12" transform="translate(-284.15 -263.11)" style="fill:#8e1837"/><path d="M357.91,431.41c.2,0,.53-.26.63-.4a.52.52,0,0,0-.2-.77.45.45,0,0,1,.4-.19.62.62,0,0,1,.63.57,1.38,1.38,0,0,1-.94,1.54c-1.08.35-1.89-.7-1.86-1.69a1.5,1.5,0,0,1,.09-.55c-.16,0-.45,0-.48-.21s.1-.24.2-.32c.31-.23.62-.44.94-.65l-.17-.33a.13.13,0,0,1,.1-.22,3.56,3.56,0,0,1,1.61-.16.37.37,0,0,1,.27-.35c.27-.07.73.4.91.58a2.44,2.44,0,0,1,.54,1c.2.64.39,1.28.62,1.91a1.83,1.83,0,0,0,.78.92,2.8,2.8,0,0,0,1.46.19c-.84.64-2.84,1.16-3.08-.38-.06-.4-.13-.8-.16-1.2a1.85,1.85,0,0,0-1.28-1.5,1.53,1.53,0,0,0-1.4.51,1.18,1.18,0,0,0-.19,1.28.65.65,0,0,0,.56.44" transform="translate(-284.15 -263.11)" style="fill:#8e1837"/><path d="M360.11,436.87h0a.24.24,0,0,1-.16-.07,1.09,1.09,0,0,1-.14-.8,1.6,1.6,0,0,1,.39-.89,3.28,3.28,0,0,1,1.93-1.06,1.11,1.11,0,0,1,1.35,1.32,10.16,10.16,0,0,0,0,1.59,7.84,7.84,0,0,0,.1,1.09c.11.58.49,1.31,1.16,1.34h.61a2.84,2.84,0,0,1-2.23.4,1.28,1.28,0,0,1-.9-1.26,7.85,7.85,0,0,1,.07-.83c0-.35.09-.7.12-1.05a1.21,1.21,0,0,0-.05-.41.57.57,0,0,0-.7-.36,2,2,0,0,0-1.1.56c-.09.1-.17.21-.25.31a.35.35,0,0,1-.18.14" transform="translate(-284.15 -263.11)" style="fill:#8e1837"/><path d="M372.36,445.92a.9.9,0,0,1-.24,0l-1.34-.54a.8.8,0,0,1-.19-.12c-.3-.24-.58-.48-.4-.95a21.24,21.24,0,0,1-4.39-5.43,6.22,6.22,0,0,1-.92-.55,2.36,2.36,0,0,1-.7-1.56,6.22,6.22,0,0,1,.17-2.14.5.5,0,0,1,.06-.14s0,0,.08-.06a1.21,1.21,0,0,1,.16.13c.36.45.75.89,1.08,1.37a2.51,2.51,0,0,1,.5,2.11c0,.11-.06.22-.08.33a.63.63,0,0,0,.08.47,19.52,19.52,0,0,0,2.62,3.62c.47.5.94,1,1.42,1.47a1,1,0,0,0,.45.25,1.82,1.82,0,0,1,1.24.86,3,3,0,0,1,.41.87" transform="translate(-284.15 -263.11)" style="fill:#8e1837"/><path d="M367.07,438.32l-.22.15a.85.85,0,0,0,.18-.37,2.17,2.17,0,0,0,.11-1.31,2.85,2.85,0,0,0-.56-1.08c-.32-.39-.6-.81-.9-1.22a1.57,1.57,0,0,1,0-2,3.46,3.46,0,0,1,2.11-1.37.66.66,0,0,1,.79.3.71.71,0,0,1,0,.73.24.24,0,0,1-.05.09.27.27,0,0,1-.21,0,1.5,1.5,0,0,0-1.33.63c-.34.48-.55.87-.09,1.38a2.84,2.84,0,0,0,.37.32c.1.08.21.14.31.22a1.77,1.77,0,0,1,.5,2.16,3.12,3.12,0,0,1-1,1.37" transform="translate(-284.15 -263.11)" style="fill:#8e1837"/><path d="M364.78,431.59a2,2,0,0,1,.18-.23,6,6,0,0,0,1.71-3.27,6.79,6.79,0,0,1,.79-2.28,4,4,0,0,1,.51-.65c.11-.12.38-.51.55-.47a.33.33,0,0,1,.21.18,9.66,9.66,0,0,1,1.35-.87c.09,0,.24-.08.27,0a.16.16,0,0,1,0,.12.86.86,0,0,1-.16.3,2,2,0,0,1,.72-.17c.12,0,.28,0,.26.16a.21.21,0,0,1-.07.11,2.93,2.93,0,0,1-.48.36c.26.51-.1,1.27-.4,1.69a3,3,0,0,1-1.39,1.11c-.23.08-.64,0-.67-.29a1,1,0,0,1,.14-.58,2,2,0,0,1,.5-.61,3.07,3.07,0,0,1,.38-.18c0,.09-.09.14-.15.19a.57.57,0,0,0-.2.22.29.29,0,0,0,0,.29c.23.32.91-.2,1.06-.4a1.08,1.08,0,0,0,.21-.51c0-.1,0-.53-.06-.58a.79.79,0,0,0-.65,0,2.75,2.75,0,0,0-1.24.9,3,3,0,0,0-.78,1.81,8.51,8.51,0,0,1-.09.94,2.68,2.68,0,0,1-.67,1.42,7.21,7.21,0,0,1-1.71,1.31s0,0-.11,0" transform="translate(-284.15 -263.11)" style="fill:#8e1837"/><path d="M375.34,432.57a1.27,1.27,0,0,1,.75.06s.06,0,.07.06,0,.07-.06.09c-.55.36-1.13.69-1.66,1.09a7.43,7.43,0,0,0-2,2.31c-.24.41-.42.86-.63,1.29l-.12.19a1.53,1.53,0,0,1-.19-.78,4.79,4.79,0,0,1,.56-2.29,9.21,9.21,0,0,1,2.41-2.74.1.1,0,0,1,.06,0c.05,0,.06.08.05.13a3.85,3.85,0,0,1-.15.51c.07-.18.34-.31.49-.41l.75-.5a.54.54,0,0,1,.35-.12.11.11,0,0,1,.06,0s0,.11,0,.15l-.73,1,.07,0" transform="translate(-284.15 -263.11)" style="fill:#8e1837"/><path d="M364.41,422.59c.37.05.6-.22.95-.26l-.06.2a3.86,3.86,0,0,0-.17.65,1.26,1.26,0,0,1-1,1.18c-.3.08-.78.25-1.07.06s-.18-.39-.18-.6a1.54,1.54,0,0,0-.22-.93c.33-.16.63,0,.9,0a.74.74,0,0,0,0-.61,2.65,2.65,0,0,1,.5-2.11.4.4,0,0,1,.1-.07s.1,0,.12.07a1.78,1.78,0,0,1,.33,1.28c-.06.28-.13.56-.19.85,0,.09,0,.19-.05.31" transform="translate(-284.15 -263.11)" style="fill:#8e1837"/><path d="M367.76,443.7l-.18.11-.63.35c-.43.24-.85.51-1.26.78s-.89.62-1.32.94l-.66.51a1.83,1.83,0,0,1-.48.36c-.16.06-.39,0-.4-.19s.07-.21,0-.31l-1.5.49c-.06,0-.17,0-.17,0s0-.05,0-.07A3.32,3.32,0,0,1,362,446s-.11,0-.16-.06-.12-.07-.09-.12l0,0c.55-.25,1.06-.57,1.61-.82s1.12-.48,1.7-.69a15,15,0,0,1,3-.75.82.82,0,0,0-.36.13" transform="translate(-284.15 -263.11)" style="fill:#8e1837"/><path d="M363.91,440.82a.12.12,0,0,1,0-.08c.06-.08.41,0,.49,0l.63,0a3.49,3.49,0,0,1,1.19.28,2.51,2.51,0,0,1,.78.64c.26.29.49.61.73.92a.62.62,0,0,1,.07.17,5.15,5.15,0,0,1-1.32.24,2.53,2.53,0,0,1-1.13-.3,2.67,2.67,0,0,1-.89-.8,3.22,3.22,0,0,1-.32-.55,3.48,3.48,0,0,1-.23-.51" transform="translate(-284.15 -263.11)" style="fill:#8e1837"/><path d="M369.26,442a4.88,4.88,0,0,1-.72-.69,3,3,0,0,1-.5-.94,2.67,2.67,0,0,1,.33-2.16s.25-.4.29-.39.16.27.2.36c.25.47.57.88.8,1.35a1.93,1.93,0,0,1,0,1.88,7.12,7.12,0,0,1-.42.59" transform="translate(-284.15 -263.11)" style="fill:#8e1837"/><path d="M374.22,441l0,0c.07.28.41.42.45.7a.08.08,0,0,1,0,.05c0,.05-.1,0-.16,0a3,3,0,0,0-1-.2,4.43,4.43,0,0,0-1.1,0,6.21,6.21,0,0,0-2.32,1,.46.46,0,0,1,.12-.3,6.1,6.1,0,0,1,1.62-1.6,5.38,5.38,0,0,1,2-.88.33.33,0,0,1,.26,0,.23.23,0,0,1,.07.23.69.69,0,0,1-.12.23,1.13,1.13,0,0,1,.84.32c.05,0,.09.14,0,.18l-.06,0a2,2,0,0,0-.57.16" transform="translate(-284.15 -263.11)" style="fill:#8e1837"/><path d="M361.06,427.69c-.5-.14-1.52-.23-1.8-.74-.46-.84.78-1.28,1.3-.67a2.27,2.27,0,0,1,.56,1.14.89.89,0,0,1-.05.27" transform="translate(-284.15 -263.11)" style="fill:#8e1837"/><path d="M368.28,423.62a.33.33,0,0,1,.2.3c0,.38-.61.81-.86,1a5.42,5.42,0,0,1-1.16.94,1.33,1.33,0,0,1,.14-.61,3,3,0,0,1,1.44-1.65.4.4,0,0,1,.2,0h0" transform="translate(-284.15 -263.11)" style="fill:#8e1837"/><path d="M371.68,432.28a1.31,1.31,0,0,1-.52.16,1.11,1.11,0,0,1-1-.21,1.17,1.17,0,0,1-.18-.84,2.28,2.28,0,0,0-.48,1.1.79.79,0,0,0,.09.57.71.71,0,0,0,.67.22,2.2,2.2,0,0,0,1.44-1,.53.53,0,0,1-.28.13" transform="translate(-284.15 -263.11)" style="fill:#8e1837"/><path d="M369.58,444.24a6.58,6.58,0,0,0-1.07.61,1.83,1.83,0,0,0-.69.75.77.77,0,0,0,.22.92,1.43,1.43,0,0,0,.9-1,4.93,4.93,0,0,0,1.22.06,1.5,1.5,0,0,1-.31-.19,1.2,1.2,0,0,1-.29-.55c0-.08-.08-.59,0-.63" transform="translate(-284.15 -263.11)" style="fill:#8e1837"/><path d="M370.79,443.83a2.32,2.32,0,0,1,1.56.65.92.92,0,0,0,.09-.51,2.54,2.54,0,0,1,1.11.17c.13.06.28.15.42.09a.77.77,0,0,0-.2-.24,3,3,0,0,0-1.22-.75,1.88,1.88,0,0,0-1.06.11,4.33,4.33,0,0,0-.93.53,2.93,2.93,0,0,1,.57-.06" transform="translate(-284.15 -263.11)" style="fill:#8e1837"/><path d="M369,446.9a2.18,2.18,0,0,0,.71.14,5.24,5.24,0,0,0,1.19-.07.77.77,0,0,0,.31-.1.32.32,0,0,0,.16-.27c0-.43-.53-.71-.86-.87a.07.07,0,0,0-.06,0s0,0,0,.07c.05.33-.3.62-.55.77s-.7.4-.88.33" transform="translate(-284.15 -263.11)" style="fill:#8e1837"/><path d="M371.53,446.16a1,1,0,0,1,.29.34.54.54,0,0,1,0,.43.84.84,0,0,1-.42.37,3.13,3.13,0,0,0,1.16,0,.56.56,0,0,0,.22-.09.21.21,0,0,0,.08-.21.32.32,0,0,0-.13-.15,11,11,0,0,0-1.38-.85l.35.43" transform="translate(-284.15 -263.11)" style="fill:#8e1837"/><path d="M373.78,447.43a1.35,1.35,0,0,0,.85.23s.06,0,.06,0,0,0,0-.05a.72.72,0,0,0-.29-.24q-.73-.42-1.43-.9c.31.33.43.74.82,1" transform="translate(-284.15 -263.11)" style="fill:#8e1837"/><path d="M372.92,445.83a2,2,0,0,0,1.24.91.77.77,0,0,0,.54,0,.18.18,0,0,0,.1-.14c0-.1-.13-.14-.23-.16a3.59,3.59,0,0,1-2-1l.57.82" transform="translate(-284.15 -263.11)" style="fill:#8e1837"/><path d="M372.65,445.07a4,4,0,0,0,1.41.89.9.9,0,0,0,.34,0,.4.4,0,0,0,.29-.17.57.57,0,0,0,0-.45,2.91,2.91,0,0,0-.1-.28s0-.09-.09-.09-.07,0-.1.06a.71.71,0,0,1-.44.17,2.08,2.08,0,0,1-.48-.06,9.52,9.52,0,0,1-.92-.26c0,.2.29.34.42.49" transform="translate(-284.15 -263.11)" style="fill:#8e1837"/><path d="M357.56,440.12a3.31,3.31,0,0,0,1-1,1.52,1.52,0,0,0,.28-.68,2,2,0,0,0-.26-1,1.91,1.91,0,0,1,.92.59,1.18,1.18,0,0,1,.06,1.18,1.71,1.71,0,0,1-.91.79,3.12,3.12,0,0,1-1.21.19l.45-.33" transform="translate(-284.15 -263.11)" style="fill:#8e1837"/><path d="M358.42,442a9.29,9.29,0,0,0-1.3-.05c-.67,0-1.34.06-2,.13-.18,0-1,.06-.47.33a1.46,1.46,0,0,1,.27.14.09.09,0,0,1,0,.09c0,.13-.4.13-.51.14l-.72.13-1.43.31c0,.05.06.08.12.08h1.08c.1,0,.23,0,.27.1a.18.18,0,0,1,0,.19.51.51,0,0,1-.18.11l-.61.26a1.09,1.09,0,0,0-.5.33s.07,0,.12,0c.6-.16,1.2-.33,1.81-.45s1.24-.24,1.87-.33a21.72,21.72,0,0,1,3.75-.24c.37,0,.74.05,1.1.07.15,0,.83,0,.9.1a1.81,1.81,0,0,0-.69-.58,7.68,7.68,0,0,0-2.85-.87" transform="translate(-284.15 -263.11)" style="fill:#8e1837"/><path d="M298.88,362.58a2.48,2.48,0,0,1-1.41-.4,2.24,2.24,0,0,1-.92-1.73,6.07,6.07,0,0,1,.44-2.52,7.57,7.57,0,0,1,3.25-3.64,8.54,8.54,0,0,1,2-.74,7.56,7.56,0,0,1,4.61.13,4.44,4.44,0,0,1,1.33.72,2.09,2.09,0,0,1,.39,2.89,7.53,7.53,0,0,1-1.84,1.8,20.88,20.88,0,0,1-3.11,1.94,14.2,14.2,0,0,1-3.68,1.43,4.76,4.76,0,0,1-1,.12m1.44-4.2a.4.4,0,0,0,.1.12,2,2,0,0,0,1.2.3,1.2,1.2,0,0,0,.34,0,1.22,1.22,0,0,0,.33-.16c.45-.28.89-.56,1.35-.81s.37-.29.29-.68a4.25,4.25,0,0,0-.13-.57.53.53,0,0,0-.24-.32.71.71,0,0,0-.42,0c-.45.07-.91.16-1.37.21a1.09,1.09,0,0,0-.77.58,10.57,10.57,0,0,0-.67,1.2.25.25,0,0,0,0,.11.16.16,0,0,0,0,.07m.17,1.7,0-.11a.69.69,0,0,0-.71-.33,2.12,2.12,0,0,0-.64.2,2,2,0,0,0-.68.5c-.18.2,0,.4.18.53a1.51,1.51,0,0,0,.58.24,2.82,2.82,0,0,0,.75,0c.25,0,.37,0,.51-.26a1.09,1.09,0,0,0,.05-.82m2.09.15c.06.16.31.07.48,0,.46-.26.92-.52,1.38-.79s.63-.41.94-.62a.19.19,0,0,0,.1-.27,1.16,1.16,0,0,0-.68-.09,3.13,3.13,0,0,0-1.32.42,1.86,1.86,0,0,0-.9,1.22.33.33,0,0,0,0,.17M298,358.91h0a.17.17,0,0,0,.1,0,3.54,3.54,0,0,0,1-.74,2.38,2.38,0,0,0,.66-1c.07-.27,0-.69-.29-.78s-.49.2-.63.37a4.73,4.73,0,0,0-.69,1.21c0,.13-.35.88-.14,1m6.78-4.58c0-.07-.09-.09-.16-.09a8.15,8.15,0,0,0-2.76.33.55.55,0,0,0-.2.12c-.17.18.13.41.27.51a1.13,1.13,0,0,0,.64.16,3,3,0,0,0,2.16-.95.13.13,0,0,0,0-.08m1.66.79-.1,0a1.79,1.79,0,0,0-.7.48.66.66,0,0,0,.32,1.12,4.47,4.47,0,0,0,.7.15c.23,0,.35,0,.42-.28a1.38,1.38,0,0,0-.22-1.21c-.1-.14-.25-.29-.42-.28" transform="translate(-284.15 -263.11)" style="fill:#8e1837"/><path d="M292.5,365.88a2.28,2.28,0,0,0-.06.48.35.35,0,0,0,.1.28.34.34,0,0,0,.2.05,2.48,2.48,0,0,0,1-.25.5.5,0,0,0,.21-.13.51.51,0,0,0,.09-.23l.44-2.23a.32.32,0,0,0,0-.22.22.22,0,0,0-.13-.09.66.66,0,0,0-.35,0c-.22,0-.44.09-.66.16s-.37.09-.45.23a1.83,1.83,0,0,0-.1.48l-.14.69-.15.76" transform="translate(-284.15 -263.11)" style="fill:#8e1837"/><path d="M427.67,321.92a9.61,9.61,0,0,1-.84,4,5.13,5.13,0,0,1-2,2.37,2.42,2.42,0,0,1-2.69,0,3.45,3.45,0,0,1-.86-.84,6,6,0,0,1-.63-1.16,8.24,8.24,0,0,1-.6-2.15A9.17,9.17,0,0,1,420,321c.08-.39.09-.78.18-1.16a6.75,6.75,0,0,1,1-2.39,3.23,3.23,0,0,1,2-1.34,2.56,2.56,0,0,1,2,.4,4.75,4.75,0,0,1,1.93,2.28,7.63,7.63,0,0,1,.53,2.13c0,.35.06.7.08,1m-4.45-1.08a.62.62,0,0,0-.32.5c-.06.32-.11.65-.16,1s-.07.45-.1.67a.66.66,0,0,0,.18.56c.23.25.44.52.66.78a.32.32,0,0,0,.55,0q.4-.48.77-1a.81.81,0,0,0,.15-.72c-.06-.21-.08-.42-.12-.63s-.11-.57-.18-.85a.45.45,0,0,0-.49-.38c-.32,0-.63.06-.94.09m-1.77,4.39A2.72,2.72,0,0,0,423,327a.73.73,0,0,0,.13-.21,2.26,2.26,0,0,0-.12-1.41.91.91,0,0,0-.84-.68.88.88,0,0,0-.69.52m.07-5.41a4.83,4.83,0,0,0-.54,3.07.26.26,0,0,0,.34,0,1.24,1.24,0,0,0,.44-.51,2.4,2.4,0,0,0,.19-1.73,1.64,1.64,0,0,0-.44-.81m4.55,4.93a.63.63,0,0,0-.8-.19,1.19,1.19,0,0,0-.53.53,3.07,3.07,0,0,0-.32,1.24.43.43,0,0,0,.18.46,3.12,3.12,0,0,0,1.47-2m-3.4-6.54a1.63,1.63,0,0,0,.51.87.7.7,0,0,0,1,0,1.56,1.56,0,0,0,.49-1,1.55,1.55,0,0,0-2,.1m3.32,1.07c-.11.12-.19.17-.22.25a2.68,2.68,0,0,0,0,2.1.94.94,0,0,0,.79.63,1.12,1.12,0,0,0,.09-.31,6.61,6.61,0,0,0-.61-2.67" transform="translate(-284.15 -263.11)" style="fill:#8e1837"/><path d="M424.56,311.48c0,.12-.11.27-.16.37s-.16.31-.26.46-.28.44-.43.65-.36,0-.5-.1a1.83,1.83,0,0,1-.23-.18l-.51-.44-.7-.62a.57.57,0,0,1-.16-.2.43.43,0,0,1,0-.29c0-.11.1-.21.15-.32a4.65,4.65,0,0,1,.24-.47,4.3,4.3,0,0,1,.31-.45.27.27,0,0,1,.43-.07,5.43,5.43,0,0,1,.93.73,9.7,9.7,0,0,1,.77.75.47.47,0,0,1,.09.14.11.11,0,0,1,0,0" transform="translate(-284.15 -263.11)" style="fill:#8e1837"/><path d="M422.47,335.45c-.09,0-.16-.16-.21-.23a5,5,0,0,1-.53-1c0-.11-.09-.22-.13-.33a.52.52,0,0,1-.06-.26.67.67,0,0,1,.12-.23,6.81,6.81,0,0,1,.48-.66c.17-.21.34-.43.52-.63a1.32,1.32,0,0,1,.19-.18c.06-.05.11-.06.18,0a11.56,11.56,0,0,1,.86,1.5.41.41,0,0,1,0,.47c-.21.29-.43.58-.67.86s-.24.28-.37.4a1,1,0,0,1-.29.25h-.07" transform="translate(-284.15 -263.11)" style="fill:#8e1837"/><path d="M419.48,340.65a3,3,0,0,0-.15.42,3.18,3.18,0,0,0-.1,1.29,2.37,2.37,0,0,0,.7.56,3.34,3.34,0,0,1,.1-1.38,1.42,1.42,0,0,1,.08-.23.6.6,0,0,1,.82-.33c.55.19.89.68,1.43,2.94a5.45,5.45,0,0,0,.65.16c.3-1,.59-2.07.84-3.11a3.76,3.76,0,0,0-.71-.44c-.22.89-.45,1.77-.7,2.65-.08-1.47-.26-2.82-1.44-3.22a1.15,1.15,0,0,0-1.54.7m-1.07,3.71a2.77,2.77,0,0,0-.13.35,2.9,2.9,0,0,0-.15,1.27,2.4,2.4,0,0,0,.69.56,3.46,3.46,0,0,1,.15-1.37A1.49,1.49,0,0,1,419,345a.65.65,0,0,1,.88-.39c.55.2.86.68,1.33,2.91a4.12,4.12,0,0,0,.66.16c.33-1,.66-2.05,1-3.09a3.69,3.69,0,0,0-.7-.44c-.25.88-.53,1.76-.81,2.63,0-1.46-.15-2.8-1.33-3.2a1.23,1.23,0,0,0-1.62.76M409.71,364a2,2,0,0,0,.08,1.13l.44.15c-.1.16-.2.33-.3.51.29.14.53.23.73.31l.33-.56,1.22.42a1.49,1.49,0,0,0,1.89-.73c.81-1.44,1.59-2.91,2.33-4.37l0,0c.25-.53,0-1.1-.86-1.85l1.52.52c.15-.29.29-.6.43-.89l-3.21-1.1c-.23.39-.42.75-.62,1.15l0,.07c-.5,1.06-.4,2,1,2.45a2.5,2.5,0,0,0,.64.15c-.56,1.08-1.13,2.15-1.74,3.22-.23.42-.5.66-.91.51l-1.16-.4c.19-.33.38-.67.56-1a3.78,3.78,0,0,0-.67-.43c-.21.4-.44.78-.65,1.17-.36-.12-.66-.26-1-.41m7.4-15.77a2.26,2.26,0,0,0-.1.25,1.89,1.89,0,0,0,1.09,2.64,2.71,2.71,0,0,0,3.08-1.13l0-.07a2.58,2.58,0,0,0-1.66-2.83,1.91,1.91,0,0,0-2.44,1.15m-1.58,4.11-.05.12a3.13,3.13,0,0,0-.25,1.25,2.13,2.13,0,0,0,.66.55,3.35,3.35,0,0,1,.26-1.33l0-.07a.74.74,0,0,1,1-.46c.55.19.83.66,1.15,2.85a4.08,4.08,0,0,0,.66.17c.43-1,.85-2,1.24-3a3.57,3.57,0,0,0-.69-.44c-.33.86-.69,1.72-1,2.58.09-1.44.06-2.75-1.12-3.15a1.43,1.43,0,0,0-1.84.95m-6.8,15.39c-.41.89-.27,1.63,1,2.05,1,.33,1.63.17,1.9-.25l.07-.12c.23-.49,0-1-.81-1.75l1.52.52c.18-.28.35-.58.52-.86l-3.2-1.1c-.27.37-.51.71-.74,1.1a4.25,4.25,0,0,0-.22.4m6.82-13.07c-.23.7.25,1.26,1,1.73l-.32-.11A7.68,7.68,0,0,0,415,356l-.4.86c.43.11.78.21,1.19.35l2,.7.42-.9c-1.1-.38-2.19-1.13-1.79-2l.06-.11a6.61,6.61,0,0,0-1-.24M418.6,349a2.6,2.6,0,0,0,.32.7,2.53,2.53,0,0,0,.7-.35,2.62,2.62,0,0,0-.32-.7,2.59,2.59,0,0,0-.7.35m-2.7,11.14h0c-.12.23-.49.22-1.4-.09-.43-.14-.47-.37-.23-.9l.06-.13c.08-.17.14-.29.21-.42.53.41,1.57,1.08,1.36,1.53m-4.82,8.6,0,0c-.14.22-.53.22-1.43-.09-.37-.13-.43-.31-.26-.68a3.21,3.21,0,0,1,.18-.32l.25-.39c.5.39,1.48,1,1.28,1.46m9.76-18.94c-.13.27-.94.85-2.33.37a1.06,1.06,0,0,1-.75-1.45.92.92,0,0,1,.05-.13,1.08,1.08,0,0,1,1.45-.55c1.43.49,1.68,1.47,1.58,1.74v0m-12,22.1-.05,0a3,3,0,0,1-2.39.63c-.66-.22-.78-.68-.57-1.13a1.51,1.51,0,0,1,.13-.22,1.53,1.53,0,0,1,1.89-.5,1.51,1.51,0,0,1,1,1.18m-3.86-.56a1.43,1.43,0,0,0,.92,2.14,4,4,0,0,0,3.34-.79q1.67-1.05,3.31-2.13a1.68,1.68,0,0,0-1.69.07l-1.74,1.1a1.52,1.52,0,0,0-.92-2,2.91,2.91,0,0,0-3.22,1.6" transform="translate(-284.15 -263.11)" style="fill:#8e1837"/><path d="M429.92,312.2c-.15-2.73-.5-5.44-.81-8.15-.28-2.5-1-7.69-2.93-9.23-1.12-1-3-.35-3.63.87-.29.53-.6,1.05-.9,1.58a32.25,32.25,0,0,1-2,3.29c-1.9,2.56-3.76,5.15-5.8,7.6-.22.28-.47.53-.7.8a23.62,23.62,0,0,1-8.59,6.36,3,3,0,0,1-1.19.33c-.12-.11-.25-.22-.38-.35-.84-.84-1.66-1.7-2.52-2.53a55.83,55.83,0,0,1-4.25-4.85,2,2,0,0,1-.49-1.17,2.08,2.08,0,0,0-1.25-1.79.52.52,0,0,0-.42,0,3.28,3.28,0,0,0-.22-.56,1.62,1.62,0,0,0-.41-.43,2,2,0,0,0-1.19-.49A1.88,1.88,0,0,0,391,302a4.12,4.12,0,0,0-.78-.27,11.29,11.29,0,0,0-3.47-.24,36.59,36.59,0,0,1-3.94.06,36.32,36.32,0,0,0-16,2.94c-4.39,1.95-8.84,4.7-11.47,8.66a4.15,4.15,0,0,1-.8.9,14.85,14.85,0,0,0-2.11,2.07,6.9,6.9,0,0,0-.78,1.12,1.92,1.92,0,0,0,0,2.15.62.62,0,0,1,0,.14,1.32,1.32,0,0,1-.67.77c-.55.31-1.08.66-1.62,1a22.64,22.64,0,0,1-2.08,1.19,4.46,4.46,0,0,0-.46-.48.9.9,0,0,0-.53-.13,3.25,3.25,0,0,0-.77.18c-.05,0-.17.09-.22.06s-.1-.13-.14-.18a.86.86,0,0,0-.38-.31.81.81,0,0,0-.51,0,4.26,4.26,0,0,0-1,.73,2.06,2.06,0,0,1-.36,0,16.15,16.15,0,0,1-3-1.07c-5-2.35-8.26-7.22-10.22-12.23-1.78-4.77-1.69-9.9-1.9-14.92-.13-6.19-1.45-12.31-7.57-15.18a13.34,13.34,0,0,0-7.36-1.16c-.37.05-.76.07-1.12.13a9.77,9.77,0,0,0-8.48-2.84c-.63.12-1.28.26-1.94.36a.66.66,0,0,0-.18-.37.64.64,0,0,0-.9,0h0A.58.58,0,0,0,300,275a.63.63,0,0,0-.49.06h0a.6.6,0,0,0-.31-.19.67.67,0,0,0-.41,0,.63.63,0,0,0-1.1.07.26.26,0,0,1,0,0,1.35,1.35,0,0,0,0-.65,2.39,2.39,0,0,0-.76-1.16,6.78,6.78,0,0,0-.83-.66,4.56,4.56,0,0,1-2.11-2.86,4.39,4.39,0,0,1,.2-2,1.81,1.81,0,0,0-.5.93,5.26,5.26,0,0,0-.16,1.72,12.27,12.27,0,0,1-.54-1.12,20.19,20.19,0,0,1-1.48-5.94,2.6,2.6,0,0,0-.4,1.23,12.45,12.45,0,0,0,0,1.3,15.37,15.37,0,0,1-.19,2.65,4.45,4.45,0,0,1-.26-1.92c0,.12-.16.3-.21.41a4.63,4.63,0,0,0-.15.45,9.45,9.45,0,0,0-.25,1,6.19,6.19,0,0,0-.07,2,7.52,7.52,0,0,0,.62,2.07,7.19,7.19,0,0,0-.83-.75,7.55,7.55,0,0,0-1.44-.76,2,2,0,0,1,.64.63,6.7,6.7,0,0,0,.58.62c.69.73,1.39,1.43,2.09,2.14a9.67,9.67,0,0,0,2.9,2.11,3.17,3.17,0,0,0,1.27.31,6.67,6.67,0,0,0,1.3-.2h0a.64.64,0,0,0,0,.4.65.65,0,0,0,.29.38.67.67,0,0,0,.66,0l0,.09a.64.64,0,0,0,.38.29.63.63,0,0,0,.49-.06.67.67,0,0,0,.25-.28.65.65,0,0,0,.33.22.63.63,0,0,0,.49-.06.61.61,0,0,0,.29-.38v-.05h0a.63.63,0,0,0,1.08-.45c0-.08,0-.16,0-.24l1.6-.34a9,9,0,0,1,7.89,2.2s-.2.08-.22.09l-1,.33a20.07,20.07,0,0,0-4.9,2.4l-.38.23,0-.07a.65.65,0,0,0-.29-.38.63.63,0,0,0-.87.23l0,.05,0,0a.63.63,0,0,0-.86.23v0a.61.61,0,0,0-.55-.11.67.67,0,0,0-.34.25.63.63,0,0,0-1,.44c-.25-.19-.42-.49-.72-.6a3.17,3.17,0,0,0-1.72-.14,10.43,10.43,0,0,1-1.7.26,11.19,11.19,0,0,1-1.61,0,2.22,2.22,0,0,1-1.39-.66,4.1,4.1,0,0,0,.38.7,1,1,0,0,0,.5.43,9.23,9.23,0,0,0-1.66-.25,3.1,3.1,0,0,0-1.62.36,3.09,3.09,0,0,1,1.53.18,7,7,0,0,0,1.69.22,6.22,6.22,0,0,1-1.46,0l-1-.16a7.37,7.37,0,0,0-2.58.17,5.9,5.9,0,0,0-2.86,1.69c.11-.12.58-.13.73-.15a5,5,0,0,1,2.49.35,7.34,7.34,0,0,0,2.42.64,4.51,4.51,0,0,1-2.78,0,4.76,4.76,0,0,0,2.11.45,4.53,4.53,0,0,1-1.95.24,3,3,0,0,1,.64.26,6.42,6.42,0,0,0,.7.19,6.56,6.56,0,0,0,1.48.14,6.69,6.69,0,0,0,1.47-.19c.49-.12.93-.35,1.41-.48a8.5,8.5,0,0,0-1.19,2c.11-.32.64-.61.87-.82a4.36,4.36,0,0,1,1.07-.73,16.09,16.09,0,0,1,2.53-1c.36-.1.74-.2,1.09-.32a5.83,5.83,0,0,0,1-.45,2.19,2.19,0,0,0,.45-.35l0-.06v0a.64.64,0,0,0,.78.44.66.66,0,0,0,.36-.28.6.6,0,0,0,.32.09.65.65,0,0,0,.45-.19.67.67,0,0,0,.18-.37.57.57,0,0,0,.28.07.64.64,0,0,0,.45-.18.75.75,0,0,0,.14-.21.57.57,0,0,0,.27.06.63.63,0,0,0,.63-.63c0-.2,0-.39-.05-.59.28-.15.52-.35.79-.52a19,19,0,0,1,5.79-2.59,3.89,3.89,0,0,1,.55-.06,18.3,18.3,0,0,1,3.55,6q.26.71.5,1.44a9.24,9.24,0,0,1,.42,1.46,3.45,3.45,0,0,0-.83-.69,8.44,8.44,0,0,0-2.34-1.22c-3.71-1.32-7.71,0-10.93,2-.3.18-.58.38-.87.58l-.14-.23a.67.67,0,0,0-.38-.29.66.66,0,0,0-.49.06.64.64,0,0,0-.29.38.7.7,0,0,0,0,.13.63.63,0,0,0-.76.44.06.06,0,0,1,0,0h0a.64.64,0,0,0-.49.06.65.65,0,0,0-.29.37.69.69,0,0,0-.31-.08.65.65,0,0,0-.45.18.64.64,0,0,0-.18.45c0,.06,0,.11,0,.17a.65.65,0,0,0,.16.28l0,0h-.09a10.4,10.4,0,0,0-1.23,0,2.26,2.26,0,0,0-1.07.6,16,16,0,0,0-2.34,2.69,4.93,4.93,0,0,1-1.26,1.3,3,3,0,0,1-1.7.72.82.82,0,0,0,.65.19,2.44,2.44,0,0,0,.66-.2l.59-.25a3,3,0,0,0-.56,1,5.91,5.91,0,0,0-.18,1.19,5.53,5.53,0,0,1-.38,1.77,2.18,2.18,0,0,1-1,1.16,2.66,2.66,0,0,0,1.18-.85,3.7,3.7,0,0,0,.67-1.3,6.77,6.77,0,0,0,1.43,4.78,5.51,5.51,0,0,1,.31-4,22.33,22.33,0,0,1,0,2.76c0,.58,0,1.16-.08,1.73a3.24,3.24,0,0,1-.46,1.59,8.72,8.72,0,0,0,1.57-3.09,17.38,17.38,0,0,0,.85-3.62,5.7,5.7,0,0,0,.55,2.2,6,6,0,0,1,.12-3.06,5.45,5.45,0,0,1,1.77-2.34,6.09,6.09,0,0,0,1.19-1.27,2,2,0,0,0,.36-1.72,2.45,2.45,0,0,1-.06-.37l.16,0a.64.64,0,0,0,.45-.19.67.67,0,0,0,.18-.33.61.61,0,0,0,.59-.58.61.61,0,0,0,.39-.08.64.64,0,0,0,.29-.38.63.63,0,0,0,0-.12.63.63,0,0,0,.72-.45.66.66,0,0,0-.06-.49l-.2-.33c4.55-3.15,10.42-4.67,14.71-.13a1.63,1.63,0,0,1,.4.8c.29,1.23.6,2.46.89,3.69q1.49,6.4,3.49,12.65a52.81,52.81,0,0,0,2.44,6.38c1.38,3,2.84,6,5.39,8.18a20,20,0,0,0,9.36,4.38c.06,0,0,.15,0,.23a.64.64,0,0,0,.3.43.64.64,0,0,0,.39.09c.11,0,.25-.11.34-.09s.26.26.34.34.27.32.31.32a6.47,6.47,0,0,1-3-.38,20.92,20.92,0,0,1-8.71-5.63,18,18,0,0,1-2.72-3.48c-1.13-1.68-2.25-3.36-3.32-5.08-1.25-2-2.45-4.08-3.68-6.11a37.93,37.93,0,0,0-4.12-5.72,16,16,0,0,0-3.81-3.22,7.87,7.87,0,0,0-7.21-.55,12.64,12.64,0,0,0-3.77,2.38c-.36.32-.72.64-1.07,1l-.32-.21a.64.64,0,0,0-.49-.06.64.64,0,0,0-.44.78l0,.07h0a.64.64,0,0,0-.78.44.66.66,0,0,0,.09.52.63.63,0,0,0-.7.45.75.75,0,0,0,0,.32.63.63,0,0,0,0,1.21c-.1,0-.23,0-.32.08a2.28,2.28,0,0,0-.9.56,4,4,0,0,0-.73,1.19,5.6,5.6,0,0,0-.36,1.93c-.09,1.49-.32,3.1-1.59,4.08a3.12,3.12,0,0,0,2-1.55,1.75,1.75,0,0,0,0,.45c0,.18,0,.35,0,.53a4.52,4.52,0,0,0,2.47,4.1c.32.17.67.3,1,.47a7.31,7.31,0,0,1,1.61,1.21,2.32,2.32,0,0,0-.43-.7,4.11,4.11,0,0,1-.73-1.65,4.27,4.27,0,0,0,1,1.21c.33.24.71.38,1,.61l-1.11-1.24a16.41,16.41,0,0,1,1.91,1.5,11.3,11.3,0,0,0,1.42,1.29c-.08-.21-.11-.3-.14-.39a11.32,11.32,0,0,0-1.58-2.49c-.5-.65-1-1.3-1.51-1.92a3.61,3.61,0,0,1-.73-1.07c.07.19.38.41.53.54a8,8,0,0,0,1.09.74,9.15,9.15,0,0,0,1.27.68,5.85,5.85,0,0,1-2-2.12,5.51,5.51,0,0,1-.54-2.69c0-.47.14-.91.19-1.37s.08-1,.08-1.55a2.6,2.6,0,0,0-.71-1.92c-.11-.1-.22-.17-.31-.24h0a.64.64,0,0,0,.78-.44.66.66,0,0,0,0-.24.63.63,0,0,0,.26-.35.7.7,0,0,0,0-.31.66.66,0,0,0,.35-.28.65.65,0,0,0,0-.56.64.64,0,0,0,.36-.28.65.65,0,0,0,.06-.49.69.69,0,0,0-.26-.36,11.54,11.54,0,0,1,5.56-3.46c5.38-1.4,9.59,4.28,12.18,8.22,4.66,7.18,8.78,16.67,16.61,20.68a14.73,14.73,0,0,0,4.91,1.65,8.53,8.53,0,0,0,1.36.06,11.1,11.1,0,0,1,1.26,0,.62.62,0,0,0,.4.71.7.7,0,0,0,.78-.27.77.77,0,0,0,.71.35.4.4,0,0,0,.38-.28c1.44.35,2.92.51,4.39.74.19,0,.4,0,.55.23-.89,1.14-3.27,3.61-4.74,3.72-.7.07-1.4.22-2.11.25a8.65,8.65,0,0,0-2.08.41c-2.53.76-4.1,3-5.45,5.15a25.33,25.33,0,0,0-1.56,3.12,1.26,1.26,0,0,1-.78.75,67.13,67.13,0,0,1-15.51,3.79c-7.19,1-14.66,1.74-21.18,5.17-5.64,2.92-10.18,8.44-10.84,14.88l0,0a3.31,3.31,0,0,0,.51.27,7.57,7.57,0,0,1,3.9,3.86,22.85,22.85,0,0,1,1.67,4.07c1.08,3.64,2.11,7.29,3.06,11,1.46,5.9,3.64,12,8.42,16.07a16.25,16.25,0,0,0,6.86,3.58,3.81,3.81,0,0,0,1.28.07,1,1,0,0,0,.77-.43c2.9-3.81,5.77-7.63,8.66-11.44.14-.18.28-.37.54-.38,2.3.85,7.94,4.23,9,5.39a51.61,51.61,0,0,1-7,6.73c-2.77,2.32-5.48,4.73-8.32,7a2.93,2.93,0,0,0-.86,1,7.75,7.75,0,0,0-.28,5c1.59,6.95,6,12.93,11.15,17.74,15.58,14.79,39.09,19.13,59.66,14.5L382,448.09A14.3,14.3,0,0,1,380.57,435c1.56-4.56,4.92-8,8.19-11.45a181.23,181.23,0,0,1,14-12.8,110.52,110.52,0,0,0,9.83-8.58c1.39-1.49,2.86-3.45,2.67-5.49a1.88,1.88,0,0,0-1.23-1.52,8.14,8.14,0,0,0-1.19-.49,8.82,8.82,0,0,1-1.83-.9,15.69,15.69,0,0,1-6-7.74c-.26-.85-.46-1.68.27-2.39a86.67,86.67,0,0,0,14.19-17.34,57.76,57.76,0,0,0,4.62-9.39,70.08,70.08,0,0,0,4.65-17.09,141.76,141.76,0,0,0,1.15-27.57m-25,4.36c1.8-1.36,2.53-1.58,3.81-2.6a31.36,31.36,0,0,0,3.45-3c2.87-2.69,4.93-6.08,7.52-9a23.27,23.27,0,0,0-1.17,3.28c-.56,2.1-1.14,4-1.72,6-.48,1.65-.9,3.34-1.4,5A118.83,118.83,0,0,1,411,328.62a11.64,11.64,0,0,0-3.18-8.23,38.9,38.9,0,0,0-2.76-2.91,1.82,1.82,0,0,1-.48-.62,2.83,2.83,0,0,1,.33-.3m-12.68-12.66c1.06.31,1.33.61,1.37,1.71a3.23,3.23,0,0,0-1.49-1.29l.12-.42m.26,1a1.49,1.49,0,0,1,.65.71,1.3,1.3,0,0,1,.09.88,2.13,2.13,0,0,1-.24.42,2.75,2.75,0,0,0-1.45-1.42c.15-.28.32-.55.41-.71a.7.7,0,0,1,.54.13m-37.35,18.15c-.89.09-1.27-.18-1.44-1a1.9,1.9,0,0,1,0-.89.74.74,0,0,1,.33-.52l1,.16a2.5,2.5,0,0,0,.1,2.27m-.18-2.69a.44.44,0,0,1-.33-.28,1.65,1.65,0,0,1,.7-2c.11-.05.28,0,.43,0a3,3,0,0,0,0,2.27,1.3,1.3,0,0,1-.79,0m.44.59a.37.37,0,0,1,.15-.13,6,6,0,0,1,1.08,0,3,3,0,0,0,.3,2.13,1.42,1.42,0,0,1-1,.17.72.72,0,0,1-.39-.21,1.37,1.37,0,0,1-.36-.83,2,2,0,0,1,.19-1.1m1.65-.65a1,1,0,0,1-.77,0,1.65,1.65,0,0,1,0-2.1.43.43,0,0,1,.59-.14,3.28,3.28,0,0,0,.17,2.2m.1.44,1-.12a8.29,8.29,0,0,0,0,1.13,7.32,7.32,0,0,0,.3,1l-.51.14a.59.59,0,0,1-.71-.28,1.7,1.7,0,0,1-.28-.85,1.34,1.34,0,0,1,.21-1.06m.5-.5a1.67,1.67,0,0,1-.17-2.2,2.35,2.35,0,0,1,.33-.06,2.31,2.31,0,0,1,.36,0,8.51,8.51,0,0,0,.06,1.07,8.37,8.37,0,0,0,.33,1.06,1.65,1.65,0,0,1-.92.12m.83.73a.54.54,0,0,1,.17-.32.59.59,0,0,1,.2-.09,1.44,1.44,0,0,1,.75-.09,2.25,2.25,0,0,0,0,1.35c.05.21.14.43.22.69a.91.91,0,0,1-.76.16.5.5,0,0,1-.3-.2,2.11,2.11,0,0,1-.35-1,2,2,0,0,1,0-.53m.82-.91a1.28,1.28,0,0,1-.63-.9,1.59,1.59,0,0,1,.07-1.29l1-.14a4.73,4.73,0,0,0,.43,2.18l-.92.15m.85-2a.4.4,0,0,1,.35-.43c.24-.05.49-.09.75-.13.05.41.07.78.16,1.15a10.44,10.44,0,0,0,.33,1,1.94,1.94,0,0,1-1.07.16,2.68,2.68,0,0,1-.52-1.76m-.14,2.57a.36.36,0,0,1,.32-.29,3.17,3.17,0,0,1,.9-.12,2.77,2.77,0,0,0,.09,1,5.68,5.68,0,0,0,.41,1,4.71,4.71,0,0,1-1.25.3,2,2,0,0,1-.46-1.92m1.69-.52,1.1-.24c.14.67.28,1.33.41,2-.35.24-.36.24-1,.29a2.11,2.11,0,0,1-.52-2m.7-.55a.89.89,0,0,1-.54-.64,6.59,6.59,0,0,1-.21-.76,2.46,2.46,0,0,1,.06-.77c.2-.05,1-.33,1.08-.2s.08.43.1.57a4.8,4.8,0,0,0,.12.51,11,11,0,0,0,.44,1l-1.06.24M389.2,305a1.69,1.69,0,0,1,1.14.82.6.6,0,0,1-.07.83c-.12.13-.26.24-.43.4a3.33,3.33,0,0,0-1.39-1.65.43.43,0,0,1,.32-.36.79.79,0,0,1,.44,0m-.08-.35,0-.09a1,1,0,0,1,.29-.4A.92.92,0,0,1,390,304a1.79,1.79,0,0,1,1.07.51.65.65,0,0,1,.11.89c-.08.13-.17.25-.27.39-.07,0-.16-.06-.19-.11a2.48,2.48,0,0,0-.66-.7,2.75,2.75,0,0,0-.41-.24,2.39,2.39,0,0,0-.53-.14m-.51,1.38a1.78,1.78,0,0,1,.82,1.32,2.7,2.7,0,0,1-.26.27,2.32,2.32,0,0,1-.33.23h0a3.58,3.58,0,0,0-.31-.64c-.14-.18-.25-.39-.41-.56a5.21,5.21,0,0,0-.53-.45c.17-.31.37-.38.62-.32a1.36,1.36,0,0,1,.42.17m-.8.84a2,2,0,0,1,.55,1.3,1.83,1.83,0,0,1-.8.59,3,3,0,0,0-1.12-1.8l.62-.46a.91.91,0,0,1,.75.36m-.7,1.95a.41.41,0,0,1-.16.4l-.69.5a4,4,0,0,0-1.09-1.83,3,3,0,0,1,.92-.66,2.07,2.07,0,0,1,1,1.59m-1.28,1.11a2.36,2.36,0,0,1-.81.55c-.2-.06-.18-.24-.24-.37a3.77,3.77,0,0,0-.87-1.4s0-.09,0-.16a2.68,2.68,0,0,1,.91-.44,2.39,2.39,0,0,1,1,1.82m-1.81-.55a2.38,2.38,0,0,1,.46,1.4,3.6,3.6,0,0,1-1.09.63,3.5,3.5,0,0,0-.93-2,2.33,2.33,0,0,1,.25-.2l.64-.35a.93.93,0,0,1,.67.5m-1,2a.39.39,0,0,1-.2.38l-.91.48c-.14-.39-.24-.75-.39-1.08a9.58,9.58,0,0,0-.57-.92,5,5,0,0,1,1.15-.61,2.26,2.26,0,0,1,.92,1.75m-1.91-.21a1.91,1.91,0,0,1,.28,1.32,3.38,3.38,0,0,1-1.1.53,6.16,6.16,0,0,0-.87-1.9c.08-.27.31-.29.48-.39s.36-.17.55-.25c.36.1.52.41.67.69m-1.66.83a2.37,2.37,0,0,1,.3,1.23c-.15.23-.41.28-.63.39l-.64.29a1.49,1.49,0,0,1-.19-.22c-.25-.52-.5-1-.74-1.57a.77.77,0,0,1,0-.22,7,7,0,0,1,1.38-.61,1.46,1.46,0,0,1,.56.71m-1.58,2.14a6.66,6.66,0,0,1-1.66.73l-.84-2a11.39,11.39,0,0,1,1.59-.73,4,4,0,0,1,.91,2m-2.13,1a13.81,13.81,0,0,1-1.71.73,6.08,6.08,0,0,1-.83-2,10.33,10.33,0,0,1,1.64-.74,5.92,5.92,0,0,1,.9,2.06m-2.34.94a7.51,7.51,0,0,1-1.75.67,6,6,0,0,1-.73-2,1.57,1.57,0,0,1,.31-.2,5.45,5.45,0,0,1,1.44-.47,11.65,11.65,0,0,1,.72,2m-2.29.82a9.49,9.49,0,0,1-1.67.64,2,2,0,0,1-.24-.35,4.08,4.08,0,0,1-.41-1.69,10,10,0,0,1,1.64-.63c.23.7.45,1.36.68,2m-2.27.76a4.88,4.88,0,0,1-1.41.54,3.46,3.46,0,0,1-.7-2,1.73,1.73,0,0,1,.76-.34l.78-.26.58,2m-2,.6a1.79,1.79,0,0,1-1.22.39,2.53,2.53,0,0,1-.62-1.94,2.45,2.45,0,0,1,1.23-.37c.09.36.17.7.27,1s.23.6.34.9m-1.71.48c0,.15-.15.19-.28.21a2.66,2.66,0,0,1-.89.16,1.62,1.62,0,0,1-.62-1,1.37,1.37,0,0,1,0-1.06,4.29,4.29,0,0,1,1.19-.24c.07.35.13.69.22,1s.23.6.35.91m-1.81,1.11a2.37,2.37,0,0,1,1.28-.37l.53,1.88a2.88,2.88,0,0,1-1.43.45,3.26,3.26,0,0,1-.38-2m1.68-.52.73-.21.33-.09a.82.82,0,0,1,.24-.09s.27.82.29.87l.36,1.09a4.1,4.1,0,0,1-1.32.41,4.27,4.27,0,0,1-.63-2m1.76-.41a4,4,0,0,1,1.48-.53l.63,1.64a.64.64,0,0,1,.09.22,8.28,8.28,0,0,1-1.55.55,5,5,0,0,1-.65-1.88m1.89-.65a6.94,6.94,0,0,1,1.6-.54,9.94,9.94,0,0,1,.71,1.87l-1.55.55a1.82,1.82,0,0,1-.21-.37,9.87,9.87,0,0,1-.55-1.5m2.06-.68a7.84,7.84,0,0,1,1.6-.62,8.4,8.4,0,0,1,.78,1.87,8.81,8.81,0,0,1-1.63.58,6.45,6.45,0,0,1-.75-1.82m2.08-.69a8,8,0,0,1,2.12-.86l.68,1.75a3.21,3.21,0,0,1-1,.5c-.32.14-.69.26-1,.41-.09-.13-.56-1.32-.74-1.8m2.48-1.07a16.11,16.11,0,0,1,1.59-.72,5.72,5.72,0,0,1,.73,1.76,3.28,3.28,0,0,1-1.58.75,9.62,9.62,0,0,1-.74-1.79m2.05-.91a11.86,11.86,0,0,1,1.52-.69,6.7,6.7,0,0,1,.8,1.79,1.92,1.92,0,0,1-.34.2l-1.27.6c-.07-.11-.51-1.34-.72-1.9m1.94-.81a5.28,5.28,0,0,1,1.45-.72,4.68,4.68,0,0,1,.79,1.67,3.36,3.36,0,0,1-1.48.76,14.24,14.24,0,0,1-.77-1.71m1.83-.9a2.33,2.33,0,0,1,.28-.21l.91-.47a4.37,4.37,0,0,1,.92,1.74,4.43,4.43,0,0,1-1.28.69c-.14-.32-.26-.62-.4-.9s-.28-.54-.44-.84m1.57-.91,1.16-.63a3.3,3.3,0,0,1,1.09,1.68,3,3,0,0,1-.79.49c-.17.09-.35.16-.52.24l-.94-1.77m1.51-.81a9.05,9.05,0,0,1,1.13-.64,3,3,0,0,1,1,1.68,3.71,3.71,0,0,1-1,.62,7.81,7.81,0,0,0-1.2-1.65m1.53-.86a3.45,3.45,0,0,1,.9-.65,1.17,1.17,0,0,1,.74.51,1.85,1.85,0,0,1,.44,1.17l-1,.64a6.92,6.92,0,0,0-1.1-1.67m1.31-.89a2.31,2.31,0,0,1,.77-.58,1.14,1.14,0,0,1,.85.55,1.4,1.4,0,0,1,.35,1.09l-.67.5a.26.26,0,0,1-.09-.1,3.31,3.31,0,0,0-1.2-1.46m1.21-.89.9-.66a2,2,0,0,1,1.18,1.69l-.85.64a1.31,1.31,0,0,1-.08-.17,2.79,2.79,0,0,0-1.15-1.5m2-.21a5.36,5.36,0,0,0-.77-.66s.39-.36.52-.5a.62.62,0,0,1,.76-.14,1.47,1.47,0,0,1,1,1.28,3.3,3.3,0,0,1-.92.9,6.61,6.61,0,0,0-.55-.88m.48-1.7c-.07-.15.1-.26.17-.36l.48-.61a1.81,1.81,0,0,1,1.3,1.22.76.76,0,0,1,0,.43.71.71,0,0,1-.17.25l-.33.39a3,3,0,0,0-1.42-1.33m1-2.56s-.07.06-.11.09a5.56,5.56,0,0,1-.52-.35c-.12-.07-.25-.15-.37-.21a1.55,1.55,0,0,0-1.16-.13,1.56,1.56,0,0,1,.11-.34l0-.06a.21.21,0,0,1,.09,0,1.8,1.8,0,0,1,1.06-.09,1.34,1.34,0,0,1,.78.5.57.57,0,0,1,.09.63m-1.27-2.09a1.53,1.53,0,0,1,1.3,1.09c0-.07-.12-.14-.18-.17a3,3,0,0,0-.91-.31,1.69,1.69,0,0,0-1.26.24.5.5,0,0,0-.25-.25,2.94,2.94,0,0,1,.59-.5,1.15,1.15,0,0,1,.71-.11m-1.93.06a.66.66,0,0,1,.1-.15c.28-.32.66-.24,1-.14a2.35,2.35,0,0,0-.83.73l-.32-.07,0,0a.07.07,0,0,1,0,0,.77.77,0,0,1,.07-.31m-1.09-.11a.62.62,0,0,1,.11-.27l0,0h.34a.58.58,0,0,1,.35.13,4.45,4.45,0,0,0-.17.49,2.51,2.51,0,0,0-.66-.12.78.78,0,0,1,0-.19M354.5,316.88c2.44-6.87,10.49-10.89,17-13a29.79,29.79,0,0,1,5-1.1,27,27,0,0,1,10,.05,2.71,2.71,0,0,1,2,1.35,2.34,2.34,0,0,1-.74,1.16c-.4.34-.81.69-1.23,1a65.13,65.13,0,0,1-13.29,6.94,55.22,55.22,0,0,1-16,4.34,6.12,6.12,0,0,1-2.12-.07,2.15,2.15,0,0,1-.36-.12.51.51,0,0,1-.29-.56m0,1.1a1.64,1.64,0,0,1,.26.05c0,.26-.28.41-.35.65a4.2,4.2,0,0,0-.18.73,7.78,7.78,0,0,0,0,.85c-.26-.06-.46-.09-.65-.15a.49.49,0,0,1-.37-.51,1.66,1.66,0,0,1,1.09-1.58.61.61,0,0,1,.22,0m-2,2.73a2.06,2.06,0,0,1,.34-.47l.72.29a4.86,4.86,0,0,0-.22,1.27,5.69,5.69,0,0,0,.31,1.24,3.4,3.4,0,0,1-1-.94,1.51,1.51,0,0,1-.15-1.38M352.2,319a1.55,1.55,0,0,1,1.32-1.34s.09,0,.17.06a5.45,5.45,0,0,0-.67.87,6,6,0,0,0-.29,1.07c-.46-.17-.55-.28-.52-.66m1.37-3.55a.62.62,0,0,1,.41-.27c.06,0,.13.06.22.11l-.33.69a1.52,1.52,0,0,1-.5-.24s.18-.26.2-.29m-.23.59c.25,0,.33.16.38.52H352.6c.17-.33.36-.58.74-.52m-1.53,1.81a1.34,1.34,0,0,1,1.13-.9l.34,0a2.4,2.4,0,0,0,.35,0c-.27.17-.51.4-.78.58a2.38,2.38,0,0,0-.64.55,3.51,3.51,0,0,0-.26.39c-.05.09-.21.34-.19.44a1.85,1.85,0,0,1,.06-1.06m-.26,3.13a4.35,4.35,0,0,1,.44-1s.12-.06.19-.06.08.06.12.09a4.07,4.07,0,0,0-.28,1,3.54,3.54,0,0,0,.16,1.33,1.79,1.79,0,0,1-.55-.67,1.14,1.14,0,0,1-.07-.69m.17,3.11c0,.13,0,.27-.07.4a5.18,5.18,0,0,1-1.52.24c.1,0,.31-.16.39-.19l.44-.17c.26-.09.48-.21.75-.28m-4.14-1c.89-.48,1.76-1,2.63-1.51l.86-.5a3.67,3.67,0,0,0,.45,1.75c0,.06-.52.42-.59.47a15.1,15.1,0,0,1-2.53,1.3.86.86,0,0,0-.49-.59,1.18,1.18,0,0,0-.79,0,1.25,1.25,0,0,0-.64.28.76.76,0,0,0-.24-.27,9.9,9.9,0,0,1,1.35-.93M318.66,294.7c-.27-1.06-.54-2.11-.72-3.19a7,7,0,0,0-.19-.78c2.15,3.15,2.89,7,3.36,10.74a34.22,34.22,0,0,1,.48,4c-.9-3.62-2-7.18-2.92-10.8m20.74,28.53a2.9,2.9,0,0,0-.5.47c-.12.13-.2.28-.31.43-2.45,0-6.78-3.17-8.65-4.8-5.46-4.59-6.9-9.3-7.8-16.14-.61-4.8-1.26-10-4.42-13.83a3.53,3.53,0,0,1-.73-1.48c-.33-1.3-.8-2.55-1.26-3.82a24.84,24.84,0,0,0-3.24-5.5c5-.74,10.38,1.44,12.7,6.13,1.93,3.75,1.81,8.07,2,12.18.18,4.92.47,9.93,2.67,14.44,2.54,5.46,6.88,10.37,12.94,11.78-.48.22-1,.36-1.47.6a.25.25,0,0,0-.22-.27.69.69,0,0,0-.38.07c-.06-.66-1-.52-1.35-.25m4.47,1.8a1.28,1.28,0,0,0-.44-.14,1.38,1.38,0,0,0-1.38.32c-.12.12-.21.26-.33.37l0,0-.07,0-.74-.33a4.75,4.75,0,0,1,.36-.51,1.2,1.2,0,0,1,.4-.31,5.31,5.31,0,0,1,.91-.33c.22-.06.16,0,.24.15a.43.43,0,0,0,.27.24.5.5,0,0,0,.52-.17.44.44,0,0,0,.49.46,2.63,2.63,0,0,0,1.43-.6,5,5,0,0,0,.42.54s-.1.32-.13.37-.12.24-.19.36a1,1,0,0,1-.15.21c-.22.25-.64.09-.93.16l-.41-.56a.88.88,0,0,0-.22-.24m.17,1.75c.36-.41.95-.29,1.43-.32a.38.38,0,0,0,.24.32.84.84,0,0,0,.41,0,.84.84,0,0,0,.68-.38.19.19,0,0,1,.05-.08l.07,0a16.7,16.7,0,0,1,3.23-.45l.42,0a4.53,4.53,0,0,1-.86,1.06,28.39,28.39,0,0,1-5.68-.17m4.48,2.61a13.88,13.88,0,0,1,4.91-4.43,9.43,9.43,0,0,1,3.17-1,58.85,58.85,0,0,0,6.1-1.1c-3.38,2.36-7,4.36-10.46,6.56,2.08-1.14,4.17-2.28,6.29-3.34,3.11-1.68,6.42-2.95,9.62-4.45,3.82-1.76,7.93-2.88,11.6-5a25.74,25.74,0,0,0-7.77,7.44,9.24,9.24,0,0,1,2.38-2,24.5,24.5,0,0,1,3.06-1.59c1.77-.81,3.59-1.51,5.39-2.27a11.39,11.39,0,0,0,4.1-2.79c.28-.32,1.62-1.56.5-1.72a1.51,1.51,0,0,0-.62.09l-2.35.7a18.86,18.86,0,0,0,3.94-2.25,36.74,36.74,0,0,0,4-3.35l.57-.59a3.27,3.27,0,0,0,.45-.6,16.5,16.5,0,0,0,.26,4.05,2.22,2.22,0,0,1,.1.54,6.47,6.47,0,0,1,.71-2.77c.18-.31.72-1.14,1.09-1.06.18,0,.31.31.42.45l.59.73a94.94,94.94,0,0,0,7,7.27c1.36,1.33,2.57,2.79,4,4.06a9.52,9.52,0,0,1,3.06,5.61c.54,4.49-1.9,9.28-5.36,12.06a10.62,10.62,0,0,1-5.3,2.3c-5,.74-10,0-14.94-.74-3-.45-5.94-1.24-8.89-1.9-4.65-1.16-9.26-2.52-14-3.48A83.36,83.36,0,0,0,352,332.79a33.89,33.89,0,0,0-5.43-.54,3.19,3.19,0,0,1-.43-.07c.84-1,1.56-1.82,2.42-2.78m-14.91,12c2.53-6.35,7.74-8.58,14.28-8.41a52.55,52.55,0,0,1,10.93,1.61c4.55,1.13,9.25,2.33,13.78,3.45,2.3.57,4.43,1.06,6.74,1.62l1.42.37.18,0-.18,0c-.3-.05-.63,0-.92-.05l-1.43-.11a38,38,0,0,0-5.6-.22c-2.35.14-4.67.51-7,.75-2.06.22-4.12.48-6.16.83a127.55,127.55,0,0,0-15.82,3.11c4.4-.77,8.77-1.57,13.19-2.08a5.28,5.28,0,0,1,1.38,0A100.42,100.42,0,0,0,344,348c-4.71,2.18-9.09,5-13.74,7.28a18.38,18.38,0,0,1-3.51,1.27,11.07,11.07,0,0,0,3-4.49c1.36-3.54,2.31-7.22,3.85-10.7m-33.11,9.06a10.79,10.79,0,0,1,2.77-1c4.59-1.11,9.39-1.55,14-2.25a64.25,64.25,0,0,0,14.14-3.75,3.86,3.86,0,0,1-.07.39c-.74,2.24-1.46,4.47-2.21,6.69-.64,1.92-1.72,4.25-3.4,5.46-2.71,1.77-6.1.62-8.89-.34-1.84-.63-3.66-1.32-5.48-2-3.46-1.27-7.09-3.11-10.85-3.07-.21,0-.24,0,0-.14m11.14,50.32c-.32-3.18-1.77-5.7-2.44-8.73a4.15,4.15,0,0,1-.1-1.38c.39-.57,2.26-.19,2.91-.13a28,28,0,0,1,5.85,1.19,1.18,1.18,0,0,1,.73.42,63.07,63.07,0,0,1-6.94,8.63m5.18,10.77c.21-.18.39-.37.6-.55,1-.88,2-1.77,3-2.67,1.65-1.5,3.22-3,4.73-4.66s2.92-3.45,4.4-5.14c4.32,3.27,11.48,10.51,13.06,15.68.15.75.17,1.1-.83,1.4-3.56,1.07-7.38.63-10.94-.24-4.19-1-7.32-2.77-12.67-3.63a8.75,8.75,0,0,0-1.59,0l.2-.17m89.38-20.74a19,19,0,0,0,2.81,3.17c.19.17.37.34.55.52a.28.28,0,0,1-.09.45,1.57,1.57,0,0,1-.43.14c-3.38.54-8.93,1-12-.58a.72.72,0,0,1-.37-1,4.87,4.87,0,0,1,.52-1,51.65,51.65,0,0,1,5.71-6.88,4.28,4.28,0,0,1,.93-.8c.1.52.19.94.28,1.36a12.27,12.27,0,0,0,2.12,4.58m23.29-68a109.58,109.58,0,0,1-3.58,27,80.43,80.43,0,0,1-5.47,13.49c-1.3,2.46-2.89,4.76-4.39,7.1A56.59,56.59,0,0,1,408,379.6c-2.49,2.46-5.14,4.75-7.49,7.35a32.54,32.54,0,0,0-3.51,4.39,33.49,33.49,0,0,1,1.36-4.79c.9-2.84,1.9-5.65,2.63-8.54.63-2.71,1.12-5.44,1.64-8.16a60.79,60.79,0,0,0,1-6.47l-2.44,11.84c-1.12,5.49-3.18,10.7-5,16-.25.71-.51,1.43-.74,2.15a4.3,4.3,0,0,0-.16,1.11.69.69,0,0,0,.3.75,5.33,5.33,0,0,0,1.19.48,12.42,12.42,0,0,0,1.56.38,24.73,24.73,0,0,0,6,.42c2-.13,4.08-.34,6.12-.49a7,7,0,0,1,1.74.13,2.87,2.87,0,0,1,.7.28,1.66,1.66,0,0,1,.9,1.83,3.64,3.64,0,0,1-.47,1.27,18.18,18.18,0,0,1-3.73,4.17c-4.16,4-8.86,7.39-13.14,11.27-2.71,2.32-5.37,4.7-7.87,7.25-4.28,4.27-8.57,9.1-9.87,15.18a16.81,16.81,0,0,0,1.78,11.21,73.34,73.34,0,0,1-13.87,1.28,54.18,54.18,0,0,1-7.42-.4c-10.44-1.14-20.76-4.57-29.29-10.79a57.05,57.05,0,0,1-6.77-5.85c-4.3-4.3-8-9.56-9.27-15.58a11.09,11.09,0,0,1-.21-2.49c0-1.35,1.22-1.53,2.3-1.63a13,13,0,0,1,3.38.35c4.31.92,8.4,2.62,12.67,3.64a28,28,0,0,0,5.08.79,13.49,13.49,0,0,0,4.37-.36,3.14,3.14,0,0,0,2.66-2.49,83.39,83.39,0,0,0,1.51-8.67c.22-1.75.47-3.51.77-5.25a168.5,168.5,0,0,1,4.69-22,80.81,80.81,0,0,1,5.12-12.74,19.46,19.46,0,0,0-1.54,2.76L353.4,372a101.24,101.24,0,0,0-5.92,17.6c-1.47,6-3.43,16.27-4.43,21.58a3.49,3.49,0,0,0-.4-.86,31.23,31.23,0,0,0-2-3,53.37,53.37,0,0,0-15.36-13.93,36.46,36.46,0,0,0-11.8-4.67,9.88,9.88,0,0,0-1.35-.19s-.16,0-.16,0,.1-.1.13-.13a87.09,87.09,0,0,0,11.79-10.58,78,78,0,0,0,8.32-10.66,87.84,87.84,0,0,1-8.91,10.34,60,60,0,0,1-9.05,7.72,43.68,43.68,0,0,1-5,2.88,13,13,0,0,0-1.51.85,3,3,0,0,0,0,.93,31.87,31.87,0,0,0,1.37,5.36c.52,1.59,1,3.19,1.36,4.81a7.35,7.35,0,0,1,.12,1.59,1.72,1.72,0,0,1-1.81,1.73,7.07,7.07,0,0,1-2.86-.68c-4.94-2.38-8.09-7.25-9.95-12.25-1.89-5.53-3.08-11.27-4.85-16.84a23.6,23.6,0,0,0-1.92-4.54,9.38,9.38,0,0,0-3.52-3.76c1-5.47,4.56-10.68,9.75-13a9.76,9.76,0,0,1,4.6-.73,30.67,30.67,0,0,1,3.38.42c3.24.62,6.25,2,9.33,3.14l5.83,2.15a15.88,15.88,0,0,0,3.62.8,3.83,3.83,0,0,0,.61,0,15.37,15.37,0,0,0,5.94-1.4c5.47-2.68,10.63-6,16.19-8.5,9.71-4.66,20.34-7.92,31.21-7.35,3.71.19,7.41.55,11.11.9,2.52.24,5,.51,7.56.57a45.94,45.94,0,0,0,5-.17,8.73,8.73,0,0,0,3.79-1.24c4.32-2.44,6.73-6.94,8.41-11.44,1.05-2.72,1.93-5.49,2.73-8.29,1.08-3.67,2-7.38,2.9-11.09a71.17,71.17,0,0,1,4-10.71c.3-.59.6-1.17.95-1.73a4.09,4.09,0,0,1,.71-.88c1.23-1.17,2.51-.44,3.22.92a6,6,0,0,1,.45,1,23.45,23.45,0,0,1,1.19,5.16c.06,1.06.33,2.1.44,3.15s.27,2.31.39,3.47a114.07,114.07,0,0,1,.39,12.13" transform="translate(-284.15 -263.11)" style="fill:#231f20"/><path d="M385.75,339.09l.81.34c-1.76-.31-3.48-.77-5.22-1.13l-5.42-1.15-.49-.1c-1.13-.24-2.29-.44-3.44-.67a33.34,33.34,0,0,1,5.43.62,49.41,49.41,0,0,1,8.33,2.1" transform="translate(-284.15 -263.11)" style="fill:#231f20"/><path d="M411.49,324.58a20.85,20.85,0,0,1-.41,2.14,48.42,48.42,0,0,0,.19-5.57,22.25,22.25,0,0,0-.31-3.37c-.1-.51-.71-2.63-.9-3.21a11.54,11.54,0,0,1,1.71,6,24.21,24.21,0,0,1-.28,4" transform="translate(-284.15 -263.11)" style="fill:#231f20"/><path d="M403.73,331.68c-.52.21-1.07.37-1.59.58a42.62,42.62,0,0,1-8.91,2.38,4.56,4.56,0,0,1-2.89-.31,3.08,3.08,0,0,0,1.73-.65,1.61,1.61,0,0,1-.45,0h-.4a9.88,9.88,0,0,0-2.09.29,3.3,3.3,0,0,0-2,1.48c0-.07.21-.14.28-.18l.32-.18a3.2,3.2,0,0,1,.69-.27,1.14,1.14,0,0,1,1.05.22,14.5,14.5,0,0,0,2,1.49,12.9,12.9,0,0,0,4.1,1.24,13.92,13.92,0,0,0,2.13.22,3.42,3.42,0,0,0,1.8-.43,5,5,0,0,0,1.13-1.12c.43-.51.82-1.06,1.23-1.58a31.86,31.86,0,0,1,2.68-3.32,3.72,3.72,0,0,1,.64-.58,12.34,12.34,0,0,1-1.52.75m-.17.49c-.8.74-1.65,1.43-2.47,2.16a2.34,2.34,0,0,0-.6.61c-.14.27-.1.58-.21.86a2.59,2.59,0,0,1-.52.75,1.74,1.74,0,0,1-1.28.6,10.6,10.6,0,0,1-5.4-.55A3.36,3.36,0,0,1,392,336a.13.13,0,0,1,.1-.21,4.87,4.87,0,0,0,1.24-.1,3.92,3.92,0,0,1-1.28-.35,35.15,35.15,0,0,0,11.05-3.18c.25-.12.51-.22.76-.34a4.17,4.17,0,0,0-.31.31" transform="translate(-284.15 -263.11)" style="fill:#231f20"/><path d="M391.1,322.42a6.09,6.09,0,0,0-5.73-3.68A7.63,7.63,0,0,0,377.7,325c-.41,2.79,1,4.87,3.39,6.17a9.52,9.52,0,0,0-2.85.93c.53-.07,3-.48,3.76-.51a21.87,21.87,0,0,1,2.26,0,22.66,22.66,0,0,0,4.76-.07c1.86-.28,2.87-2.05,3.1-3.76a9.22,9.22,0,0,0-1-5.29m-5.8,8.51c-1.14,0-2.28,0-3.43,0a2.11,2.11,0,0,1-1.35-.73c-2.44-2-2.23-5.68-.13-7.83a8.06,8.06,0,0,1,3.75-2.31,5.81,5.81,0,0,1,7.23,3.83,2.86,2.86,0,0,0-4.47-.57,4.7,4.7,0,0,0,.53,7.94h0a9,9,0,0,0-2.15-.35m6.19-1.82c-.85,1.48-3.16,2.66-4.65,1.39a4.07,4.07,0,0,1-1.37-2.53c-.33-2.06.89-4.55,3-5.08a2.66,2.66,0,0,1,2.66,1.05,4.82,4.82,0,0,1,.82,2.57,4.58,4.58,0,0,1-.46,2.61" transform="translate(-284.15 -263.11)" style="fill:#231f20"/><path d="M391.77,327.08c0,1.78-1.16,3.22-2.58,3.22s-2.58-1.44-2.58-3.22,1.16-3.22,2.58-3.22,2.58,1.44,2.58,3.22" transform="translate(-284.15 -263.11)" style="fill:#231f20"/><path d="M387.4,327.08a.8.8,0,1,1-.79-.79.79.79,0,0,1,.79.79" transform="translate(-284.15 -263.11)" style="fill:#fff"/><path d="M405,321.57a1.62,1.62,0,0,0-.17-.55c-.07,0,0,.24-.06.32a3.13,3.13,0,0,1-.09.42.55.55,0,0,1-.18.32c-.14-.36-.24-.72-.41-1.07a21.28,21.28,0,0,0-6.9-7.12,4.23,4.23,0,0,0-1.36-.65,3,3,0,0,0-.74-.09.51.51,0,0,0-.5.48,2.26,2.26,0,0,0,0,.6c.54,2.65,2.58,5.25,4,7,1.09,1.41,3.82,4.5,5.39,3.7a1.58,1.58,0,0,0,.85-1,6.08,6.08,0,0,0,.15-2.33m-6.65-2.41a1.19,1.19,0,0,0-.18,1.4c-.58-1-3.93-5.5-1.86-5.75a2,2,0,0,1,.74.08,8.39,8.39,0,0,1,1.38.61,15.57,15.57,0,0,1,5.55,6h0a1.92,1.92,0,0,0-.2-.25,8.45,8.45,0,0,0-.71-.75,7.37,7.37,0,0,0-1-.83,6.36,6.36,0,0,0-.74-.42c-.77-.4-2.29-.75-3-.06m5.89,5a1.06,1.06,0,0,1-1.08.6s-.14-.06-.18-.05a1.25,1.25,0,0,0,1-.93c.36-1.68-1.71-3.62-3.24-3.95-.51-.12-1.44-.17-1.77.34a1.44,1.44,0,0,0,.23,1.56l0,0,0,0a3.28,3.28,0,0,1-.52-.74,1.25,1.25,0,0,1,1-1.8,4.13,4.13,0,0,1,2.39.74c1.25.82,3,2.63,2.16,4.23" transform="translate(-284.15 -263.11)" style="fill:#231f20"/><path d="M401.06,321.86a.67.67,0,1,1-.67-.67.67.67,0,0,1,.67.67" transform="translate(-284.15 -263.11)" style="fill:#fff"/><path d="M482,361.25a22.93,22.93,0,0,1-16.6,15.15c0-.11,0-.78,1.35-2.4a34.06,34.06,0,0,1-5.15,1s1.84,1,1.69,1.77a22.92,22.92,0,0,1-20.84-8.23c.21-.13,1.39-.58,6.4.93a40,40,0,0,1-2.37-4.33s-3.08,3.64-6.74-.77a23,23,0,0,1-1.84-15.55c1.6-4.86,4.62-4.91,4.62-4.91a27.41,27.41,0,0,1,.95-3.83,29.23,29.23,0,0,0-4.44,5.23,22.94,22.94,0,0,1,38.06-6.8,35.49,35.49,0,0,0-5.72-3.37,23.94,23.94,0,0,1,2.25,3.12,4.73,4.73,0,0,1,4.35,1.27,23,23,0,0,1,5,17.83c-1.87,3.84-5.25,2.13-5.25,2.13a35.28,35.28,0,0,1-.84,4.81c4.45-3.57,5.07-3.24,5.16-3" transform="translate(-284.15 -263.11)" style="fill:#cecccf"/><path d="M477.72,359.48a4.05,4.05,0,0,0,1.09.33,17.24,17.24,0,0,0,.56-18.43,22.42,22.42,0,0,0-1.37-1.85,4.73,4.73,0,0,0-4.35-1.27,24.12,24.12,0,0,0-2.25-3.12,35.47,35.47,0,0,1,5.72,3.37,22.93,22.93,0,0,0-36,3,18.06,18.06,0,0,0-1.3,2.79,27,27,0,0,1,3.72-4.21,27.3,27.3,0,0,0-.95,3.83,4.61,4.61,0,0,0-3.34,2.26,17.07,17.07,0,0,0-.47,4c0,10.54,9.63,19.08,21.51,19.08a22.5,22.5,0,0,0,17.18-7.59,15.27,15.27,0,0,0,.28-2.15" transform="translate(-284.15 -263.11)" style="fill:#fff"/><path d="M455.54,332.65a8.72,8.72,0,0,0-2.55-.25,49.24,49.24,0,0,0-8.69,6.88,17.48,17.48,0,0,1,2.83.23s1.18-4.89,8.41-6.86" transform="translate(-284.15 -263.11)" style="fill:#231f20"/><path d="M454.41,353.73a12.28,12.28,0,0,1,12.15-2.3s-.64-3.38-1-5.07a14,14,0,0,1-12.18,2.06s.8,3.8,1.07,5.3" transform="translate(-284.15 -263.11)" style="fill:#231f20"/><path d="M467.85,335.68s1.63-.83,2.38-1.08c0,0-7.47-3.2-11-3.36a7.49,7.49,0,0,0-2,1.18,11.72,11.72,0,0,1,10.68,3.27" transform="translate(-284.15 -263.11)" style="fill:#231f20"/><path d="M466.51,345.66a34.34,34.34,0,0,1,4.83,2s-1.64-6.11,1.74-9.17a34.71,34.71,0,0,0-4.62-2s3.13,4.55-2,9.15" transform="translate(-284.15 -263.11)" style="fill:#231f20"/><path d="M452.24,348.09c-6.45-2.67-5.27-7.63-5.27-7.63a34.75,34.75,0,0,0-3.73,3.65c3.84.53,5.39,7.59,5.39,7.59a48.79,48.79,0,0,1,3.61-3.61" transform="translate(-284.15 -263.11)" style="fill:#231f20"/><path d="M471.47,348.89s-3.16,2.59-3.71,3.11c0,0,6.06,2.37,5.57,10.14A23.71,23.71,0,0,0,477,359s-3.9-2.64-5.5-10.14" transform="translate(-284.15 -263.11)" style="fill:#231f20"/><path d="M473.25,363.11l-.18-.13-.06.22a11.45,11.45,0,0,1-8.47,8.34l-.36.09.32.19s1.86,1.15,2.64,1.57l.1,0,.08-.09s3.78-3.85,8.74-8.23l.15-.13-.17-.12Z" transform="translate(-284.15 -263.11)" style="fill:#231f20"/><path d="M453.55,354.53S449.34,353,448.8,353c0,0,1.37,6.42-1.8,11.5,0,0,2.11.63,4.76,1.52,0,0-3.32-5.59,1.8-11.5" transform="translate(-284.15 -263.11)" style="fill:#231f20"/><path d="M452.18,366.88a23.53,23.53,0,0,1-2.34,2.94A75,75,0,0,1,461,374.58a15.05,15.05,0,0,0,2.26-2.69s-7.58,1.11-11.08-5" transform="translate(-284.15 -263.11)" style="fill:#231f20"/><path d="M460.26,330.26A23.74,23.74,0,1,0,484,354a23.74,23.74,0,0,0-23.74-23.74m21.78,31a22.93,22.93,0,0,1-16.6,15.15c0-.11,0-.78,1.35-2.4a34.06,34.06,0,0,1-5.15,1s1.84,1,1.69,1.77a22.92,22.92,0,0,1-20.84-8.23c.21-.13,1.39-.58,6.4.93a40.51,40.51,0,0,1-2.37-4.33s-3.08,3.64-6.74-.77a23,23,0,0,1-1.84-15.55c1.6-4.86,4.62-4.91,4.62-4.91a27.41,27.41,0,0,1,.95-3.83,29.35,29.35,0,0,0-4.44,5.23,22.94,22.94,0,0,1,38.06-6.8,35.54,35.54,0,0,0-5.71-3.37,24,24,0,0,1,2.25,3.12,4.73,4.73,0,0,1,4.35,1.27,23,23,0,0,1,5,17.83c-1.87,3.84-5.25,2.13-5.25,2.13a35.28,35.28,0,0,1-.84,4.81c4.45-3.57,5.07-3.24,5.16-3" transform="translate(-284.15 -263.11)" style="fill:#231f20"/><path d="M385.77,447.27a2.73,2.73,0,1,1,2.73,2.7,2.7,2.7,0,0,1-2.73-2.7m5,0a2.32,2.32,0,1,0-2.32,2.37,2.29,2.29,0,0,0,2.32-2.37m-3.76,0v-.06a1.4,1.4,0,0,1,1.45-1.46,1.16,1.16,0,0,1,1.32,1.09H389a.48.48,0,0,0-.53-.47c-.4,0-.64.3-.64.85v.05c0,.54.23.84.66.84a.53.53,0,0,0,.58-.5h.75a1.18,1.18,0,0,1-1.32,1.12,1.34,1.34,0,0,1-1.48-1.45" transform="translate(-284.15 -263.11)" style="fill:#231f20"/><polygon points="109.56 181.57 112.88 181.57 112.88 182.49 110.73 182.49 110.73 183.86 112.43 183.86 112.43 184.74 110.73 184.74 110.73 186.75 109.56 186.75 109.56 181.57" style="fill:#231f20"/><rect x="113.69" y="181.58" width="1.18" height="5.17" style="fill:#231f20"/><polygon points="116.01 181.57 119.33 181.57 119.33 182.49 117.19 182.49 117.19 183.86 118.89 183.86 118.89 184.74 117.19 184.74 117.19 186.75 116.01 186.75 116.01 181.57" style="fill:#231f20"/><path d="M405.16,444.68h1.53l1.68,5.17h-1.22l-.35-1.15h-1.88l-.35,1.15h-1.1Zm0,3.19h1.37l-.68-2.23Z" transform="translate(-284.15 -263.11)" style="fill:#231f20"/><polygon points="127.54 182.49 126.15 182.49 126.15 181.57 130.12 181.57 130.12 182.49 128.72 182.49 128.72 186.75 127.54 186.75 127.54 182.49" style="fill:#231f20"/><polygon points="130.85 181.57 132.4 181.57 133.6 184.79 134.8 181.57 136.32 181.57 136.32 186.75 135.15 186.75 135.15 183.12 133.72 186.75 133.34 186.75 131.9 183.12 131.9 186.75 130.85 186.75 130.85 181.57" style="fill:#231f20"/></svg>